<svg width="43" height="39" viewBox="0 0 43 39" fill="none" xmlns="http://www.w3.org/2000/svg">
<path d="M11.1008 1.15278C12.1666 -0.0545591 14.0222 -0.0665053 15.1609 1.07223C16.0797 1.991 16.2657 3.4089 15.6469 4.55139C14.3264 6.98903 13.1439 9.42666 12.0992 11.8643C10.7797 14.833 10.0101 17.7467 9.79018 20.6054L11.0736 20.8878C15.14 21.7824 18.0365 25.3854 18.0365 29.5491V30.3211C18.0365 34.7926 14.4116 38.4175 9.94012 38.4175C4.57429 38.4175 0.224426 34.0677 0.224426 28.7018V26.8726C0.224426 20.0557 1.54384 14.5581 4.18267 10.38C6.35179 6.99612 8.65785 3.9204 11.1008 1.15278ZM35.8399 1.15278C36.9056 -0.0545581 38.7612 -0.0665054 39.9 1.07223C40.8187 1.991 41.0047 3.4089 40.3859 4.55139C39.0654 6.98903 37.8829 9.42666 36.8382 11.8643C35.5188 14.833 34.7491 17.7467 34.5292 20.6054L35.8126 20.8878C39.879 21.7824 42.7755 25.3854 42.7755 29.5491C42.7755 34.447 38.7862 38.4175 33.8883 38.4175C28.9697 38.4175 24.9635 34.4302 24.9635 29.5115V26.8726C24.9635 20.0557 26.2829 14.5581 28.9217 10.38C31.0908 6.99612 33.3969 3.9204 35.8399 1.15278Z" fill="url(#paint0_linear_0_647)"/>
<defs>
<linearGradient id="paint0_linear_0_647" x1="21.5" y1="-1" x2="21.5" y2="38.4175" gradientUnits="userSpaceOnUse">
<stop stop-color="#855AF3"/>
<stop offset="1" stop-color="#EC945F"/>
</linearGradient>
</defs>
</svg>
