<svg width="242" height="64" viewBox="0 0 242 64" fill="none" xmlns="http://www.w3.org/2000/svg">
<g id="Microdose 3">
<g id="Group">
<g id="Group_2">
<g id="MICRODOSE MUSE">
<path id="Vector" d="M228.402 28.5314V16.1758H237.076V16.8642H230.155V21.877H236.55V22.5654H230.155V27.843H237.251V28.5314H228.402Z" fill="white"/>
<path id="Vector_2" d="M218.388 18.7357C218.388 20.2007 219.614 20.7302 221.875 21.701C224.433 22.813 225.73 23.6073 225.73 25.496C225.73 27.4905 224.293 28.6731 221.279 28.6731C218.072 28.6731 216.373 27.2964 216.285 24.8429H218.037C218.037 26.608 219.124 28.0377 221.332 28.0377C222.768 28.0377 223.977 27.4376 223.977 25.9373C223.977 24.5958 223.031 24.1722 220.298 22.9013C218.09 21.8775 216.653 21.2245 216.653 19.2299C216.653 17.253 218.002 16.0527 220.929 16.0527C223.89 16.0527 225.449 17.2883 225.484 19.53H223.715C223.715 17.8178 222.786 16.7235 220.946 16.6882C219.334 16.6529 218.388 17.4472 218.388 18.7357Z" fill="white"/>
<path id="Vector_3" d="M213.212 23.9422V16.1758H213.913V23.8539C213.913 26.731 212.091 28.6726 209.024 28.6726C205.993 28.6726 203.75 26.784 203.75 23.8539V16.1758H205.502V23.9422C205.502 26.6075 207.395 27.9842 209.48 27.9842C211.442 27.9842 213.212 26.7663 213.212 23.9422Z" fill="white"/>
<path id="Vector_4" d="M189.631 16.1758L194.274 26.1839L198.795 16.264V16.1758H200.547V28.5314H198.795V17.9762L194.309 28.0019H193.241L188.509 17.9938V28.5314H187.809V16.1758H189.631Z" fill="white"/>
<path id="Vector_5" d="M171.672 28.5314V16.1758H180.345V16.8642H173.424V21.877H179.82V22.5654H173.424V27.843H180.521V28.5314H171.672Z" fill="white"/>
<path id="Vector_6" d="M161.657 18.7357C161.657 20.2007 162.884 20.7302 165.144 21.701C167.703 22.813 168.999 23.6073 168.999 25.496C168.999 27.4905 167.562 28.6731 164.549 28.6731C161.342 28.6731 159.642 27.2964 159.555 24.8429H161.307C161.307 26.608 162.393 28.0377 164.601 28.0377C166.038 28.0377 167.247 27.4376 167.247 25.9373C167.247 24.5958 166.301 24.1722 163.567 22.9013C161.359 21.8775 159.923 21.2245 159.923 19.2299C159.923 17.253 161.272 16.0527 164.198 16.0527C167.159 16.0527 168.719 17.2883 168.754 19.53H166.984C166.984 17.8178 166.056 16.7235 164.216 16.6882C162.604 16.6529 161.657 17.4472 161.657 18.7357Z" fill="white"/>
<path id="Vector_7" d="M145.211 22.3541C145.211 18.7357 147.839 16.0527 151.431 16.0527C155.023 16.0527 157.652 18.7357 157.652 22.3541C157.652 25.9726 155.023 28.6731 151.431 28.6731C147.839 28.6731 145.211 25.9726 145.211 22.3541ZM147.033 22.3541C147.033 25.6901 148.908 28.0377 151.431 28.0377C153.972 28.0377 155.847 25.6901 155.847 22.3541C155.847 19.0181 153.972 16.6882 151.431 16.6882C148.908 16.6882 147.033 19.0181 147.033 22.3541Z" fill="white"/>
<path id="Vector_8" d="M132.723 28.5314V16.1758H136.735C140.327 16.1758 143.219 18.6646 143.219 22.4595C143.219 25.9014 140.853 28.5314 137.261 28.5314H132.723ZM136.735 16.8642H134.475V27.843H137.261C139.556 27.843 141.396 25.7426 141.396 22.4772C141.396 19.0529 139.416 16.8642 136.735 16.8642Z" fill="white"/>
<path id="Vector_9" d="M117.562 22.3541C117.562 18.7357 120.191 16.0527 123.783 16.0527C127.375 16.0527 130.003 18.7357 130.003 22.3541C130.003 25.9726 127.375 28.6731 123.783 28.6731C120.191 28.6731 117.562 25.9726 117.562 22.3541ZM119.385 22.3541C119.385 25.6901 121.26 28.0377 123.783 28.0377C126.324 28.0377 128.199 25.6901 128.199 22.3541C128.199 19.0181 126.324 16.6882 123.783 16.6882C121.26 16.6882 119.385 19.0181 119.385 22.3541Z" fill="white"/>
<path id="Vector_10" d="M106.898 28.5314V16.1758H111.121C113.82 16.1758 115.625 17.4643 115.625 19.6177C115.625 21.3828 114.451 22.5478 112.576 22.9184L116.29 28.5314H114.398L110.771 23.0596H108.651V28.5314H106.898ZM110.683 16.8642H108.651V22.3713H110.701C112.593 22.3713 113.802 21.4181 113.802 19.6354C113.802 17.8526 112.593 16.8642 110.683 16.8642Z" fill="white"/>
<path id="Vector_11" d="M102.592 24.8429H104.344C103.854 27.4729 101.768 28.6731 99.0524 28.6731C94.8295 28.6731 92.7969 25.8137 92.7969 22.3188C92.7969 18.7357 94.9171 16.0527 98.8947 16.0527C101.541 16.0527 103.801 17.2177 104.186 19.9359H102.434C102.189 17.9414 100.84 16.6882 98.8246 16.6882C95.8283 16.6882 94.6192 19.53 94.6192 22.3365C94.6192 25.3195 96.021 28.0377 98.9297 28.0377C100.805 28.0377 102.259 26.961 102.592 24.8429Z" fill="white"/>
<path id="Vector_12" d="M88.2422 28.5314V16.1758H89.9944V28.5314H88.2422Z" fill="white"/>
<path id="Vector_13" d="M73.9122 16.1758L78.5556 26.1839L83.0764 16.264V16.1758H84.8286V28.5314H83.0764V17.9762L78.5907 28.0019H77.5218L72.7907 17.9938V28.5314H72.0898V16.1758H73.9122Z" fill="white"/>
</g>
<g id="COACHING">
<path id="Vector_14" d="M171.419 42.7726C171.331 42.5028 171.216 42.261 171.073 42.0473C170.932 41.8309 170.764 41.6465 170.568 41.4943C170.374 41.342 170.154 41.2258 169.907 41.1456C169.661 41.0655 169.39 41.0254 169.096 41.0254C168.613 41.0254 168.174 41.151 167.779 41.4021C167.384 41.6532 167.069 42.0232 166.836 42.5121C166.603 43.001 166.486 43.6008 166.486 44.3114C166.486 45.022 166.604 45.6218 166.84 46.1107C167.076 46.5996 167.396 46.9696 167.799 47.2207C168.202 47.4718 168.655 47.5974 169.159 47.5974C169.626 47.5974 170.037 47.4972 170.393 47.2968C170.751 47.0938 171.029 46.8079 171.228 46.4393C171.429 46.0679 171.53 45.6311 171.53 45.1289L171.833 45.193H169.382V44.3114H172.485V45.193C172.485 45.8689 172.342 46.4566 172.055 46.9562C171.772 47.4558 171.379 47.8432 170.878 48.1183C170.379 48.3908 169.806 48.5271 169.159 48.5271C168.438 48.5271 167.804 48.3561 167.258 48.0141C166.714 47.6722 166.29 47.186 165.985 46.5555C165.682 45.925 165.531 45.177 165.531 44.3114C165.531 43.6622 165.617 43.0785 165.79 42.5602C165.965 42.0392 166.212 41.5958 166.53 41.2298C166.848 40.8638 167.225 40.5833 167.66 40.3882C168.094 40.1932 168.573 40.0957 169.096 40.0957C169.525 40.0957 169.926 40.1612 170.297 40.2921C170.671 40.4203 171.004 40.6033 171.296 40.8411C171.59 41.0762 171.835 41.358 172.032 41.6866C172.228 42.0125 172.363 42.3745 172.437 42.7726H171.419Z" fill="white"/>
<path id="Vector_15" d="M163.875 40.207V48.414H162.92L158.48 41.9702H158.401V48.414H157.414V40.207H158.369L162.824 46.6668H162.904V40.207H163.875Z" fill="white"/>
<path id="Vector_16" d="M155.432 40.207V48.414H154.445V40.207H155.432Z" fill="white"/>
<path id="Vector_17" d="M146.156 48.414V40.207H147.143V43.8617H151.487V40.207H152.474V48.414H151.487V44.7433H147.143V48.414H146.156Z" fill="white"/>
<path id="Vector_18" d="M144.558 42.7726H143.571C143.513 42.4867 143.411 42.2356 143.265 42.0192C143.122 41.8028 142.947 41.6211 142.74 41.4742C142.536 41.3246 142.309 41.2124 142.06 41.1376C141.81 41.0628 141.55 41.0254 141.28 41.0254C140.787 41.0254 140.34 41.151 139.939 41.4021C139.541 41.6532 139.224 42.0232 138.988 42.5121C138.755 43.001 138.638 43.6008 138.638 44.3114C138.638 45.022 138.755 45.6218 138.988 46.1107C139.224 46.5996 139.541 46.9696 139.939 47.2207C140.34 47.4718 140.787 47.5974 141.28 47.5974C141.55 47.5974 141.81 47.56 142.06 47.4852C142.309 47.4104 142.536 47.2995 142.74 47.1526C142.947 47.003 143.122 46.82 143.265 46.6036C143.411 46.3845 143.513 46.1334 143.571 45.8502H144.558C144.484 46.2696 144.348 46.645 144.152 46.9762C143.956 47.3075 143.712 47.5894 143.42 47.8218C143.128 48.0515 142.801 48.2265 142.437 48.3467C142.077 48.467 141.691 48.5271 141.28 48.5271C140.585 48.5271 139.967 48.3561 139.426 48.0141C138.885 47.6722 138.459 47.186 138.149 46.5555C137.839 45.925 137.684 45.177 137.684 44.3114C137.684 43.4458 137.839 42.6978 138.149 42.0673C138.459 41.4368 138.885 40.9506 139.426 40.6086C139.967 40.2667 140.585 40.0957 141.28 40.0957C141.691 40.0957 142.077 40.1558 142.437 40.276C142.801 40.3963 143.128 40.5726 143.42 40.805C143.712 41.0347 143.956 41.3153 144.152 41.6465C144.348 41.9751 144.484 42.3505 144.558 42.7726Z" fill="white"/>
<path id="Vector_19" d="M131.148 48.414H130.113L133.105 40.207H134.123L137.115 48.414H136.08L133.646 41.5054H133.582L131.148 48.414ZM131.529 45.2081H135.699V46.0898H131.529V45.2081Z" fill="white"/>
<path id="Vector_20" d="M129.54 44.3114C129.54 45.177 129.385 45.925 129.075 46.5555C128.764 47.186 128.339 47.6722 127.798 48.0141C127.257 48.3561 126.639 48.5271 125.944 48.5271C125.249 48.5271 124.631 48.3561 124.09 48.0141C123.549 47.6722 123.123 47.186 122.813 46.5555C122.503 45.925 122.348 45.177 122.348 44.3114C122.348 43.4458 122.503 42.6978 122.813 42.0673C123.123 41.4368 123.549 40.9506 124.09 40.6086C124.631 40.2667 125.249 40.0957 125.944 40.0957C126.639 40.0957 127.257 40.2667 127.798 40.6086C128.339 40.9506 128.764 41.4368 129.075 42.0673C129.385 42.6978 129.54 43.4458 129.54 44.3114ZM128.585 44.3114C128.585 43.6008 128.467 43.001 128.231 42.5121C127.998 42.0232 127.681 41.6532 127.281 41.4021C126.883 41.151 126.437 41.0254 125.944 41.0254C125.451 41.0254 125.004 41.151 124.603 41.4021C124.205 41.6532 123.889 42.0232 123.652 42.5121C123.419 43.001 123.302 43.6008 123.302 44.3114C123.302 45.022 123.419 45.6218 123.652 46.1107C123.889 46.5996 124.205 46.9696 124.603 47.2207C125.004 47.4718 125.451 47.5974 125.944 47.5974C126.437 47.5974 126.883 47.4718 127.281 47.2207C127.681 46.9696 127.998 46.5996 128.231 46.1107C128.467 45.6218 128.585 45.022 128.585 44.3114Z" fill="white"/>
<path id="Vector_21" d="M121.07 42.7726H120.083C120.025 42.4867 119.922 42.2356 119.777 42.0192C119.633 41.8028 119.458 41.6211 119.252 41.4742C119.047 41.3246 118.821 41.2124 118.571 41.1376C118.322 41.0628 118.062 41.0254 117.792 41.0254C117.298 41.0254 116.851 41.151 116.451 41.4021C116.053 41.6532 115.736 42.0232 115.5 42.5121C115.267 43.001 115.15 43.6008 115.15 44.3114C115.15 45.022 115.267 45.6218 115.5 46.1107C115.736 46.5996 116.053 46.9696 116.451 47.2207C116.851 47.4718 117.298 47.5974 117.792 47.5974C118.062 47.5974 118.322 47.56 118.571 47.4852C118.821 47.4104 119.047 47.2995 119.252 47.1526C119.458 47.003 119.633 46.82 119.777 46.6036C119.922 46.3845 120.025 46.1334 120.083 45.8502H121.07C120.995 46.2696 120.86 46.645 120.664 46.9762C120.467 47.3075 120.224 47.5894 119.932 47.8218C119.64 48.0515 119.313 48.2265 118.949 48.3467C118.588 48.467 118.203 48.5271 117.792 48.5271C117.097 48.5271 116.479 48.3561 115.938 48.0141C115.397 47.6722 114.971 47.186 114.661 46.5555C114.35 45.925 114.195 45.177 114.195 44.3114C114.195 43.4458 114.35 42.6978 114.661 42.0673C114.971 41.4368 115.397 40.9506 115.938 40.6086C116.479 40.2667 117.097 40.0957 117.792 40.0957C118.203 40.0957 118.588 40.1558 118.949 40.276C119.313 40.3963 119.64 40.5726 119.932 40.805C120.224 41.0347 120.467 41.3153 120.664 41.6465C120.86 41.9751 120.995 42.3505 121.07 42.7726Z" fill="white"/>
</g>
</g>
<g id="Group_3">
<g id="Group_4">
<g id="Group_5">
<g id="Group_6">
<g id="Group_7">
<path id="Vector_22" d="M31.955 37.4635C32.0194 37.1003 31.9486 36.7372 31.8584 36.3871C31.7683 36.0369 31.6396 35.6803 31.5752 35.3107C31.4465 34.5714 31.4722 33.7998 31.6718 33.0735C31.6975 32.9828 31.7168 32.8985 31.7748 32.7882C31.8327 32.691 31.9099 32.6196 31.9936 32.5613C32.1546 32.4446 32.3219 32.3732 32.4507 32.263C32.7339 32.0231 33.03 31.7961 33.3454 31.6081C33.6609 31.42 34.0085 31.2579 34.3754 31.1931C34.7423 31.1347 35.1285 31.1412 35.489 31.2774C35.8495 31.4071 36.1713 31.6859 36.3387 32.0425C36.5125 32.3992 36.5705 32.7818 36.6026 33.1514C36.6541 33.8906 36.77 34.6039 36.9631 35.3042C37.0532 35.6543 37.1755 35.998 37.2979 36.3417C37.4266 36.6854 37.5811 37.0031 37.7356 37.3468C37.8128 37.5218 37.8772 37.7034 37.9094 37.8914C37.9416 38.0795 37.9416 38.287 37.8772 38.475C37.8193 38.6631 37.7034 38.8317 37.5425 38.9419C37.4588 38.9938 37.3687 39.0327 37.2721 39.0457C37.2206 39.0521 37.182 39.0521 37.1434 39.0716C37.1047 39.0846 37.0661 39.117 37.0854 39.1494C37.0919 39.1559 37.0854 39.1624 37.079 39.1689C37.0726 39.1689 37.0661 39.1689 37.0597 39.1624C37.0404 39.1429 37.0404 39.104 37.0597 39.0781C37.079 39.0521 37.0983 39.0392 37.1176 39.0262C37.1562 39.0003 37.2142 38.9873 37.2528 38.9808C37.3365 38.9614 37.4137 38.9225 37.4781 38.8641C37.6133 38.7539 37.6905 38.5918 37.7356 38.4232C37.8257 38.086 37.6905 37.7358 37.536 37.4181C37.3751 37.1004 37.1949 36.7632 37.0468 36.4195C36.8988 36.0758 36.7764 35.7192 36.6734 35.3625C36.5769 34.9994 36.4932 34.6363 36.4417 34.2667C36.3902 33.8971 36.3645 33.521 36.3387 33.1578C36.313 32.7947 36.2679 32.4381 36.1327 32.1203C35.9975 31.8026 35.7465 31.5432 35.4182 31.4006C35.0963 31.2579 34.7294 31.2125 34.3754 31.2709C34.0213 31.3293 33.6802 31.4719 33.3776 31.6664C33.0686 31.861 32.7983 32.1074 32.5344 32.3603C32.3927 32.4964 32.2189 32.5872 32.0902 32.691C32.0258 32.7428 31.9679 32.8012 31.9421 32.8661C31.9164 32.9244 31.8971 33.0217 31.8778 33.106C31.7168 33.8063 31.6718 34.539 31.7683 35.2588C31.8134 35.6154 31.9099 35.9721 31.9808 36.3352C32.0516 36.6983 32.0838 37.0939 31.9679 37.4505C31.9679 37.457 31.955 37.4635 31.9486 37.457C31.9614 37.4764 31.955 37.47 31.955 37.4635Z" fill="white"/>
<path id="Vector_23" d="M31.8653 36.1498C31.9103 36.3638 31.8781 36.5842 31.8202 36.7917C31.7623 36.9992 31.6657 37.1938 31.5434 37.3689C31.4211 37.5439 31.2666 37.6866 31.1379 37.8487C31.0091 38.0108 30.8997 38.1859 30.8225 38.3739C30.7516 38.562 30.7066 38.75 30.7259 38.9186C30.7452 39.0872 30.8546 39.2299 30.9834 39.3596C31.2473 39.6254 31.5949 39.8264 31.9876 39.9432C31.994 39.9432 32.0005 39.9561 31.994 39.9626C31.994 39.9691 31.9876 39.9691 31.9811 39.9756C31.5563 40.0274 31.1057 39.8718 30.7774 39.5735C30.6165 39.4244 30.4748 39.1974 30.462 38.9446C30.4491 38.6917 30.5585 38.4777 30.6808 38.3091C30.8031 38.134 30.9448 37.9784 31.0542 37.8033C31.1636 37.6282 31.2473 37.4337 31.3374 37.2521C31.5305 36.8955 31.7108 36.5583 31.8267 36.1498C31.8267 36.1433 31.8395 36.1368 31.846 36.1433C31.8588 36.1368 31.8653 36.1433 31.8653 36.1498Z" fill="white"/>
<path id="Vector_24" d="M30.7539 39.3456C30.7925 39.1964 30.8891 39.0603 31.0114 38.9565C31.1273 38.8528 31.2689 38.775 31.4169 38.7166C31.7066 38.6064 32.0285 38.561 32.3375 38.6064C32.6464 38.6518 32.9361 38.775 33.2 38.9241C33.3288 38.9954 33.4704 39.0732 33.5798 39.0149C33.6313 38.9889 33.6764 38.9306 33.7214 38.8722C33.7665 38.8139 33.8244 38.749 33.8888 38.6971C34.1334 38.4896 34.5003 38.4053 34.8158 38.5091C34.9638 38.5545 35.0926 38.5999 35.1956 38.5804C35.305 38.5675 35.4209 38.5091 35.5432 38.4313C35.6719 38.36 35.8071 38.2692 35.9809 38.2303C36.1547 38.1914 36.3156 38.2043 36.4637 38.2238C36.6117 38.2432 36.7598 38.2821 36.895 38.2886C37.0366 38.3016 37.1782 38.2886 37.3005 38.2108C37.3069 38.2043 37.3134 38.2108 37.3198 38.2173C37.3198 38.2238 37.3198 38.2303 37.3198 38.2368C37.2168 38.3535 37.0559 38.4183 36.9014 38.4313C36.7469 38.4507 36.5924 38.4443 36.4444 38.4443C36.2963 38.4443 36.1611 38.4507 36.0453 38.4896C35.9294 38.5286 35.8135 38.6064 35.6848 38.6842C35.556 38.762 35.4015 38.8528 35.2149 38.8657C35.0217 38.8787 34.8608 38.8009 34.7321 38.7555C34.4875 38.6647 34.2042 38.6842 33.9661 38.8203C33.9081 38.8528 33.8566 38.8982 33.8051 38.95C33.7536 39.0019 33.6957 39.0668 33.612 39.0992C33.5283 39.1316 33.4382 39.1251 33.361 39.0992C33.2837 39.0732 33.2193 39.0343 33.155 39.0019C32.891 38.8722 32.5949 38.8333 32.3181 38.8268C32.0349 38.8204 31.7517 38.8398 31.4813 38.9176C31.2109 38.9954 30.9535 39.1186 30.7797 39.3585C30.7732 39.365 30.7668 39.365 30.7603 39.365C30.7539 39.3586 30.7539 39.3521 30.7539 39.3456Z" fill="white"/>
<path id="Vector_25" d="M32.088 38.5814C31.9464 40.8704 31.7404 43.1529 31.4894 45.4289L31.3864 46.2849C31.3478 46.5702 31.322 46.8555 31.2512 47.1408C31.1868 47.4326 31.0581 47.692 30.9809 47.9578C30.8972 48.2237 30.8843 48.5155 31.0259 48.7489C31.1675 48.9823 31.4057 49.1509 31.6374 49.3066C31.8756 49.4622 32.1202 49.6048 32.3713 49.7345C32.8734 49.9939 33.4141 50.1884 33.9677 50.2598C34.2445 50.2987 34.5213 50.2922 34.7917 50.2468C35.062 50.1949 35.3195 50.0977 35.5384 49.942C35.9825 49.6373 36.2722 49.138 36.4524 48.6127C36.6391 48.0875 36.7292 47.5234 36.8065 46.9657C36.8837 46.4016 36.9674 45.8374 37.0125 45.2733C37.1026 44.1385 37.1026 42.9973 37.0447 41.856C36.9867 40.7148 36.8837 39.5735 36.7679 38.4388C36.7679 38.4323 36.7743 38.4258 36.7807 38.4258C36.7872 38.4258 36.7936 38.4323 36.7936 38.4388C37.1863 40.6888 37.4631 42.9908 37.2893 45.2992C37.2442 45.8763 37.1734 46.447 37.0833 47.0111C36.9932 47.5817 36.8902 48.1523 36.6842 48.7035C36.4911 49.2547 36.1628 49.7929 35.6542 50.1236C35.4032 50.2922 35.1135 50.383 34.8174 50.4284C34.5213 50.4673 34.2316 50.4543 33.9419 50.4089C33.369 50.3181 32.8348 50.0782 32.3262 49.8188C32.0752 49.6827 31.8241 49.5335 31.5924 49.3714C31.3606 49.2028 31.1096 49.0472 30.9422 48.7943C30.865 48.6646 30.8135 48.5155 30.8135 48.3663C30.807 48.2172 30.8328 48.0681 30.8714 47.9254C30.9422 47.6401 31.0517 47.3742 31.1032 47.1019C31.1547 46.8295 31.1675 46.5442 31.1933 46.2589L31.2641 45.403C31.4765 43.1205 31.734 40.8445 32.0559 38.5749C32.0559 38.5684 32.0623 38.562 32.0687 38.562C32.088 38.5684 32.0945 38.5749 32.088 38.5814Z" fill="white"/>
<path id="Vector_26" d="M31.8794 36.0062C31.6412 36.2591 31.358 36.4666 31.0619 36.6417C30.7657 36.8168 30.4439 36.9594 30.1027 37.0437C29.7679 37.1475 29.4138 37.1734 29.0662 37.1864C28.8924 37.1734 28.7186 37.1734 28.5447 37.1475L28.2872 37.1021C28.2036 37.0891 28.1134 37.0697 28.0297 37.0437C27.8624 36.9854 27.6885 36.953 27.534 36.8816C27.3731 36.8103 27.2122 36.7519 27.0512 36.6676C26.8903 36.5833 26.7358 36.4601 26.6199 36.311C26.504 36.1553 26.4332 35.9737 26.3946 35.7922C26.3238 35.4225 26.401 35.0529 26.504 34.7157C26.6135 34.3785 26.768 34.0607 26.9418 33.7559C27.6563 32.5497 28.6477 31.564 29.6778 30.6562C30.7207 29.7548 31.8408 28.9442 33.0382 28.2632C34.2356 27.5823 35.5231 27.0376 36.8751 26.7458C37.551 26.5966 38.2398 26.5123 38.9415 26.5059C39.2892 26.5059 39.6432 26.5318 39.9909 26.6161C40.3385 26.7004 40.6926 26.856 40.9501 27.1608C41.0724 27.31 41.1625 27.4916 41.2012 27.6796C41.2398 27.8677 41.2398 28.0557 41.2205 28.2438C41.1754 28.6069 41.0466 28.9506 40.8857 29.2619C40.5703 29.891 40.1454 30.4551 39.6947 30.9804C38.7806 32.018 37.7184 32.9323 36.5339 33.6262C36.5274 33.6327 36.521 33.6262 36.5145 33.6197C36.5081 33.6133 36.5145 33.6068 36.521 33.6003C37.0939 33.2242 37.6218 32.7897 38.1304 32.3293C38.6325 31.8688 39.1025 31.3695 39.5402 30.8442C39.9716 30.319 40.3707 29.7548 40.6539 29.1517C40.7956 28.8469 40.9114 28.5291 40.9501 28.2114C40.9887 27.8936 40.9372 27.5694 40.7441 27.3424C40.5509 27.1089 40.2484 26.9728 39.9329 26.9014C39.6175 26.8236 39.2827 26.8042 38.948 26.7977C38.2785 26.7977 37.5961 26.869 36.933 27.0052C35.6068 27.2775 34.3257 27.7769 33.1155 28.4059C31.9052 29.0414 30.7657 29.8196 29.7486 30.7405C29.2336 31.1944 28.7572 31.6873 28.313 32.2125C27.8752 32.7378 27.4697 33.289 27.1413 33.8856C26.974 34.1839 26.8323 34.4887 26.7358 34.8065C26.6392 35.1242 26.5813 35.455 26.6328 35.7662C26.6843 36.0775 26.8774 36.3434 27.1607 36.4925C27.3023 36.5639 27.4632 36.6287 27.6177 36.7001C27.7722 36.7714 27.9332 36.8103 28.0941 36.8622C29.3752 37.2707 30.843 36.9076 31.873 36.0062C31.8794 35.9997 31.8859 35.9997 31.8923 36.0062C31.8794 35.9932 31.8794 35.9997 31.8794 36.0062Z" fill="white"/>
<path id="Vector_27" d="M31.3469 37.5886C30.8512 37.8869 30.3233 38.1269 29.7825 38.3149C29.2353 38.503 28.6752 38.6392 28.0958 38.6975C27.5229 38.7624 26.9306 38.73 26.3641 38.6133C25.7976 38.4836 25.244 38.2501 24.7612 37.9194C24.2719 37.5886 23.8599 37.1606 23.5058 36.6937C23.1582 36.2268 22.8427 35.734 22.6045 35.1957C22.3664 34.6575 22.2183 34.0609 22.2505 33.4643C22.2762 32.8612 22.4887 32.2905 22.759 31.7717C23.0294 31.2529 23.3706 30.786 23.6281 30.2802C23.7569 30.0273 23.8599 29.7679 23.9178 29.4956C23.9693 29.2167 24.0079 28.9314 24.053 28.646C24.2268 27.5047 24.4586 26.3634 24.8642 25.2739C25.2762 24.1909 25.862 23.1663 26.686 22.3492C27.5036 21.5257 28.54 20.9355 29.6344 20.5854C30.7224 20.2092 31.8619 19.9498 33.0271 19.9434L33.4648 19.9498C33.6129 19.9498 33.7545 19.9693 33.8962 19.9823C34.1859 20.0017 34.4691 20.0536 34.7588 20.099C35.3253 20.2157 35.8918 20.3584 36.4326 20.5529C37.527 20.9291 38.5699 21.4154 39.6257 21.8564L41.2093 22.5243C41.7372 22.7578 42.2715 22.9783 42.7672 23.322C42.896 23.3998 42.999 23.5165 43.1149 23.6138C43.2114 23.737 43.3209 23.8472 43.3917 23.9899C43.4239 24.0612 43.4754 24.1261 43.4947 24.1974L43.5719 24.4179C43.5977 24.4892 43.6041 24.5671 43.617 24.6384C43.6299 24.7162 43.6492 24.7875 43.6492 24.8654C43.7007 25.462 43.6363 26.0521 43.5526 26.6228C43.5397 26.7654 43.5011 26.9146 43.4689 27.0572C43.4303 27.1999 43.4174 27.3491 43.3659 27.4852L43.2179 27.9003C43.1986 27.9716 43.1664 28.0365 43.1342 28.1013L43.0376 28.3023C42.9217 28.5747 42.7479 28.8146 42.5999 29.0611C42.5162 29.1843 42.426 29.2945 42.3424 29.4112L42.2136 29.5863C42.1685 29.6447 42.117 29.6966 42.072 29.7485C41.3123 30.6369 40.4046 31.3632 39.4647 32.0246C38.5248 32.6926 37.5399 33.2827 36.5807 33.9182C36.5742 33.9247 36.5678 33.9182 36.5613 33.9117C36.5549 33.9052 36.5613 33.8988 36.5678 33.8923C37.5077 33.2308 38.4669 32.5953 39.3875 31.9079C39.851 31.5707 40.2952 31.2076 40.7265 30.8314C40.9325 30.6369 41.1514 30.4488 41.3445 30.2413L41.6406 29.9365L41.9175 29.6123C41.9625 29.5604 42.014 29.5085 42.0526 29.4502L42.175 29.2751C42.2587 29.1583 42.3423 29.0481 42.4196 28.9314C42.5612 28.6849 42.7222 28.4515 42.8316 28.1921L42.9217 27.9975C42.9539 27.9327 42.9797 27.8679 42.999 27.803L43.1342 27.4009C43.1792 27.2712 43.1985 27.1286 43.2307 26.9924C43.2565 26.8562 43.2887 26.72 43.3016 26.5774C43.3788 26.0132 43.4367 25.436 43.3852 24.8848C43.3402 24.3336 43.0762 23.8408 42.6063 23.5425C42.1557 23.2312 41.6213 23.0107 41.0999 22.7837C40.572 22.5632 40.0377 22.3428 39.5162 22.1158C38.4605 21.6618 37.424 21.169 36.3489 20.7929C35.8146 20.5918 35.2674 20.4492 34.7137 20.326C34.4369 20.2806 34.1601 20.2222 33.8768 20.1963C33.7352 20.1833 33.5936 20.1574 33.452 20.1574L33.0271 20.1444C31.8941 20.1314 30.7675 20.3649 29.6795 20.7151C28.5915 21.0458 27.5551 21.5905 26.7504 22.4076C26.3448 22.8097 25.9907 23.2636 25.6882 23.75C25.3856 24.2363 25.1474 24.7616 24.9478 25.2998C24.7547 25.8381 24.5938 26.3958 24.4779 26.9535C24.362 27.5177 24.2719 28.0883 24.2011 28.659C24.1624 28.9443 24.1367 29.2297 24.0852 29.5215C24.0337 29.8133 23.9243 30.0986 23.8019 30.358C23.5444 30.8833 23.2226 31.3632 22.965 31.869C22.7011 32.3683 22.5144 32.9066 22.4951 33.4643C22.4822 33.7431 22.5144 34.022 22.5724 34.2943C22.6303 34.5667 22.7204 34.8326 22.8299 35.092C23.0552 35.6108 23.3513 36.0971 23.6925 36.5511C24.0273 37.005 24.4264 37.42 24.8899 37.7378C25.3534 38.0556 25.8684 38.289 26.4156 38.4252C26.9628 38.5484 27.5358 38.5938 28.0958 38.5419C29.2289 38.4511 30.3361 38.0945 31.3469 37.5562C31.3533 37.5497 31.3597 37.5562 31.3662 37.5627C31.3533 37.5757 31.3533 37.5822 31.3469 37.5886Z" fill="white"/>
<path id="Vector_28" d="M31.0069 47.5304C30.8331 47.0571 30.537 46.655 30.183 46.3114C29.8289 45.9677 29.4169 45.7018 28.9857 45.4619C28.5544 45.222 28.0973 45.0145 27.6532 44.8005C27.2026 44.5865 26.7584 44.3726 26.3014 44.178C25.8443 43.99 25.3744 43.8214 24.8916 43.7111C24.4088 43.6009 23.9067 43.575 23.4111 43.5231C22.9154 43.4647 22.4069 43.3934 21.9434 43.1665C21.4864 42.9525 21.0486 42.5893 20.862 42.0771L21.0744 42.0122C21.1774 42.3754 21.2868 42.732 21.4349 43.0627C21.5829 43.3999 21.7825 43.7047 22.0206 43.977C22.5034 44.5152 23.1471 44.9172 23.8359 45.1377C24.5311 45.3647 25.2778 45.423 26.0117 45.3452C26.3786 45.3128 26.7455 45.2415 27.106 45.1442C27.4665 45.0534 27.8334 44.9432 28.2132 44.9172C28.2196 44.9172 28.2261 44.9237 28.2261 44.9302C28.2261 44.9367 28.2196 44.9432 28.2132 44.9432C27.8463 45.0145 27.4922 45.1442 27.1382 45.2674C26.7777 45.3841 26.4108 45.4814 26.031 45.5397C25.2778 45.65 24.4925 45.624 23.7458 45.4036C23.0055 45.1766 22.3103 44.7551 21.8018 44.1586C21.5443 43.8603 21.3383 43.5231 21.1902 43.16C21.0358 42.8033 20.9328 42.4272 20.8426 42.0576V42.0511C20.8298 41.9928 20.862 41.9344 20.9263 41.915C20.9843 41.902 21.0358 41.9344 21.0551 41.9863C21.2031 42.4337 21.57 42.7904 21.9949 43.0173C22.4262 43.2507 22.9154 43.3545 23.4111 43.4129C23.9067 43.4777 24.4024 43.5036 24.8981 43.5944C25.3937 43.6852 25.8765 43.8149 26.3529 43.9835C26.8292 44.1521 27.2927 44.3466 27.7433 44.5606C28.1939 44.7746 28.6509 44.9886 29.0822 45.2479C29.5199 45.5008 29.9319 45.8121 30.2795 46.1882C30.6271 46.5578 30.8975 47.0117 31.0198 47.5045C31.0198 47.511 31.0198 47.5175 31.0069 47.5239C31.0198 47.5369 31.0134 47.5369 31.0069 47.5304Z" fill="white"/>
<path id="Vector_29" d="M29.5409 45.61C29.2191 45.4479 28.9423 45.2015 28.7234 44.9097C28.5046 44.6179 28.3308 44.2937 28.2084 43.95C28.0861 43.6063 28.0025 43.2562 27.9316 42.906C27.8608 42.5559 27.8222 42.1992 27.7578 41.8555C27.6935 41.5119 27.5776 41.1812 27.4038 40.8764C27.23 40.5716 27.0047 40.2993 26.7472 40.0529C26.2387 39.5666 25.6143 39.2229 24.9834 38.9181L25.1057 38.7495C25.5177 39.158 25.8074 39.6833 25.9747 40.2345C26.0584 40.5133 26.1099 40.8051 26.1292 41.0904C26.1486 41.3757 26.1421 41.661 26.1485 41.9334C26.155 42.2057 26.1743 42.478 26.2451 42.7374C26.3159 42.9968 26.4318 43.2367 26.5798 43.4637C26.8695 43.9241 27.2751 44.3131 27.6677 44.7152C27.6742 44.7216 27.6742 44.7281 27.6677 44.7346C27.6613 44.7411 27.6548 44.7411 27.6484 44.7346C27.2042 44.3974 26.7601 44.0408 26.4125 43.5804C26.2387 43.347 26.0971 43.0876 26.0069 42.8087C25.9168 42.5299 25.8782 42.2316 25.8653 41.9463C25.8524 41.661 25.8524 41.3822 25.8331 41.1098C25.8138 40.8375 25.7752 40.5716 25.7044 40.3123C25.5628 39.7935 25.3053 39.3007 24.9448 38.8987L24.9384 38.8922C24.8997 38.8468 24.8997 38.7819 24.9448 38.743C24.977 38.7106 25.0285 38.7106 25.0671 38.7301C25.6915 39.0737 26.2837 39.4952 26.7923 39.988C27.3008 40.4873 27.7321 41.0904 27.9252 41.8037C28.1183 42.504 28.1827 43.2043 28.4016 43.8722C28.6075 44.5336 28.9616 45.1626 29.5345 45.5776C29.5409 45.5841 29.5409 45.5905 29.5409 45.597C29.5538 45.61 29.5474 45.6165 29.5409 45.61Z" fill="white"/>
<path id="Vector_30" d="M25.6625 43.7694C24.9287 43.4452 24.2463 43.0043 23.6348 42.479C23.3322 42.2132 23.0361 41.9408 22.7787 41.6101C22.5212 41.273 22.3731 40.8709 22.283 40.4754C22.0963 39.6908 22.0126 38.8867 21.6908 38.154C21.5298 37.7908 21.3239 37.4472 21.0471 37.1684C20.7767 36.8895 20.442 36.6626 20.075 36.5588C20.03 36.5459 19.9978 36.494 20.0107 36.4486C20.0235 36.4032 20.075 36.3708 20.1201 36.3837H20.1265C20.8153 36.5523 21.5041 36.7728 22.1414 37.1294C22.7787 37.4731 23.358 37.9724 23.7314 38.6208C23.918 38.9451 24.0532 39.3017 24.0983 39.6648C24.1562 40.028 24.1498 40.3976 24.1369 40.7542C24.1176 41.1109 24.0854 41.4675 24.079 41.8177C24.079 41.9927 24.079 42.1678 24.0983 42.3429C24.1047 42.4337 24.1176 42.518 24.1305 42.6087C24.1433 42.693 24.1691 42.7838 24.2399 42.8227C24.2463 42.8227 24.2528 42.8357 24.2463 42.8422C24.2463 42.8487 24.2335 42.8487 24.227 42.8487C24.1305 42.8162 24.0918 42.706 24.0661 42.6217C24.0468 42.5309 24.021 42.4466 24.0082 42.3559C23.976 42.1808 23.9567 41.9992 23.9438 41.8177C23.9245 41.461 23.9309 41.0979 23.9309 40.7477C23.9309 40.3911 23.918 40.0409 23.8537 39.7037C23.7893 39.3666 23.6605 39.0488 23.4867 38.757C23.1327 38.1734 22.6113 37.7001 22.0126 37.3564C21.414 37.0062 20.7509 36.7663 20.0815 36.5588L20.133 36.3837C20.5256 36.5264 20.8604 36.7858 21.1307 37.0905C21.4011 37.3953 21.6071 37.7455 21.768 38.1215C22.0899 38.8608 22.2572 39.6583 22.4825 40.4235C22.5984 40.7996 22.74 41.1627 22.9718 41.4675C23.1971 41.7723 23.4932 42.0511 23.7764 42.3234C24.3558 42.8616 24.993 43.335 25.6754 43.75C25.6818 43.7565 25.6818 43.763 25.6818 43.7694C25.6754 43.7694 25.6689 43.7759 25.6625 43.7694Z" fill="white"/>
<path id="Vector_31" d="M36.591 48.8402C37.0738 48.3538 37.4408 47.7766 37.7305 47.1671C38.0137 46.551 38.2197 45.9025 38.3871 45.2411C38.548 44.5796 38.6704 43.9052 38.8055 43.2372C38.9407 42.5628 39.0952 41.8949 39.3077 41.2334C39.5137 40.572 39.7905 39.9429 40.1188 39.3398C40.4471 38.7368 40.8205 38.1596 41.2583 37.6278C41.6896 37.0896 42.166 36.5968 42.6939 36.1493C42.9578 35.9288 43.2282 35.7148 43.5179 35.5268C43.6595 35.4295 43.8012 35.3322 43.9557 35.2479C44.1102 35.1636 44.2904 35.0858 44.4835 35.0728C44.5544 35.0663 44.6123 35.1182 44.6123 35.1895C44.6123 35.2285 44.5994 35.2674 44.5672 35.2933C43.9235 35.8445 43.5372 36.6421 43.3248 37.4657C43.2025 37.8743 43.1767 38.3023 43.0673 38.7497C42.9578 39.1972 42.7518 39.6122 42.4879 39.9754C41.96 40.7081 41.2647 41.2659 40.5952 41.8235C40.2605 42.1024 39.9386 42.3877 39.6424 42.7055C39.4944 42.8611 39.3528 43.0297 39.2304 43.2048C39.1017 43.3799 38.9858 43.5615 38.9021 43.769C38.9021 43.7755 38.8892 43.782 38.8828 43.7755C38.8764 43.7755 38.8699 43.7625 38.8764 43.756C38.9407 43.542 39.0502 43.3475 39.1661 43.1594C39.2819 42.9714 39.4171 42.7963 39.5523 42.6212C39.8356 42.284 40.151 41.9727 40.4729 41.6809C41.1167 41.0908 41.7926 40.5266 42.2626 39.8197C42.5008 39.4695 42.6874 39.0869 42.7776 38.6784C42.8677 38.2698 42.9128 37.8159 43.0351 37.3879C43.2668 36.5319 43.6917 35.6824 44.3934 35.0988L44.4771 35.3192C44.1874 35.3322 43.8977 35.5332 43.6145 35.7148C43.3312 35.8964 43.0608 36.0974 42.7904 36.2984C42.2561 36.7135 41.7669 37.1869 41.3227 37.6992C40.4407 38.7303 39.7776 39.9624 39.4429 41.2853C39.2626 41.9403 39.1467 42.6147 39.0244 43.2891C38.8957 43.9635 38.7669 44.638 38.5931 45.3059C38.4129 45.9739 38.1811 46.6288 37.8592 47.2449C37.5438 47.8609 37.1253 48.4251 36.5974 48.8726C36.591 48.8791 36.5846 48.8791 36.5781 48.8726C36.5846 48.8531 36.591 48.8402 36.591 48.8402Z" fill="white"/>
<path id="Vector_32" d="M38.1641 46.7637C38.2671 46.0829 38.7434 45.5706 39.2455 45.1686C39.7605 44.7666 40.3141 44.4618 40.8033 44.0727C41.299 43.6902 41.7689 43.2622 42.1615 42.7629C42.3547 42.51 42.5349 42.2441 42.6894 41.9718C42.8439 41.693 42.9791 41.4077 43.0949 41.1094C43.1078 41.077 43.1464 41.0575 43.1786 41.0705C43.2044 41.077 43.2172 41.1029 43.2172 41.1288V41.1353C43.2366 41.479 43.243 41.8291 43.2172 42.1793C43.1851 42.5295 43.1336 42.8796 43.0241 43.2168C42.8117 43.8912 42.4319 44.5266 41.8719 44.987C41.5951 45.214 41.2732 45.3891 40.9514 45.5188C40.6231 45.6484 40.2948 45.7522 39.9665 45.8495C39.6446 45.9532 39.3163 46.0505 39.0138 46.1931C38.8593 46.2645 38.7177 46.3487 38.5696 46.4395C38.4988 46.4849 38.4344 46.5433 38.3636 46.5887C38.3057 46.6535 38.222 46.7119 38.1641 46.7637ZM38.1769 46.7378C38.2349 46.6665 38.2799 46.6016 38.3314 46.5433C38.3958 46.4849 38.4602 46.4201 38.5245 46.3682C38.6597 46.258 38.8013 46.1542 38.9558 46.0699C39.2584 45.8948 39.5802 45.7652 39.9085 45.6484C40.5523 45.415 41.196 45.1816 41.6981 44.7601C42.2002 44.3386 42.58 43.768 42.7988 43.1325C42.9083 42.8148 42.9855 42.4905 43.0241 42.1534C43.0692 41.8162 43.0949 41.4725 43.0949 41.1353L43.2172 41.1612C43.0821 41.453 42.934 41.7384 42.7731 42.0172C42.6057 42.296 42.4319 42.5619 42.2452 42.8277C41.8719 43.353 41.447 43.8458 40.9514 44.2608C40.4557 44.6823 39.8763 44.9805 39.3678 45.3437C39.1103 45.5252 38.8721 45.7198 38.6662 45.9597C38.5632 46.0764 38.4666 46.1996 38.3894 46.3358C38.3507 46.4006 38.3121 46.472 38.2799 46.5433C38.2606 46.5757 38.2477 46.6146 38.2349 46.6535C38.2156 46.6795 38.1963 46.6989 38.1769 46.7378Z" fill="white"/>
</g>
<g id="Group_8">
<path id="Vector_33" d="M36.5694 48.0714L35.4172 47.9741C35.3914 47.9741 35.3657 47.9482 35.3721 47.9158C35.3785 47.8833 35.3978 47.8639 35.43 47.8704L36.5823 47.9676C36.608 47.9676 36.6338 47.9936 36.6273 48.026C36.6209 48.0519 36.6016 48.0714 36.5694 48.0714Z" fill="white"/>
<path id="Vector_34" d="M36.7555 47.5977L35.2492 47.468C35.2234 47.468 35.1977 47.4421 35.2041 47.4097C35.2041 47.3837 35.2299 47.3578 35.2621 47.3643L36.7619 47.494C36.7877 47.494 36.8134 47.5199 36.807 47.5523C36.807 47.5783 36.7812 47.5977 36.7555 47.5977Z" fill="white"/>
<path id="Vector_35" d="M36.7345 47.2464C36.728 47.2464 36.728 47.2464 36.7345 47.2464L35.8976 47.1751C35.8719 47.1751 35.8461 47.1491 35.8526 47.1167C35.8526 47.0908 35.8848 47.0648 35.9105 47.0713L36.7409 47.1426C36.7666 47.1426 36.7924 47.1686 36.786 47.201C36.7795 47.2269 36.7602 47.2464 36.7345 47.2464Z" fill="white"/>
<path id="Vector_36" d="M36.7686 46.8623L36.0734 46.804C36.0477 46.804 36.0219 46.778 36.0283 46.7456C36.0283 46.7197 36.0541 46.6937 36.0863 46.7002L36.7751 46.7586C36.8008 46.7586 36.8266 46.7845 36.8201 46.8169C36.8201 46.8429 36.7944 46.8623 36.7686 46.8623Z" fill="white"/>
<path id="Vector_37" d="M37.091 46.3001C37.0846 46.3001 37.0846 46.3001 37.091 46.3001L35.4367 46.1575C35.4109 46.1575 35.3852 46.1315 35.3916 46.0991C35.3916 46.0732 35.4174 46.0473 35.4496 46.0537L37.1039 46.1964C37.1297 46.1964 37.1554 46.2223 37.149 46.2548C37.1361 46.2742 37.1168 46.3001 37.091 46.3001Z" fill="white"/>
<path id="Vector_38" d="M37.2208 45.5735L36.5578 45.5152C36.532 45.5152 36.5063 45.4892 36.5127 45.4568C36.5192 45.4244 36.5385 45.4049 36.5707 45.4114L37.2272 45.4698C37.253 45.4698 37.2787 45.4957 37.2723 45.5281C37.2723 45.5541 37.2466 45.5735 37.2208 45.5735Z" fill="white"/>
<path id="Vector_39" d="M37.12 41.444L36.6946 41.4115C36.6688 41.4115 36.643 41.3856 36.6494 41.3531C36.6494 41.3271 36.6752 41.3012 36.7075 41.3076L37.1264 41.3401C37.1522 41.3401 37.178 41.3661 37.1716 41.3986C37.1716 41.4245 37.1458 41.444 37.12 41.444Z" fill="white"/>
<path id="Vector_40" d="M32.8384 41.2223L31.8664 41.138C31.8406 41.138 31.8149 41.112 31.8213 41.0796C31.8213 41.0537 31.8535 41.0277 31.8792 41.0342L32.8513 41.1185C32.877 41.1185 32.9028 41.1444 32.8963 41.1769C32.8899 41.2028 32.8641 41.2223 32.8384 41.2223Z" fill="white"/>
<path id="Vector_41" d="M32.2958 41.8068L31.7414 41.7614C31.7157 41.7614 31.6899 41.7354 31.6963 41.7029C31.7028 41.6705 31.7221 41.651 31.7543 41.6575L32.3087 41.7029C32.3345 41.7029 32.3603 41.7289 32.3538 41.7614C32.3474 41.7874 32.328 41.8068 32.2958 41.8068Z" fill="white"/>
<path id="Vector_42" d="M32.7403 42.4352L31.7297 42.3509C31.7039 42.3509 31.6782 42.3249 31.6846 42.2925C31.6846 42.2666 31.7103 42.2406 31.7425 42.2471L32.7467 42.3314C32.7725 42.3314 32.7982 42.3573 32.7918 42.3898C32.7918 42.4157 32.766 42.4352 32.7403 42.4352Z" fill="white"/>
<path id="Vector_43" d="M32.3036 43.2012L32.0071 43.1752C31.9813 43.1752 31.9555 43.1492 31.9619 43.1168C31.9619 43.0908 31.9877 43.0648 32.02 43.0713L32.3165 43.0973C32.3423 43.0973 32.368 43.1233 32.3616 43.1557C32.3551 43.1817 32.3294 43.2012 32.3036 43.2012Z" fill="white"/>
<path id="Vector_44" d="M32.3083 44.1786L31.9602 44.1462C31.9344 44.1462 31.9086 44.1202 31.9151 44.0877C31.9215 44.0553 31.9408 44.0358 31.9731 44.0423L32.3147 44.0682C32.3405 44.0682 32.3663 44.0942 32.3598 44.1267C32.3534 44.1591 32.3341 44.1786 32.3083 44.1786Z" fill="white"/>
<path id="Vector_45" d="M33.1713 48.6548C33.1649 48.6548 33.1649 48.6548 33.1713 48.6548L30.9054 48.4602C30.8797 48.4602 30.8539 48.4343 30.8604 48.4019C30.8604 48.3759 30.8861 48.35 30.9183 48.3565L33.1778 48.5445C33.2035 48.5445 33.2293 48.5705 33.2228 48.6029C33.2164 48.6353 33.1971 48.6548 33.1713 48.6548Z" fill="white"/>
<path id="Vector_46" d="M31.9848 48.1037L30.9484 48.013C30.9227 48.013 30.8969 47.987 30.9033 47.9546C30.9033 47.9287 30.9291 47.9027 30.9613 47.9092L31.9977 47.9935C32.0234 47.9935 32.0492 48.0194 32.0427 48.0519C32.0363 48.0778 32.0105 48.1037 31.9848 48.1037Z" fill="white"/>
<path id="Vector_47" d="M31.9771 47.7126C31.9706 47.7126 31.9706 47.7126 31.9771 47.7126L31.1789 47.6477C31.1531 47.6477 31.1274 47.6218 31.1338 47.5894C31.1338 47.5634 31.1596 47.5375 31.1918 47.544L31.9835 47.6088C32.0093 47.6088 32.035 47.6347 32.0286 47.6672C32.0221 47.6931 32.0028 47.7126 31.9771 47.7126Z" fill="white"/>
<path id="Vector_48" d="M35.7083 49.9891L34.2922 49.8723C34.2664 49.8723 34.2407 49.8464 34.2471 49.814C34.2471 49.788 34.2793 49.7621 34.305 49.7686L35.7148 49.8853C35.7405 49.8853 35.7663 49.9112 35.7598 49.9437C35.7534 49.9696 35.7341 49.9891 35.7083 49.9891Z" fill="white"/>
<path id="Vector_49" d="M36.0064 49.7682L35.382 49.7163C35.3562 49.7163 35.3305 49.6904 35.3369 49.658C35.3434 49.6255 35.3627 49.6061 35.3949 49.6126L36.0128 49.6644C36.0386 49.6644 36.0643 49.6904 36.0579 49.7228C36.0515 49.7487 36.0322 49.7682 36.0064 49.7682Z" fill="white"/>
<path id="Vector_50" d="M36.3167 49.4766L36.0266 49.4506C36.0008 49.4506 35.975 49.4246 35.9815 49.3922C35.9815 49.3662 36.0073 49.3402 36.0395 49.3467L36.3231 49.3727C36.3489 49.3727 36.3747 49.3987 36.3682 49.4311C36.3682 49.4571 36.3425 49.4766 36.3167 49.4766Z" fill="white"/>
<path id="Vector_51" d="M39.0242 43.3882H39.0177C38.992 43.3817 38.9727 43.3557 38.9727 43.3298C39.0757 42.5906 39.4555 41.9097 39.8546 41.2872C40.5433 40.2108 41.3287 39.1863 42.0947 38.1942C42.114 38.1682 42.1462 38.1682 42.1655 38.1877C42.1912 38.2071 42.1912 38.2396 42.1719 38.259C41.4123 39.2511 40.627 40.2757 39.9382 41.3456C39.5456 41.9551 39.1722 42.623 39.0692 43.3428C39.0757 43.3687 39.0499 43.3882 39.0242 43.3882Z" fill="white"/>
<path id="Vector_52" d="M42.2898 37.8642C42.2833 37.8642 42.2705 37.8643 42.264 37.8578C42.2383 37.8448 42.2318 37.8124 42.2447 37.7864C42.4121 37.4752 42.6503 37.1899 42.9206 36.9629C42.9399 36.9435 42.9721 36.9499 42.9914 36.9694C43.0107 36.9889 43.0043 37.0278 42.985 37.0407C42.7211 37.2612 42.4958 37.5335 42.3284 37.8383C42.3284 37.8578 42.3091 37.8642 42.2898 37.8642Z" fill="white"/>
<path id="Vector_53" d="M38.282 46.6436C38.2755 46.6436 38.2627 46.6436 38.2562 46.6371C38.2305 46.6242 38.224 46.5917 38.2369 46.5658C38.6167 45.9498 39.1896 45.4505 39.8526 45.1717C39.9814 45.1198 40.1166 45.0679 40.2389 45.0225C40.4191 44.9577 40.5993 44.8928 40.7732 44.8085C41.2495 44.5751 41.6422 44.1796 41.9576 43.8229C41.9769 43.8035 42.0091 43.797 42.0284 43.8164C42.0477 43.8359 42.0541 43.8683 42.0348 43.8878C41.7065 44.2509 41.3074 44.6594 40.8182 44.8993C40.6444 44.9836 40.4577 45.0549 40.2775 45.1198C40.1487 45.1652 40.02 45.2106 39.8913 45.2624C39.2475 45.5348 38.6875 46.0146 38.3206 46.6177C38.3142 46.6306 38.2948 46.6436 38.282 46.6436Z" fill="white"/>
<path id="Vector_54" d="M42.2172 43.4863C42.2043 43.4863 42.1915 43.4798 42.1786 43.4733C42.1592 43.4538 42.1592 43.4213 42.1786 43.4018C42.2817 43.2979 42.3591 43.1616 42.3977 43.0187C42.4042 42.9928 42.4364 42.9733 42.4622 42.9798C42.488 42.9863 42.5073 43.0187 42.5009 43.0447C42.4557 43.207 42.3719 43.3564 42.2495 43.4733C42.243 43.4863 42.2301 43.4863 42.2172 43.4863Z" fill="white"/>
<path id="Vector_55" d="M23.6322 44.282C23.6258 44.282 23.6258 44.282 23.6193 44.282C23.2975 44.2042 22.9756 44.1069 22.6666 43.9837C22.6409 43.9707 22.628 43.9448 22.6345 43.9188C22.6473 43.8929 22.6731 43.8799 22.6988 43.8864C23.0014 44.0031 23.3232 44.1004 23.6387 44.1782C23.6644 44.1847 23.6837 44.2106 23.6773 44.2431C23.6773 44.269 23.658 44.282 23.6322 44.282Z" fill="white"/>
<path id="Vector_56" d="M24.792 44.491H24.7856L24.0646 44.3743C24.0388 44.3678 24.0195 44.3419 24.0195 44.3159C24.026 44.29 24.0517 44.2641 24.0775 44.2705L24.7984 44.3873C24.8242 44.3937 24.8435 44.4197 24.8435 44.4456C24.8435 44.4715 24.8177 44.491 24.792 44.491Z" fill="white"/>
<path id="Vector_57" d="M27.5987 44.9515L25.7062 44.718C25.6805 44.7116 25.6547 44.6856 25.6612 44.6597C25.6676 44.6337 25.6869 44.6078 25.7191 44.6143L27.6052 44.8477C27.6309 44.8542 27.6567 44.8801 27.6502 44.9061C27.6502 44.932 27.6245 44.9515 27.5987 44.9515Z" fill="white"/>
<path id="Vector_58" d="M28.7618 45.1069C28.7554 45.1069 28.7425 45.1069 28.736 45.1004C28.3691 44.9059 28.0988 44.5752 27.8606 44.2769C27.7512 44.1407 27.6353 44.0045 27.558 43.836C27.4744 43.6544 27.4422 43.4599 27.41 43.2653L27.3971 43.1875C27.2941 42.552 27.1074 41.936 26.8371 41.3459C26.8242 41.32 26.8371 41.2876 26.8628 41.2746C26.8886 41.2616 26.9208 41.2746 26.9336 41.3006C27.204 41.8906 27.3971 42.5196 27.5001 43.1681L27.513 43.2459C27.5452 43.4274 27.5709 43.622 27.6482 43.7906C27.719 43.9462 27.8284 44.0759 27.9314 44.2056C28.1631 44.4909 28.4335 44.8216 28.7747 45.0031C28.8004 45.0161 28.8069 45.0485 28.794 45.0745C28.8004 45.1004 28.7811 45.1069 28.7618 45.1069Z" fill="white"/>
<path id="Vector_59" d="M26.6359 40.6979C26.6036 40.6979 26.5843 40.6719 26.5843 40.6395C26.5908 40.5615 26.5521 40.4771 26.4812 40.4317C26.4554 40.4122 26.4489 40.3797 26.4683 40.3603C26.4876 40.3343 26.5198 40.3278 26.5392 40.3473C26.6359 40.4122 26.6874 40.5291 26.681 40.646C26.6874 40.6784 26.6617 40.6979 26.6359 40.6979Z" fill="white"/>
<path id="Vector_60" d="M23.9871 42.5595C23.9678 42.5595 23.9485 42.5465 23.9421 42.5271C23.7232 42.0278 23.5945 41.496 23.4722 40.9773C23.4336 40.8217 23.3949 40.666 23.3563 40.5104C23.1954 39.8944 22.9765 39.1876 22.5195 38.63C22.5002 38.6105 22.5066 38.5716 22.5259 38.5586C22.5452 38.5392 22.5838 38.5456 22.5967 38.5651C23.0602 39.1357 23.2919 39.8555 23.4529 40.4845C23.4915 40.6401 23.5301 40.7957 23.5687 40.9578C23.691 41.4701 23.8198 42.0018 24.0322 42.4882C24.0451 42.5141 24.0322 42.5465 24.0065 42.5595C24 42.5595 23.9936 42.5595 23.9871 42.5595Z" fill="white"/>
<path id="Vector_61" d="M33.1296 38.9081C33.1039 38.9081 33.0781 38.8822 33.0781 38.8563C33.0781 38.117 33.1747 37.3843 33.3549 36.671C33.3614 36.6451 33.3935 36.6256 33.4193 36.6321C33.445 36.6386 33.4644 36.6645 33.4579 36.697C33.2777 37.4038 33.1876 38.13 33.1811 38.8563C33.1811 38.8822 33.1554 38.9081 33.1296 38.9081Z" fill="white"/>
<path id="Vector_62" d="M33.3145 36.0938C33.2887 36.0938 33.2629 36.0744 33.2629 36.0419L33.25 35.6848C33.25 35.6588 33.2693 35.6328 33.3016 35.6328C33.3338 35.6328 33.3531 35.6523 33.3531 35.6848L33.366 36.0419C33.3725 36.0679 33.3467 36.0938 33.3145 36.0938Z" fill="white"/>
<path id="Vector_63" d="M33.9851 38.6284H33.9787C33.9529 38.622 33.9336 38.596 33.9336 38.5701C33.9658 38.3561 33.9722 38.1356 33.9529 37.9216C33.9529 37.8957 33.9722 37.8698 33.998 37.8633C34.0237 37.8633 34.0495 37.8827 34.0559 37.9087C34.0752 38.1356 34.0688 38.3626 34.0366 38.583C34.0301 38.609 34.0108 38.6284 33.9851 38.6284Z" fill="white"/>
<path id="Vector_64" d="M33.9771 37.4448C33.9578 37.4448 33.9384 37.4318 33.932 37.4124C33.8933 37.3344 33.8868 37.2435 33.9191 37.1591C33.9255 37.1331 33.9578 37.1202 33.9835 37.1267C34.0093 37.1331 34.0222 37.1656 34.0158 37.1916C33.9964 37.25 34.0029 37.3085 34.0287 37.3604C34.0416 37.3864 34.0287 37.4189 34.0029 37.4318C33.99 37.4448 33.9835 37.4448 33.9771 37.4448Z" fill="white"/>
<path id="Vector_65" d="M34.8445 38.6672C34.8123 38.6672 34.793 38.6412 34.793 38.6088L34.8638 37.7788C34.8638 37.7529 34.8895 37.7269 34.9217 37.7334C34.9475 37.7334 34.9732 37.7594 34.9668 37.7918L34.896 38.6218C34.896 38.6477 34.8767 38.6672 34.8445 38.6672Z" fill="white"/>
<path id="Vector_66" d="M34.7051 33.2119C34.6793 33.2119 34.66 33.1924 34.6536 33.1665C34.6471 33.1405 34.6665 33.1146 34.6986 33.1081C35.2329 33.0303 35.7801 32.9849 36.3208 32.959C36.353 32.959 36.3723 32.9784 36.3723 33.0109C36.3723 33.0368 36.353 33.0627 36.3208 33.0627C35.7865 33.0822 35.2394 33.1341 34.7115 33.2119C34.7115 33.2119 34.7115 33.2119 34.7051 33.2119Z" fill="white"/>
<path id="Vector_67" d="M35.7038 33.4724C35.6845 33.4724 35.6652 33.4594 35.6588 33.4464C35.6459 33.4205 35.6523 33.3881 35.6781 33.3751C35.9034 33.2584 36.1609 33.213 36.4119 33.2519C36.4377 33.2584 36.457 33.2843 36.457 33.3103C36.4506 33.3362 36.4248 33.3557 36.3991 33.3557C36.1738 33.3232 35.9356 33.3621 35.7296 33.4659C35.7167 33.4659 35.7103 33.4724 35.7038 33.4724Z" fill="white"/>
<path id="Vector_68" d="M35.9813 33.873C35.9619 33.873 35.949 33.8665 35.9361 33.8471C35.9232 33.8211 35.9297 33.7886 35.9555 33.7756C36.0844 33.6977 36.2584 33.6912 36.3938 33.7626C36.4196 33.7756 36.4325 33.8081 36.4196 33.8341C36.4067 33.86 36.3745 33.873 36.3487 33.86C36.2455 33.8081 36.1102 33.8146 36.0135 33.873C36.0006 33.873 35.9877 33.873 35.9813 33.873Z" fill="white"/>
<path id="Vector_69" d="M37.7496 38.4207C37.7303 38.4207 37.7174 38.4142 37.7046 38.4012L37.0737 37.4869C37.0544 37.461 37.0609 37.4286 37.0866 37.4156C37.1124 37.3962 37.1445 37.4026 37.1574 37.4286L37.7883 38.3429C37.8076 38.3688 37.8011 38.4012 37.7754 38.4142C37.7689 38.4142 37.7561 38.4207 37.7496 38.4207Z" fill="white"/>
<path id="Vector_70" d="M37.694 37.9216C37.6747 37.9216 37.6618 37.9151 37.6489 37.8956L37.4169 37.545C37.404 37.519 37.4104 37.4865 37.4298 37.4736C37.4555 37.4606 37.4878 37.4671 37.5007 37.4865L37.7327 37.8372C37.7456 37.8632 37.7392 37.8956 37.7198 37.9086C37.7134 37.9216 37.7005 37.9216 37.694 37.9216Z" fill="white"/>
<path id="Vector_71" d="M33.0074 33.9712C32.9817 33.9712 32.9624 33.9517 32.9559 33.9258L32.6341 32.2139C32.6276 32.188 32.6469 32.1556 32.6727 32.1556C32.6984 32.1491 32.7306 32.1685 32.7306 32.1945L33.0525 33.9063C33.0589 33.9323 33.0396 33.9647 33.0139 33.9647C33.0139 33.9712 33.0139 33.9712 33.0074 33.9712Z" fill="white"/>
<path id="Vector_72" d="M33.1351 32.6877C33.1093 32.6877 33.0899 32.6682 33.0835 32.6422L32.9739 32.0773C32.9675 32.0513 32.9868 32.0188 33.0126 32.0188C33.0384 32.0123 33.0706 32.0318 33.0706 32.0578L33.1802 32.6227C33.1866 32.6487 33.1673 32.6812 33.1415 32.6812C33.1415 32.6876 33.1351 32.6877 33.1351 32.6877Z" fill="white"/>
<path id="Vector_73" d="M33.4675 33.1349C33.4417 33.1349 33.4224 33.1154 33.4159 33.0959L33.345 32.7713C33.3386 32.7453 33.3579 32.7128 33.3837 32.7063C33.4095 32.6998 33.4417 32.7193 33.4481 32.7453L33.519 33.07C33.5255 33.0959 33.5062 33.1284 33.4804 33.1349C33.4739 33.1349 33.4675 33.1349 33.4675 33.1349Z" fill="white"/>
<path id="Vector_74" d="M33.7446 33.2655C33.7188 33.2655 33.6995 33.246 33.6931 33.2265L33.6028 32.8045C33.5964 32.7785 33.6157 32.746 33.6415 32.7395C33.6673 32.733 33.6995 32.7525 33.706 32.7785L33.7962 33.2006C33.8026 33.2265 33.7833 33.259 33.7575 33.2655C33.7575 33.2655 33.7511 33.2655 33.7446 33.2655Z" fill="white"/>
<path id="Vector_75" d="M26.7312 36.2855C26.7119 36.2855 26.699 36.279 26.6861 36.2596C26.6733 36.2336 26.6797 36.2012 26.7054 36.1883L31.8165 32.9915C31.8359 32.9785 31.8616 32.9785 31.8809 32.9979C31.9002 33.0174 31.9002 33.0433 31.8874 33.0628C31.8745 33.0822 31.8809 33.1276 31.8938 33.1665L32.0805 33.7696C32.0869 33.7955 32.074 33.8279 32.0483 33.8344C32.0225 33.8409 31.9904 33.8279 31.9839 33.802L31.7972 33.199C31.7908 33.1795 31.7844 33.1601 31.7844 33.1341L26.7698 36.279C26.7441 36.279 26.7376 36.2855 26.7312 36.2855Z" fill="white"/>
<path id="Vector_76" d="M24.2724 34.9718C24.2402 34.9718 24.2145 34.9589 24.1887 34.9394C24.1179 34.8876 24.0922 34.7773 24.0986 34.6995C24.1115 34.4661 24.208 34.2326 24.369 34.0576C24.3883 34.0381 24.4205 34.0381 24.4398 34.0576C24.4591 34.077 24.4591 34.1094 24.4398 34.1289C24.2982 34.2845 24.208 34.492 24.1952 34.706C24.1887 34.7644 24.2145 34.8357 24.2467 34.8616C24.2595 34.8681 24.266 34.8746 24.2788 34.8681C24.2982 34.8616 24.311 34.8422 24.3303 34.8227C24.5042 34.6087 24.6458 34.3753 24.7488 34.1159C24.7616 34.09 24.7874 34.077 24.8196 34.09C24.8453 34.103 24.8582 34.1289 24.8453 34.1613C24.7359 34.4272 24.5878 34.6736 24.4076 34.894C24.3818 34.9265 24.3497 34.9589 24.3046 34.9718C24.2982 34.9718 24.2853 34.9718 24.2724 34.9718Z" fill="white"/>
<path id="Vector_77" d="M25.4553 32.4729C25.3974 32.4729 25.3395 32.4469 25.2944 32.408C25.23 32.3497 25.1914 32.2524 25.1914 32.1616C25.1914 32.0125 25.2751 31.8828 25.3459 31.7726C25.3588 31.7466 25.391 31.7401 25.4167 31.7596C25.4425 31.7726 25.4489 31.805 25.4296 31.8309C25.3652 31.9282 25.2944 32.0449 25.2944 32.1616C25.2944 32.22 25.3202 32.2913 25.3652 32.3302C25.3845 32.3497 25.4231 32.3756 25.4682 32.3691C25.5133 32.3626 25.5583 32.3367 25.6163 32.2784C25.7708 32.1162 25.8673 31.8958 25.8866 31.6753C25.8866 31.6494 25.9124 31.6234 25.9446 31.6299C25.9703 31.6299 25.9961 31.6558 25.9896 31.6883C25.9703 31.9347 25.8609 32.1811 25.6871 32.3562C25.642 32.4016 25.5712 32.4664 25.4746 32.4794C25.4682 32.4729 25.4618 32.4729 25.4553 32.4729Z" fill="white"/>
<path id="Vector_78" d="M25.8874 28.1479C25.8553 28.1479 25.7973 28.1414 25.7651 28.1025C25.7136 28.0441 25.733 27.9599 25.7394 27.9274C25.7909 27.7264 25.881 27.5319 26.0033 27.3633C26.0226 27.3373 26.0548 27.3373 26.0741 27.3503C26.0999 27.3698 26.0999 27.4022 26.087 27.4216C25.9711 27.5773 25.8874 27.7653 25.8424 27.9534C25.8295 27.9923 25.8295 28.0182 25.8424 28.0312C25.8488 28.0377 25.8617 28.0441 25.9068 28.0441C26.1321 28.0312 26.3445 27.8691 26.4217 27.6551C26.4282 27.6291 26.4604 27.6162 26.4861 27.6227C26.5119 27.6292 26.5247 27.6616 26.5183 27.6875C26.4282 27.9404 26.1836 28.1349 25.9132 28.1479C25.9068 28.1414 25.8939 28.1479 25.8874 28.1479Z" fill="white"/>
<path id="Vector_79" d="M26.3568 24.2961C26.2667 24.2961 26.1701 24.2637 26.1186 24.1729C26.0864 24.1146 26.08 24.0432 26.1057 23.9784C26.1315 23.92 26.1765 23.8811 26.228 23.8682C26.2538 23.8617 26.286 23.8811 26.2924 23.9071C26.2988 23.933 26.2795 23.9654 26.2538 23.9719C26.2216 23.9784 26.2087 24.0043 26.2023 24.0238C26.1894 24.0562 26.1894 24.0951 26.2087 24.1275C26.2474 24.1924 26.3375 24.2118 26.4018 24.1989C26.4855 24.1859 26.5628 24.1275 26.6271 24.0821C26.7366 23.9914 26.8396 23.8941 26.9361 23.7839C26.9554 23.7644 26.9876 23.7579 27.0069 23.7774C27.0262 23.7968 27.0327 23.8292 27.0134 23.8487C26.9168 23.9654 26.8074 24.0692 26.6915 24.1599C26.6207 24.2183 26.5306 24.2832 26.4212 24.3026C26.4018 24.2896 26.3761 24.2961 26.3568 24.2961Z" fill="white"/>
<path id="Vector_80" d="M28.5547 28.3175C28.5097 28.3175 28.4839 28.298 28.4711 28.2786C28.4453 28.2462 28.4453 28.2008 28.4453 28.1813C28.4582 28.0387 28.5033 27.9025 28.5805 27.7858C28.5998 27.7599 28.632 27.7534 28.6513 27.7728C28.6771 27.7923 28.6835 27.8247 28.6642 27.8441C28.5934 27.9479 28.5547 28.0646 28.5419 28.1878C28.5419 28.2008 28.5419 28.2073 28.5419 28.2073C28.5419 28.2073 28.5547 28.2073 28.5741 28.2008C28.8637 28.1165 29.0762 27.8117 29.0568 27.5134C29.0568 27.4875 29.0762 27.4616 29.1083 27.4551C29.1341 27.4551 29.1598 27.4745 29.1598 27.507C29.1791 27.8571 28.9345 28.2073 28.5998 28.3045C28.5934 28.311 28.5741 28.3175 28.5547 28.3175Z" fill="white"/>
<path id="Vector_81" d="M29.8438 25.9506C29.8245 25.9506 29.7987 25.9506 29.7794 25.9441C29.7666 25.9441 29.7537 25.9377 29.7473 25.9247C29.7408 25.9117 29.7344 25.8988 29.7344 25.8858L29.8181 25.2568C29.8245 25.2309 29.8502 25.2049 29.876 25.2114C29.9017 25.2179 29.9211 25.2438 29.9211 25.2698L29.8438 25.8404C29.9919 25.8404 30.1399 25.782 30.2687 25.6718C30.4038 25.5486 30.4875 25.38 30.4875 25.2179C30.4875 25.192 30.5133 25.166 30.539 25.166C30.5648 25.166 30.5905 25.192 30.5905 25.2179C30.5905 25.4124 30.494 25.607 30.333 25.7496C30.1914 25.8858 30.0176 25.9506 29.8438 25.9506Z" fill="white"/>
<path id="Vector_82" d="M33.0251 21.1319C32.9479 21.1319 32.8771 21.1124 32.8191 21.0541C32.6775 20.9244 32.729 20.7039 32.7741 20.5483C32.7805 20.5223 32.8127 20.5029 32.8384 20.5158C32.8642 20.5223 32.8835 20.5548 32.8706 20.5807C32.832 20.7104 32.7869 20.8855 32.8835 20.9762C32.9672 21.0605 33.1217 21.0216 33.2247 20.9633C33.3727 20.8855 33.495 20.7687 33.5851 20.6326C33.598 20.6066 33.6302 20.6001 33.656 20.6196C33.6817 20.6326 33.6881 20.665 33.6688 20.6909C33.5723 20.8466 33.4306 20.9698 33.2697 21.0605C33.2053 21.0994 33.1152 21.1319 33.0251 21.1319Z" fill="white"/>
<path id="Vector_83" d="M33.4235 26.5459C33.4042 26.5459 33.3913 26.5459 33.372 26.5394C33.2947 26.5264 33.1982 26.4745 33.1853 26.3773C33.1789 26.3319 33.1917 26.293 33.2046 26.2605C33.2626 26.1114 33.372 25.9817 33.5072 25.8974C33.5329 25.8845 33.5651 25.8909 33.578 25.9169C33.5908 25.9428 33.5844 25.9752 33.5587 25.9882C33.4428 26.0595 33.3462 26.1698 33.3012 26.2994C33.2947 26.3189 33.2883 26.3448 33.2883 26.3643C33.2947 26.4032 33.3398 26.4291 33.3849 26.4356C33.5265 26.4551 33.6552 26.3448 33.7582 26.2411C33.8676 26.1309 33.9706 26.0206 34.0672 25.8974C34.0608 25.8909 34.0543 25.8715 34.0543 25.8585C34.0543 25.8326 34.0736 25.8131 34.1058 25.8066H34.1638C34.1831 25.8066 34.2024 25.8196 34.2088 25.8391C34.2153 25.8585 34.2153 25.878 34.2024 25.8909C34.0865 26.0336 33.9642 26.1762 33.829 26.3124C33.7325 26.4291 33.5908 26.5459 33.4235 26.5459Z" fill="white"/>
<path id="Vector_84" d="M33.6134 23.9387C33.5813 23.9387 33.5555 23.9322 33.5233 23.9257C33.4461 23.8998 33.3753 23.8414 33.3366 23.7571C33.3045 23.6858 33.3045 23.608 33.3366 23.5431C33.3495 23.5172 33.3817 23.5042 33.4074 23.5172C33.4332 23.5302 33.4461 23.5626 33.4332 23.5885C33.4139 23.6274 33.4139 23.6663 33.4332 23.7117C33.4589 23.7636 33.504 23.809 33.5491 23.822C33.6456 23.8479 33.7615 23.8025 33.8387 23.7117C33.9031 23.6339 33.9417 23.5172 33.9546 23.3745C33.9546 23.3486 33.9804 23.3226 34.0125 23.3291C34.0383 23.3291 34.064 23.3551 34.0576 23.3875C34.0447 23.5496 33.9997 23.6858 33.9224 23.783C33.8452 23.8803 33.7293 23.9387 33.6134 23.9387Z" fill="white"/>
<path id="Vector_85" d="M36.6864 21.7794C36.6607 21.7794 36.6349 21.7794 36.6156 21.7794C36.4161 21.7664 36.2616 21.7015 36.1522 21.5978C36.0105 21.4616 35.9784 21.2476 36.0749 21.0985C36.0878 21.0726 36.12 21.0661 36.1457 21.0855C36.1715 21.0985 36.1779 21.1309 36.1586 21.1569C36.0813 21.2736 36.1328 21.4357 36.223 21.5265C36.3324 21.6367 36.4998 21.6691 36.6221 21.6756C36.8989 21.6951 37.1885 21.6043 37.4074 21.4292C37.4332 21.4098 37.4525 21.3903 37.4589 21.3708C37.4589 21.3644 37.4525 21.3579 37.4525 21.3514C37.4267 21.3579 37.401 21.3384 37.3945 21.306C37.3881 21.2801 37.4138 21.2541 37.4396 21.2476C37.4718 21.2412 37.504 21.2541 37.5233 21.2801C37.549 21.306 37.5619 21.3514 37.5555 21.3903C37.5426 21.4422 37.504 21.4811 37.4718 21.5135C37.2465 21.6821 36.9697 21.7794 36.6864 21.7794Z" fill="white"/>
<path id="Vector_86" d="M38.231 24.7694C38.1345 24.7694 38.0315 24.737 37.9929 24.6462C37.9607 24.5814 37.9735 24.5101 37.9864 24.4517C38.0444 24.2183 38.1924 24.0108 38.392 23.8746C38.4177 23.8551 38.4499 23.8616 38.4628 23.8876C38.4821 23.9135 38.4756 23.9459 38.4499 23.9589C38.2761 24.0821 38.1409 24.2701 38.0894 24.4776C38.0765 24.5165 38.0701 24.5619 38.0894 24.6008C38.1152 24.6657 38.2182 24.6722 38.289 24.6592C38.495 24.6268 38.6881 24.4971 38.8039 24.322C38.8168 24.2961 38.849 24.2896 38.8747 24.309C38.9005 24.322 38.9069 24.3544 38.8876 24.3804C38.7589 24.5814 38.54 24.7305 38.3018 24.763C38.2825 24.7694 38.2568 24.7694 38.231 24.7694Z" fill="white"/>
<path id="Vector_87" d="M41.4467 25.0209C41.3952 25.0209 41.3437 25.0145 41.2922 25.0015C41.2407 24.9885 41.1763 24.9691 41.1248 24.9237C41.0154 24.8199 41.0282 24.6384 41.157 24.4244C41.1699 24.3984 41.202 24.392 41.2278 24.4049C41.2535 24.4179 41.26 24.4503 41.2471 24.4763C41.1892 24.5735 41.1055 24.7616 41.1956 24.8523C41.2278 24.8848 41.2729 24.8977 41.3179 24.9042C41.408 24.9237 41.5303 24.9366 41.6269 24.8783C41.7041 24.8329 41.7621 24.7227 41.717 24.6384C41.7041 24.6124 41.717 24.58 41.7363 24.567C41.7621 24.5541 41.7943 24.5605 41.8071 24.5865C41.878 24.7227 41.7943 24.8913 41.6784 24.9626C41.614 25.0015 41.5368 25.0209 41.4467 25.0209Z" fill="white"/>
<path id="Vector_88" d="M40.5575 30.7998C40.551 30.7998 40.551 30.7998 40.5575 30.7998L39.8429 30.7415C39.8172 30.7415 39.7914 30.7155 39.7979 30.6831C39.7979 30.6572 39.8301 30.6312 39.8558 30.6377L40.5639 30.6961C40.5896 30.6961 40.6154 30.722 40.609 30.7544C40.6025 30.7804 40.5832 30.7998 40.5575 30.7998Z" fill="white"/>
<path id="Vector_89" d="M40.8069 30.2626L40.1946 30.2106C40.1688 30.2106 40.143 30.1846 40.1494 30.1522C40.1559 30.1197 40.1752 30.1002 40.2075 30.1067L40.8198 30.1587C40.8456 30.1587 40.8714 30.1846 40.865 30.2171C40.8585 30.2431 40.8392 30.2626 40.8069 30.2626Z" fill="white"/>
<path id="Vector_90" d="M41.3767 29.5101L40.5656 29.4387C40.5398 29.4387 40.5141 29.4128 40.5205 29.3804C40.5205 29.3544 40.5463 29.3285 40.5785 29.335L41.3831 29.4063C41.4089 29.4063 41.4346 29.4323 41.4282 29.4647C41.4282 29.4906 41.4089 29.5101 41.3767 29.5101Z" fill="white"/>
<path id="Vector_91" d="M41.6728 28.6286L40.9132 28.5637C40.8875 28.5637 40.8618 28.5378 40.8682 28.5054C40.8682 28.4794 40.9004 28.4535 40.9261 28.46L41.6793 28.5248C41.705 28.5248 41.7308 28.5508 41.7243 28.5832C41.7243 28.6091 41.705 28.6286 41.6728 28.6286Z" fill="white"/>
<path id="Vector_92" d="M41.773 28.0049L41.1164 27.9466C41.0906 27.9466 41.0649 27.9206 41.0713 27.8882C41.0713 27.8623 41.0971 27.8363 41.1292 27.8428L41.7858 27.9012C41.8116 27.9012 41.8373 27.9271 41.8309 27.9595C41.818 27.9855 41.7987 28.0049 41.773 28.0049Z" fill="white"/>
<path id="Vector_93" d="M30.5399 37.9546L27.3664 37.6887C27.3406 37.6887 27.3149 37.6628 27.3213 37.6304C27.3213 37.6044 27.3471 37.5785 27.3793 37.585L30.5463 37.8508C30.5721 37.8508 30.5978 37.8768 30.5914 37.9092C30.5914 37.9351 30.5656 37.9546 30.5399 37.9546Z" fill="white"/>
<path id="Vector_94" d="M31.196 37.5904L29.1554 37.4153C29.1297 37.4153 29.1039 37.3894 29.1104 37.3569C29.1104 37.331 29.1361 37.3051 29.1683 37.3116L31.2025 37.4866C31.2282 37.4866 31.254 37.5126 31.2475 37.545C31.2475 37.5709 31.2218 37.5904 31.196 37.5904Z" fill="white"/>
<path id="Vector_95" d="M31.4672 37.2658L30.1476 37.1555C30.1219 37.1555 30.0961 37.1296 30.1026 37.0972C30.1026 37.0712 30.1283 37.0453 30.1605 37.0518L31.4737 37.162C31.4994 37.162 31.5252 37.188 31.5187 37.2204C31.5187 37.2398 31.493 37.2658 31.4672 37.2658Z" fill="white"/>
<path id="Vector_96" d="M31.6402 36.8584C31.6337 36.8584 31.6337 36.8584 31.6402 36.8584L30.9836 36.8001C30.9578 36.8001 30.9321 36.7741 30.9385 36.7417C30.9385 36.7158 30.9643 36.6898 30.9964 36.6963L31.653 36.7547C31.6788 36.7547 31.7045 36.7806 31.6981 36.813C31.6852 36.839 31.6659 36.8584 31.6402 36.8584Z" fill="white"/>
<path id="Vector_97" d="M31.8792 36.4245L31.4602 36.392C31.4344 36.392 31.4086 36.366 31.4151 36.3336C31.4151 36.3076 31.4473 36.2816 31.4731 36.2881L31.8856 36.3206C31.9114 36.3206 31.9372 36.3466 31.9308 36.379C31.9308 36.405 31.905 36.4245 31.8792 36.4245Z" fill="white"/>
<path id="Vector_98" d="M24.5427 32.623L22.5343 32.4544C22.5086 32.4544 22.4828 32.4284 22.4893 32.396C22.4893 32.3701 22.515 32.3441 22.5472 32.3506L24.5492 32.5192C24.5749 32.5192 24.6007 32.5452 24.5942 32.5776C24.5942 32.6035 24.5685 32.623 24.5427 32.623Z" fill="white"/>
<path id="Vector_99" d="M23.7021 33.1156C23.6956 33.1156 23.6956 33.1156 23.7021 33.1156L22.4211 33.0054C22.3953 33.0054 22.3696 32.9794 22.376 32.947C22.3824 32.9146 22.4018 32.8951 22.4339 32.9016L23.7149 33.0119C23.7407 33.0119 23.7664 33.0378 23.76 33.0702C23.7471 33.0897 23.7278 33.1156 23.7021 33.1156Z" fill="white"/>
<path id="Vector_100" d="M23.4067 33.7198L22.2609 33.6226C22.2352 33.6226 22.2094 33.5966 22.2158 33.5642C22.2223 33.5318 22.2416 33.5123 22.2738 33.5188L23.4132 33.6161C23.4389 33.6161 23.4647 33.642 23.4582 33.6744C23.4518 33.7004 23.4325 33.7198 23.4067 33.7198Z" fill="white"/>
<path id="Vector_101" d="M23.4892 34.3559L22.382 34.2652C22.3562 34.2652 22.3305 34.2392 22.3369 34.2068C22.3434 34.1744 22.3627 34.1549 22.3949 34.1614L23.4956 34.2522C23.5214 34.2522 23.5471 34.2781 23.5407 34.3105C23.5343 34.3365 23.5149 34.3559 23.4892 34.3559Z" fill="white"/>
<path id="Vector_102" d="M23.6449 34.9573L22.6086 34.8665C22.5828 34.8665 22.5571 34.8405 22.5635 34.8081C22.5635 34.7822 22.5893 34.7562 22.6214 34.7627L23.6578 34.847C23.6836 34.847 23.7093 34.873 23.7029 34.9054C23.6964 34.9378 23.6707 34.9573 23.6449 34.9573Z" fill="white"/>
<path id="Vector_103" d="M23.9616 35.5484L22.9445 35.4641C22.9187 35.4641 22.893 35.4382 22.8994 35.4058C22.8994 35.3798 22.9252 35.3539 22.9574 35.3604L23.968 35.4447C23.9938 35.4447 24.0195 35.4706 24.0131 35.503C24.0066 35.5225 23.9873 35.5484 23.9616 35.5484Z" fill="white"/>
<path id="Vector_104" d="M27.3375 36.6498C27.3247 36.6498 27.3054 36.6433 27.2925 36.6304C27.2732 36.6044 27.2796 36.572 27.3054 36.559L31.6826 33.3687C31.7084 33.3493 31.7406 33.3558 31.7534 33.3817C31.7727 33.4076 31.7663 33.4401 31.7406 33.453L27.3633 36.6433C27.3633 36.6498 27.3504 36.6498 27.3375 36.6498Z" fill="white"/>
<path id="Vector_105" d="M28.0073 36.9668C27.9944 36.9668 27.9816 36.9604 27.9751 36.9539C27.9558 36.9344 27.9494 36.902 27.9687 36.8825C28.0459 36.7853 31.2259 34.0035 31.5864 33.6857C31.6057 33.6663 31.6379 33.6663 31.6572 33.6922C31.6765 33.7117 31.6765 33.7441 31.6508 33.7636C30.6723 34.613 28.1232 36.8501 28.0459 36.9409C28.0395 36.9604 28.0202 36.9668 28.0073 36.9668Z" fill="white"/>
<path id="Vector_106" d="M28.6547 37.1105C28.6418 37.1105 28.6289 37.104 28.616 37.0975C28.5967 37.078 28.5967 37.0456 28.616 37.0262L31.5965 33.9072C31.6158 33.8877 31.648 33.8877 31.6673 33.9072C31.6866 33.9266 31.6866 33.959 31.6673 33.9785L28.6869 37.0975C28.6804 37.104 28.6675 37.1105 28.6547 37.1105Z" fill="white"/>
<path id="Vector_107" d="M29.2729 37.1622C29.2601 37.1622 29.2472 37.1557 29.2408 37.1492C29.2214 37.1298 29.215 37.0974 29.2343 37.0779L31.5517 34.2702C31.571 34.2507 31.6032 34.2442 31.6225 34.2637C31.6418 34.2831 31.6483 34.3156 31.6289 34.335L29.3116 37.1428C29.2987 37.1557 29.2858 37.1622 29.2729 37.1622Z" fill="white"/>
<path id="Vector_108" d="M30.0811 37.0088C30.0682 37.0088 30.0618 37.0088 30.0554 37.0023C30.0296 36.9894 30.0232 36.9569 30.0425 36.931L31.5681 34.6161C31.581 34.5901 31.6132 34.5837 31.6389 34.6031C31.6646 34.6161 31.6711 34.6485 31.6518 34.6744L30.1262 36.9894C30.1133 37.0023 30.094 37.0088 30.0811 37.0088Z" fill="white"/>
<path id="Vector_109" d="M30.8144 36.754C30.8079 36.754 30.8015 36.754 30.7886 36.7475C30.7629 36.7345 30.75 36.7021 30.7629 36.6762L31.5739 35.0486C31.5868 35.0227 31.619 35.0097 31.6448 35.0227C31.6705 35.0356 31.6834 35.0681 31.6705 35.094L30.8594 36.7216C30.853 36.741 30.8337 36.754 30.8144 36.754Z" fill="white"/>
<path id="Vector_110" d="M31.3235 36.4502C31.3171 36.4502 31.3107 36.4502 31.3042 36.4437C31.2785 36.4307 31.2656 36.4048 31.2785 36.3724L31.6647 35.4451C31.6776 35.4192 31.7033 35.4062 31.7355 35.4191C31.7613 35.4321 31.7741 35.4581 31.7613 35.4905L31.375 36.4177C31.3622 36.4372 31.3429 36.4502 31.3235 36.4502Z" fill="white"/>
<path id="Vector_111" d="M26.8731 34.2358C26.8473 34.2358 26.828 34.2163 26.8216 34.1969C26.8151 34.1709 26.8344 34.1385 26.8602 34.132L31.8168 32.9778C31.8426 32.9713 31.8747 32.9908 31.8812 33.0167C31.8876 33.0427 31.8683 33.0751 31.8426 33.0816L26.8859 34.2358C26.8859 34.2358 26.8795 34.2358 26.8731 34.2358Z" fill="white"/>
<path id="Vector_112" d="M31.8343 33.0294C31.4095 33.0164 27.6952 32.9062 27.6437 32.8997C27.618 32.8997 27.5922 32.8737 27.5987 32.8413C27.5987 32.8154 27.6244 32.7894 27.6566 32.7959C27.7145 32.8024 30.4181 32.8802 31.8408 32.9256C31.8665 32.9256 31.8923 32.9516 31.8923 32.9775C31.8858 33.0099 31.8601 33.0294 31.8343 33.0294Z" fill="white"/>
<path id="Vector_113" d="M31.9718 32.7843C31.9654 32.7843 31.9589 32.7843 31.9525 32.7843L28.8112 31.6106C28.7854 31.5977 28.7725 31.5717 28.779 31.5458C28.7919 31.5198 28.8176 31.5069 28.8434 31.5134L31.9847 32.687C32.0104 32.7 32.0233 32.7259 32.0169 32.7519C32.0169 32.7713 31.9911 32.7843 31.9718 32.7843Z" fill="white"/>
<path id="Vector_114" d="M32.3549 33.2191C32.3292 33.2191 32.3034 33.1931 32.3034 33.1672C32.3034 32.9727 32.2648 32.7781 32.194 32.5901L29.7993 30.6189C29.78 30.5994 29.7736 30.567 29.7929 30.5475C29.8122 30.5281 29.8444 30.5216 29.8637 30.541L32.2712 32.5253C32.2777 32.5317 32.2841 32.5382 32.2841 32.5447C32.3613 32.7457 32.4 32.9532 32.4 33.1737C32.4064 33.1932 32.3871 33.2191 32.3549 33.2191Z" fill="white"/>
<path id="Vector_115" d="M32.7599 32.1367C32.747 32.1367 32.7277 32.1302 32.7213 32.1172L30.9253 29.7115C30.906 29.6856 30.9124 29.6532 30.9382 29.6402C30.9639 29.6208 30.9961 29.6272 31.009 29.6532L32.8049 32.0589C32.8243 32.0848 32.8178 32.1172 32.7921 32.1302C32.7792 32.1302 32.7663 32.1367 32.7599 32.1367Z" fill="white"/>
<path id="Vector_116" d="M33.2154 31.8048C33.1961 31.8048 33.1767 31.7918 33.1703 31.7788L31.7799 29.1462C31.767 29.1202 31.7734 29.0878 31.7992 29.0748C31.8249 29.0619 31.8571 29.0684 31.87 29.0943L33.2604 31.727C33.2733 31.7529 33.2669 31.7853 33.2411 31.7983C33.2347 31.8048 33.2282 31.8048 33.2154 31.8048Z" fill="white"/>
<path id="Vector_117" d="M33.6042 31.5584C33.5848 31.5584 33.5591 31.5454 33.5527 31.5195L32.6579 28.5626C32.6515 28.5367 32.6643 28.5042 32.6901 28.4977C32.7158 28.4913 32.748 28.5042 32.7544 28.5302L33.6492 31.487C33.6557 31.513 33.6428 31.5454 33.617 31.5519C33.617 31.5584 33.6106 31.5584 33.6042 31.5584Z" fill="white"/>
<path id="Vector_118" d="M34.3783 31.2733C34.3526 31.2733 34.3333 31.2538 34.3268 31.2279L33.8762 27.8884C33.8698 27.8625 33.8891 27.8366 33.9213 27.8301C33.947 27.8301 33.9728 27.8431 33.9792 27.8755L34.4298 31.2149C34.4363 31.2409 34.417 31.2668 34.3848 31.2733C34.3783 31.2733 34.3783 31.2733 34.3783 31.2733Z" fill="white"/>
<path id="Vector_119" d="M34.7166 31.3071C34.6844 31.3006 34.6586 31.2747 34.6651 31.2487L35.1285 27.3257C35.135 27.2998 35.1607 27.2738 35.1865 27.2803C35.2122 27.2868 35.238 27.3127 35.2315 27.3387L34.768 31.2617C34.768 31.2876 34.7423 31.3071 34.7166 31.3071Z" fill="white"/>
<path id="Vector_120" d="M34.9118 31.2861C34.8989 31.2861 34.8925 31.2796 34.8796 31.2732C34.8538 31.2537 34.8538 31.2213 34.8731 31.2018L38.375 26.6239C38.3943 26.5979 38.4265 26.5979 38.4458 26.6174C38.4715 26.6368 38.4715 26.6693 38.4522 26.6887L34.9504 31.2667C34.944 31.2796 34.9246 31.2861 34.9118 31.2861Z" fill="white"/>
<path id="Vector_121" d="M35.321 31.3183C35.3146 31.3183 35.3017 31.3183 35.2953 31.3118C35.2695 31.2989 35.2631 31.26 35.276 31.2405C35.3146 31.1757 38.913 27.4537 39.6275 26.7079C39.6468 26.6885 39.679 26.6885 39.6983 26.7079C39.7176 26.7274 39.7176 26.7598 39.6983 26.7793C38.2306 28.3031 35.4305 31.2016 35.3532 31.2924C35.3532 31.3119 35.3403 31.3183 35.321 31.3183Z" fill="white"/>
<path id="Vector_122" d="M35.807 31.586C35.7941 31.586 35.7813 31.5795 35.7684 31.573C35.7491 31.5536 35.7491 31.5212 35.7684 31.5017L40.4804 26.9951C40.4997 26.9756 40.5319 26.9756 40.5512 26.9951C40.5705 27.0145 40.5705 27.0469 40.5512 27.0664L35.8392 31.573C35.8328 31.586 35.8199 31.586 35.807 31.586Z" fill="white"/>
<path id="Vector_123" d="M35.9656 31.7076C35.9462 31.7076 35.9334 31.7011 35.9205 31.6816C35.9076 31.6557 35.9141 31.6233 35.9398 31.6103L40.9222 28.608C40.9479 28.5951 40.9801 28.6016 40.993 28.6275C41.0059 28.6534 40.9994 28.6859 40.9737 28.6988L35.9913 31.7011C35.9849 31.7011 35.972 31.7076 35.9656 31.7076Z" fill="white"/>
<path id="Vector_124" d="M36.1517 31.9299C36.1324 31.9299 36.1131 31.9169 36.1066 31.8974C36.0937 31.8715 36.1066 31.8391 36.1324 31.8261L40.2972 29.8938C40.323 29.8808 40.3551 29.8938 40.368 29.9197C40.3809 29.9456 40.368 29.9781 40.3423 29.991L36.1774 31.9234C36.171 31.9298 36.1645 31.9299 36.1517 31.9299Z" fill="white"/>
<path id="Vector_125" d="M36.3003 32.291C36.2874 32.291 36.2745 32.2845 36.2681 32.2781C36.2488 32.2586 36.2424 32.2262 36.2617 32.2067C36.2745 32.1938 36.3067 32.1484 39.3772 31.072C39.403 31.0655 39.4352 31.0785 39.4416 31.1044C39.4481 31.1303 39.4352 31.1628 39.4094 31.1692C38.2314 31.5842 36.4419 32.2132 36.3325 32.2781C36.3196 32.291 36.3132 32.291 36.3003 32.291Z" fill="white"/>
<path id="Vector_126" d="M36.4242 32.6671C36.4049 32.6671 36.3856 32.6541 36.3727 32.6347C36.3663 32.6087 36.3792 32.5763 36.4049 32.5698L38.6772 31.7463C38.703 31.7333 38.7352 31.7528 38.7416 31.7787C38.748 31.8047 38.7352 31.8371 38.7094 31.8436L36.4371 32.6671C36.4371 32.6671 36.4307 32.6671 36.4242 32.6671Z" fill="white"/>
<path id="Vector_127" d="M37.5183 32.8828L36.4304 32.8244C36.4047 32.8244 36.3789 32.7985 36.3789 32.7726C36.3789 32.7466 36.4047 32.7207 36.4304 32.7207L37.5183 32.7791C37.544 32.7791 37.5698 32.805 37.5698 32.8309C37.5633 32.8634 37.544 32.8828 37.5183 32.8828Z" fill="white"/>
<path id="Vector_128" d="M37.0892 33.2123C37.0828 33.2123 37.0828 33.2123 37.0763 33.2123L36.5477 33.0954C36.522 33.0889 36.5026 33.0629 36.5091 33.0305C36.5155 33.0045 36.5413 32.985 36.5735 32.9915L37.1021 33.1084C37.1279 33.1149 37.1472 33.1408 37.1408 33.1733C37.1343 33.1993 37.115 33.2123 37.0892 33.2123Z" fill="white"/>
<path id="Vector_129" d="M26.784 23.0247C26.7647 23.0247 26.7518 23.0182 26.7389 22.9988C26.7261 22.9728 26.726 22.9404 26.7518 22.9274C27.4663 22.4411 28.213 21.9807 28.9597 21.5592C28.9855 21.5463 29.0177 21.5527 29.0306 21.5787C29.0434 21.6046 29.037 21.637 29.0112 21.65C28.2645 22.0715 27.5243 22.5319 26.8097 23.0182C26.8033 23.0247 26.7904 23.0247 26.784 23.0247Z" fill="white"/>
<path id="Vector_130" d="M29.3079 21.4625C29.2886 21.4625 29.2693 21.4495 29.2629 21.4301C29.25 21.4042 29.2629 21.3717 29.2886 21.3588L29.971 21.0734C29.9967 21.0605 30.0289 21.0734 30.0418 21.0994C30.0546 21.1253 30.0418 21.1577 30.016 21.1707L29.3337 21.456C29.3208 21.4625 29.3144 21.4625 29.3079 21.4625Z" fill="white"/>
<path id="Vector_131" d="M24.8913 26.3059C24.872 26.3059 24.8527 26.293 24.8463 26.28C24.8334 26.2541 24.8398 26.2216 24.8656 26.2087L25.9084 25.651C25.9342 25.638 25.9663 25.6445 25.9792 25.6705C25.9921 25.6964 25.9857 25.7288 25.9599 25.7418L24.9171 26.2995C24.9107 26.3059 24.9042 26.3059 24.8913 26.3059Z" fill="white"/>
<path id="Vector_132" d="M24.7081 26.8781C24.6887 26.8781 24.6758 26.8717 24.663 26.8522C24.6501 26.8262 24.6565 26.7937 24.6759 26.7807L25.1077 26.495C25.1335 26.4821 25.1658 26.4885 25.1786 26.508C25.1915 26.534 25.1851 26.5665 25.1658 26.5795L24.7339 26.8652C24.7274 26.8781 24.7145 26.8781 24.7081 26.8781Z" fill="white"/>
<path id="Vector_133" d="M24.2911 27.7219C24.2653 27.7219 24.246 27.7025 24.2395 27.6765C24.2331 27.6505 24.2524 27.618 24.2782 27.618C24.4265 27.5921 24.5683 27.5336 24.6972 27.4557C24.723 27.4427 24.7552 27.4492 24.7681 27.4752C24.781 27.5012 24.7746 27.5336 24.7488 27.5466C24.607 27.631 24.4587 27.6895 24.2975 27.7219H24.2911Z" fill="white"/>
<path id="Vector_134" d="M24.2806 28.7784C24.2613 28.7784 24.242 28.7654 24.2355 28.746C24.2226 28.72 24.2355 28.6875 24.2613 28.681C24.416 28.6161 24.5643 28.5447 24.7125 28.4538C24.7383 28.4408 24.7706 28.4473 24.7834 28.4732C24.7963 28.4992 24.7899 28.5317 24.7641 28.5447C24.6158 28.6356 24.4611 28.7135 24.3 28.7784C24.2935 28.7784 24.2871 28.7784 24.2806 28.7784Z" fill="white"/>
</g>
</g>
<path id="Vector_135" d="M24.2538 24.4062C24.2732 25.1001 24.1959 25.8004 24.035 26.4748C23.8741 27.1556 23.623 27.8105 23.3011 28.4266C22.9664 29.0426 22.5737 29.6132 22.2454 30.2163C21.9171 30.8128 21.6532 31.4742 21.679 32.1745C21.6404 31.8309 21.679 31.4742 21.7691 31.137C21.8592 30.7998 22.0008 30.4756 22.1553 30.1644C22.4707 29.5419 22.8698 28.9713 23.1853 28.3617C23.5136 27.7587 23.7582 27.1102 23.9384 26.4423C24.1187 25.7874 24.2217 25.1001 24.2538 24.4062Z" fill="white"/>
<path id="Vector_136" d="M23.3711 24.8535C23.3904 25.1712 23.3389 25.489 23.2488 25.7937C23.1586 26.0985 23.0299 26.3903 22.9011 26.6821C22.6372 27.2592 22.3733 27.8298 22.0514 28.381C21.7231 28.9257 21.3562 29.438 21.0923 30.0021C20.9571 30.2809 20.8541 30.5792 20.7898 30.884C20.7254 31.1888 20.7125 31.5065 20.764 31.8177C20.6803 31.513 20.6803 31.1823 20.7254 30.871C20.7769 30.5533 20.8734 30.2485 20.9957 29.9567C21.2532 29.3666 21.6202 28.8479 21.9356 28.3097C22.2639 27.7715 22.5278 27.2009 22.811 26.6367C22.9526 26.3514 23.0878 26.0726 23.1908 25.7743C23.2874 25.4825 23.3582 25.1712 23.3711 24.8535Z" fill="white"/>
<path id="Vector_137" d="M40.3008 32.0267C40.7707 31.7544 41.2084 31.4366 41.614 31.0865C42.0195 30.7298 42.3929 30.3408 42.7147 29.9063C43.0495 29.4848 43.3263 29.018 43.5709 28.5316C43.809 28.0453 44.0022 27.5395 44.1438 27.0078C44.0536 27.546 43.8863 28.0713 43.6674 28.5705C43.4421 29.0698 43.1589 29.5432 42.8242 29.9777C42.4894 30.4121 42.1096 30.8077 41.6848 31.1513C41.2599 31.508 40.7964 31.8063 40.3008 32.0267Z" fill="white"/>
<path id="Vector_138" d="M40.9414 32.4554C41.0701 32.3387 41.2053 32.2414 41.3341 32.1506C41.4693 32.0598 41.598 31.9626 41.7589 31.8848C41.6752 32.0404 41.5529 32.1636 41.4113 32.2609C41.2697 32.3581 41.1152 32.4359 40.9414 32.4554Z" fill="white"/>
<path id="Vector_139" d="M37.793 36.0879C38.0118 36.3991 38.1534 36.7558 38.2436 37.1254C38.3273 37.495 38.3594 37.8841 38.2951 38.2537C38.25 37.8776 38.1985 37.5145 38.1084 37.1513C38.0311 36.7947 37.9153 36.4445 37.793 36.0879Z" fill="white"/>
<path id="Vector_140" d="M44.0547 37.2696C44.0676 37.1267 44.1192 37.0034 44.1772 36.88C44.2416 36.7631 44.3125 36.6462 44.4157 36.5488C44.4028 36.6917 44.3512 36.8151 44.2932 36.9384C44.2352 37.0553 44.1643 37.1722 44.0547 37.2696Z" fill="white"/>
<path id="Vector_141" d="M31.334 40.1543C31.3275 40.5239 31.3018 40.887 31.2696 41.2566C31.2374 41.6198 31.1923 41.9894 31.1409 42.3525C31.0894 42.7156 31.025 43.0788 30.9542 43.4419C30.8834 43.805 30.7997 44.1616 30.7031 44.5183C30.7482 44.1552 30.7997 43.792 30.8512 43.4289L31.0057 42.3395L31.1666 41.2502C31.2245 40.8805 31.276 40.5174 31.334 40.1543Z" fill="white"/>
<path id="Vector_142" d="M30.3489 40.1914C30.4326 40.4119 30.4519 40.6453 30.4326 40.8787C30.4068 41.1122 30.3489 41.3391 30.2266 41.5402C30.2459 41.3067 30.2845 41.0927 30.3038 40.8658C30.3231 40.6453 30.3296 40.4248 30.3489 40.1914Z" fill="white"/>
<path id="Vector_143" d="M37.7833 51.2674L37.2297 50.7487L36.6374 51.021L36.8627 50.405L36.5859 49.9381L37.2103 50.0094L37.5193 49.4453L37.7446 50.1716L38.2853 50.2688L37.8026 50.6449L37.7833 51.2674ZM37.2618 50.5866L37.6609 50.9627L37.6738 50.5736L37.9635 50.3466L37.6416 50.2883L37.4807 49.7825L37.2811 50.1456L36.837 50.0937L37.0043 50.3791L36.8692 50.7552L37.2618 50.5866Z" fill="white"/>
<path id="Vector_144" d="M19.8145 39.2186L19.2609 38.6998L18.6687 38.9722L18.894 38.3562L18.6172 37.8893L19.2416 37.9606L19.5506 37.3965L19.7759 38.1227L20.3166 38.22L19.8338 38.5961L19.8145 39.2186ZM19.2931 38.5377L19.6922 38.9138L19.7051 38.5248L19.9947 38.2978L19.6729 38.2395L19.512 37.7337L19.3124 38.0968L18.8682 38.0449L19.0356 38.3302L18.9004 38.7063L19.2931 38.5377Z" fill="white"/>
<path id="Vector_145" d="M17.9837 37.3661L17.8486 37.3596C17.8679 36.5555 16.9216 36.2054 16.9087 36.1989L16.5547 36.0692L16.928 36.0627C17.8099 36.0498 17.8614 34.9085 17.8679 34.8242L18.003 34.8307C17.9902 35.3559 18.0932 35.732 18.312 35.9071C18.4601 36.0238 18.621 36.0368 18.7047 36.0303C18.724 36.0238 18.7498 36.0238 18.7691 36.0238L18.7884 36.1535C18.7819 36.1535 18.7626 36.16 18.7176 36.1665C18.061 36.2962 17.9837 37.3596 17.9837 37.3661ZM17.1791 36.173C17.4173 36.3027 17.7778 36.5491 17.9194 36.9576C17.9902 36.6723 18.1382 36.3156 18.4408 36.1341C18.37 36.1081 18.2992 36.0757 18.2348 36.0173C18.0674 35.8812 17.9644 35.6672 17.9129 35.3819C17.8035 35.7061 17.5975 36.0692 17.1791 36.173Z" fill="white"/>
<g id="Group_9">
<path id="Vector_146" d="M41.0024 33.6289H40.8672V35.0101H41.0024V33.6289Z" fill="white"/>
<path id="Vector_147" d="M40.524 33.8075L40.4375 33.9121L41.4216 34.7382L41.5081 34.6336L40.524 33.8075Z" fill="white"/>
<path id="Vector_148" d="M40.7202 34.6601L40.6172 34.5758C40.688 34.485 41.306 33.7198 41.351 33.668L41.4476 33.7652C41.4154 33.7977 40.997 34.3164 40.7202 34.6601Z" fill="white"/>
<path id="Vector_149" d="M41.4138 34.1881L40.3711 34.2031L40.373 34.3393L41.4158 34.3243L41.4138 34.1881Z" fill="white"/>
</g>
<g id="Group_10">
<path id="Vector_150" d="M17.2992 38.8887H17.1641V40.2698H17.2992V38.8887Z" fill="white"/>
<path id="Vector_151" d="M16.8131 39.0692L16.7266 39.1738L17.7106 39.9999L17.7972 39.8953L16.8131 39.0692Z" fill="white"/>
<path id="Vector_152" d="M17.0131 39.9198L16.9102 39.8355C16.981 39.7448 17.5989 38.9796 17.644 38.9277L17.7406 39.025C17.7019 39.0574 17.2835 39.5762 17.0131 39.9198Z" fill="white"/>
<path id="Vector_153" d="M17.7029 39.4537L16.6602 39.4688L16.6621 39.6049L17.7048 39.5899L17.7029 39.4537Z" fill="white"/>
</g>
<g id="Group_11">
<g id="Group_12">
<path id="Vector_154" d="M20.1908 32.1542C20.5388 32.1542 20.5388 31.6152 20.1908 31.6152C19.8427 31.6152 19.8427 32.1542 20.1908 32.1542Z" fill="white"/>
</g>
</g>
</g>
<path id="Vector_155" d="M36.8765 15.306C36.825 15.3254 36.7671 15.3514 36.7156 15.3773C36.6641 15.3968 36.6061 15.4162 36.619 15.4876C36.6319 15.5459 36.6898 15.5459 36.7413 15.5459C36.9216 15.5394 37.0696 15.6172 37.2177 15.721C37.4365 15.8701 37.4945 16.1036 37.5781 16.3305C37.5846 16.35 37.591 16.3759 37.5975 16.3954C37.6168 16.4408 37.6361 16.4797 37.694 16.4732C37.7455 16.4602 37.752 16.4148 37.752 16.363C37.7455 16.1619 37.7584 15.9609 37.8485 15.7729C37.9451 15.5719 38.0609 15.3968 38.3249 15.4357C38.3828 15.4422 38.46 15.4357 38.4536 15.3449C38.4343 15.2801 38.3828 15.2606 38.3313 15.2476C37.9451 15.1698 37.7133 14.9234 37.6425 14.5279C37.6296 14.463 37.6168 14.3917 37.5975 14.3269C37.5846 14.2815 37.5846 14.2166 37.5138 14.2231C37.4365 14.2361 37.4558 14.3009 37.4558 14.3528C37.4687 14.5019 37.4558 14.6446 37.4108 14.7872C37.34 15.0531 37.134 15.2022 36.8765 15.306Z" fill="white"/>
<path id="Vector_156" d="M47.6132 25.9773C47.5424 26.0032 47.4716 26.0421 47.4008 26.068C47.33 26.094 47.2528 26.1264 47.2785 26.2172C47.2978 26.295 47.3751 26.295 47.4394 26.2885C47.6776 26.282 47.8772 26.3858 48.0703 26.5155C48.3535 26.71 48.4372 27.0213 48.5466 27.3195C48.5595 27.3455 48.5659 27.3779 48.5724 27.4038C48.5917 27.4622 48.6303 27.5206 48.7011 27.5011C48.7719 27.4881 48.7784 27.4233 48.7784 27.3584C48.7719 27.0926 48.7848 26.8267 48.9071 26.5803C49.0358 26.3145 49.1839 26.081 49.538 26.1329C49.6088 26.1459 49.7182 26.1329 49.7053 26.0097C49.6796 25.9189 49.6152 25.893 49.5444 25.88C49.0359 25.7763 48.7269 25.452 48.6367 24.9268C48.6239 24.836 48.5981 24.7517 48.5788 24.6609C48.5659 24.5961 48.5595 24.5118 48.4694 24.5248C48.3664 24.5377 48.3857 24.6285 48.3921 24.6998C48.405 24.8944 48.3921 25.0824 48.3342 25.2705C48.2248 25.6401 47.9544 25.8411 47.6132 25.9773ZM47.7999 26.1134C48.1862 25.9708 48.3986 25.7049 48.5466 25.3548C48.7011 25.6206 48.8556 25.8476 49.1131 25.9902C48.817 26.1913 48.7076 26.496 48.5917 26.8267C48.4372 26.4766 48.154 26.2885 47.7999 26.1134Z" fill="white"/>
<path id="Vector_157" d="M17.9109 22.8987C17.8208 22.9311 17.7371 22.9765 17.647 23.0154C17.5633 23.0478 17.4668 23.0867 17.4925 23.197C17.5183 23.2942 17.6148 23.2942 17.6985 23.2877C17.9946 23.2812 18.2457 23.4109 18.4838 23.573C18.8443 23.813 18.9473 24.2085 19.0825 24.5781C19.0954 24.6105 19.1018 24.6495 19.1147 24.6884C19.1404 24.7662 19.1855 24.831 19.2756 24.8116C19.3657 24.7921 19.3722 24.7143 19.3722 24.63C19.3657 24.2928 19.3851 23.9686 19.5331 23.6573C19.694 23.3202 19.8807 23.0348 20.3249 23.0997C20.415 23.1127 20.5502 23.1062 20.5373 22.9505C20.5051 22.8403 20.4214 22.8079 20.3313 22.7884C19.694 22.6587 19.3078 22.2502 19.1984 21.5953C19.1791 21.4851 19.1533 21.3748 19.1276 21.2646C19.1082 21.1868 19.1018 21.0766 18.9924 21.096C18.8636 21.1155 18.8894 21.2257 18.8958 21.3165C18.9151 21.5564 18.8958 21.7963 18.825 22.0298C18.6705 22.4772 18.3294 22.7301 17.9109 22.8987Z" fill="white"/>
<path id="Vector_158" d="M28.4273 14.2748C28.3758 14.2942 28.3178 14.3201 28.2663 14.3461C28.2148 14.3655 28.1569 14.385 28.1698 14.4563C28.1827 14.5147 28.2406 14.5147 28.2921 14.5147C28.4723 14.5082 28.6204 14.586 28.7684 14.6898C28.9873 14.8389 29.0452 15.0723 29.1289 15.2993C29.1354 15.3187 29.1418 15.3447 29.1482 15.3641C29.1675 15.4095 29.1933 15.4549 29.2448 15.4419C29.2963 15.429 29.3027 15.3836 29.3027 15.3317C29.2963 15.1307 29.3092 14.9297 29.3993 14.7416C29.4958 14.5406 29.6117 14.3655 29.8756 14.4044C29.9336 14.4109 30.0108 14.4044 30.0044 14.3137C29.9851 14.2488 29.9336 14.2294 29.8821 14.2164C29.4958 14.1386 29.2577 13.8922 29.1933 13.4966C29.1804 13.4318 29.1675 13.3605 29.1482 13.2956C29.1354 13.2502 29.1354 13.1854 29.0646 13.1919C28.9873 13.2048 29.0002 13.2697 29.0066 13.3215C29.0195 13.4707 29.0066 13.6133 28.9616 13.756C28.8907 14.0219 28.6848 14.1775 28.4273 14.2748Z" fill="white"/>
</g>
<g id="Group_13">
<path id="Vector_159" d="M32.7345 60.4592C17.2391 60.4592 4.64062 47.7618 4.64062 32.1593C4.64062 16.5567 17.2455 3.85938 32.7345 3.85938C48.2235 3.85938 60.8284 16.5567 60.8284 32.1593C60.8284 47.7618 48.2299 60.4592 32.7345 60.4592ZM32.7345 4.35871C17.5159 4.35871 5.13633 16.8291 5.13633 32.1593C5.13633 47.4895 17.5159 59.9599 32.7345 59.9599C47.9531 59.9599 60.3327 47.4895 60.3327 32.1593C60.3327 16.8291 47.9531 4.35871 32.7345 4.35871Z" fill="white"/>
<path id="Vector_160" d="M32.8618 58.962C18.2483 58.962 6.35156 46.9845 6.35156 32.2574C6.35156 17.5303 18.2419 5.55273 32.8618 5.55273C47.4817 5.55273 59.372 17.5303 59.372 32.2574C59.372 46.9845 47.4752 58.962 32.8618 58.962ZM32.8618 5.72134C18.3385 5.72134 6.51894 17.6275 6.51894 32.2574C6.51894 46.8872 18.3385 58.7934 32.8618 58.7934C47.3851 58.7934 59.2046 46.8872 59.2046 32.2574C59.2046 17.6275 47.3851 5.72134 32.8618 5.72134Z" fill="white"/>
</g>
</g>
</g>
</g>
</svg>
