<svg width="50" height="51" viewBox="0 0 50 51" fill="none" xmlns="http://www.w3.org/2000/svg">
<rect x="0.5" y="1.24805" width="49" height="49" rx="24.5" stroke="white"/>
<path d="M25 18.3746C27.3855 18.3746 27.7108 18.3746 28.6867 18.3746C29.5542 18.3746 29.988 18.5914 30.3133 18.6999C30.747 18.9167 31.0723 19.0252 31.3976 19.3505C31.7229 19.6758 31.9398 20.0011 32.0482 20.4348C32.1566 20.7601 32.2651 21.1938 32.3735 22.0613C32.3735 23.0372 32.3735 23.2541 32.3735 25.748C32.3735 28.242 32.3735 28.4589 32.3735 29.4348C32.3735 30.3023 32.1566 30.736 32.0482 31.0613C31.8313 31.495 31.7229 31.8203 31.3976 32.1456C31.0723 32.4709 30.747 32.6878 30.3133 32.7962C29.988 32.9047 29.5542 33.0131 28.6867 33.1215C27.7108 33.1215 27.494 33.1215 25 33.1215C22.506 33.1215 22.2892 33.1215 21.3133 33.1215C20.4458 33.1215 20.012 32.9047 19.6867 32.7962C19.253 32.5794 18.9277 32.4709 18.6024 32.1456C18.2771 31.8203 18.0602 31.495 17.9518 31.0613C17.8434 30.736 17.7349 30.3023 17.6265 29.4348C17.6265 28.4589 17.6265 28.242 17.6265 25.748C17.6265 23.2541 17.6265 23.0372 17.6265 22.0613C17.6265 21.1938 17.8434 20.7601 17.9518 20.4348C18.1687 20.0011 18.2771 19.6758 18.6024 19.3505C18.9277 19.0252 19.253 18.8083 19.6867 18.6999C20.012 18.5914 20.4458 18.483 21.3133 18.3746C22.2892 18.3746 22.6145 18.3746 25 18.3746ZM25 16.748C22.506 16.748 22.2892 16.748 21.3133 16.748C20.3374 16.748 19.6867 16.9649 19.1446 17.1818C18.6024 17.3986 18.0602 17.724 17.5181 18.2661C16.9759 18.8083 16.759 19.242 16.4337 19.8926C16.2169 20.4348 16.1084 21.0854 16 22.0613C16 23.0372 16 23.3625 16 25.748C16 28.242 16 28.4589 16 29.4348C16 30.4107 16.2169 31.0613 16.4337 31.6035C16.6506 32.1456 16.9759 32.6878 17.5181 33.23C18.0602 33.7721 18.494 33.989 19.1446 34.3143C19.6867 34.5312 20.3374 34.6396 21.3133 34.748C22.2892 34.748 22.6145 34.748 25 34.748C27.3855 34.748 27.7108 34.748 28.6867 34.748C29.6627 34.748 30.3133 34.5312 30.8554 34.3143C31.3976 34.0974 31.9398 33.7721 32.4819 33.23C33.0241 32.6878 33.241 32.2541 33.5663 31.6035C33.7831 31.0613 33.8916 30.4107 34 29.4348C34 28.4589 34 28.1336 34 25.748C34 23.3625 34 23.0372 34 22.0613C34 21.0854 33.7831 20.4348 33.5663 19.8926C33.3494 19.3505 33.0241 18.8083 32.4819 18.2661C31.9398 17.724 31.506 17.5071 30.8554 17.1818C30.3133 16.9649 29.6627 16.8565 28.6867 16.748C27.7108 16.748 27.494 16.748 25 16.748Z" fill="white"/>
<path d="M25 21.0854C22.3976 21.0854 20.3373 23.1456 20.3373 25.748C20.3373 28.3505 22.3976 30.4107 25 30.4107C27.6024 30.4107 29.6627 28.3505 29.6627 25.748C29.6627 23.1456 27.6024 21.0854 25 21.0854ZM25 28.7842C23.3735 28.7842 21.9639 27.483 21.9639 25.748C21.9639 24.1215 23.2651 22.7119 25 22.7119C26.6265 22.7119 28.0361 24.0131 28.0361 25.748C28.0361 27.3746 26.6265 28.7842 25 28.7842Z" fill="white"/>
<path d="M29.7711 22.0613C30.3699 22.0613 30.8554 21.5758 30.8554 20.977C30.8554 20.3781 30.3699 19.8926 29.7711 19.8926C29.1722 19.8926 28.6867 20.3781 28.6867 20.977C28.6867 21.5758 29.1722 22.0613 29.7711 22.0613Z" fill="white"/>
</svg>
