<svg width="194" height="234" viewBox="0 0 194 234" fill="none" xmlns="http://www.w3.org/2000/svg">
<path d="M75.058 179.43C74.5728 184.032 74.278 188.65 74.2636 193.273C74.254 197.896 74.5289 202.521 75.154 207.1C75.4669 209.389 75.8717 211.665 76.3261 213.93C76.7888 216.193 77.3032 218.447 77.9365 220.665C78.5798 222.877 79.2954 225.085 80.3541 227.118C80.887 228.129 81.5231 229.079 82.3645 229.84C83.1956 230.608 84.1665 231.222 85.196 231.703C87.2667 232.654 89.5606 233.094 91.8348 233.106C92.973 233.108 94.1132 232.993 95.2147 232.729C96.2861 232.469 97.2436 231.846 98.0178 231.04C98.7917 230.228 99.4158 229.269 99.945 228.263C100.474 227.255 100.91 226.194 101.291 225.113C102.049 222.949 102.598 220.708 103.045 218.45C103.495 216.19 103.835 213.908 104.15 211.621C104.47 209.331 104.743 207.039 104.983 204.747C105.434 200.155 105.57 195.534 105.544 190.918C105.492 181.681 104.714 172.458 103.862 163.25C103.003 154.041 102.163 144.82 101.769 135.575C100.937 117.085 101.209 98.5664 101.826 80.0767L102.306 66.2086L102.435 62.7399C102.489 61.5809 102.578 60.4081 102.852 59.2558C103.121 58.1088 103.611 56.9757 104.388 56.0562C105.157 55.1374 106.093 54.4142 107.009 53.7079C107.923 53.0026 108.856 52.3216 109.598 51.4864C109.975 51.0741 110.269 50.6073 110.503 50.1183C110.583 49.8602 110.706 49.6148 110.737 49.3444C110.759 49.2118 110.794 49.0798 110.807 48.9465L110.825 48.5459C110.803 47.4694 110.259 46.4484 109.477 45.6852C108.681 44.9326 107.671 44.3832 106.594 44.1721C105.521 43.9678 104.375 44.0607 103.296 44.3465C102.21 44.6286 101.167 45.0913 100.169 45.6375C98.1683 46.7264 96.3399 48.1733 94.2654 49.2834C93.2294 49.8338 92.1279 50.3074 90.9623 50.5652C89.8025 50.8339 88.6078 50.9247 87.4302 50.8716C85.0678 50.7694 82.786 50.2033 80.5453 49.6402C78.307 49.0613 76.0732 48.5294 73.7989 48.4239C71.5448 48.3012 69.2263 48.6696 67.3541 49.8814C66.4284 50.4545 65.7213 51.3346 65.2522 52.3271C64.785 53.3193 64.5373 54.4276 64.5743 55.5209C64.6055 56.609 64.9348 57.6996 65.6329 58.4936C65.976 58.8926 66.415 59.1976 66.8979 59.409C67.3804 59.6256 67.9192 59.7312 68.4724 59.7949C69.5783 59.9269 70.7747 59.8553 71.9677 60.1946C72.5579 60.3584 73.1234 60.6048 73.6447 60.9201C74.1632 61.2392 74.6386 61.6206 75.068 62.0439C75.932 62.8897 76.5917 63.9131 77.0887 64.9991C77.5733 66.0976 77.869 67.2566 78.0418 68.4236C78.3869 70.765 78.27 73.1048 78.2296 75.4092L78.0733 82.3462C77.9636 86.9705 77.8454 91.5948 77.7004 96.2181C77.419 105.465 77.1185 114.711 76.7788 123.955L75.8103 151.689C75.5087 160.935 75.2674 170.179 75.058 179.43ZM74.9898 179.426C75.1561 170.18 75.3939 160.93 75.6201 151.683L76.3282 123.941L77.0482 96.2L77.3803 82.3298L77.5297 75.3945C77.5695 73.0822 77.6774 70.7726 77.3426 68.5278C77.1764 67.4091 76.8913 66.308 76.4406 65.2894C75.9758 64.277 75.3593 63.3243 74.5666 62.5514C74.1728 62.1638 73.7403 61.8184 73.2735 61.5315C72.8043 61.2488 72.3002 61.0308 71.7769 60.8858C70.7322 60.5825 69.5773 60.6445 68.3911 60.5109C67.7989 60.4427 67.1865 60.3275 66.611 60.0715C66.0363 59.8217 65.5023 59.4498 65.0897 58.9714C64.6754 58.4954 64.3666 57.9374 64.1657 57.352C63.9683 56.765 63.8689 56.1535 63.848 55.5445C63.8055 54.3245 64.0807 53.1126 64.5996 52.0162C65.1171 50.9247 65.9191 49.9281 66.9675 49.281C67.9826 48.6302 69.1256 48.1983 70.2936 47.9602C71.4633 47.7172 72.6569 47.6692 73.8325 47.7281C76.188 47.8433 78.4818 48.3999 80.7129 48.9821C82.9481 49.5507 85.1881 50.1076 87.4576 50.2105C88.5893 50.2646 89.7223 50.1793 90.8159 49.9287C91.9123 49.6899 92.9579 49.2447 93.9624 48.7148C95.9756 47.6473 97.8023 46.2085 99.8696 45.0868C100.899 44.5271 101.988 44.0449 103.142 43.7478C104.295 43.4476 105.514 43.3492 106.715 43.5826C107.909 43.8259 109.007 44.4298 109.884 45.2684C110.745 46.1156 111.372 47.2802 111.389 48.5387L111.366 49.0044C111.35 49.1583 111.311 49.3077 111.285 49.4596C111.245 49.7673 111.108 50.0483 111.012 50.3403C110.746 50.8931 110.412 51.4089 110.005 51.8493C109.201 52.7418 108.244 53.4269 107.328 54.1274C106.412 54.8245 105.502 55.5253 104.779 56.3815C104.053 57.2314 103.592 58.274 103.327 59.3713C103.059 60.4704 102.964 61.6148 102.904 62.7629L102.757 66.2264L102.202 80.0897C101.869 89.3329 101.594 98.5788 101.522 107.827C101.475 112.451 101.497 117.076 101.558 121.699C101.601 124.011 101.641 126.323 101.729 128.633C101.795 130.944 101.9 133.254 102.006 135.563C102.052 136.719 102.127 137.872 102.191 139.026C102.261 140.18 102.317 141.335 102.399 142.488C102.567 144.793 102.712 147.101 102.921 149.403C103.318 154.01 103.785 158.611 104.242 163.214C105.157 172.416 106.01 181.645 106.111 190.914C106.149 195.545 106.022 200.185 105.579 204.803C105.342 207.11 105.073 209.412 104.758 211.704C104.45 213.999 104.086 216.291 103.627 218.567C103.167 220.841 102.604 223.103 101.824 225.302C101.431 226.4 100.982 227.482 100.432 228.52C99.8812 229.555 99.23 230.552 98.4027 231.413C97.5781 232.267 96.5208 232.957 95.335 233.237C94.1855 233.51 93.0056 233.612 91.8331 233.601C89.4903 233.566 87.1434 233.094 85.0137 232.093C83.9547 231.586 82.9533 230.941 82.093 230.131C81.2212 229.328 80.5621 228.322 80.0299 227.287C78.9695 225.201 78.2734 222.976 77.6456 220.747C77.0294 218.512 76.5338 216.248 76.0903 213.976C75.6551 211.703 75.2698 209.42 74.9768 207.123C74.4041 202.529 74.12 197.901 74.1512 193.273C74.18 188.646 74.4902 184.021 74.9898 179.426Z" fill="white" fill-opacity="0.8"/>
<path d="M65.8208 59.2179C55.1714 56.2108 44.4501 53.4759 33.7899 50.4926C31.1262 49.7424 28.4657 48.9791 25.8107 48.197C24.4843 47.7971 23.1584 47.4163 21.832 46.9955C20.5081 46.5715 19.1828 46.0807 17.9542 45.3682C16.731 44.6633 15.6038 43.6961 14.8433 42.4695C14.4612 41.8598 14.1579 41.1939 13.9786 40.4872C13.8056 39.7802 13.761 39.0341 13.8768 38.3075C14.1143 36.8438 14.9859 35.5815 16.0161 34.6199C17.0501 33.6393 18.2475 32.8826 19.4536 32.1934C20.6634 31.5011 21.9109 30.8739 23.1926 30.3304C24.4679 29.7718 25.775 29.2913 27.0962 28.8601C29.7389 27.9951 32.4454 27.3563 35.1686 26.8405C37.8936 26.3298 40.636 25.9333 43.3829 25.5944C44.7545 25.4089 46.1308 25.2623 47.5048 25.0957C48.8815 24.9552 50.2565 24.7951 51.6349 24.6745C62.6581 23.633 73.7252 23.2118 84.7858 22.8697C90.3166 22.7111 95.8471 22.5298 101.384 22.4688C106.92 22.4081 112.466 22.4924 117.996 22.9115C123.524 23.3273 129.041 24.0651 134.453 25.3253C139.866 26.5797 145.156 28.3933 150.144 30.887C151.386 31.5402 152.599 32.2907 153.636 33.2843C154.153 33.7795 154.626 34.3344 155 34.9643C155.376 35.5908 155.637 36.3047 155.72 37.0446C155.805 37.7818 155.733 38.5392 155.498 39.2411C155.269 39.945 154.895 40.5856 154.454 41.1548C153.567 42.2975 152.441 43.18 151.296 43.9785C148.976 45.5142 146.626 46.9951 144.162 48.2789C142.95 48.9582 141.687 49.5371 140.443 50.1529C139.818 50.4521 139.176 50.7184 138.543 51.0025C137.909 51.2829 137.277 51.5694 136.627 51.8141C126.354 56.021 115.195 58.0177 104.129 57.6393L104.131 57.5707C109.66 57.6338 115.195 57.1818 120.613 56.1135C121.29 55.9781 121.969 55.853 122.644 55.7098L124.658 55.2331C124.993 55.1508 125.331 55.0802 125.664 54.9887L126.661 54.7118C127.325 54.5243 127.992 54.3495 128.653 54.1514C129.964 53.7213 131.291 53.3406 132.58 52.8471C133.227 52.6085 133.88 52.3854 134.522 52.1342L136.438 51.3552C137.081 51.1057 137.706 50.8151 138.334 50.5306C138.96 50.242 139.595 49.972 140.214 49.6687C141.443 49.0449 142.692 48.4589 143.888 47.7727C146.321 46.4769 148.644 44.9806 150.921 43.4425C152.035 42.6556 153.096 41.7861 153.909 40.7364C154.314 40.2127 154.644 39.6386 154.842 39.0248C155.046 38.4131 155.104 37.7636 155.031 37.1279C154.893 35.843 154.111 34.7011 153.152 33.7905C152.187 32.8672 151.022 32.1441 149.82 31.5148C149.22 31.1978 148.574 30.9387 147.953 30.6488L146.072 29.8002C145.437 29.5377 144.79 29.3012 144.149 29.0503C143.505 28.8087 142.87 28.5428 142.219 28.3207L140.256 27.6801C139.6 27.4707 138.952 27.238 138.284 27.0711L136.292 26.5235L135.296 26.251L134.289 26.021C128.927 24.7489 123.447 23.9918 117.946 23.5548C106.932 22.6871 95.8532 23.036 84.7944 23.245C79.2636 23.3653 73.7324 23.4866 68.2071 23.7495C65.4441 23.8749 62.6832 24.0319 59.9232 24.2129C57.1643 24.4048 54.4079 24.6313 51.6568 24.9106C50.2801 25.0378 48.9076 25.2043 47.5329 25.351C46.1617 25.5258 44.7867 25.6722 43.4189 25.8733C40.6792 26.2448 37.9477 26.6736 35.2406 27.2147C29.8386 28.2946 24.4891 29.9133 19.737 32.6849C18.5471 33.3703 17.3918 34.1106 16.4178 35.0421C15.4434 35.9585 14.6713 37.1114 14.467 38.4028C14.3676 39.0437 14.4084 39.7038 14.5657 40.3392C14.7292 40.9739 15.0075 41.5812 15.3612 42.1408C16.0706 43.2691 17.0915 44.1715 18.2571 44.8483C19.422 45.5317 20.7048 46.0163 22.0106 46.4406C23.3191 46.8625 24.6509 47.2518 25.9711 47.6562C28.6199 48.4493 31.2743 49.2242 33.9328 49.986C44.5643 53.041 55.254 55.9188 65.8396 59.1514L65.8208 59.2179Z" fill="white" fill-opacity="0.8"/>
<path d="M14.6484 36.1872C18.4818 30.6554 23.457 25.907 29.1393 22.2584C29.8432 21.7913 30.5791 21.3762 31.3032 20.9413C32.0435 20.5349 32.7759 20.113 33.534 19.7398C34.2811 19.3446 35.0515 18.9971 35.8158 18.6369L36.9787 18.1345C37.3659 17.9655 37.7549 17.802 38.1494 17.6516C41.2846 16.3921 44.5185 15.4294 47.7387 14.4674C50.964 13.5208 54.1982 12.6174 57.3571 11.4915C58.9418 10.9428 60.4926 10.3064 62.0273 9.63365C63.548 8.9297 65.0319 8.14933 66.4871 7.31207L70.851 4.78691C72.312 3.95376 73.7994 3.1566 75.3505 2.49138C76.9007 1.82787 78.5131 1.29014 80.1781 0.975186C81.8427 0.657485 83.5518 0.586542 85.2407 0.711634C88.6271 0.981355 91.9001 1.96187 95.0638 3.10347C98.2294 4.25912 101.352 5.49325 104.477 6.73938C110.722 9.23506 116.929 11.8247 123.087 14.5232C129.257 17.1961 135.378 19.9793 141.486 22.7872C143.013 23.4905 144.537 24.1913 146.059 24.9169C147.576 25.6475 149.081 26.4365 150.464 27.4222C151.154 27.915 151.818 28.4476 152.407 29.0689C152.995 29.6872 153.498 30.3819 153.904 31.128C154.725 32.615 155.159 34.3064 155.151 35.9936L155.082 35.9939C155.041 34.3194 154.563 32.6658 153.716 31.2346C153.298 30.5162 152.787 29.8537 152.2 29.2708C151.612 28.6909 150.953 28.1744 150.266 27.7066C148.89 26.7672 147.391 26.0184 145.868 25.323L141.265 23.2759C135.122 20.5482 128.968 17.8503 122.806 15.172C119.724 13.833 116.629 12.5286 113.538 11.2132C110.446 9.90063 107.346 8.60446 104.235 7.33743L99.5643 5.44802C98.0056 4.82255 96.4497 4.18749 94.8821 3.59733C91.7534 2.41495 88.536 1.4005 85.2099 1.08554C83.5508 0.936115 81.8728 0.978956 80.2305 1.26547C78.5861 1.54341 76.9846 2.05921 75.4451 2.71277C72.3569 4.0199 69.5089 5.82569 66.6054 7.51735C65.8778 7.93924 65.1464 8.35599 64.4027 8.75115C63.6655 9.15898 62.8975 9.50753 62.1459 9.88897C60.6167 10.5957 59.069 11.267 57.4883 11.8497C54.3357 13.041 51.111 14.0181 47.9025 15.0113C46.2945 15.4972 44.6922 15.9955 43.0989 16.5165C42.3066 16.7883 41.5084 17.045 40.7239 17.3363L39.5422 17.7605L38.3715 18.2109C37.9794 18.3569 37.5928 18.5159 37.2086 18.6801L36.054 19.1684C35.2959 19.519 34.5313 19.857 33.7893 20.2422C33.0364 20.6055 32.3091 21.0174 31.5733 21.4143C30.8539 21.8393 30.1219 22.2447 29.4217 22.7019C23.7483 26.2442 18.7354 30.8517 14.705 36.2266L14.6484 36.1872Z" fill="white" fill-opacity="0.8"/>
<path d="M74.5094 48.0337C74.3569 45.8732 74.2746 43.7116 74.1999 41.5501C74.166 40.4692 74.142 39.3882 74.1228 38.3073L74.1015 36.6859C74.1005 36.1502 74.0734 35.6001 74.178 35.0148C74.2746 34.4287 74.631 33.855 75.1088 33.5106C75.5838 33.1548 76.126 32.9626 76.6589 32.8207C77.1963 32.6795 77.7303 32.5972 78.2618 32.4951L79.8585 32.1987C81.9861 31.799 84.1168 31.4197 86.2585 31.0855C88.3991 30.7459 90.5558 30.4947 92.7201 30.3449C93.7973 30.2739 94.894 30.1776 96.0191 30.2925C96.5802 30.3463 97.146 30.4731 97.6871 30.6876C98.2266 30.9073 98.7365 31.2281 99.155 31.6411C99.9981 32.4725 100.469 33.5733 100.704 34.6618C100.942 35.7575 100.987 36.8713 100.959 37.9591C100.939 39.0441 100.868 40.1172 100.942 41.1827C101.01 42.2441 101.212 43.3093 101.72 44.2641L101.662 44.2994C101.047 43.3929 100.738 42.3 100.597 41.2173C100.459 40.1288 100.443 39.0352 100.423 37.9591C100.41 36.8874 100.323 35.826 100.061 34.815C99.801 33.8125 99.3716 32.8471 98.6471 32.1671C98.291 31.8248 97.8739 31.554 97.4123 31.3652C96.9482 31.1811 96.4503 31.0663 95.9372 31.0022C94.9091 30.8734 93.8367 30.9395 92.7582 30.9885C90.6059 31.0975 88.4546 31.25 86.3054 31.458C84.1576 31.6743 82.016 31.979 79.901 32.417C78.8506 32.6438 77.7782 32.8762 76.7665 33.1871C76.2675 33.3523 75.7833 33.5654 75.408 33.8852C75.0279 34.2039 74.8058 34.6275 74.7397 35.1131C74.6643 35.5977 74.7116 36.1358 74.7116 36.679L74.7294 38.3008C74.7366 39.3821 74.7387 40.463 74.7308 41.5443C74.7082 43.7068 74.678 45.8697 74.5776 48.0333L74.5094 48.0337Z" fill="white" fill-opacity="0.8"/>
<path d="M105.64 199.23C111.503 187.856 117.404 176.503 123.337 165.166C126.296 159.494 129.334 153.862 132.109 148.108C133.481 145.225 134.804 142.319 136.001 139.362C137.179 136.398 138.228 133.384 139.093 130.317C139.953 127.248 140.581 124.118 140.96 120.957C141.35 117.804 141.415 114.578 141.11 111.44C140.99 110.662 140.798 109.893 140.491 109.175C140.184 108.464 139.773 107.777 139.171 107.303C138.884 107.048 138.533 106.889 138.181 106.752C137.814 106.653 137.438 106.581 137.05 106.6C136.275 106.624 135.505 106.84 134.725 107.025C133.949 107.205 133.12 107.382 132.291 107.187C131.88 107.095 131.498 106.885 131.185 106.602C130.873 106.315 130.645 105.941 130.519 105.542C130.047 103.932 130.79 102.093 132.206 101.237C132.893 100.789 133.667 100.501 134.451 100.314C135.237 100.124 136.037 100.022 136.833 99.9357L141.605 99.4315L151.145 98.3972L155.916 97.88C157.508 97.7159 159.09 97.5157 160.694 97.3848C162.288 97.2693 163.962 97.2957 165.497 97.915C166.264 98.2279 166.95 98.7135 167.516 99.3171C167.791 99.6248 168.041 99.9576 168.245 100.32C168.443 100.687 168.598 101.077 168.693 101.487C168.778 101.899 168.798 102.325 168.746 102.746C168.708 102.954 168.673 103.164 168.594 103.36L168.492 103.659C168.455 103.758 168.397 103.847 168.351 103.942C167.961 104.696 167.319 105.276 166.637 105.722C165.256 106.613 163.719 107.122 162.356 107.908C161.673 108.294 161.048 108.759 160.536 109.335C160.02 109.908 159.615 110.577 159.307 111.291C158.699 112.729 158.456 114.308 158.305 115.883C158.233 116.674 158.186 117.47 158.139 118.268C158.095 119.066 158.02 119.869 157.962 120.669C157.897 121.469 157.788 122.266 157.703 123.064C157.607 123.861 157.476 124.654 157.363 125.449C156.858 128.621 156.139 131.755 155.289 134.847C153.586 141.037 151.362 147.056 149.099 153.04C146.824 159.017 144.616 165.022 142.276 170.982C137.608 182.893 132.408 194.677 125.585 205.548C123.866 208.253 122.06 210.905 120.109 213.45C118.145 215.985 116.053 218.422 113.8 220.704C111.554 222.993 109.083 225.063 106.455 226.896C103.823 228.723 101 230.282 98.0176 231.454L97.9922 231.39C103.922 228.954 109.106 225.016 113.559 220.466C115.782 218.177 117.843 215.735 119.777 213.197C121.698 210.648 123.474 207.992 125.164 205.285C128.519 199.851 131.46 194.17 134.148 188.376C136.827 182.577 139.299 176.682 141.618 170.725C143.954 164.775 146.127 158.757 148.432 152.786C150.715 146.815 152.952 140.823 154.668 134.676C155.527 131.604 156.241 128.493 156.77 125.351C156.887 124.564 157.023 123.779 157.126 122.989C157.216 122.198 157.331 121.409 157.4 120.616C157.464 119.822 157.544 119.032 157.596 118.234C157.649 117.436 157.702 116.635 157.781 115.833C157.948 114.235 158.206 112.61 158.859 111.097C159.19 110.345 159.628 109.632 160.188 109.02C160.743 108.404 161.423 107.909 162.134 107.516C163.553 106.717 165.092 106.217 166.412 105.376C167.065 104.957 167.649 104.428 168.002 103.758C168.044 103.673 168.098 103.594 168.131 103.506L168.225 103.238C168.298 103.062 168.329 102.876 168.365 102.691C168.414 102.318 168.4 101.938 168.327 101.565C167.992 100.07 166.781 98.8273 165.365 98.2375C163.915 97.6415 162.293 97.5993 160.716 97.7059C159.131 97.8266 157.537 98.0188 155.947 98.1737L151.174 98.6645L141.628 99.6464L136.857 100.152C136.064 100.241 135.274 100.345 134.505 100.535C133.737 100.721 132.991 101.004 132.337 101.434C132.014 101.653 131.711 101.905 131.464 102.198C131.212 102.491 131.027 102.838 130.885 103.197C130.599 103.915 130.542 104.732 130.763 105.463C130.989 106.198 131.607 106.759 132.354 106.926C133.1 107.101 133.892 106.941 134.659 106.751C135.429 106.561 136.211 106.328 137.04 106.293C137.455 106.268 137.873 106.34 138.277 106.448C138.669 106.593 139.06 106.768 139.378 107.043C140.045 107.56 140.488 108.29 140.818 109.033C141.148 109.784 141.354 110.578 141.486 111.378C141.834 114.594 141.795 117.812 141.436 121.009C141.082 124.201 140.491 127.369 139.64 130.466C138.779 133.561 137.731 136.598 136.556 139.583C135.363 142.561 134.046 145.485 132.65 148.369C129.843 154.131 126.782 159.751 123.801 165.411C117.801 176.712 111.77 187.996 105.7 199.261L105.64 199.23Z" fill="white" fill-opacity="0.8"/>
<path d="M141.193 99.6166C141.705 97.3221 141.937 94.982 141.84 92.6567C141.795 91.4945 141.674 90.3364 141.469 89.1935C141.269 88.0454 140.97 86.9384 140.667 85.7879C140.525 85.2118 140.401 84.6233 140.341 84.0198C140.284 83.4183 140.28 82.7959 140.432 82.1951C140.575 81.5947 140.864 81.0289 141.273 80.5737C141.676 80.1121 142.189 79.7653 142.734 79.5151C143.83 79.0178 145.025 78.8392 146.201 78.7518C147.385 78.6857 148.559 78.6727 149.735 78.635C150.911 78.6017 152.087 78.5548 153.263 78.5342C154.444 78.514 155.602 78.467 156.803 78.4811C157.404 78.4965 158.017 78.5483 158.627 78.7069C159.231 78.8708 159.847 79.1556 160.312 79.6391C160.791 80.1121 161.065 80.7376 161.219 81.3394C161.375 81.9463 161.44 82.5512 161.496 83.1356C161.948 87.8322 162.065 92.5641 161.754 97.2652L161.685 97.2638C161.561 92.5583 161.286 87.8723 160.769 83.2106C160.707 82.6263 160.65 82.0563 160.511 81.5234C160.375 80.9912 160.153 80.5038 159.799 80.1361C159.452 79.7584 158.968 79.5158 158.446 79.3619C157.919 79.2135 157.354 79.1508 156.781 79.1254C154.454 79.0894 152.083 79.0713 149.737 79.0106L147.972 78.9787C147.383 78.964 146.8 78.9589 146.216 78.9928C145.055 79.0562 143.873 79.2125 142.829 79.7159C142.312 79.9675 141.842 80.3146 141.488 80.7557C141.135 81.1975 140.904 81.7253 140.805 82.2753C140.606 83.3875 140.896 84.5308 141.218 85.6409C141.553 86.7533 141.883 87.9172 142.068 89.0913C142.266 90.2658 142.368 91.4561 142.371 92.6453C142.373 95.0224 142.018 97.4006 141.259 99.6358L141.193 99.6166Z" fill="white" fill-opacity="0.8"/>
<path d="M141.832 95.6109C135.368 95.7117 128.906 95.7477 122.443 95.7662C120.826 95.7645 119.19 95.7446 117.565 95.4721C116.753 95.3378 115.947 95.1342 115.172 94.834C114.399 94.5396 113.645 94.1373 112.985 93.6184C112.328 93.0981 111.745 92.4781 111.287 91.7691C110.832 91.061 110.483 90.2669 110.354 89.4184C110.218 88.5749 110.295 87.6849 110.598 86.8839C110.89 86.0755 111.406 85.364 112.018 84.7889C113.261 83.635 114.815 82.9708 116.357 82.4587C117.133 82.2045 117.922 81.9985 118.708 81.8131L121.067 81.2393L123.44 80.7287L124.627 80.4768L125.82 80.2557C126.616 80.1111 127.408 79.9463 128.204 79.8082L130.598 79.412C136.988 78.4147 143.427 77.747 149.884 77.3687C156.341 76.9848 162.812 76.856 169.278 76.8748C172.511 76.8776 175.743 76.9489 178.976 76.9958L183.824 77.0873C184.632 77.1055 185.437 77.113 186.258 77.1637C187.077 77.2151 187.909 77.3108 188.725 77.5431C189.533 77.7755 190.342 78.1439 190.986 78.7519C191.621 79.3489 192.104 80.1152 192.304 80.9875C192.4 81.4227 192.416 81.8857 192.322 82.335C192.229 82.784 192.022 83.211 191.747 83.564C191.185 84.2734 190.433 84.7056 189.733 85.1073C186.908 86.7098 183.972 88.1208 180.931 89.2559C174.86 91.5579 168.417 92.8335 161.956 93.0776L161.952 93.009C165.174 92.778 168.376 92.3195 171.517 91.5994C173.092 91.2587 174.643 90.819 176.186 90.3598C177.718 89.868 179.245 89.3549 180.738 88.7555C183.738 87.592 186.627 86.1567 189.401 84.5363C190.092 84.1343 190.759 83.7124 191.204 83.1425C191.649 82.5777 191.794 81.8484 191.627 81.1376C191.465 80.4298 191.051 79.7687 190.51 79.2646C189.974 78.7581 189.269 78.4328 188.531 78.2227C187.043 77.8111 185.42 77.8454 183.805 77.8074L178.961 77.71C175.732 77.6398 172.503 77.5452 169.274 77.5195C162.816 77.465 156.356 77.4461 149.904 77.7433C146.678 77.8828 143.453 78.0747 140.241 78.3996C137.025 78.6947 133.821 79.1169 130.636 79.6464C127.448 80.157 124.291 80.8449 121.157 81.6105L118.819 82.2302C118.036 82.4313 117.265 82.6493 116.511 82.9132C115.011 83.4386 113.538 84.1292 112.412 85.1998C111.852 85.7317 111.4 86.3692 111.146 87.0862C110.882 87.8004 110.821 88.5715 110.945 89.3214C111.063 90.0733 111.383 90.7906 111.803 91.4352C112.226 92.0792 112.752 92.6625 113.36 93.1468C114.575 94.1136 116.107 94.6445 117.662 94.9169C119.226 95.1921 120.835 95.2271 122.447 95.2408C128.908 95.3093 135.371 95.393 141.833 95.5431L141.832 95.6109Z" fill="white" fill-opacity="0.8"/>
<path d="M111.089 86.458C111.039 85.9062 111.115 85.3414 111.294 84.8136C111.472 84.2844 111.74 83.7896 112.05 83.3289C112.675 82.4067 113.46 81.6116 114.25 80.8514C115.827 79.3267 117.392 77.7882 118.98 76.2744L123.741 71.7303C125.326 70.2124 126.94 68.7281 128.541 67.2266C130.158 65.7409 131.797 64.2758 133.482 62.8638C134.325 62.1585 135.184 61.4707 136.056 60.8013C136.924 60.1272 137.807 59.4716 138.712 58.8475C140.522 57.6055 142.395 56.4221 144.44 55.581C145.462 55.1629 146.527 54.8435 147.619 54.6437C148.712 54.4583 149.839 54.4147 150.945 54.5481C153.165 54.8024 155.266 55.6143 157.27 56.5074L163.264 59.2334C167.253 61.0601 171.243 62.8847 175.213 64.7539C177.199 65.6868 179.192 66.6029 181.172 67.5495L184.143 68.9649C185.131 69.4372 186.13 69.9029 187.105 70.4276C188.083 70.9462 189.028 71.5446 189.895 72.2492C190.748 72.9638 191.544 73.7818 192.098 74.7634C192.665 75.7298 193.016 76.8228 193.092 77.9369C193.175 79.0491 192.918 80.1907 192.318 81.1222L192.26 81.0859C192.808 80.1413 193.004 79.0254 192.877 77.9555C192.756 76.8831 192.366 75.8518 191.801 74.9419C191.245 74.0228 190.46 73.2647 189.616 72.6001C188.759 71.9459 187.823 71.3982 186.856 70.9023C185.89 70.4057 184.89 69.9619 183.891 69.5078L180.893 68.1489C178.894 67.2458 176.909 66.3123 174.915 65.3955C170.927 63.5657 166.96 61.691 162.992 59.8184L157.046 57.003C155.067 56.0883 153.047 55.2222 150.898 54.9209C149.828 54.7657 148.739 54.7811 147.666 54.9357C146.594 55.0992 145.541 55.3973 144.531 55.8055C142.503 56.614 140.626 57.7686 138.849 59.0428C137.057 60.301 135.367 61.6989 133.731 63.1537C132.094 64.6082 130.511 66.1217 128.93 67.6413C127.336 69.1469 125.762 70.6764 124.154 72.1686L119.341 76.6576C117.737 78.1549 116.111 79.6276 114.497 81.1136C113.692 81.8549 112.888 82.5938 112.241 83.464C111.598 84.3239 111.12 85.3551 111.158 86.4542L111.089 86.458Z" fill="white" fill-opacity="0.8"/>
<path d="M133.191 145.848C131.503 145.281 129.724 145.082 127.962 145.123C126.196 145.158 124.446 145.451 122.726 145.853C121.004 146.258 119.307 146.779 117.603 147.296C115.896 147.813 114.191 148.327 112.414 148.682C111.519 148.839 110.588 148.912 109.664 148.742C109.204 148.654 108.746 148.495 108.343 148.233C107.941 147.973 107.601 147.612 107.375 147.193C106.915 146.344 106.892 145.39 106.91 144.503L106.994 141.83C107.046 140.05 107.071 138.269 107.098 136.488C107.137 134.708 107.108 132.922 107.27 131.135C107.429 129.354 107.727 127.549 108.457 125.871C109.17 124.193 110.339 122.691 111.812 121.596C113.289 120.505 114.998 119.769 116.765 119.336C118.535 118.913 120.372 118.776 122.18 118.914C129.425 119.466 136.216 124.014 139.324 130.482L139.263 130.513C135.779 124.295 129.117 120.125 122.129 119.643C120.384 119.51 118.629 119.652 116.93 120.032C115.235 120.423 113.602 121.105 112.195 122.115C110.798 123.136 109.675 124.506 108.954 126.092C108.23 127.678 107.854 129.419 107.644 131.173C107.44 132.931 107.381 134.712 107.339 136.493C107.29 138.273 107.241 140.054 107.217 141.835L107.193 144.505C107.204 145.38 107.275 146.283 107.707 147.004C108.129 147.731 108.913 148.155 109.746 148.27C110.585 148.396 111.458 148.294 112.307 148.122C115.738 147.342 119.099 146.077 122.611 145.334C124.365 144.959 126.162 144.743 127.961 144.764C129.756 144.789 131.564 145.093 133.216 145.784L133.191 145.848Z" fill="white" fill-opacity="0.8"/>
<path d="M105.668 181.795C105.981 181.125 106.309 180.467 106.642 179.812C106.955 179.146 107.278 178.488 107.606 177.832C107.912 177.166 108.227 176.504 108.546 175.844C108.84 175.173 109.15 174.509 109.471 173.85L110.404 171.855C110.696 171.182 110.988 170.507 111.259 169.824C111.506 169.132 111.744 168.437 111.969 167.737C112.176 167.032 112.354 166.318 112.548 165.61C112.715 164.894 112.868 164.176 113.046 163.465C113.196 162.747 113.346 162.03 113.508 161.315L113.917 159.157C114.028 158.433 114.157 157.712 114.281 156.991C114.761 154.102 115.112 151.192 115.401 148.257L115.469 148.259C115.613 151.209 115.431 154.176 115.004 157.103C114.878 157.832 114.757 158.562 114.618 159.289L114.138 161.455C113.958 162.173 113.765 162.887 113.573 163.6C113.364 164.309 113.129 165.011 112.909 165.715C112.669 166.413 112.416 167.107 112.19 167.809C111.937 168.501 111.698 169.198 111.468 169.899C111.218 170.592 110.987 171.293 110.759 171.996L109.995 174.078C109.708 174.759 109.409 175.436 109.095 176.104C108.762 176.765 108.425 177.423 108.079 178.075C107.714 178.718 107.343 179.357 106.961 179.989C106.558 180.609 106.151 181.226 105.727 181.83L105.668 181.795Z" fill="white" fill-opacity="0.8"/>
<path d="M81.2639 229.25C79.9437 229.207 78.6297 229.027 77.3432 228.716C76.0634 228.378 74.8197 227.914 73.6219 227.347C72.4337 226.76 71.3007 226.067 70.2204 225.298C69.1525 224.511 68.1528 223.635 67.2113 222.7C66.288 221.748 65.4223 220.74 64.6344 219.671C63.8606 218.592 63.1518 217.468 62.5147 216.305C61.8879 215.136 61.3162 213.938 60.8097 212.713C60.3097 211.485 59.8672 210.235 59.4751 208.97C57.9113 203.901 57.1505 198.645 56.4359 193.428C55.7131 188.213 55.0626 182.977 53.6318 177.926C52.2246 172.87 50.0545 168.051 48.1887 163.118C47.2548 160.651 46.387 158.15 45.753 155.583C45.1114 153.02 44.6923 150.392 44.5922 147.753C44.4644 145.114 44.547 142.477 44.4808 139.846C44.4136 137.22 44.2382 134.578 43.6035 132.033C43.2782 130.769 42.8121 129.529 42.0883 128.449C41.3662 127.371 40.3411 126.509 39.1269 126.056C37.9184 125.582 36.6089 125.4 35.3227 125.068C34.677 124.901 34.0382 124.683 33.4353 124.379C32.8335 124.078 32.2601 123.689 31.7975 123.176C31.3324 122.668 31.0024 122.023 30.8858 121.332C30.7775 120.642 30.8649 119.933 31.1014 119.288C31.3307 118.638 31.7001 118.046 32.157 117.536C32.6193 117.025 33.1653 116.612 33.7462 116.265C34.9148 115.576 36.1973 115.16 37.4636 114.79C38.7327 114.41 40.0193 114.092 41.3155 113.823C46.5039 112.733 51.802 112.394 57.0641 112.152C58.3784 112.091 59.7144 112.024 61.0612 112.158C62.3989 112.299 63.7742 112.647 64.9271 113.461C65.4929 113.866 65.9954 114.361 66.4008 114.935C66.8032 115.509 67.0941 116.176 67.2158 116.886C67.3309 117.599 67.234 118.343 66.9732 119.011C66.7055 119.684 66.2497 120.262 65.7342 120.731C64.6793 121.656 63.4428 122.226 62.2536 122.788C61.0623 123.346 59.8675 123.884 58.8634 124.645C58.3675 125.028 57.9332 125.474 57.6166 125.989C57.2941 126.503 57.1196 127.086 57.062 127.7C57.0024 128.316 57.0473 128.955 57.1114 129.603L57.3318 131.562C59.6921 152.469 65.5214 172.979 74.5106 192.043L74.4489 192.073C65.0717 173.187 59.0162 152.625 56.6295 131.642L56.4047 129.674C56.3389 129.013 56.2861 128.33 56.3519 127.632C56.414 126.937 56.6244 126.222 57.0041 125.617C57.3773 125.007 57.8794 124.497 58.424 124.075C59.5262 123.239 60.7586 122.692 61.9455 122.13C63.1289 121.57 64.3212 121.02 65.2575 120.199C65.7143 119.785 66.0948 119.302 66.3186 118.748C66.5369 118.19 66.6195 117.585 66.5276 116.995C66.3357 115.804 65.5368 114.737 64.534 114.015C63.5244 113.293 62.2611 112.955 60.9927 112.817C59.7147 112.683 58.4083 112.741 57.0929 112.797C51.8363 113.026 46.5704 113.31 41.4214 114.339C40.1351 114.593 38.8589 114.896 37.6 115.26C36.3392 115.614 35.0883 116.011 33.9748 116.654C33.4223 116.976 32.9038 117.363 32.4764 117.827C32.0518 118.292 31.7046 118.837 31.4897 119.429C31.2673 120.018 31.1854 120.656 31.2752 121.27C31.3732 121.882 31.658 122.459 32.0775 122.927C32.9254 123.87 34.1653 124.407 35.408 124.744C36.6661 125.084 37.988 125.28 39.2362 125.782C40.4953 126.264 41.5698 127.189 42.3008 128.306C43.0435 129.424 43.5116 130.69 43.8372 131.973C44.4699 134.553 44.6347 137.207 44.6926 139.842C44.7444 142.479 44.6954 145.115 44.8297 147.741C44.9449 150.368 45.3668 152.971 46.0265 155.513C46.6886 158.056 47.5828 160.534 48.5451 162.981C50.4637 167.877 52.7068 172.673 54.1784 177.772C55.6319 182.873 56.3441 188.13 57.0326 193.349C57.7214 198.567 58.4545 203.792 59.9782 208.817C60.3583 210.072 60.797 211.306 61.2724 212.526C61.7583 213.742 62.3087 214.931 62.9136 216.092C63.5285 217.247 64.2149 218.363 64.9638 219.435C65.7274 220.497 66.5694 221.5 67.4687 222.451C68.3848 223.386 69.3667 224.254 70.4021 225.055C71.4532 225.836 72.5588 226.543 73.7227 227.147C74.8961 227.731 76.1183 228.215 77.3812 228.575C78.651 228.909 79.9523 229.114 81.2666 229.184L81.2639 229.25Z" fill="white" fill-opacity="0.8"/>
<path d="M38.0263 114.704C38.2104 114.304 38.3677 113.897 38.4657 113.474C38.5569 113.05 38.6165 112.622 38.6312 112.19C38.6641 111.326 38.5702 110.462 38.4208 109.603C38.2717 108.745 38.0716 107.891 37.8796 107.026C37.6891 106.161 37.5129 105.278 37.4697 104.369C37.431 103.468 37.5098 102.516 37.9119 101.67C38.1021 101.245 38.3978 100.87 38.7381 100.564C39.0788 100.248 39.4459 100.011 39.8181 99.7595C41.3017 98.7581 43.0523 98.1943 44.8159 97.9541C45.6871 97.8208 46.5655 97.6604 47.4703 97.623C48.3699 97.5771 49.3117 97.6474 50.197 97.9764C50.6439 98.1357 51.0538 98.3671 51.4376 98.6193C51.8287 98.8681 52.1868 99.1687 52.5206 99.4919C53.1882 100.143 53.7002 100.939 54.0766 101.778C54.8127 103.475 55.0111 105.321 54.9464 107.107C54.872 108.901 54.5468 110.65 54.1759 112.379L54.1081 112.37C54.2544 110.606 54.4498 108.847 54.4062 107.102C54.3624 105.368 54.1156 103.621 53.4089 102.076C53.0624 101.305 52.595 100.596 52.013 99.995C51.7204 99.6968 51.4057 99.4172 51.0565 99.1824C50.709 98.9411 50.3485 98.7256 49.9656 98.5785C49.1959 98.2759 48.3442 98.1632 47.4819 98.1669C46.619 98.1724 45.7423 98.2478 44.8601 98.327C43.9866 98.4037 43.1174 98.522 42.2843 98.7914C41.4501 99.0505 40.6584 99.4432 39.9414 99.9439C39.5901 100.197 39.2241 100.462 38.9328 100.766C38.6415 101.072 38.4023 101.426 38.2611 101.822C37.9567 102.606 37.9485 103.478 38.038 104.328C38.2083 106.038 38.7258 107.743 38.9452 109.525C39.0051 109.969 39.0421 110.417 39.0528 110.868C39.0713 111.318 39.0476 111.772 38.9938 112.221C38.8852 113.118 38.5897 114.002 38.0842 114.739L38.0263 114.704Z" fill="white" fill-opacity="0.8"/>
<path d="M38.3563 110.759C32.2336 111.926 26.0445 112.755 19.8296 113.289C16.7215 113.548 13.6068 113.736 10.4895 113.851C8.93078 113.912 7.37107 113.944 5.81135 113.952C4.29105 113.958 2.58362 114.076 1.10342 113.184C0.744247 112.955 0.419006 112.63 0.224341 112.226C0.0334466 111.824 -0.0508616 111.377 0.0135697 110.934C0.07663 110.49 0.286372 110.086 0.554722 109.761C0.824442 109.434 1.1466 109.169 1.48555 108.944C2.17064 108.505 2.9164 108.203 3.67964 107.981C4.44287 107.774 5.19171 107.593 5.94844 107.397L15.011 105.109C21.0565 103.601 27.0966 102.071 33.1508 100.594C39.2028 99.1096 45.2745 97.7013 51.3656 96.3815C57.4554 95.0566 63.5582 93.7895 69.6822 92.6315C71.1943 92.345 72.7784 91.9724 74.419 92.162C74.8275 92.2175 75.2367 92.3049 75.6349 92.4543C76.0301 92.612 76.4084 92.832 76.7364 93.1212C77.0613 93.417 77.3084 93.7813 77.4986 94.1734C77.6635 94.5774 77.7697 95.0096 77.767 95.4421C77.7636 96.3061 77.4702 97.1156 77.0665 97.8172C76.6614 98.5239 76.1583 99.1589 75.5911 99.7244C74.4251 100.82 73.1869 101.774 71.8554 102.621C66.5618 106.023 60.1269 107.569 53.9161 106.944L53.9219 106.876C57.0266 107.074 60.156 106.771 63.1442 105.957C64.6384 105.554 66.1042 105.046 67.5132 104.409C68.92 103.768 70.2727 103.017 71.5627 102.172C72.8493 101.332 74.0759 100.355 75.1644 99.3053C75.6932 98.7651 76.1559 98.1606 76.5167 97.5108C76.8797 96.8651 77.1138 96.1488 77.1066 95.4514C77.1049 95.1015 77.0127 94.7683 76.8831 94.453C76.7268 94.1477 76.5291 93.8618 76.2762 93.6305C76.0174 93.4057 75.7161 93.2292 75.3878 93.0986C75.055 92.9756 74.6993 92.8995 74.3364 92.8505C73.6043 92.7706 72.8469 92.8087 72.0943 92.9118C71.3451 93.0092 70.5822 93.1829 69.8162 93.3258C63.7052 94.5257 57.5966 95.7379 51.5003 97.0125C45.4054 98.2922 39.3166 99.6041 33.2368 100.96C27.16 102.328 21.097 103.763 15.0699 105.339C12.0536 106.116 9.04594 106.926 6.0468 107.767C5.29967 107.976 4.53883 108.179 3.80336 108.395C3.07679 108.621 2.37114 108.927 1.75218 109.344C1.14728 109.76 0.616753 110.331 0.536557 111.003C0.493374 111.334 0.569458 111.686 0.717513 111.979C0.86968 112.275 1.11541 112.519 1.41118 112.707C2.01025 113.081 2.75909 113.251 3.50382 113.325C4.24718 113.403 5.02412 113.358 5.80518 113.355C7.36044 113.334 8.91502 113.29 10.4696 113.25C13.5787 113.16 16.6862 112.999 19.7888 112.766C25.9955 112.319 32.1836 111.612 38.3454 110.692L38.3563 110.759Z" fill="white" fill-opacity="0.8"/>
<path d="M1 108.718C2.93945 105.497 5.49956 102.676 8.25708 100.128C9.64133 98.8563 11.0708 97.6369 12.5126 96.437C13.9534 95.2358 15.4302 94.0839 16.8874 92.906L21.3119 89.4391L23.5263 87.7083L25.7231 85.956C26.4531 85.3689 27.191 84.7918 27.9141 84.1965C28.6386 83.6029 29.3652 83.0093 30.1106 82.4376C31.6045 81.3063 33.1628 80.2134 34.9158 79.4769C35.3432 79.2695 35.7977 79.1321 36.2391 78.9577C36.6935 78.8257 37.1411 78.6612 37.6045 78.5601C38.5209 78.3092 39.4624 78.1763 40.4031 78.0594C42.2898 77.8733 44.1936 77.8891 46.0731 78.0868C47.9536 78.2777 49.8169 78.6002 51.6529 79.0176C53.494 79.4145 55.3059 79.9365 57.1021 80.4979C64.2831 82.7615 71.081 86.2466 77.0642 90.7712L77.0244 90.8271C70.8006 86.6545 64.0076 83.3969 56.8907 81.1723C55.1116 80.6164 53.3096 80.1352 51.4942 79.714C49.6826 79.2785 47.8508 78.9385 46.0059 78.728C44.1614 78.5176 42.3014 78.4604 40.4552 78.6009C38.6176 78.7795 36.7772 79.1177 35.0612 79.8234C33.3363 80.5009 31.746 81.5058 30.2569 82.6299C28.7654 83.755 27.3191 84.9501 25.8732 86.1404L23.7041 87.9273L21.5525 89.7358L17.2452 93.3474C15.7935 94.5312 14.3534 95.731 12.8944 96.9025C11.4403 98.0797 10.0022 99.2734 8.61077 100.518C5.81281 102.986 3.20266 105.681 1.05792 108.755L1 108.718Z" fill="white" fill-opacity="0.8"/>
<g opacity="0.6">
<path d="M74.349 40.1835C68.2966 43.5164 62.152 46.6756 55.9258 49.6566C62.0498 46.4714 68.0807 43.1134 74.0083 39.5889L74.349 40.1835Z" fill="white" fill-opacity="0.8"/>
</g>
<g opacity="0.6">
<path d="M74.2717 39.1669L51.8945 38.8242L74.2717 38.4814V39.1669Z" fill="white" fill-opacity="0.8"/>
</g>
<g opacity="0.6">
<path d="M74.1259 37.2389L53.1758 31.1553L74.3065 36.5778L74.1259 37.2389Z" fill="white" fill-opacity="0.8"/>
</g>
<g opacity="0.6">
<path d="M74.2567 34.8731C69.8103 32.8092 65.7987 29.8725 62.5117 26.2969C65.9629 29.7138 70.0762 32.4268 74.5305 34.2445L74.2567 34.8731Z" fill="white" fill-opacity="0.8"/>
</g>
<g opacity="0.6">
<path d="M76.284 33.14C74.5142 30.8541 73.0165 28.3752 71.8242 25.7705C73.2201 28.272 74.8981 30.6008 76.8091 32.6996L76.284 33.14Z" fill="white" fill-opacity="0.8"/>
</g>
<g opacity="0.6">
<path d="M79.8008 32.1372L81.268 26.0303L80.4749 32.2606L79.8008 32.1372Z" fill="white" fill-opacity="0.8"/>
</g>
<g opacity="0.6">
<path d="M88.168 30.4585C88.596 28.845 88.6954 27.119 88.4387 25.4219C88.9182 27.0697 89.0625 28.8391 88.8407 30.5884L88.168 30.4585Z" fill="white" fill-opacity="0.8"/>
</g>
<g opacity="0.6">
<path d="M98.0898 30.6035C99.947 28.6603 101.966 26.886 104.115 25.3047C102.109 27.0642 100.264 28.9917 98.6049 31.0555L98.0898 30.6035Z" fill="white" fill-opacity="0.8"/>
</g>
<g opacity="0.6">
<path d="M96.1053 30.4588C95.5491 28.6273 95.1899 26.7488 95.0312 24.8652C95.4158 26.7159 95.9939 28.5138 96.7479 30.2206L96.1053 30.4588Z" fill="white" fill-opacity="0.8"/>
</g>
<g opacity="0.6">
<path d="M99.9062 31.3044C103.951 29.8876 108.107 28.8173 112.313 28.1055C108.151 29.0414 104.077 30.3283 100.15 31.945L99.9062 31.3044Z" fill="white" fill-opacity="0.8"/>
</g>
<g opacity="0.6">
<path d="M100.207 33.0674L116.038 34.8516L100.145 33.7501L100.207 33.0674Z" fill="white" fill-opacity="0.8"/>
</g>
<g opacity="0.6">
<path d="M100.973 35.8877C106.697 38.1359 112.015 41.3609 116.629 45.3677C111.868 41.5361 106.465 38.5369 100.734 36.5303L100.973 35.8877Z" fill="white" fill-opacity="0.8"/>
</g>
<g opacity="0.6">
<path d="M84.3538 1.05064C84.2119 6.08588 83.776 11.1064 83.0508 16.0775C83.5491 11.0783 83.7551 6.05675 83.6684 1.04688L84.3538 1.05064Z" fill="white" fill-opacity="0.8"/>
</g>
<g opacity="0.6">
<path d="M84.2727 0.867188C92.2475 4.33722 99.4812 9.43551 105.406 15.7385C99.3171 9.59419 91.9843 4.72209 84.0078 1.49916L84.2727 0.867188Z" fill="white" fill-opacity="0.8"/>
</g>
<g opacity="0.6">
<path d="M83.7219 1.07788C74.6107 6.71732 65.2709 11.9781 55.7344 16.843C65.165 11.7755 74.3821 6.32114 83.3551 0.499023L83.7219 1.07788Z" fill="white" fill-opacity="0.8"/>
</g>
<g opacity="0.6">
<path d="M83.5435 1.54151C79.3997 6.3526 74.9505 10.8909 70.2344 15.1207C74.7949 10.7236 79.0669 6.03799 83.0161 1.10352L83.5435 1.54151Z" fill="white" fill-opacity="0.8"/>
</g>
<g opacity="0.6">
<path d="M84.2322 1.08398C87.9264 4.61742 90.8878 8.87776 92.9023 13.5257C90.6801 8.97304 87.5501 4.89228 83.7695 1.58984L84.2322 1.08398Z" fill="white" fill-opacity="0.8"/>
</g>
<g opacity="0.6">
<path d="M150.101 55.3769C148.156 56.3444 146.411 57.6971 144.827 59.2126C143.24 60.7302 141.798 62.4064 140.367 64.0906C138.936 65.7754 137.512 67.4773 135.952 69.0545C134.396 70.6293 132.692 72.0814 130.773 73.1901C132.663 72.0317 134.32 70.543 135.829 68.9356C137.341 67.3258 138.715 65.5948 140.103 63.8723C141.492 62.1504 142.895 60.4279 144.467 58.8456C146.036 57.266 147.79 55.8269 149.788 54.7676L150.101 55.3769Z" fill="white" fill-opacity="0.8"/>
</g>
<g opacity="0.6">
<path d="M149.985 54.9688C156.09 61.2378 162.769 66.9626 169.916 72.0475C162.639 67.1507 155.796 61.5901 149.5 55.4534L149.985 54.9688Z" fill="white" fill-opacity="0.8"/>
</g>
<g opacity="0.6">
<path d="M150.064 55.3546C147.899 61.1352 146.181 67.0931 144.934 73.1564C145.957 67.0509 147.457 61.0163 149.418 55.126L150.064 55.3546Z" fill="white" fill-opacity="0.8"/>
</g>
<g opacity="0.6">
<path d="M150.314 55.3506C151.373 60.1836 153.395 64.8281 156.243 68.9291C153.21 64.9628 150.951 60.3797 149.648 55.5127L150.314 55.3506Z" fill="white" fill-opacity="0.8"/>
</g>
<g opacity="0.6">
<path d="M119.516 119.732C117.954 122.354 116.06 124.71 114.543 127.302C113.787 128.596 113.13 129.953 112.67 131.383C112.21 132.809 111.955 134.316 112.036 135.825C111.898 134.32 112.096 132.792 112.506 131.334C112.916 129.872 113.529 128.472 114.245 127.135C115.679 124.458 117.491 122.016 118.921 119.393L119.516 119.732Z" fill="white" fill-opacity="0.8"/>
</g>
<g opacity="0.6">
<path d="M118.963 119.948C120.561 120.043 122.092 120.6 123.422 121.422C124.755 122.246 125.909 123.326 126.858 124.552C127.806 125.778 128.56 127.134 129.19 128.534C129.822 129.935 130.334 131.382 130.813 132.836C130.28 131.401 129.715 129.975 129.036 128.607C128.357 127.24 127.562 125.93 126.59 124.766C125.621 123.606 124.463 122.603 123.16 121.864C121.86 121.127 120.404 120.665 118.934 120.633L118.963 119.948Z" fill="white" fill-opacity="0.8"/>
</g>
<g opacity="0.6">
<path d="M119.357 120.602C119.27 125.095 120.077 129.627 121.733 133.854C119.866 129.716 118.813 125.189 118.672 120.606L119.357 120.602Z" fill="white" fill-opacity="0.8"/>
</g>
<g opacity="0.6">
<path d="M161.039 83.107L166.992 79.3408L161.433 83.6677L161.039 83.107Z" fill="white" fill-opacity="0.8"/>
</g>
<g opacity="0.6">
<path d="M161.446 82.6816C166.004 82.9555 170.524 83.6766 174.92 84.8267C170.472 83.899 165.943 83.4106 161.422 83.3667L161.446 82.6816Z" fill="white" fill-opacity="0.8"/>
</g>
<g opacity="0.6">
<path d="M161.959 83.4834L167.719 89.8617L161.469 83.9625L161.959 83.4834Z" fill="white" fill-opacity="0.8"/>
</g>
<g opacity="0.6">
<path d="M140.132 84.3658C136.395 84.3469 132.673 83.9079 129.059 83.0645C132.718 83.6837 136.435 83.8887 140.114 83.6803L140.132 84.3658Z" fill="white" fill-opacity="0.8"/>
</g>
<g opacity="0.6">
<path d="M140.363 86.8731C135.373 88.2885 130.517 90.2207 125.898 92.6331C130.407 90.0202 135.194 87.8656 140.162 86.2178L140.363 86.8731Z" fill="white" fill-opacity="0.8"/>
</g>
<g opacity="0.6">
<path d="M140.578 85.208L124.156 87.912L140.453 84.5342L140.578 85.208Z" fill="white" fill-opacity="0.8"/>
</g>
<g opacity="0.6">
<path d="M40.0893 79.1002C32.29 83.3907 25.6649 89.8599 21.1719 97.6174C25.4661 89.7478 31.9545 83.0562 39.7514 78.5039L40.0893 79.1002Z" fill="white" fill-opacity="0.8"/>
</g>
<g opacity="0.6">
<path d="M39.3794 78.2676C46.6444 79.61 53.1663 84.2001 56.8622 90.4773C52.9713 84.319 46.3651 80.0233 39.2656 78.9434L39.3794 78.2676Z" fill="white" fill-opacity="0.8"/>
</g>
<g opacity="0.6">
<path d="M40.8652 79.6966C35.6288 83.8123 32.217 90.2554 31.7852 97.0036C31.9887 90.2452 35.1849 83.5882 40.4323 79.165L40.8652 79.6966Z" fill="white" fill-opacity="0.8"/>
</g>
<g opacity="0.6">
<path d="M40.9351 78.9229C42.8361 82.7904 43.9585 87.0117 44.2344 91.2673C43.731 87.0326 42.3896 82.9227 40.3281 79.2416L40.9351 78.9229Z" fill="white" fill-opacity="0.8"/>
</g>
<g opacity="0.6">
<path d="M37.6732 105.841L28.4688 102.886L37.8593 105.182L37.6732 105.841Z" fill="white" fill-opacity="0.8"/>
</g>
<g opacity="0.6">
<path d="M38.3216 106.388C32.7651 107.098 27.2573 108.261 21.8711 109.866C27.1874 108.044 32.6613 106.651 38.2212 105.71L38.3216 106.388Z" fill="white" fill-opacity="0.8"/>
</g>
<g opacity="0.6">
<path d="M37.4076 106.043L22.0586 105.894L37.3987 105.357L37.4076 106.043Z" fill="white" fill-opacity="0.8"/>
</g>
<g opacity="0.6">
<path d="M53.7852 101.59C57.5414 100.558 61.1063 98.7423 64.1809 96.2744C61.2544 98.9164 57.7655 100.967 53.986 102.245L53.7852 101.59Z" fill="white" fill-opacity="0.8"/>
</g>
<g opacity="0.6">
<path d="M54.5053 101.355C57.5713 102.009 60.5563 102.982 63.3968 104.25C60.4707 103.194 57.4448 102.45 54.3867 102.031L54.5053 101.355Z" fill="white" fill-opacity="0.8"/>
</g>
<g opacity="0.6">
<path d="M54.4453 101.18L68.3021 101.379L54.4525 101.865L54.4453 101.18Z" fill="white" fill-opacity="0.8"/>
</g>
<g opacity="0.6">
<path d="M91.4974 233.207C90.7342 220.247 89.0816 207.348 87.4297 194.462C89.3074 207.317 91.1876 220.185 92.1811 233.16L91.4974 233.207Z" fill="white" fill-opacity="0.8"/>
</g>
<g opacity="0.6">
<path d="M93.1484 233.463C93.9929 219.268 96.5335 205.189 100.692 191.62C96.7525 205.255 94.4467 219.346 93.8332 233.498L93.1484 233.463Z" fill="white" fill-opacity="0.8"/>
</g>
<g opacity="0.6">
<path d="M89.4386 233.257C87.1362 220.096 82.8903 207.258 76.8711 195.291C83.0935 207.154 87.5735 219.947 90.1127 233.133L89.4386 233.257Z" fill="white" fill-opacity="0.8"/>
</g>
<g opacity="0.6">
<path d="M101.094 226.421C103.827 224.308 105.757 221.297 107.152 218.113C108.563 214.916 109.54 211.534 110.599 208.183L116.892 188.057L110.927 208.283C109.923 211.647 109.001 215.053 107.623 218.317C106.938 219.948 106.122 221.534 105.119 223.009C104.118 224.481 102.919 225.838 101.516 226.961L101.094 226.421Z" fill="white" fill-opacity="0.8"/>
</g>
<g opacity="0.6">
<path d="M105.684 220.787C114.511 212.869 120.822 202.13 123.44 190.489C121.045 202.178 114.926 213.107 106.146 221.293L105.684 220.787Z" fill="white" fill-opacity="0.8"/>
</g>
<g opacity="0.6">
<path d="M109.18 191.94C111.543 182.263 114.892 172.839 119.155 163.86C115.1 172.934 111.978 182.412 109.847 192.095L109.18 191.94Z" fill="white" fill-opacity="0.8"/>
</g>
<g opacity="0.6">
<path d="M109.316 189.894C109.925 183.402 111.149 176.98 112.961 170.739C111.369 177.039 110.377 183.48 110 189.946L109.316 189.894Z" fill="white" fill-opacity="0.8"/>
</g>
<g opacity="0.6">
<path d="M77.9394 222.844C68.9996 214.966 63.306 203.606 62.3203 191.823C63.5332 203.585 69.4355 214.741 78.3877 222.326L77.9394 222.844Z" fill="white" fill-opacity="0.8"/>
</g>
<g opacity="0.6">
<path d="M75.6951 211.659C71.1599 204.298 67.8286 196.22 65.8594 187.839C68.0504 196.165 71.5852 204.116 76.2739 211.292L75.6951 211.659Z" fill="white" fill-opacity="0.8"/>
</g>
</svg>
