<svg width="241" height="64" viewBox="0 0 241 64" fill="none" xmlns="http://www.w3.org/2000/svg">
<path d="M227.707 28.593V16.2373H236.381V16.9257H229.459V21.9386H235.855V22.6269H229.459V27.9046H236.556V28.593H227.707Z" fill="#B9A16E"/>
<path d="M217.696 18.7962C217.696 20.2612 218.923 20.7908 221.183 21.7616C223.742 22.8736 225.038 23.6679 225.038 25.5565C225.038 27.5511 223.601 28.7337 220.588 28.7337C217.381 28.7337 215.681 27.3569 215.594 24.9034H217.346C217.346 26.6685 218.432 28.0983 220.64 28.0983C222.077 28.0983 223.286 27.4981 223.286 25.9978C223.286 24.6563 222.34 24.2327 219.606 22.9618C217.399 21.9381 215.962 21.285 215.962 19.2904C215.962 17.3135 217.311 16.1133 220.237 16.1133C223.198 16.1133 224.758 17.3488 224.793 19.5905H223.023C223.023 17.8784 222.095 16.784 220.255 16.7487C218.643 16.7134 217.696 17.5077 217.696 18.7962Z" fill="#B9A16E"/>
<path d="M212.525 24.0037V16.2373H213.225V23.9155C213.225 26.7926 211.403 28.7342 208.337 28.7342C205.305 28.7342 203.062 26.8455 203.062 23.9155V16.2373H204.815V24.0037C204.815 26.669 206.707 28.0458 208.792 28.0458C210.755 28.0458 212.525 26.8279 212.525 24.0037Z" fill="#B9A16E"/>
<path d="M188.94 16.2373L193.583 26.2454L198.104 16.3256V16.2373H199.856V28.593H198.104V18.0377L193.618 28.0634H192.549L187.818 18.0554V28.593H187.117V16.2373H188.94Z" fill="#B9A16E"/>
<path d="M170.98 28.593V16.2373H179.654V16.9257H172.733V21.9386H179.128V22.6269H172.733V27.9046H179.829V28.593H170.98Z" fill="#B9A16E"/>
<path d="M160.97 18.7962C160.97 20.2612 162.196 20.7908 164.457 21.7616C167.015 22.8736 168.312 23.6679 168.312 25.5565C168.312 27.5511 166.875 28.7337 163.861 28.7337C160.654 28.7337 158.955 27.3569 158.867 24.9034H160.619C160.619 26.6685 161.706 28.0983 163.914 28.0983C165.35 28.0983 166.56 27.4981 166.56 25.9978C166.56 24.6563 165.613 24.2327 162.88 22.9618C160.672 21.9381 159.235 21.285 159.235 19.2904C159.235 17.3135 160.584 16.1133 163.511 16.1133C166.472 16.1133 168.031 17.3488 168.066 19.5905H166.297C166.297 17.8784 165.368 16.784 163.528 16.7487C161.916 16.7134 160.97 17.5077 160.97 18.7962Z" fill="#B9A16E"/>
<path d="M144.527 22.4147C144.527 18.7962 147.156 16.1133 150.748 16.1133C154.34 16.1133 156.968 18.7962 156.968 22.4147C156.968 26.0331 154.34 28.7337 150.748 28.7337C147.156 28.7337 144.527 26.0331 144.527 22.4147ZM146.35 22.4147C146.35 25.7507 148.225 28.0983 150.748 28.0983C153.289 28.0983 155.163 25.7507 155.163 22.4147C155.163 19.0786 153.289 16.7487 150.748 16.7487C148.225 16.7487 146.35 19.0786 146.35 22.4147Z" fill="#B9A16E"/>
<path d="M132.035 28.593V16.2373H136.048C139.64 16.2373 142.531 18.7261 142.531 22.521C142.531 25.963 140.166 28.593 136.573 28.593H132.035ZM136.048 16.9257H133.787V27.9046H136.573C138.869 27.9046 140.709 25.8041 140.709 22.5387C140.709 19.1144 138.729 16.9257 136.048 16.9257Z" fill="#B9A16E"/>
<path d="M116.879 22.4147C116.879 18.7962 119.507 16.1133 123.099 16.1133C126.691 16.1133 129.32 18.7962 129.32 22.4147C129.32 26.0331 126.691 28.7337 123.099 28.7337C119.507 28.7337 116.879 26.0331 116.879 22.4147ZM118.701 22.4147C118.701 25.7507 120.576 28.0983 123.099 28.0983C125.64 28.0983 127.515 25.7507 127.515 22.4147C127.515 19.0786 125.64 16.7487 123.099 16.7487C120.576 16.7487 118.701 19.0786 118.701 22.4147Z" fill="#B9A16E"/>
<path d="M106.215 28.593V16.2373H110.438C113.136 16.2373 114.941 17.5258 114.941 19.6792C114.941 21.4443 113.767 22.6093 111.892 22.98L115.607 28.593H113.714L110.087 23.1212H107.967V28.593H106.215ZM110 16.9257H107.967V22.4328H110.017C111.91 22.4328 113.119 21.4796 113.119 19.6969C113.119 17.9141 111.91 16.9257 110 16.9257Z" fill="#B9A16E"/>
<path d="M101.912 24.9034H103.664C103.174 27.5334 101.089 28.7337 98.3727 28.7337C94.1498 28.7337 92.1172 25.8742 92.1172 22.3794C92.1172 18.7962 94.2374 16.1133 98.215 16.1133C100.861 16.1133 103.121 17.2782 103.507 19.9965H101.755C101.509 18.0019 100.16 16.7487 98.1449 16.7487C95.1486 16.7487 93.9395 19.5905 93.9395 22.397C93.9395 25.38 95.3413 28.0983 98.25 28.0983C100.125 28.0983 101.579 27.0216 101.912 24.9034Z" fill="#B9A16E"/>
<path d="M87.5625 28.593V16.2373H89.3147V28.593H87.5625Z" fill="#B9A16E"/>
<path d="M73.2325 16.2373L77.8759 26.2454L82.3967 16.3256V16.2373H84.149V28.593H82.3967V18.0377L77.911 28.0634H76.8421L72.1111 18.0554V28.593H71.4102V16.2373H73.2325Z" fill="#B9A16E"/>
<path d="M170.727 42.8331C170.64 42.5633 170.525 42.3215 170.381 42.1078C170.241 41.8914 170.072 41.7071 169.876 41.5548C169.683 41.4025 169.462 41.2863 169.216 41.2062C168.969 41.126 168.699 41.0859 168.404 41.0859C167.922 41.0859 167.483 41.2115 167.087 41.4626C166.692 41.7138 166.378 42.0838 166.145 42.5727C165.911 43.0615 165.795 43.6613 165.795 44.3719C165.795 45.0826 165.913 45.6823 166.149 46.1712C166.385 46.6601 166.704 47.0301 167.107 47.2812C167.51 47.5324 167.964 47.6579 168.468 47.6579C168.935 47.6579 169.346 47.5577 169.701 47.3574C170.059 47.1543 170.338 46.8685 170.537 46.4998C170.738 46.1285 170.839 45.6917 170.839 45.1894L171.141 45.2535H168.691V44.3719H171.794V45.2535C171.794 45.9294 171.65 46.5172 171.364 47.0168C171.08 47.5163 170.688 47.9037 170.186 48.1789C169.688 48.4514 169.115 48.5876 168.468 48.5876C167.747 48.5876 167.113 48.4166 166.566 48.0747C166.023 47.7327 165.598 47.2465 165.293 46.616C164.991 45.9855 164.84 45.2375 164.84 44.3719C164.84 43.7227 164.926 43.139 165.098 42.6207C165.273 42.0998 165.52 41.6563 165.838 41.2903C166.157 40.9243 166.533 40.6438 166.968 40.4488C167.403 40.2538 167.882 40.1562 168.404 40.1562C168.834 40.1562 169.234 40.2217 169.606 40.3526C169.98 40.4808 170.312 40.6638 170.604 40.9016C170.899 41.1367 171.144 41.4185 171.34 41.7471C171.536 42.0731 171.672 42.4351 171.746 42.8331H170.727Z" fill="#B9A16E"/>
<path d="M163.179 40.2686V48.4755H162.224L157.785 42.0318H157.705V48.4755H156.719V40.2686H157.674L162.129 46.7283H162.209V40.2686H163.179Z" fill="#B9A16E"/>
<path d="M154.744 40.2686V48.4755H153.758V40.2686H154.744Z" fill="#B9A16E"/>
<path d="M145.465 48.4755V40.2686H146.451V43.9232H150.796V40.2686H151.782V48.4755H150.796V44.8048H146.451V48.4755H145.465Z" fill="#B9A16E"/>
<path d="M143.87 42.8331H142.884C142.825 42.5473 142.723 42.2961 142.577 42.0798C142.434 41.8634 142.259 41.6817 142.052 41.5348C141.848 41.3852 141.621 41.273 141.372 41.1981C141.123 41.1233 140.863 41.0859 140.592 41.0859C140.099 41.0859 139.652 41.2115 139.252 41.4626C138.854 41.7138 138.537 42.0838 138.301 42.5727C138.068 43.0615 137.951 43.6613 137.951 44.3719C137.951 45.0826 138.068 45.6823 138.301 46.1712C138.537 46.6601 138.854 47.0301 139.252 47.2812C139.652 47.5324 140.099 47.6579 140.592 47.6579C140.863 47.6579 141.123 47.6205 141.372 47.5457C141.621 47.4709 141.848 47.36 142.052 47.2131C142.259 47.0635 142.434 46.8805 142.577 46.6641C142.723 46.445 142.825 46.1939 142.884 45.9107H143.87C143.796 46.3302 143.661 46.7055 143.465 47.0368C143.268 47.3681 143.024 47.6499 142.733 47.8823C142.441 48.1121 142.113 48.2871 141.75 48.4073C141.389 48.5275 141.003 48.5876 140.592 48.5876C139.897 48.5876 139.28 48.4166 138.739 48.0747C138.197 47.7327 137.772 47.2465 137.462 46.616C137.151 45.9855 136.996 45.2375 136.996 44.3719C136.996 43.5064 137.151 42.7583 137.462 42.1278C137.772 41.4974 138.197 41.0111 138.739 40.6692C139.28 40.3272 139.897 40.1562 140.592 40.1562C141.003 40.1562 141.389 40.2164 141.75 40.3366C142.113 40.4568 142.441 40.6331 142.733 40.8655C143.024 41.0953 143.268 41.3758 143.465 41.7071C143.661 42.0357 143.796 42.411 143.87 42.8331Z" fill="#B9A16E"/>
<path d="M130.464 48.4755H129.43L132.421 40.2686H133.44L136.431 48.4755H135.397L132.962 41.5669H132.899L130.464 48.4755ZM130.846 45.2697H135.015V46.1513H130.846V45.2697Z" fill="#B9A16E"/>
<path d="M128.853 44.3719C128.853 45.2375 128.697 45.9855 128.387 46.616C128.077 47.2465 127.651 47.7327 127.11 48.0747C126.569 48.4166 125.951 48.5876 125.256 48.5876C124.562 48.5876 123.944 48.4166 123.403 48.0747C122.862 47.7327 122.436 47.2465 122.126 46.616C121.815 45.9855 121.66 45.2375 121.66 44.3719C121.66 43.5064 121.815 42.7583 122.126 42.1278C122.436 41.4974 122.862 41.0111 123.403 40.6692C123.944 40.3272 124.562 40.1562 125.256 40.1562C125.951 40.1562 126.569 40.3272 127.11 40.6692C127.651 41.0111 128.077 41.4974 128.387 42.1278C128.697 42.7583 128.853 43.5064 128.853 44.3719ZM127.898 44.3719C127.898 43.6613 127.78 43.0615 127.544 42.5727C127.31 42.0838 126.993 41.7138 126.593 41.4626C126.195 41.2115 125.75 41.0859 125.256 41.0859C124.763 41.0859 124.316 41.2115 123.916 41.4626C123.518 41.7138 123.201 42.0838 122.965 42.5727C122.732 43.0615 122.615 43.6613 122.615 44.3719C122.615 45.0826 122.732 45.6823 122.965 46.1712C123.201 46.6601 123.518 47.0301 123.916 47.2812C124.316 47.5324 124.763 47.6579 125.256 47.6579C125.75 47.6579 126.195 47.5324 126.593 47.2812C126.993 47.0301 127.31 46.6601 127.544 46.1712C127.78 45.6823 127.898 45.0826 127.898 44.3719Z" fill="#B9A16E"/>
<path d="M120.382 42.8331H119.395C119.337 42.5473 119.235 42.2961 119.089 42.0798C118.946 41.8634 118.771 41.6817 118.564 41.5348C118.36 41.3852 118.133 41.273 117.884 41.1981C117.634 41.1233 117.375 41.0859 117.104 41.0859C116.611 41.0859 116.164 41.2115 115.763 41.4626C115.366 41.7138 115.049 42.0838 114.813 42.5727C114.579 43.0615 114.463 43.6613 114.463 44.3719C114.463 45.0826 114.579 45.6823 114.813 46.1712C115.049 46.6601 115.366 47.0301 115.763 47.2812C116.164 47.5324 116.611 47.6579 117.104 47.6579C117.375 47.6579 117.634 47.6205 117.884 47.5457C118.133 47.4709 118.36 47.36 118.564 47.2131C118.771 47.0635 118.946 46.8805 119.089 46.6641C119.235 46.445 119.337 46.1939 119.395 45.9107H120.382C120.308 46.3302 120.173 46.7055 119.976 47.0368C119.78 47.3681 119.536 47.6499 119.244 47.8823C118.953 48.1121 118.625 48.2871 118.262 48.4073C117.901 48.5275 117.515 48.5876 117.104 48.5876C116.409 48.5876 115.791 48.4166 115.25 48.0747C114.709 47.7327 114.284 47.2465 113.973 46.616C113.663 45.9855 113.508 45.2375 113.508 44.3719C113.508 43.5064 113.663 42.7583 113.973 42.1278C114.284 41.4974 114.709 41.0111 115.25 40.6692C115.791 40.3272 116.409 40.1562 117.104 40.1562C117.515 40.1562 117.901 40.2164 118.262 40.3366C118.625 40.4568 118.953 40.6331 119.244 40.8655C119.536 41.0953 119.78 41.3758 119.976 41.7071C120.173 42.0357 120.308 42.411 120.382 42.8331Z" fill="#B9A16E"/>
<path d="M31.2948 37.5309C31.3592 37.1677 31.2884 36.8046 31.1983 36.4544C31.1082 36.1043 30.9794 35.7477 30.9151 35.378C30.7863 34.6388 30.8121 33.8672 31.0116 33.1409C31.0374 33.0502 31.0567 32.9659 31.1146 32.8556C31.1725 32.7584 31.2498 32.687 31.3335 32.6287C31.4944 32.512 31.6618 32.4406 31.7905 32.3304C32.0737 32.0905 32.3699 31.8635 32.6853 31.6755C33.0007 31.4874 33.3483 31.3253 33.7152 31.2605C34.0821 31.2021 34.4684 31.2086 34.8289 31.3448C35.1893 31.4745 35.5112 31.7533 35.6786 32.1099C35.8524 32.4666 35.9103 32.8491 35.9425 33.2188C35.994 33.958 36.1098 34.6712 36.303 35.3716C36.3931 35.7217 36.5154 36.0654 36.6377 36.4091C36.7664 36.7527 36.9209 37.0705 37.0754 37.4141C37.1527 37.5892 37.217 37.7708 37.2492 37.9588C37.2814 38.1469 37.2814 38.3544 37.217 38.5424C37.1591 38.7305 37.0432 38.8991 36.8823 39.0093C36.7986 39.0612 36.7085 39.1001 36.6119 39.113C36.5605 39.1195 36.5218 39.1195 36.4832 39.139C36.4446 39.1519 36.406 39.1844 36.4253 39.2168C36.4317 39.2233 36.4253 39.2298 36.4188 39.2362C36.4124 39.2362 36.406 39.2362 36.3995 39.2298C36.3802 39.2103 36.3802 39.1714 36.3995 39.1455C36.4188 39.1195 36.4381 39.1066 36.4575 39.0936C36.4961 39.0677 36.554 39.0547 36.5926 39.0482C36.6763 39.0287 36.7536 38.9898 36.8179 38.9315C36.9531 38.8212 37.0304 38.6591 37.0754 38.4905C37.1655 38.1534 37.0304 37.8032 36.8759 37.4855C36.7149 37.1677 36.5347 36.8305 36.3866 36.4869C36.2386 36.1432 36.1163 35.7866 36.0133 35.4299C35.9167 35.0668 35.8331 34.7037 35.7816 34.3341C35.7301 33.9645 35.7043 33.5884 35.6786 33.2252C35.6528 32.8621 35.6077 32.5055 35.4726 32.1877C35.3374 31.87 35.0863 31.6106 34.758 31.468C34.4362 31.3253 34.0693 31.2799 33.7152 31.3383C33.3612 31.3966 33.02 31.5393 32.7175 31.7338C32.4085 31.9284 32.1381 32.1748 31.8742 32.4277C31.7326 32.5638 31.5588 32.6546 31.43 32.7584C31.3657 32.8102 31.3077 32.8686 31.282 32.9334C31.2562 32.9918 31.2369 33.0891 31.2176 33.1734C31.0567 33.8737 31.0116 34.6064 31.1082 35.3262C31.1532 35.6828 31.2498 36.0394 31.3206 36.4026C31.3914 36.7657 31.4236 37.1612 31.3077 37.5179C31.3077 37.5244 31.2948 37.5309 31.2884 37.5244C31.3013 37.5438 31.2948 37.5373 31.2948 37.5309Z" fill="#B9A16E"/>
<path d="M31.2051 36.2142C31.2502 36.4282 31.218 36.6487 31.1601 36.8562C31.1021 37.0637 31.0056 37.2582 30.8833 37.4333C30.761 37.6084 30.6065 37.751 30.4777 37.9131C30.349 38.0753 30.2395 38.2503 30.1623 38.4384C30.0915 38.6264 30.0464 38.8145 30.0657 38.9831C30.0851 39.1517 30.1945 39.2943 30.3232 39.424C30.5871 39.6899 30.9348 39.8909 31.3274 40.0076C31.3339 40.0076 31.3403 40.0206 31.3339 40.0271C31.3339 40.0335 31.3274 40.0335 31.321 40.04C30.8961 40.0919 30.4455 39.9363 30.1172 39.638C29.9563 39.4889 29.8147 39.2619 29.8018 39.009C29.7889 38.7561 29.8984 38.5421 30.0207 38.3735C30.143 38.1985 30.2846 38.0428 30.394 37.8678C30.5035 37.6927 30.5871 37.4981 30.6773 37.3166C30.8704 36.9599 31.0506 36.6228 31.1665 36.2142C31.1665 36.2078 31.1794 36.2013 31.1858 36.2078C31.1987 36.2013 31.2051 36.2078 31.2051 36.2142Z" fill="#B9A16E"/>
<path d="M30.0938 39.412C30.1324 39.2628 30.2289 39.1267 30.3512 39.0229C30.4671 38.9192 30.6087 38.8414 30.7568 38.783C31.0465 38.6728 31.3683 38.6274 31.6773 38.6728C31.9863 38.7182 32.276 38.8414 32.5399 38.9905C32.6686 39.0618 32.8102 39.1396 32.9197 39.0813C32.9712 39.0553 33.0162 38.997 33.0613 38.9386C33.1063 38.8803 33.1643 38.8154 33.2287 38.7635C33.4733 38.556 33.8402 38.4718 34.1556 38.5755C34.3037 38.6209 34.4324 38.6663 34.5354 38.6468C34.6448 38.6339 34.7607 38.5755 34.883 38.4977C35.0117 38.4264 35.1469 38.3356 35.3207 38.2967C35.4945 38.2578 35.6555 38.2707 35.8035 38.2902C35.9516 38.3096 36.0996 38.3486 36.2348 38.355C36.3764 38.368 36.518 38.355 36.6404 38.2772C36.6468 38.2707 36.6532 38.2772 36.6597 38.2837C36.6597 38.2902 36.6597 38.2967 36.6597 38.3032C36.5567 38.4199 36.3957 38.4847 36.2412 38.4977C36.0868 38.5171 35.9323 38.5107 35.7842 38.5107C35.6362 38.5107 35.501 38.5171 35.3851 38.5561C35.2692 38.595 35.1534 38.6728 35.0246 38.7506C34.8959 38.8284 34.7414 38.9192 34.5547 38.9321C34.3616 38.9451 34.2007 38.8673 34.0719 38.8219C33.8273 38.7311 33.5441 38.7506 33.3059 38.8868C33.248 38.9192 33.1965 38.9646 33.145 39.0164C33.0935 39.0683 33.0355 39.1332 32.9519 39.1656C32.8682 39.198 32.7781 39.1915 32.7008 39.1656C32.6236 39.1396 32.5592 39.1007 32.4948 39.0683C32.2309 38.9386 31.9348 38.8997 31.658 38.8932C31.3747 38.8868 31.0915 38.9062 30.8212 38.984C30.5508 39.0618 30.2933 39.185 30.1195 39.425C30.1131 39.4314 30.1066 39.4314 30.1002 39.4314C30.0938 39.425 30.0938 39.4185 30.0938 39.412Z" fill="#B9A16E"/>
<path d="M31.4318 38.6468C31.2902 40.9358 31.0842 43.2183 30.8331 45.4943L30.7301 46.3503C30.6915 46.6356 30.6658 46.9209 30.595 47.2062C30.5306 47.498 30.4018 47.7574 30.3246 48.0232C30.2409 48.2891 30.228 48.5809 30.3697 48.8143C30.5113 49.0478 30.7495 49.2164 30.9812 49.372C31.2194 49.5276 31.464 49.6703 31.715 49.8C32.2171 50.0593 32.7579 50.2539 33.3114 50.3252C33.5882 50.3641 33.865 50.3576 34.1354 50.3122C34.4058 50.2604 34.6633 50.1631 34.8821 50.0075C35.3263 49.7027 35.616 49.2034 35.7962 48.6782C35.9829 48.1529 36.073 47.5888 36.1502 47.0311C36.2275 46.467 36.3112 45.9029 36.3562 45.3387C36.4464 44.204 36.4463 43.0627 36.3884 41.9215C36.3305 40.7802 36.2275 39.6389 36.1116 38.5042C36.1116 38.4977 36.1181 38.4912 36.1245 38.4912C36.1309 38.4912 36.1374 38.4977 36.1374 38.5042C36.53 40.7543 36.8068 43.0562 36.633 45.3647C36.588 45.9418 36.5172 46.5124 36.427 47.0765C36.3369 47.6472 36.2339 48.2178 36.0279 48.7689C35.8348 49.3201 35.5065 49.8583 34.998 50.189C34.7469 50.3576 34.4573 50.4484 34.1612 50.4938C33.865 50.5327 33.5754 50.5197 33.2857 50.4743C32.7128 50.3836 32.1785 50.1436 31.67 49.8843C31.4189 49.7481 31.1679 49.5989 30.9361 49.4368C30.7044 49.2682 30.4533 49.1126 30.286 48.8597C30.2087 48.73 30.1572 48.5809 30.1572 48.4318C30.1508 48.2826 30.1765 48.1335 30.2152 47.9908C30.286 47.7055 30.3954 47.4397 30.4469 47.1673C30.4984 46.895 30.5113 46.6096 30.537 46.3243L30.6078 45.4684C30.8203 43.1859 31.0778 40.9099 31.3996 38.6404C31.3996 38.6339 31.406 38.6274 31.4125 38.6274C31.4318 38.6339 31.4382 38.6404 31.4318 38.6468Z" fill="#B9A16E"/>
<path d="M31.2228 36.0728C30.9846 36.3257 30.7014 36.5332 30.4053 36.7083C30.1092 36.8834 29.7873 37.0261 29.4461 37.1104C29.1114 37.2141 28.7574 37.24 28.4097 37.253C28.2359 37.24 28.0621 37.24 27.8883 37.2141L27.6308 37.1687C27.5472 37.1557 27.457 37.1363 27.3734 37.1104C27.206 37.052 27.0322 37.0196 26.8777 36.9482C26.7168 36.8769 26.5558 36.8186 26.3949 36.7343C26.234 36.65 26.0795 36.5268 25.9636 36.3776C25.8478 36.222 25.7769 36.0404 25.7383 35.8589C25.6675 35.4893 25.7448 35.1196 25.8478 34.7825C25.9572 34.4453 26.1117 34.1275 26.2855 33.8228C27 32.6167 27.9913 31.6311 29.0213 30.7232C30.0641 29.8219 31.1842 29.0114 32.3815 28.3305C33.5788 27.6496 34.8662 27.105 36.218 26.8132C36.8939 26.664 37.5827 26.5797 38.2844 26.5732C38.632 26.5732 38.986 26.5992 39.3336 26.6835C39.6812 26.7678 40.0353 26.9234 40.2927 27.2282C40.4151 27.3773 40.5052 27.5589 40.5438 27.7469C40.5824 27.935 40.5824 28.123 40.5631 28.311C40.5181 28.6742 40.3893 29.0179 40.2284 29.3291C39.913 29.9581 39.4881 30.5222 39.0375 31.0475C38.1234 32.085 37.0613 32.9993 35.8769 33.6931C35.8704 33.6996 35.864 33.6931 35.8575 33.6866C35.8511 33.6801 35.8575 33.6736 35.864 33.6671C36.4369 33.2911 36.9647 32.8566 37.4733 32.3962C37.9754 31.9358 38.4453 31.4365 38.883 30.9113C39.3143 30.3861 39.7134 29.8219 39.9966 29.2189C40.1383 28.9141 40.2541 28.5964 40.2927 28.2786C40.3314 27.9609 40.2799 27.6367 40.0868 27.4097C39.8936 27.1763 39.5911 27.0401 39.2757 26.9688C38.9603 26.891 38.6255 26.8715 38.2908 26.865C37.6213 26.865 36.939 26.9364 36.276 27.0725C34.9499 27.3449 33.6689 27.8442 32.4587 28.4732C31.2485 29.1086 30.1092 29.8868 29.0921 30.8075C28.5771 31.2614 28.1008 31.7542 27.6566 32.2795C27.2189 32.8047 26.8133 33.3559 26.485 33.9525C26.3177 34.2507 26.176 34.5555 26.0795 34.8732C25.9829 35.191 25.925 35.5217 25.9765 35.8329C26.028 36.1442 26.2211 36.41 26.5043 36.5592C26.646 36.6305 26.8069 36.6954 26.9614 36.7667C27.1159 36.838 27.2768 36.8769 27.4377 36.9288C28.7187 37.3373 30.1864 36.9742 31.2164 36.0728C31.2228 36.0664 31.2292 36.0664 31.2357 36.0728C31.2228 36.0599 31.2228 36.0664 31.2228 36.0728Z" fill="#B9A16E"/>
<path d="M30.6899 37.6547C30.1943 37.953 29.6664 38.1929 29.1257 38.381C28.5785 38.569 28.0185 38.7052 27.4392 38.7635C26.8663 38.8284 26.274 38.796 25.7076 38.6793C25.1411 38.5496 24.5875 38.3161 24.1047 37.9854C23.6155 37.6547 23.2035 37.2268 22.8495 36.7599C22.5019 36.293 22.1864 35.8002 21.9483 35.262C21.7101 34.7238 21.562 34.1272 21.5942 33.5307C21.62 32.9276 21.8324 32.357 22.1028 31.8382C22.3731 31.3195 22.7143 30.8526 22.9718 30.3468C23.1005 30.0939 23.2035 29.8346 23.2614 29.5622C23.3129 29.2834 23.3516 28.9981 23.3966 28.7128C23.5704 27.5715 23.8022 26.4303 24.2077 25.3409C24.6197 24.258 25.2055 23.2335 26.0294 22.4164C26.8469 21.5929 27.8833 21.0029 28.9777 20.6527C30.0655 20.2766 31.2049 20.0172 32.37 20.0107L32.8078 20.0172C32.9558 20.0172 33.0974 20.0367 33.2391 20.0496C33.5287 20.0691 33.812 20.121 34.1016 20.1664C34.6681 20.2831 35.2346 20.4257 35.7753 20.6203C36.8696 20.9964 37.9124 21.4827 38.9681 21.9236L40.5517 22.5915C41.0795 22.825 41.6138 23.0454 42.1095 23.3891C42.2382 23.4669 42.3412 23.5836 42.4571 23.6809C42.5536 23.8041 42.6631 23.9143 42.7339 24.057C42.7661 24.1283 42.8176 24.1932 42.8369 24.2645L42.9141 24.485C42.9399 24.5563 42.9463 24.6341 42.9592 24.7054C42.972 24.7832 42.9914 24.8546 42.9914 24.9324C43.0429 25.5289 42.9785 26.119 42.8948 26.6896C42.8819 26.8323 42.8433 26.9814 42.8111 27.1241C42.7725 27.2668 42.7596 27.4159 42.7081 27.5521L42.5601 27.9671C42.5408 28.0384 42.5086 28.1032 42.4764 28.1681L42.3798 28.3691C42.264 28.6414 42.0902 28.8814 41.9421 29.1278C41.8584 29.251 41.7683 29.3612 41.6846 29.4779L41.5559 29.653C41.5108 29.7114 41.4593 29.7632 41.4142 29.8151C40.6547 30.7035 39.747 31.4297 38.8072 32.0911C37.8674 32.759 36.8825 33.3491 35.9234 33.9846C35.9169 33.9911 35.9105 33.9846 35.904 33.9781C35.8976 33.9716 35.904 33.9651 35.9105 33.9586C36.8503 33.2972 37.8094 32.6618 38.73 31.9744C39.1934 31.6372 39.6376 31.2741 40.0689 30.898C40.2749 30.7035 40.4937 30.5154 40.6869 30.3079L40.983 30.0032L41.2598 29.6789C41.3048 29.6271 41.3563 29.5752 41.3949 29.5168L41.5172 29.3418C41.6009 29.225 41.6846 29.1148 41.7619 28.9981C41.9035 28.7517 42.0644 28.5182 42.1738 28.2589L42.264 28.0643C42.2961 27.9995 42.3219 27.9346 42.3412 27.8698L42.4764 27.4678C42.5214 27.3381 42.5408 27.1954 42.5729 27.0593C42.5987 26.9231 42.6309 26.7869 42.6437 26.6443C42.721 26.0801 42.7789 25.503 42.7274 24.9518C42.6824 24.4007 42.4184 23.9078 41.9485 23.6096C41.4979 23.2983 40.9637 23.0778 40.4422 22.8509C39.9144 22.6304 39.3801 22.41 38.8587 22.183C37.803 21.7291 36.7666 21.2363 35.6916 20.8602C35.1573 20.6592 34.6102 20.5165 34.0566 20.3933C33.7798 20.3479 33.503 20.2896 33.2197 20.2636C33.0781 20.2507 32.9365 20.2247 32.7949 20.2247L32.37 20.2118C31.2371 20.1988 30.1106 20.4322 29.0227 20.7824C27.9348 21.1131 26.8984 21.6578 26.0938 22.4748C25.6883 22.8768 25.3342 23.3307 25.0317 23.8171C24.7291 24.3034 24.4909 24.8286 24.2914 25.3668C24.0983 25.905 23.9373 26.4627 23.8215 27.0204C23.7056 27.5845 23.6155 28.1551 23.5447 28.7257C23.5061 29.0111 23.4803 29.2964 23.4288 29.5882C23.3773 29.88 23.2679 30.1653 23.1456 30.4247C22.8881 30.9499 22.5662 31.4297 22.3087 31.9355C22.0448 32.4348 21.8581 32.973 21.8388 33.5307C21.826 33.8095 21.8581 34.0883 21.9161 34.3607C21.974 34.633 22.0641 34.8989 22.1736 35.1582C22.3989 35.677 22.695 36.1633 23.0361 36.6172C23.3709 37.0711 23.77 37.4861 24.2335 37.8039C24.6969 38.1216 25.2119 38.355 25.7591 38.4912C26.3062 38.6144 26.8791 38.6598 27.4392 38.6079C28.5721 38.5171 29.6793 38.1605 30.6899 37.6223C30.6964 37.6158 30.7028 37.6223 30.7092 37.6288C30.6964 37.6418 30.6964 37.6482 30.6899 37.6547Z" fill="#B9A16E"/>
<path d="M30.3546 47.5959C30.1808 47.1225 29.8847 46.7205 29.5306 46.3768C29.1766 46.0331 28.7646 45.7673 28.3333 45.5274C27.902 45.2874 27.445 45.0799 27.0008 44.8659C26.5502 44.652 26.1061 44.438 25.649 44.2434C25.192 44.0554 24.7221 43.8868 24.2393 43.7766C23.7565 43.6663 23.2544 43.6404 22.7587 43.5885C22.2631 43.5302 21.7545 43.4588 21.2911 43.2319C20.834 43.0179 20.3963 42.6548 20.2096 42.1425L20.422 42.0777C20.525 42.4408 20.6345 42.7974 20.7825 43.1281C20.9306 43.4653 21.1301 43.7701 21.3683 44.0424C21.8511 44.5806 22.4948 44.9827 23.1836 45.2031C23.8788 45.4301 24.6255 45.4884 25.3593 45.4106C25.7263 45.3782 26.0932 45.3069 26.4537 45.2096C26.8141 45.1188 27.1811 45.0086 27.5609 44.9827C27.5673 44.9827 27.5737 44.9891 27.5737 44.9956C27.5737 45.0021 27.5673 45.0086 27.5609 45.0086C27.1939 45.0799 26.8399 45.2096 26.4858 45.3328C26.1254 45.4495 25.7584 45.5468 25.3787 45.6052C24.6255 45.7154 23.8402 45.6895 23.0935 45.469C22.3532 45.242 21.658 44.8206 21.1494 44.224C20.8919 43.9257 20.686 43.5885 20.5379 43.2254C20.3834 42.8688 20.2804 42.4927 20.1903 42.1231V42.1166C20.1774 42.0582 20.2096 41.9999 20.274 41.9804C20.3319 41.9674 20.3834 41.9999 20.4027 42.0517C20.5508 42.4991 20.9177 42.8558 21.3426 43.0827C21.7738 43.3162 22.2631 43.4199 22.7587 43.4783C23.2544 43.5431 23.7501 43.5691 24.2457 43.6598C24.7414 43.7506 25.2242 43.8803 25.7005 44.0489C26.1769 44.2175 26.6403 44.412 27.0909 44.626C27.5415 44.84 27.9986 45.054 28.4299 45.3134C28.8676 45.5663 29.2796 45.8775 29.6272 46.2536C29.9748 46.6232 30.2451 47.0771 30.3675 47.5699C30.3675 47.5764 30.3675 47.5829 30.3546 47.5894C30.3675 47.6023 30.361 47.6024 30.3546 47.5959Z" fill="#B9A16E"/>
<path d="M28.8847 45.6764C28.5628 45.5143 28.286 45.2679 28.0672 44.9761C27.8483 44.6843 27.6745 44.3601 27.5522 44.0164C27.4299 43.6727 27.3462 43.3226 27.2754 42.9724C27.2046 42.6223 27.166 42.2656 27.1016 41.922C27.0372 41.5783 26.9214 41.2476 26.7476 40.9428C26.5737 40.638 26.3484 40.3657 26.091 40.1193C25.5824 39.633 24.958 39.2893 24.3272 38.9845L24.4495 38.8159C24.8615 39.2244 25.1511 39.7497 25.3185 40.3009C25.4022 40.5797 25.4537 40.8715 25.473 41.1568C25.4923 41.4421 25.4859 41.7274 25.4923 41.9998C25.4987 42.2721 25.518 42.5445 25.5889 42.8038C25.6597 43.0632 25.7755 43.3031 25.9236 43.5301C26.2133 43.9905 26.6188 44.3795 27.0115 44.7816C27.0179 44.788 27.0179 44.7945 27.0115 44.801C27.005 44.8075 26.9986 44.8075 26.9922 44.801C26.548 44.4638 26.1038 44.1072 25.7562 43.6468C25.5824 43.4134 25.4408 43.154 25.3507 42.8752C25.2606 42.5963 25.2219 42.298 25.2091 42.0127C25.1962 41.7274 25.1962 41.4486 25.1769 41.1762C25.1576 40.9039 25.1189 40.638 25.0481 40.3787C24.9065 39.8599 24.649 39.3671 24.2886 38.9651L24.2821 38.9586C24.2435 38.9132 24.2435 38.8484 24.2886 38.8094C24.3207 38.777 24.3722 38.777 24.4109 38.7965C25.0353 39.1401 25.6275 39.5616 26.136 40.0544C26.6446 40.5537 27.0758 41.1568 27.269 41.8701C27.4621 42.5704 27.5264 43.2707 27.7453 43.9386C27.9513 44.6 28.3053 45.229 28.8783 45.644C28.8847 45.6505 28.8847 45.657 28.8847 45.6634C28.8976 45.6764 28.8911 45.6829 28.8847 45.6764Z" fill="#B9A16E"/>
<path d="M25.0063 43.8339C24.2724 43.5097 23.5901 43.0687 22.9785 42.5435C22.676 42.2776 22.3799 42.0053 22.1224 41.6746C21.8649 41.3374 21.7169 40.9354 21.6267 40.5398C21.4401 39.7552 21.3564 38.9512 21.0345 38.2184C20.8736 37.8553 20.6676 37.5116 20.3908 37.2328C20.1204 36.954 19.7857 36.727 19.4188 36.6233C19.3737 36.6103 19.3415 36.5584 19.3544 36.513C19.3673 36.4677 19.4188 36.4352 19.4639 36.4482H19.4703C20.1591 36.6168 20.8478 36.8373 21.4851 37.1939C22.1224 37.5376 22.7017 38.0369 23.0751 38.6853C23.2618 39.0095 23.397 39.3662 23.442 39.7293C23.5 40.0924 23.4935 40.462 23.4806 40.8187C23.4613 41.1753 23.4291 41.5319 23.4227 41.8821C23.4227 42.0572 23.4227 42.2323 23.442 42.4073C23.4485 42.4981 23.4613 42.5824 23.4742 42.6732C23.4871 42.7575 23.5128 42.8483 23.5836 42.8872C23.5901 42.8872 23.5965 42.9002 23.5901 42.9066C23.5901 42.9131 23.5772 42.9131 23.5708 42.9131C23.4742 42.8807 23.4356 42.7705 23.4098 42.6862C23.3905 42.5954 23.3648 42.5111 23.3519 42.4203C23.3197 42.2452 23.3004 42.0637 23.2875 41.8821C23.2682 41.5255 23.2747 41.1623 23.2747 40.8122C23.2747 40.4555 23.2618 40.1054 23.1974 39.7682C23.133 39.431 23.0043 39.1133 22.8305 38.8215C22.4764 38.2379 21.955 37.7645 21.3564 37.4209C20.7577 37.0707 20.0947 36.8308 19.4252 36.6233L19.4767 36.4482C19.8694 36.5909 20.2041 36.8502 20.4745 37.155C20.7448 37.4598 20.9508 37.8099 21.1118 38.186C21.4336 38.9252 21.601 39.7228 21.8263 40.488C21.9422 40.8641 22.0838 41.2272 22.3155 41.5319C22.5408 41.8367 22.8369 42.1155 23.1202 42.3879C23.6995 42.9261 24.3368 43.3994 25.0191 43.8144C25.0256 43.8209 25.0256 43.8274 25.0256 43.8339C25.0191 43.8339 25.0127 43.8404 25.0063 43.8339Z" fill="#B9A16E"/>
<path d="M35.9347 48.9056C36.4175 48.4192 36.7845 47.8421 37.0741 47.2326C37.3574 46.6166 37.5634 45.9681 37.7307 45.3067C37.8917 44.6453 38.014 43.9709 38.1491 43.303C38.2843 42.6287 38.4388 41.9608 38.6512 41.2994C38.8572 40.638 39.134 40.009 39.4623 39.4059C39.7906 38.8029 40.164 38.2258 40.6017 37.6941C41.033 37.1559 41.5093 36.663 42.0372 36.2156C42.3011 35.9952 42.5715 35.7812 42.8611 35.5931C43.0028 35.4959 43.1444 35.3986 43.2989 35.3143C43.4534 35.23 43.6336 35.1522 43.8267 35.1392C43.8975 35.1327 43.9555 35.1846 43.9555 35.2559C43.9555 35.2948 43.9426 35.3337 43.9104 35.3597C43.2667 35.9109 42.8805 36.7084 42.668 37.532C42.5457 37.9405 42.52 38.3684 42.4105 38.8159C42.3011 39.2633 42.0951 39.6783 41.8312 40.0414C41.3033 40.7741 40.6081 41.3318 39.9387 41.8895C39.6039 42.1683 39.2821 42.4536 38.986 42.7713C38.8379 42.927 38.6963 43.0956 38.574 43.2706C38.4452 43.4457 38.3294 43.6273 38.2457 43.8348C38.2457 43.8413 38.2328 43.8477 38.2264 43.8413C38.2199 43.8413 38.2135 43.8283 38.2199 43.8218C38.2843 43.6078 38.3937 43.4133 38.5096 43.2252C38.6255 43.0372 38.7607 42.8621 38.8958 42.687C39.1791 42.3498 39.4945 42.0386 39.8164 41.7468C40.4601 41.1567 41.136 40.5926 41.6059 39.8858C41.8441 39.5356 42.0307 39.153 42.1209 38.7445C42.211 38.336 42.256 37.8821 42.3783 37.4541C42.6101 36.5982 43.0349 35.7488 43.7366 35.1652L43.8203 35.3856C43.5306 35.3986 43.2409 35.5996 42.9577 35.7812C42.6745 35.9627 42.4041 36.1638 42.1337 36.3648C41.5995 36.7798 41.1102 37.2531 40.6661 37.7654C39.7842 38.7964 39.1211 40.0284 38.7864 41.3513C38.6062 42.0062 38.4903 42.6805 38.368 43.3549C38.2393 44.0293 38.1105 44.7037 37.9367 45.3716C37.7565 46.0395 37.5247 46.6944 37.2029 47.3104C36.8874 47.9264 36.469 48.4905 35.9412 48.938C35.9347 48.9445 35.9283 48.9445 35.9219 48.938C35.9283 48.9185 35.9347 48.9056 35.9347 48.9056Z" fill="#B9A16E"/>
<path d="M37.5078 46.8302C37.6108 46.1493 38.0872 45.637 38.5893 45.235C39.1042 44.833 39.6578 44.5282 40.1471 44.1391C40.6427 43.7566 41.1126 43.3286 41.5053 42.8293C41.6984 42.5764 41.8786 42.3105 42.0331 42.0382C42.1876 41.7594 42.3228 41.4741 42.4387 41.1758C42.4516 41.1434 42.4902 41.1239 42.5224 41.1369C42.5481 41.1434 42.561 41.1693 42.561 41.1952V41.2017C42.5803 41.5454 42.5867 41.8956 42.561 42.2457C42.5288 42.5959 42.4773 42.946 42.3679 43.2832C42.1554 43.9576 41.7757 44.5931 41.2156 45.0534C40.9388 45.2804 40.617 45.4555 40.2951 45.5852C39.9668 45.7148 39.6385 45.8186 39.3102 45.9159C38.9884 46.0196 38.6601 46.1169 38.3575 46.2595C38.203 46.3309 38.0614 46.4152 37.9134 46.5059C37.8425 46.5513 37.7782 46.6097 37.7074 46.6551C37.6494 46.7199 37.5657 46.7783 37.5078 46.8302ZM37.5207 46.8042C37.5786 46.7329 37.6237 46.668 37.6752 46.6097C37.7395 46.5513 37.8039 46.4865 37.8683 46.4346C38.0035 46.3244 38.1451 46.2206 38.2996 46.1363C38.6021 45.9613 38.924 45.8316 39.2523 45.7148C39.896 45.4814 40.5397 45.248 41.0418 44.8265C41.5439 44.405 41.9237 43.8344 42.1426 43.1989C42.252 42.8812 42.3293 42.557 42.3679 42.2198C42.4129 41.8826 42.4387 41.5389 42.4387 41.2017L42.561 41.2277C42.4258 41.5195 42.2778 41.8048 42.1168 42.0836C41.9495 42.3624 41.7757 42.6283 41.589 42.8941C41.2156 43.4194 40.7908 43.9122 40.2951 44.3272C39.7994 44.7487 39.2201 45.047 38.7116 45.4101C38.4541 45.5916 38.2159 45.7862 38.0099 46.0261C37.9069 46.1428 37.8104 46.266 37.7331 46.4022C37.6945 46.467 37.6559 46.5384 37.6237 46.6097C37.6044 46.6421 37.5915 46.681 37.5786 46.7199C37.5593 46.7459 37.54 46.7653 37.5207 46.8042Z" fill="#B9A16E"/>
<path d="M35.9218 48.135L34.7687 48.0377C34.743 48.0377 34.7172 48.0117 34.7237 47.9793C34.7301 47.9468 34.7494 47.9274 34.7816 47.9339L35.9347 48.0312C35.9605 48.0312 35.9862 48.0571 35.9798 48.0896C35.9733 48.1155 35.954 48.135 35.9218 48.135Z" fill="#B9A16E"/>
<path d="M36.1031 47.6622L34.5968 47.5325C34.5711 47.5325 34.5453 47.5066 34.5518 47.4741C34.5518 47.4482 34.5775 47.4223 34.6097 47.4287L36.1096 47.5584C36.1353 47.5584 36.1611 47.5844 36.1546 47.6168C36.1546 47.6427 36.1289 47.6622 36.1031 47.6622Z" fill="#B9A16E"/>
<path d="M36.0866 47.312C36.0802 47.312 36.0802 47.312 36.0866 47.312L35.2492 47.2406C35.2235 47.2406 35.1977 47.2146 35.2041 47.1822C35.2041 47.1562 35.2363 47.1303 35.2621 47.1368L36.0931 47.2081C36.1188 47.2081 36.1446 47.2341 36.1382 47.2665C36.1317 47.2925 36.1124 47.312 36.0866 47.312Z" fill="#B9A16E"/>
<path d="M36.1168 46.9289L35.4211 46.8704C35.3953 46.8704 35.3696 46.8445 35.376 46.8121C35.376 46.7861 35.4018 46.7601 35.434 46.7666L36.1232 46.825C36.149 46.825 36.1748 46.851 36.1683 46.8834C36.1683 46.9094 36.1426 46.9289 36.1168 46.9289Z" fill="#B9A16E"/>
<path d="M36.4387 46.3656C36.4323 46.3656 36.4323 46.3656 36.4387 46.3656L34.7843 46.2229C34.7586 46.2229 34.7328 46.197 34.7393 46.1646C34.7393 46.1386 34.765 46.1127 34.7972 46.1192L36.4516 46.2618C36.4773 46.2618 36.5031 46.2878 36.4966 46.3202C36.4838 46.3396 36.4644 46.3656 36.4387 46.3656Z" fill="#B9A16E"/>
<path d="M36.569 45.6381L35.9055 45.5797C35.8797 45.5797 35.8539 45.5537 35.8604 45.5213C35.8668 45.4888 35.8861 45.4694 35.9183 45.4759L36.5754 45.5342C36.6012 45.5342 36.6269 45.5602 36.6205 45.5927C36.6205 45.6186 36.5947 45.6381 36.569 45.6381Z" fill="#B9A16E"/>
<path d="M36.4673 41.5084L36.0422 41.4759C36.0164 41.4759 35.9907 41.45 35.9971 41.4175C35.9971 41.3916 36.0229 41.3656 36.0551 41.3721L36.4738 41.4045C36.4995 41.4045 36.5253 41.4305 36.5189 41.4629C36.5189 41.4889 36.4931 41.5084 36.4673 41.5084Z" fill="#B9A16E"/>
<path d="M32.1867 41.2868L31.2141 41.2025C31.1883 41.2025 31.1625 41.1765 31.169 41.1441C31.169 41.1181 31.2012 41.0922 31.2269 41.0987L32.1996 41.183C32.2254 41.183 32.2512 41.209 32.2447 41.2414C32.2383 41.2674 32.2125 41.2868 32.1867 41.2868Z" fill="#B9A16E"/>
<path d="M31.643 41.8712L31.0891 41.8258C31.0633 41.8258 31.0375 41.7998 31.044 41.7674C31.0504 41.7349 31.0697 41.7155 31.1019 41.7219L31.6559 41.7674C31.6817 41.7674 31.7075 41.7933 31.701 41.8258C31.6946 41.8517 31.6753 41.8712 31.643 41.8712Z" fill="#B9A16E"/>
<path d="M32.0848 42.5007L31.0734 42.4164C31.0477 42.4164 31.0219 42.3904 31.0283 42.358C31.0283 42.332 31.0541 42.306 31.0863 42.3125L32.0912 42.3969C32.117 42.3969 32.1427 42.4228 32.1363 42.4553C32.1363 42.4812 32.1105 42.5007 32.0848 42.5007Z" fill="#B9A16E"/>
<path d="M31.6517 43.2658L31.3548 43.2398C31.329 43.2398 31.3031 43.2138 31.3096 43.1813C31.3096 43.1553 31.3354 43.1293 31.3677 43.1358L31.6646 43.1618C31.6904 43.1618 31.7163 43.1878 31.7098 43.2203C31.7034 43.2463 31.6775 43.2658 31.6517 43.2658Z" fill="#B9A16E"/>
<path d="M31.6565 44.2452L31.3079 44.2127C31.2821 44.2127 31.2563 44.1867 31.2627 44.1542C31.2692 44.1217 31.2885 44.1022 31.3208 44.1087L31.6629 44.1347C31.6888 44.1347 31.7146 44.1607 31.7081 44.1932C31.7017 44.2257 31.6823 44.2452 31.6565 44.2452Z" fill="#B9A16E"/>
<path d="M32.519 48.7182C32.5125 48.7182 32.5125 48.7182 32.519 48.7182L30.2531 48.5237C30.2273 48.5237 30.2016 48.4978 30.208 48.4653C30.208 48.4394 30.2338 48.4135 30.266 48.42L32.5254 48.608C32.5512 48.608 32.5769 48.6339 32.5705 48.6664C32.564 48.6988 32.5447 48.7182 32.519 48.7182Z" fill="#B9A16E"/>
<path d="M31.3293 48.1683L30.2922 48.0775C30.2664 48.0775 30.2407 48.0515 30.2471 48.0191C30.2471 47.9931 30.2729 47.9672 30.3051 47.9737L31.3422 48.058C31.3679 48.058 31.3937 48.084 31.3873 48.1164C31.3808 48.1424 31.3551 48.1683 31.3293 48.1683Z" fill="#B9A16E"/>
<path d="M31.3253 47.7791C31.3189 47.7791 31.3189 47.7791 31.3253 47.7791L30.5266 47.7142C30.5008 47.7142 30.475 47.6882 30.4815 47.6558C30.4815 47.6298 30.5072 47.6039 30.5394 47.6104L31.3318 47.6753C31.3575 47.6753 31.3833 47.7012 31.3769 47.7337C31.3704 47.7596 31.3511 47.7791 31.3253 47.7791Z" fill="#B9A16E"/>
<path d="M35.056 50.0545L33.6398 49.9378C33.6141 49.9378 33.5883 49.9118 33.5948 49.8794C33.5948 49.8535 33.6269 49.8275 33.6527 49.834L35.0624 49.9507C35.0882 49.9507 35.1139 49.9767 35.1075 50.0091C35.101 50.035 35.0817 50.0545 35.056 50.0545Z" fill="#B9A16E"/>
<path d="M35.3584 49.8337L34.7336 49.7818C34.7078 49.7818 34.6821 49.7559 34.6885 49.7234C34.6949 49.691 34.7143 49.6715 34.7465 49.678L35.3649 49.7299C35.3906 49.7299 35.4164 49.7559 35.41 49.7883C35.4035 49.8143 35.3842 49.8337 35.3584 49.8337Z" fill="#B9A16E"/>
<path d="M35.6648 49.5422L35.3743 49.5162C35.3485 49.5162 35.3227 49.4902 35.3291 49.4577C35.3291 49.4316 35.3549 49.4056 35.3872 49.4121L35.6712 49.4381C35.6971 49.4381 35.7229 49.4642 35.7164 49.4967C35.7164 49.5227 35.6906 49.5422 35.6648 49.5422Z" fill="#B9A16E"/>
<path d="M38.3718 43.4536H38.3654C38.3396 43.4471 38.3203 43.4212 38.3203 43.3952C38.4233 42.656 38.8031 41.9752 39.2022 41.3527C39.891 40.2762 40.6763 39.2517 41.4423 38.2596C41.4617 38.2337 41.4938 38.2337 41.5132 38.2531C41.5389 38.2726 41.5389 38.305 41.5196 38.3245C40.76 39.3166 39.9747 40.3411 39.2859 41.411C38.8932 42.0205 38.5199 42.6884 38.4169 43.4082C38.4233 43.4341 38.3976 43.4536 38.3718 43.4536Z" fill="#B9A16E"/>
<path d="M41.6375 37.9303C41.631 37.9303 41.6181 37.9303 41.6117 37.9238C41.5859 37.9108 41.5795 37.8784 41.5924 37.8524C41.7599 37.541 41.9982 37.2555 42.2687 37.0284C42.2881 37.0089 42.3203 37.0154 42.3396 37.0348C42.3589 37.0543 42.3525 37.0932 42.3332 37.1062C42.0691 37.3268 41.8436 37.5994 41.6761 37.9044C41.6761 37.9238 41.6568 37.9303 41.6375 37.9303Z" fill="#B9A16E"/>
<path d="M37.6257 46.7081C37.6193 46.7081 37.6064 46.7081 37.6 46.7016C37.5742 46.6886 37.5678 46.6562 37.5807 46.6303C37.9604 46.0142 38.5334 45.5149 39.1964 45.2361C39.3251 45.1842 39.4603 45.1324 39.5826 45.087C39.7629 45.0221 39.9431 44.9573 40.1169 44.873C40.5933 44.6396 40.9859 44.244 41.3013 43.8874C41.3206 43.8679 41.3528 43.8614 41.3721 43.8809C41.3915 43.9003 41.3979 43.9328 41.3786 43.9522C41.0503 44.3153 40.6512 44.7239 40.162 44.9638C39.9882 45.0481 39.8015 45.1194 39.6212 45.1842C39.4925 45.2296 39.3637 45.275 39.235 45.3269C38.5913 45.5992 38.0313 46.0791 37.6643 46.6821C37.6579 46.6951 37.6386 46.7081 37.6257 46.7081Z" fill="#B9A16E"/>
<path d="M41.5649 43.5513C41.552 43.5513 41.5391 43.5448 41.5262 43.5384C41.5069 43.5189 41.5069 43.4864 41.5262 43.467C41.6293 43.3632 41.7066 43.2269 41.7452 43.0841C41.7517 43.0582 41.7839 43.0387 41.8096 43.0452C41.8354 43.0517 41.8547 43.0841 41.8483 43.1101C41.8032 43.2723 41.7195 43.4216 41.5971 43.5384C41.5906 43.5513 41.5777 43.5513 41.5649 43.5513Z" fill="#B9A16E"/>
<path d="M22.9806 44.3486C22.9741 44.3486 22.9741 44.3486 22.9677 44.3486C22.6456 44.2708 22.3235 44.1735 22.0143 44.0502C21.9886 44.0372 21.9757 44.0112 21.9821 43.9853C21.995 43.9593 22.0208 43.9463 22.0465 43.9528C22.3493 44.0696 22.6714 44.167 22.987 44.2448C23.0128 44.2513 23.0321 44.2773 23.0257 44.3097C23.0257 44.3357 23.0063 44.3486 22.9806 44.3486Z" fill="#B9A16E"/>
<path d="M24.1402 44.5566H24.1337L23.4123 44.4398C23.3865 44.4333 23.3672 44.4073 23.3672 44.3814C23.3736 44.3554 23.3994 44.3295 23.4252 44.336L24.1466 44.4528C24.1724 44.4593 24.1917 44.4852 24.1917 44.5112C24.1917 44.5371 24.1659 44.5566 24.1402 44.5566Z" fill="#B9A16E"/>
<path d="M26.9464 45.0159L25.0539 44.7825C25.0281 44.776 25.0024 44.7501 25.0088 44.7241C25.0153 44.6982 25.0346 44.6723 25.0667 44.6787L26.9528 44.9122C26.9786 44.9187 27.0043 44.9446 26.9979 44.9705C26.9979 44.9965 26.9721 45.0159 26.9464 45.0159Z" fill="#B9A16E"/>
<path d="M28.1095 45.1723C28.103 45.1723 28.0901 45.1723 28.0837 45.1658C27.7168 44.9713 27.4464 44.6406 27.2083 44.3423C27.0988 44.2061 26.9829 44.07 26.9057 43.9014C26.822 43.7198 26.7898 43.5253 26.7577 43.3308L26.7448 43.2529C26.6418 42.6175 26.4551 42.0015 26.1847 41.4114C26.1719 41.3854 26.1847 41.353 26.2105 41.34C26.2362 41.3271 26.2684 41.3401 26.2813 41.366C26.5517 41.9561 26.7448 42.5851 26.8478 43.2335L26.8606 43.3113C26.8928 43.4929 26.9186 43.6874 26.9958 43.856C27.0666 44.0116 27.1761 44.1413 27.2791 44.271C27.5108 44.5563 27.7812 44.887 28.1223 45.0686C28.1481 45.0815 28.1545 45.114 28.1416 45.1399C28.1481 45.1658 28.1288 45.1723 28.1095 45.1723Z" fill="#B9A16E"/>
<path d="M25.9877 40.7648C25.9554 40.7648 25.936 40.7388 25.936 40.7063C25.9425 40.6283 25.9038 40.5437 25.8328 40.4982C25.8069 40.4787 25.8005 40.4462 25.8199 40.4267C25.8392 40.4007 25.8715 40.3942 25.8909 40.4137C25.9877 40.4787 26.0393 40.5957 26.0329 40.7128C26.0393 40.7453 26.0135 40.7648 25.9877 40.7648Z" fill="#B9A16E"/>
<path d="M23.3348 42.6239C23.3155 42.6239 23.2962 42.611 23.2897 42.5915C23.0709 42.0922 22.9421 41.5605 22.8198 41.0417C22.7812 40.8861 22.7426 40.7305 22.704 40.5749C22.543 39.9589 22.3242 39.2521 21.8671 38.6944C21.8478 38.675 21.8543 38.636 21.8736 38.6231C21.8929 38.6036 21.9315 38.6101 21.9444 38.6296C22.4079 39.2002 22.6396 39.9199 22.8005 40.5489C22.8391 40.7046 22.8778 40.8602 22.9164 41.0223C23.0387 41.5346 23.1674 42.0663 23.3799 42.5526C23.3927 42.5785 23.3799 42.611 23.3541 42.6239C23.3477 42.6239 23.3412 42.6239 23.3348 42.6239Z" fill="#B9A16E"/>
<path d="M32.4773 38.9736C32.4515 38.9736 32.4258 38.9476 32.4258 38.9217C32.4258 38.1825 32.5223 37.4497 32.7026 36.7365C32.709 36.7105 32.7412 36.6911 32.767 36.6975C32.7927 36.704 32.812 36.73 32.8056 36.7624C32.6253 37.4692 32.5352 38.1954 32.5288 38.9217C32.5288 38.9476 32.503 38.9736 32.4773 38.9736Z" fill="#B9A16E"/>
<path d="M32.6622 36.1599C32.6364 36.1599 32.6106 36.1404 32.6106 36.1079L32.5977 35.7503C32.5977 35.7243 32.617 35.6982 32.6493 35.6982C32.6816 35.6982 32.7009 35.7178 32.7009 35.7503L32.7138 36.1079C32.7203 36.1339 32.6945 36.1599 32.6622 36.1599Z" fill="#B9A16E"/>
<path d="M33.3328 38.6954H33.3263C33.3006 38.6889 33.2812 38.6629 33.2812 38.637C33.3135 38.4228 33.3199 38.2022 33.3006 37.9881C33.3006 37.9621 33.3199 37.9362 33.3457 37.9297C33.3714 37.9297 33.3972 37.9492 33.4036 37.9751C33.423 38.2022 33.4165 38.4293 33.3843 38.65C33.3779 38.6759 33.3586 38.6954 33.3328 38.6954Z" fill="#B9A16E"/>
<path d="M33.3249 37.5088C33.3055 37.5088 33.2861 37.4957 33.2797 37.4762C33.2409 37.3982 33.2345 37.3072 33.2668 37.2226C33.2732 37.1966 33.3055 37.1836 33.3313 37.1901C33.3571 37.1966 33.37 37.2292 33.3636 37.2552C33.3442 37.3137 33.3507 37.3722 33.3765 37.4242C33.3894 37.4502 33.3765 37.4827 33.3507 37.4957C33.3378 37.5088 33.3313 37.5088 33.3249 37.5088Z" fill="#B9A16E"/>
<path d="M34.1922 38.7333C34.16 38.7333 34.1406 38.7073 34.1406 38.6749L34.2115 37.8443C34.2115 37.8183 34.2373 37.7924 34.2695 37.7989C34.2952 37.7989 34.321 37.8248 34.3146 37.8573L34.2437 38.6878C34.2437 38.7138 34.2244 38.7333 34.1922 38.7333Z" fill="#B9A16E"/>
<path d="M34.0527 33.2793C34.027 33.2793 34.0077 33.2598 34.0012 33.2339C33.9948 33.2079 34.0141 33.182 34.0463 33.1755C34.5806 33.0977 35.1277 33.0523 35.6685 33.0264C35.7006 33.0264 35.72 33.0458 35.72 33.0782C35.72 33.1042 35.7006 33.1301 35.6685 33.1301C35.1342 33.1496 34.587 33.2014 34.0592 33.2793C34.0592 33.2793 34.0592 33.2793 34.0527 33.2793Z" fill="#B9A16E"/>
<path d="M35.0515 33.5389C35.0322 33.5389 35.0129 33.526 35.0064 33.513C34.9936 33.487 35 33.4546 35.0258 33.4416C35.2512 33.3248 35.5089 33.2794 35.7601 33.3183C35.7859 33.3248 35.8052 33.3508 35.8052 33.3767C35.7988 33.4027 35.773 33.4222 35.7472 33.4222C35.5218 33.3897 35.2834 33.4286 35.0773 33.5325C35.0644 33.5325 35.058 33.5389 35.0515 33.5389Z" fill="#B9A16E"/>
<path d="M35.3289 33.9413C35.3096 33.9413 35.2967 33.9348 35.2838 33.9153C35.2709 33.8894 35.2773 33.8569 35.3031 33.8439C35.4319 33.7661 35.6059 33.7596 35.7411 33.831C35.7669 33.8439 35.7798 33.8764 35.7669 33.9023C35.754 33.9283 35.7218 33.9413 35.696 33.9283C35.593 33.8764 35.4577 33.8829 35.3611 33.9413C35.3482 33.9413 35.3353 33.9413 35.3289 33.9413Z" fill="#B9A16E"/>
<path d="M37.0978 38.4878C37.0784 38.4878 37.0656 38.4813 37.0527 38.4683L36.4214 37.5534C36.4021 37.5274 36.4085 37.495 36.4343 37.482C36.46 37.4626 36.4922 37.469 36.5051 37.495L37.1364 38.4099C37.1557 38.4359 37.1493 38.4683 37.1235 38.4813C37.1171 38.4813 37.1042 38.4878 37.0978 38.4878Z" fill="#B9A16E"/>
<path d="M37.0382 37.9877C37.0188 37.9877 37.0059 37.9812 36.993 37.9617L36.7606 37.6105C36.7477 37.5845 36.7542 37.552 36.7735 37.539C36.7994 37.526 36.8316 37.5325 36.8445 37.552L37.0769 37.9031C37.0898 37.9291 37.0834 37.9617 37.064 37.9747C37.0576 37.9877 37.0446 37.9877 37.0382 37.9877Z" fill="#B9A16E"/>
<path d="M32.3512 34.0386C32.3254 34.0386 32.3061 34.0191 32.2997 33.9932L31.9778 32.2813C31.9714 32.2554 31.9907 32.2229 32.0164 32.2229C32.0422 32.2165 32.0744 32.2359 32.0744 32.2618L32.3962 33.9737C32.4027 33.9997 32.3834 34.0321 32.3576 34.0321C32.3576 34.0386 32.3576 34.0386 32.3512 34.0386Z" fill="#B9A16E"/>
<path d="M32.4826 32.7546C32.4568 32.7546 32.4375 32.7351 32.4311 32.7091L32.3216 32.1446C32.3151 32.1187 32.3344 32.0862 32.3602 32.0862C32.386 32.0797 32.4182 32.0992 32.4182 32.1252L32.5277 32.6897C32.5341 32.7156 32.5148 32.7481 32.489 32.7481C32.489 32.7546 32.4826 32.7546 32.4826 32.7546Z" fill="#B9A16E"/>
<path d="M32.8153 33.2029C32.7895 33.2029 32.7701 33.1834 32.7637 33.1639L32.6927 32.8387C32.6862 32.8127 32.7056 32.7802 32.7314 32.7737C32.7572 32.7672 32.7895 32.7867 32.7959 32.8127L32.8669 33.1379C32.8734 33.1639 32.854 33.1964 32.8282 33.2029C32.8218 33.2029 32.8153 33.2029 32.8153 33.2029Z" fill="#B9A16E"/>
<path d="M33.0922 33.3325C33.0664 33.3325 33.0471 33.3131 33.0406 33.2936L32.9505 32.8718C32.944 32.8458 32.9633 32.8134 32.9891 32.8069C33.0149 32.8004 33.0471 32.8199 33.0535 32.8459L33.1437 33.2676C33.1502 33.2936 33.1308 33.326 33.1051 33.3325C33.1051 33.3325 33.0986 33.3325 33.0922 33.3325Z" fill="#B9A16E"/>
<path d="M26.0749 36.3529C26.0556 36.3529 26.0427 36.3464 26.0299 36.327C26.017 36.301 26.0234 36.2686 26.0492 36.2556L31.1603 33.0588C31.1796 33.0459 31.2054 33.0459 31.2247 33.0653C31.244 33.0848 31.244 33.1107 31.2311 33.1302C31.2182 33.1496 31.2247 33.195 31.2375 33.2339L31.4242 33.837C31.4307 33.8629 31.4178 33.8953 31.392 33.9018C31.3663 33.9083 31.3341 33.8953 31.3277 33.8694L31.141 33.2663C31.1345 33.2469 31.1281 33.2274 31.1281 33.2015L26.1136 36.3464C26.0878 36.3464 26.0814 36.3529 26.0749 36.3529Z" fill="#B9A16E"/>
<path d="M23.6202 35.0379C23.588 35.0379 23.5622 35.025 23.5364 35.0055C23.4656 34.9536 23.4398 34.8433 23.4463 34.7654C23.4591 34.5318 23.5558 34.2982 23.7168 34.123C23.7361 34.1035 23.7683 34.1035 23.7877 34.123C23.807 34.1425 23.807 34.1749 23.7877 34.1944C23.646 34.3501 23.5558 34.5578 23.5429 34.7719C23.5365 34.8303 23.5622 34.9017 23.5944 34.9276C23.6073 34.9341 23.6137 34.9406 23.6266 34.9341C23.646 34.9276 23.6588 34.9081 23.6782 34.8887C23.8521 34.6745 23.9938 34.441 24.0969 34.1814C24.1098 34.1554 24.1355 34.1425 24.1677 34.1554C24.1935 34.1684 24.2064 34.1944 24.1935 34.2268C24.084 34.4929 23.9358 34.7394 23.7555 34.9601C23.7297 34.9925 23.6975 35.0249 23.6524 35.0379C23.646 35.0379 23.6331 35.0379 23.6202 35.0379Z" fill="#B9A16E"/>
<path d="M24.7993 32.5409C24.7413 32.5409 24.6833 32.5149 24.6382 32.476C24.5738 32.4176 24.5352 32.3202 24.5352 32.2294C24.5352 32.0801 24.6189 31.9504 24.6898 31.8401C24.7026 31.8141 24.7348 31.8076 24.7606 31.8271C24.7864 31.8401 24.7928 31.8725 24.7735 31.8985C24.7091 31.9958 24.6382 32.1126 24.6382 32.2294C24.6382 32.2878 24.664 32.3592 24.7091 32.3981C24.7284 32.4176 24.7671 32.4435 24.8121 32.437C24.8572 32.4305 24.9023 32.4046 24.9603 32.3462C25.1149 32.184 25.2115 31.9633 25.2309 31.7427C25.2309 31.7168 25.2566 31.6908 25.2888 31.6973C25.3146 31.6973 25.3404 31.7233 25.3339 31.7557C25.3146 32.0023 25.2051 32.2488 25.0312 32.424C24.9861 32.4695 24.9152 32.5344 24.8186 32.5473C24.8121 32.5408 24.8057 32.5409 24.7993 32.5409Z" fill="#B9A16E"/>
<path d="M25.2352 28.2149C25.203 28.2149 25.145 28.2084 25.1128 28.1694C25.0613 28.111 25.0806 28.0267 25.0871 27.9942C25.1386 27.7931 25.2288 27.5984 25.3512 27.4297C25.3705 27.4038 25.4027 27.4037 25.422 27.4167C25.4478 27.4362 25.4478 27.4686 25.4349 27.4881C25.319 27.6438 25.2352 27.832 25.1901 28.0202C25.1772 28.0591 25.1772 28.0851 25.1901 28.0981C25.1966 28.1045 25.2094 28.111 25.2545 28.111C25.48 28.0981 25.6926 27.9358 25.7699 27.7217C25.7763 27.6957 25.8085 27.6828 25.8343 27.6893C25.86 27.6958 25.8729 27.7282 25.8665 27.7542C25.7763 28.0072 25.5315 28.2019 25.261 28.2149C25.2545 28.2084 25.2417 28.2149 25.2352 28.2149Z" fill="#B9A16E"/>
<path d="M25.7046 24.3639C25.6144 24.3639 25.5178 24.3314 25.4663 24.2406C25.4341 24.1822 25.4276 24.1108 25.4534 24.0459C25.4792 23.9875 25.5243 23.9486 25.5758 23.9356C25.6016 23.9291 25.6338 23.9486 25.6402 23.9745C25.6466 24.0005 25.6273 24.0329 25.6016 24.0394C25.5693 24.0459 25.5565 24.0719 25.55 24.0913C25.5371 24.1238 25.5371 24.1627 25.5565 24.1952C25.5951 24.2601 25.6853 24.2795 25.7497 24.2665C25.8335 24.2536 25.9108 24.1952 25.9752 24.1497C26.0847 24.0589 26.1877 23.9616 26.2844 23.8512C26.3037 23.8318 26.3359 23.8253 26.3552 23.8448C26.3746 23.8642 26.381 23.8967 26.3617 23.9161C26.265 24.0329 26.1555 24.1368 26.0396 24.2276C25.9687 24.286 25.8785 24.3509 25.769 24.3704C25.7497 24.3574 25.7239 24.3639 25.7046 24.3639Z" fill="#B9A16E"/>
<path d="M27.9025 28.3835C27.8574 28.3835 27.8316 28.3641 27.8187 28.3446C27.793 28.3122 27.793 28.2667 27.793 28.2473C27.8059 28.1045 27.8509 27.9682 27.9282 27.8514C27.9476 27.8255 27.9798 27.819 27.9991 27.8385C28.0249 27.8579 28.0313 27.8904 28.012 27.9098C27.9411 28.0137 27.9025 28.1305 27.8896 28.2538C27.8896 28.2667 27.8896 28.2732 27.8896 28.2732C27.8896 28.2732 27.9025 28.2732 27.9218 28.2667C28.2117 28.1824 28.4243 27.8774 28.4049 27.5789C28.4049 27.5529 28.4243 27.527 28.4565 27.5205C28.4822 27.5205 28.508 27.54 28.508 27.5724C28.5273 27.9228 28.2825 28.2732 27.9476 28.3705C27.9411 28.377 27.9218 28.3835 27.9025 28.3835Z" fill="#B9A16E"/>
<path d="M29.1915 26.0176C29.1722 26.0176 29.1464 26.0176 29.1271 26.0111C29.1142 26.0111 29.1014 26.0046 29.0949 25.9916C29.0885 25.9786 29.082 25.9657 29.082 25.9527L29.1658 25.3233C29.1722 25.2973 29.198 25.2714 29.2237 25.2778C29.2495 25.2843 29.2688 25.3103 29.2688 25.3362L29.1915 25.9073C29.3397 25.9073 29.4879 25.8489 29.6167 25.7386C29.752 25.6153 29.8357 25.4466 29.8357 25.2843C29.8357 25.2584 29.8615 25.2324 29.8872 25.2324C29.913 25.2324 29.9388 25.2584 29.9388 25.2843C29.9388 25.479 29.8421 25.6737 29.6811 25.8164C29.5394 25.9527 29.3655 26.0176 29.1915 26.0176Z" fill="#B9A16E"/>
<path d="M32.3769 21.1997C32.2996 21.1997 32.2287 21.1802 32.1707 21.1218C32.029 20.992 32.0806 20.7714 32.1257 20.6157C32.1321 20.5897 32.1643 20.5703 32.1901 20.5832C32.2158 20.5897 32.2352 20.6222 32.2223 20.6481C32.1836 20.7779 32.1385 20.9531 32.2352 21.0439C32.3189 21.1283 32.4735 21.0894 32.5766 21.031C32.7247 20.9531 32.8471 20.8363 32.9373 20.7C32.9502 20.6741 32.9824 20.6676 33.0082 20.6871C33.0339 20.7 33.0404 20.7325 33.021 20.7584C32.9244 20.9142 32.7827 21.0375 32.6217 21.1283C32.5572 21.1672 32.4671 21.1997 32.3769 21.1997Z" fill="#B9A16E"/>
<path d="M32.7713 26.6147C32.752 26.6147 32.7391 26.6147 32.7198 26.6082C32.6425 26.5953 32.5458 26.5433 32.533 26.446C32.5265 26.4006 32.5394 26.3617 32.5523 26.3292C32.6103 26.18 32.7198 26.0502 32.855 25.9658C32.8808 25.9529 32.913 25.9594 32.9259 25.9853C32.9388 26.0113 32.9323 26.0437 32.9066 26.0567C32.7906 26.1281 32.694 26.2384 32.6489 26.3682C32.6425 26.3876 32.636 26.4136 32.636 26.433C32.6425 26.472 32.6876 26.4979 32.7327 26.5044C32.8744 26.5239 33.0032 26.4136 33.1063 26.3098C33.2158 26.1994 33.3188 26.0891 33.4155 25.9658C33.409 25.9594 33.4026 25.9399 33.4026 25.9269C33.4026 25.901 33.4219 25.8815 33.4541 25.875H33.5121C33.5314 25.875 33.5507 25.888 33.5572 25.9074C33.5636 25.9269 33.5636 25.9464 33.5507 25.9593C33.4348 26.1021 33.3124 26.2449 33.1771 26.3811C33.0805 26.4979 32.9388 26.6147 32.7713 26.6147Z" fill="#B9A16E"/>
<path d="M32.9613 24.0074C32.9291 24.0074 32.9033 24.001 32.8711 23.9945C32.7938 23.9685 32.723 23.9101 32.6843 23.8258C32.6521 23.7544 32.6521 23.6765 32.6843 23.6116C32.6972 23.5857 32.7294 23.5727 32.7552 23.5857C32.7809 23.5987 32.7938 23.6311 32.7809 23.6571C32.7616 23.696 32.7616 23.7349 32.7809 23.7803C32.8067 23.8323 32.8518 23.8777 32.8969 23.8907C32.9935 23.9166 33.1095 23.8712 33.1868 23.7803C33.2512 23.7025 33.2898 23.5857 33.3027 23.4429C33.3027 23.417 33.3285 23.391 33.3607 23.3975C33.3864 23.3975 33.4122 23.4235 33.4058 23.4559C33.3929 23.6181 33.3478 23.7544 33.2705 23.8517C33.1932 23.949 33.0773 24.0074 32.9613 24.0074Z" fill="#B9A16E"/>
<path d="M36.0341 21.8477C36.0083 21.8477 35.9826 21.8477 35.9633 21.8477C35.7637 21.8347 35.6092 21.7699 35.4998 21.6662C35.3582 21.53 35.326 21.316 35.4226 21.1669C35.4354 21.1409 35.4676 21.1344 35.4934 21.1539C35.5191 21.1669 35.5256 21.1993 35.5062 21.2252C35.429 21.3419 35.4805 21.504 35.5706 21.5948C35.68 21.7051 35.8474 21.7375 35.9697 21.744C36.2465 21.7634 36.5362 21.6726 36.7551 21.4976C36.7808 21.4781 36.8001 21.4587 36.8066 21.4392C36.8066 21.4327 36.8001 21.4262 36.8001 21.4197C36.7744 21.4262 36.7486 21.4068 36.7422 21.3744C36.7357 21.3484 36.7615 21.3225 36.7872 21.316C36.8194 21.3095 36.8516 21.3225 36.8709 21.3484C36.8967 21.3744 36.9095 21.4198 36.9031 21.4587C36.8902 21.5105 36.8516 21.5494 36.8194 21.5819C36.5941 21.7504 36.3173 21.8477 36.0341 21.8477Z" fill="#B9A16E"/>
<path d="M37.575 24.8374C37.4783 24.8374 37.3753 24.805 37.3366 24.7142C37.3044 24.6493 37.3173 24.5779 37.3302 24.5195C37.3882 24.2859 37.5363 24.0783 37.736 23.942C37.7618 23.9225 37.794 23.929 37.8069 23.955C37.8262 23.9809 37.8197 24.0134 37.794 24.0263C37.62 24.1496 37.4848 24.3378 37.4332 24.5454C37.4204 24.5844 37.4139 24.6298 37.4332 24.6687C37.459 24.7336 37.5621 24.7401 37.6329 24.7271C37.8391 24.6947 38.0323 24.5649 38.1483 24.3897C38.1611 24.3638 38.1934 24.3573 38.2191 24.3767C38.2449 24.3897 38.2513 24.4222 38.232 24.4481C38.1032 24.6493 37.8842 24.7985 37.6458 24.831C37.6265 24.8374 37.6007 24.8374 37.575 24.8374Z" fill="#B9A16E"/>
<path d="M40.7946 25.0907C40.7431 25.0907 40.6915 25.0842 40.64 25.0712C40.5885 25.0583 40.524 25.0388 40.4725 24.9934C40.363 24.8896 40.3759 24.7079 40.5047 24.4937C40.5176 24.4678 40.5498 24.4613 40.5756 24.4743C40.6013 24.4872 40.6078 24.5197 40.5949 24.5456C40.5369 24.643 40.4532 24.8312 40.5434 24.922C40.5756 24.9544 40.6207 24.9674 40.6658 24.9739C40.7559 24.9934 40.8783 25.0063 40.975 24.9479C41.0523 24.9025 41.1102 24.7922 41.0651 24.7079C41.0523 24.6819 41.0651 24.6495 41.0845 24.6365C41.1102 24.6235 41.1424 24.63 41.1553 24.656C41.2262 24.7922 41.1424 24.9609 41.0265 25.0323C40.9621 25.0712 40.8848 25.0907 40.7946 25.0907Z" fill="#B9A16E"/>
<path d="M39.9057 30.8683C39.8992 30.8683 39.8992 30.8683 39.9057 30.8683L39.1906 30.8099C39.1649 30.8099 39.1391 30.784 39.1455 30.7515C39.1455 30.7256 39.1777 30.6996 39.2035 30.7061L39.9121 30.7645C39.9379 30.7645 39.9636 30.7904 39.9572 30.8229C39.9507 30.8488 39.9314 30.8683 39.9057 30.8683Z" fill="#B9A16E"/>
<path d="M40.1541 30.3298L39.5422 30.2779C39.5164 30.2779 39.4907 30.252 39.4971 30.2195C39.5035 30.1871 39.5229 30.1676 39.5551 30.1741L40.167 30.226C40.1928 30.226 40.2186 30.252 40.2121 30.2844C40.2057 30.3104 40.1864 30.3298 40.1541 30.3298Z" fill="#B9A16E"/>
<path d="M40.7249 29.5776L39.9133 29.5062C39.8875 29.5062 39.8617 29.4802 39.8682 29.4478C39.8682 29.4218 39.894 29.3959 39.9262 29.4024L40.7314 29.4738C40.7571 29.4738 40.7829 29.4997 40.7765 29.5322C40.7765 29.5581 40.7571 29.5776 40.7249 29.5776Z" fill="#B9A16E"/>
<path d="M41.021 28.6951L40.2609 28.6302C40.2352 28.6302 40.2094 28.6043 40.2158 28.5718C40.2158 28.5459 40.2481 28.5199 40.2738 28.5264L41.0275 28.5913C41.0533 28.5913 41.079 28.6172 41.0726 28.6497C41.0726 28.6756 41.0533 28.6951 41.021 28.6951Z" fill="#B9A16E"/>
<path d="M41.1211 28.0724L40.4641 28.014C40.4383 28.014 40.4125 27.988 40.419 27.9556C40.419 27.9296 40.4447 27.9037 40.4769 27.9102L41.134 27.9686C41.1598 27.9686 41.1855 27.9945 41.1791 28.027C41.1662 28.0529 41.1469 28.0724 41.1211 28.0724Z" fill="#B9A16E"/>
<path d="M29.8836 38.02L26.7101 37.7542C26.6844 37.7542 26.6586 37.7282 26.6651 37.6958C26.6651 37.6699 26.6908 37.6439 26.723 37.6504L29.8901 37.9163C29.9158 37.9163 29.9416 37.9422 29.9351 37.9746C29.9351 38.0006 29.9094 38.02 29.8836 38.02Z" fill="#B9A16E"/>
<path d="M30.5437 37.6568L28.5031 37.4817C28.4773 37.4817 28.4516 37.4558 28.458 37.4234C28.458 37.3974 28.4838 37.3715 28.516 37.378L30.5501 37.553C30.5759 37.553 30.6016 37.579 30.5952 37.6114C30.5952 37.6373 30.5694 37.6568 30.5437 37.6568Z" fill="#B9A16E"/>
<path d="M30.8158 37.3323L29.4953 37.222C29.4695 37.222 29.4438 37.1961 29.4502 37.1636C29.4502 37.1377 29.476 37.1117 29.5082 37.1182L30.8223 37.2285C30.8481 37.2285 30.8738 37.2545 30.8674 37.2869C30.8674 37.3064 30.8416 37.3323 30.8158 37.3323Z" fill="#B9A16E"/>
<path d="M30.9883 36.924C30.9819 36.924 30.9819 36.924 30.9883 36.924L30.3312 36.8656C30.3055 36.8656 30.2797 36.8396 30.2862 36.8072C30.2862 36.7812 30.3119 36.7553 30.3441 36.7618L31.0012 36.8201C31.0269 36.8201 31.0527 36.8461 31.0463 36.8786C31.0334 36.9045 31.0141 36.924 30.9883 36.924Z" fill="#B9A16E"/>
<path d="M31.2226 36.4898L30.8039 36.4574C30.7781 36.4574 30.7524 36.4314 30.7588 36.399C30.7588 36.373 30.791 36.3471 30.8168 36.3535L31.2291 36.386C31.2548 36.386 31.2806 36.4119 31.2741 36.4444C31.2741 36.4703 31.2484 36.4898 31.2226 36.4898Z" fill="#B9A16E"/>
<path d="M23.8904 32.6903L21.882 32.5218C21.8562 32.5218 21.8305 32.4958 21.8369 32.4634C21.8369 32.4375 21.8627 32.4115 21.8949 32.418L23.8968 32.5866C23.9226 32.5866 23.9483 32.6125 23.9419 32.645C23.9419 32.6709 23.9161 32.6903 23.8904 32.6903Z" fill="#B9A16E"/>
<path d="M23.0545 33.1822C23.0481 33.1822 23.0481 33.1822 23.0545 33.1822L21.7727 33.0719C21.7469 33.0719 21.7211 33.0459 21.7276 33.0135C21.734 32.981 21.7533 32.9616 21.7855 32.968L23.0674 33.0784C23.0932 33.0784 23.119 33.1043 23.1125 33.1367C23.0996 33.1562 23.0803 33.1822 23.0545 33.1822Z" fill="#B9A16E"/>
<path d="M22.7552 33.7854L21.6086 33.6881C21.5828 33.6881 21.5571 33.6621 21.5635 33.6297C21.5699 33.5972 21.5893 33.5778 21.6215 33.5843L22.7616 33.6816C22.7874 33.6816 22.8132 33.7075 22.8067 33.74C22.8003 33.7659 22.781 33.7854 22.7552 33.7854Z" fill="#B9A16E"/>
<path d="M22.8376 34.4205L21.7297 34.3297C21.7039 34.3297 21.6782 34.3037 21.6846 34.2713C21.691 34.2388 21.7104 34.2194 21.7426 34.2259L22.8441 34.3167C22.8699 34.3167 22.8956 34.3427 22.8892 34.3751C22.8827 34.4011 22.8634 34.4205 22.8376 34.4205Z" fill="#B9A16E"/>
<path d="M22.9894 35.0238L21.9523 34.933C21.9266 34.933 21.9008 34.907 21.9073 34.8746C21.9073 34.8486 21.933 34.8226 21.9652 34.8291L23.0023 34.9135C23.0281 34.9135 23.0539 34.9394 23.0474 34.9719C23.041 35.0043 23.0152 35.0238 22.9894 35.0238Z" fill="#B9A16E"/>
<path d="M23.31 35.614L22.2922 35.5296C22.2664 35.5296 22.2407 35.5037 22.2471 35.4712C22.2471 35.4453 22.2729 35.4193 22.3051 35.4258L23.3164 35.5102C23.3422 35.5102 23.3679 35.5361 23.3615 35.5686C23.3551 35.588 23.3357 35.614 23.31 35.614Z" fill="#B9A16E"/>
<path d="M26.6813 36.7162C26.6684 36.7162 26.6491 36.7098 26.6362 36.6968C26.6169 36.6708 26.6234 36.6384 26.6491 36.6255L31.0264 33.4351C31.0521 33.4157 31.0843 33.4222 31.0972 33.4481C31.1165 33.474 31.1101 33.5065 31.0843 33.5194L26.707 36.7097C26.707 36.7162 26.6942 36.7162 26.6813 36.7162Z" fill="#B9A16E"/>
<path d="M27.355 37.0352C27.3421 37.0352 27.3292 37.0287 27.3228 37.0222C27.3035 37.0028 27.297 36.9704 27.3163 36.9509C27.3936 36.8536 30.5736 34.0718 30.934 33.7541C30.9533 33.7346 30.9855 33.7347 31.0048 33.7606C31.0242 33.78 31.0242 33.8125 30.9984 33.8319C30.02 34.6814 27.4708 36.9185 27.3936 37.0093C27.3872 37.0287 27.3678 37.0352 27.355 37.0352Z" fill="#B9A16E"/>
<path d="M28.0023 37.1759C27.9894 37.1759 27.9766 37.1694 27.9637 37.1629C27.9444 37.1435 27.9444 37.111 27.9637 37.0916L30.9441 33.9726C30.9634 33.9531 30.9956 33.9531 31.0149 33.9726C31.0342 33.9921 31.0342 34.0245 31.0149 34.0439L28.0345 37.1629C28.0281 37.1694 28.0152 37.1759 28.0023 37.1759Z" fill="#B9A16E"/>
<path d="M28.6167 37.2286C28.6038 37.2286 28.5909 37.2221 28.5845 37.2156C28.5652 37.1962 28.5588 37.1638 28.5781 37.1443L30.8954 34.3366C30.9148 34.3171 30.9469 34.3106 30.9663 34.3301C30.9856 34.3496 30.992 34.382 30.9727 34.4014L28.6553 37.2092C28.6424 37.2221 28.6296 37.2286 28.6167 37.2286Z" fill="#B9A16E"/>
<path d="M29.4288 37.0733C29.4159 37.0733 29.4094 37.0733 29.403 37.0668C29.3773 37.0538 29.3708 37.0214 29.3901 36.9954L30.9157 34.6805C30.9286 34.6546 30.9608 34.6481 30.9866 34.6676C31.0123 34.6805 31.0187 34.713 30.9994 34.7389L29.4738 37.0538C29.4609 37.0668 29.4416 37.0733 29.4288 37.0733Z" fill="#B9A16E"/>
<path d="M30.1581 36.8194C30.1517 36.8194 30.1452 36.8194 30.1324 36.8129C30.1066 36.8 30.0937 36.7675 30.1066 36.7416L30.9177 35.114C30.9306 35.0881 30.9628 35.0751 30.9885 35.0881C31.0143 35.1011 31.0271 35.1335 31.0143 35.1594L30.2032 36.787C30.1967 36.8065 30.1774 36.8194 30.1581 36.8194Z" fill="#B9A16E"/>
<path d="M30.6712 36.5163C30.6648 36.5163 30.6584 36.5163 30.6519 36.5098C30.6261 36.4968 30.6133 36.4709 30.6261 36.4384L31.0126 35.5105C31.0255 35.4846 31.0513 35.4716 31.0835 35.4846C31.1093 35.4976 31.1222 35.5235 31.1093 35.556L30.7228 36.4839C30.7099 36.5033 30.6906 36.5163 30.6712 36.5163Z" fill="#B9A16E"/>
<path d="M26.2207 34.3041C26.195 34.3041 26.1757 34.2847 26.1692 34.2652C26.1628 34.2393 26.1821 34.2069 26.2078 34.2004L31.1645 33.0462C31.1902 33.0397 31.2224 33.0591 31.2288 33.0851C31.2353 33.111 31.216 33.1434 31.1902 33.1499L26.2336 34.3041C26.2336 34.3041 26.2272 34.3041 26.2207 34.3041Z" fill="#B9A16E"/>
<path d="M31.182 33.0977C30.7571 33.0848 27.0429 32.9745 26.9914 32.968C26.9656 32.968 26.9399 32.9421 26.9463 32.9097C26.9463 32.8837 26.9721 32.8578 27.0042 32.8643C27.0622 32.8708 29.7658 32.9486 31.1884 32.994C31.2142 32.994 31.2399 33.0199 31.2399 33.0459C31.2335 33.0783 31.2077 33.0977 31.182 33.0977Z" fill="#B9A16E"/>
<path d="M31.3195 32.8517C31.313 32.8517 31.3066 32.8517 31.3002 32.8517L28.1588 31.678C28.1331 31.665 28.1202 31.6391 28.1266 31.6132C28.1395 31.5872 28.1653 31.5743 28.191 31.5808L31.3323 32.7544C31.3581 32.7674 31.371 32.7933 31.3645 32.8193C31.3645 32.8387 31.3388 32.8517 31.3195 32.8517Z" fill="#B9A16E"/>
<path d="M31.7026 33.2865C31.6768 33.2865 31.6511 33.2605 31.6511 33.2346C31.6511 33.0401 31.6124 32.8455 31.5416 32.6575L29.147 30.6862C29.1277 30.6668 29.1213 30.6344 29.1406 30.6149C29.1599 30.5955 29.1921 30.589 29.2114 30.6084L31.6189 32.5926C31.6253 32.5991 31.6318 32.6056 31.6318 32.6121C31.709 32.8131 31.7476 33.0206 31.7476 33.2411C31.7541 33.2605 31.7347 33.2865 31.7026 33.2865Z" fill="#B9A16E"/>
<path d="M32.1075 32.2041C32.0947 32.2041 32.0754 32.1976 32.0689 32.1846L30.2729 29.7789C30.2536 29.753 30.2601 29.7206 30.2858 29.7076C30.3116 29.6881 30.3438 29.6946 30.3566 29.7206L32.1526 32.1263C32.1719 32.1522 32.1655 32.1846 32.1397 32.1976C32.1268 32.1976 32.114 32.2041 32.1075 32.2041Z" fill="#B9A16E"/>
<path d="M32.563 31.8731C32.5437 31.8731 32.5244 31.8602 32.518 31.8472L31.1275 29.2145C31.1147 29.1886 31.1211 29.1562 31.1468 29.1432C31.1726 29.1302 31.2048 29.1367 31.2176 29.1627L32.6081 31.7953C32.621 31.8212 32.6145 31.8537 32.5888 31.8666C32.5823 31.8731 32.5759 31.8731 32.563 31.8731Z" fill="#B9A16E"/>
<path d="M32.9518 31.6258C32.9325 31.6258 32.9067 31.6128 32.9003 31.5868L32.0055 28.63C31.9991 28.604 32.012 28.5716 32.0377 28.5651C32.0635 28.5586 32.0957 28.5716 32.1021 28.5976L32.9969 31.5544C33.0033 31.5804 32.9904 31.6128 32.9647 31.6193C32.9647 31.6258 32.9582 31.6258 32.9518 31.6258Z" fill="#B9A16E"/>
<path d="M33.7221 31.3407C33.6963 31.3407 33.677 31.3212 33.6706 31.2953L33.22 27.9558C33.2135 27.9299 33.2329 27.9039 33.265 27.8975C33.2908 27.8975 33.3165 27.9104 33.323 27.9429L33.7736 31.2823C33.78 31.3082 33.7607 31.3342 33.7285 31.3407C33.7221 31.3407 33.7221 31.3407 33.7221 31.3407Z" fill="#B9A16E"/>
<path d="M34.0681 31.3725C34.0359 31.366 34.0102 31.3401 34.0166 31.3142L34.4801 27.3911C34.4865 27.3652 34.5123 27.3393 34.538 27.3457C34.5638 27.3522 34.5895 27.3782 34.5831 27.4041L34.1196 31.3271C34.1196 31.3531 34.0939 31.3725 34.0681 31.3725Z" fill="#B9A16E"/>
<path d="M34.2555 31.3535C34.2426 31.3535 34.2362 31.347 34.2233 31.3405C34.1976 31.3211 34.1976 31.2887 34.2169 31.2692L37.7187 26.6912C37.738 26.6653 37.7702 26.6653 37.7895 26.6848C37.8153 26.7042 37.8153 26.7366 37.796 26.7561L34.2941 31.3341C34.2877 31.347 34.2684 31.3535 34.2555 31.3535Z" fill="#B9A16E"/>
<path d="M34.6687 31.3867C34.6622 31.3867 34.6494 31.3867 34.6429 31.3802C34.6172 31.3672 34.6107 31.3283 34.6236 31.3089C34.6622 31.244 38.2606 27.522 38.9751 26.7763C38.9945 26.7569 39.0266 26.7569 39.046 26.7763C39.0653 26.7958 39.0653 26.8282 39.046 26.8476C37.5783 28.3715 34.7781 31.27 34.7009 31.3608C34.7009 31.3802 34.688 31.3867 34.6687 31.3867Z" fill="#B9A16E"/>
<path d="M35.1547 31.6514C35.1418 31.6514 35.1289 31.6449 35.116 31.6385C35.0967 31.619 35.0967 31.5866 35.116 31.5671L39.8281 27.0605C39.8474 27.041 39.8796 27.041 39.8989 27.0605C39.9182 27.0799 39.9182 27.1124 39.8989 27.1318L35.1869 31.6385C35.1804 31.6514 35.1675 31.6514 35.1547 31.6514Z" fill="#B9A16E"/>
<path d="M35.3132 31.7759C35.2939 31.7759 35.281 31.7695 35.2682 31.75C35.2553 31.7241 35.2617 31.6916 35.2875 31.6787L40.2698 28.6764C40.2956 28.6634 40.3278 28.6699 40.3406 28.6959C40.3535 28.7218 40.3471 28.7542 40.3213 28.7672L35.339 31.7695C35.3325 31.7695 35.3197 31.7759 35.3132 31.7759Z" fill="#B9A16E"/>
<path d="M35.4993 31.9953C35.48 31.9953 35.4607 31.9823 35.4543 31.9629C35.4414 31.9369 35.4543 31.9045 35.48 31.8915L39.6449 29.9592C39.6706 29.9462 39.7028 29.9592 39.7157 29.9851C39.7285 30.0111 39.7157 30.0435 39.6899 30.0565L35.5251 31.9888C35.5186 31.9953 35.5122 31.9953 35.4993 31.9953Z" fill="#B9A16E"/>
<path d="M35.6518 32.3584C35.639 32.3584 35.6261 32.3519 35.6197 32.3454C35.6003 32.326 35.5939 32.2936 35.6132 32.2741C35.6261 32.2611 35.6583 32.2158 38.7288 31.1393C38.7546 31.1329 38.7867 31.1458 38.7932 31.1718C38.7996 31.1977 38.7867 31.2301 38.761 31.2366C37.583 31.6516 35.7935 32.2806 35.684 32.3454C35.6712 32.3584 35.6647 32.3584 35.6518 32.3584Z" fill="#B9A16E"/>
<path d="M35.768 32.7345C35.7487 32.7345 35.7294 32.7215 35.7165 32.7021C35.71 32.6761 35.7229 32.6437 35.7487 32.6372L38.021 31.8137C38.0467 31.8007 38.0789 31.8202 38.0854 31.8461C38.0918 31.8721 38.0789 31.9045 38.0532 31.911L35.7809 32.7345C35.7809 32.7345 35.7744 32.7345 35.768 32.7345Z" fill="#B9A16E"/>
<path d="M36.8628 32.9484L35.7742 32.8899C35.7484 32.8899 35.7227 32.864 35.7227 32.838C35.7227 32.8121 35.7484 32.7861 35.7742 32.7861L36.8628 32.8445C36.8886 32.8445 36.9144 32.8705 36.9144 32.8964C36.9079 32.9289 36.8886 32.9484 36.8628 32.9484Z" fill="#B9A16E"/>
<path d="M36.4365 33.2795C36.43 33.2795 36.43 33.2795 36.4236 33.2795L35.8954 33.1627C35.8696 33.1562 35.8503 33.1303 35.8567 33.0978C35.8632 33.0719 35.8889 33.0524 35.9211 33.0589L36.4493 33.1757C36.4751 33.1822 36.4944 33.2081 36.488 33.2406C36.4816 33.2665 36.4622 33.2795 36.4365 33.2795Z" fill="#B9A16E"/>
<path d="M26.1316 23.0921C26.1123 23.0921 26.0995 23.0856 26.0866 23.0661C26.0737 23.0402 26.0737 23.0078 26.0995 22.9948C26.814 22.5085 27.5607 22.0481 28.3074 21.6266C28.3332 21.6136 28.3653 21.6201 28.3782 21.6461C28.3911 21.672 28.3846 21.7044 28.3589 21.7174C27.6122 22.1389 26.8719 22.5993 26.1574 23.0856C26.151 23.0921 26.1381 23.0921 26.1316 23.0921Z" fill="#B9A16E"/>
<path d="M28.6595 21.5302C28.6402 21.5302 28.6209 21.5172 28.6144 21.4977C28.6015 21.4718 28.6144 21.4393 28.6402 21.4263L29.323 21.1408C29.3488 21.1279 29.381 21.1408 29.3939 21.1668C29.4067 21.1927 29.3939 21.2252 29.3681 21.2382L28.6853 21.5237C28.6724 21.5302 28.666 21.5302 28.6595 21.5302Z" fill="#B9A16E"/>
<path d="M24.239 26.3728C24.2197 26.3728 24.2004 26.3598 24.1939 26.3468C24.1811 26.3209 24.1875 26.2884 24.2133 26.2755L25.2568 25.7174C25.2826 25.7044 25.3148 25.7109 25.3277 25.7369C25.3406 25.7628 25.3341 25.7953 25.3083 25.8083L24.2648 26.3663C24.2584 26.3728 24.2519 26.3728 24.239 26.3728Z" fill="#B9A16E"/>
<path d="M24.0557 26.9443C24.0364 26.9443 24.0235 26.9378 24.0106 26.9183C23.9977 26.8924 24.0042 26.8599 24.0235 26.847L24.4551 26.5614C24.4808 26.5485 24.5131 26.555 24.5259 26.5744C24.5388 26.6004 24.5324 26.6328 24.5131 26.6458L24.0815 26.9313C24.075 26.9443 24.0621 26.9443 24.0557 26.9443Z" fill="#B9A16E"/>
<path d="M23.6387 27.7872C23.6129 27.7872 23.5936 27.7677 23.5872 27.7418C23.5807 27.7158 23.6001 27.6834 23.6258 27.6834C23.774 27.6574 23.9157 27.599 24.0445 27.5211C24.0703 27.5082 24.1025 27.5146 24.1154 27.5406C24.1283 27.5666 24.1218 27.599 24.0961 27.612C23.9544 27.6963 23.8062 27.7547 23.6452 27.7872H23.6387Z" fill="#B9A16E"/>
<path d="M23.6283 28.8436C23.6089 28.8436 23.5896 28.8306 23.5832 28.8112C23.5703 28.7852 23.5832 28.7528 23.6089 28.7463C23.7635 28.6814 23.9117 28.61 24.0599 28.5192C24.0856 28.5062 24.1178 28.5127 24.1307 28.5387C24.1436 28.5646 24.1372 28.5971 24.1114 28.61C23.9632 28.7009 23.8086 28.7787 23.6476 28.8436C23.6412 28.8436 23.6347 28.8436 23.6283 28.8436Z" fill="#B9A16E"/>
<path d="M23.5937 24.4736C23.613 25.1675 23.5358 25.8678 23.3748 26.5421C23.2139 27.223 22.9628 27.8779 22.641 28.4939C22.3063 29.11 21.9136 29.6806 21.5853 30.2836C21.257 30.8802 20.9931 31.5416 21.0188 32.2419C20.9802 31.8982 21.0188 31.5416 21.1089 31.2044C21.1991 30.8672 21.3407 30.543 21.4952 30.2318C21.8106 29.6093 22.2097 29.0386 22.5251 28.4291C22.8534 27.8261 23.098 27.1776 23.2783 26.5097C23.4585 25.8548 23.5615 25.1675 23.5937 24.4736Z" fill="#B9A16E"/>
<path d="M22.7109 24.9209C22.7302 25.2386 22.6787 25.5564 22.5886 25.8611C22.4985 26.1659 22.3697 26.4577 22.241 26.7495C21.9771 27.3266 21.7131 27.8972 21.3913 28.4484C21.063 28.9931 20.6961 29.5054 20.4321 30.0695C20.297 30.3483 20.194 30.6466 20.1296 30.9514C20.0652 31.2561 20.0524 31.5739 20.1039 31.8851C20.0202 31.5804 20.0202 31.2496 20.0652 30.9384C20.1167 30.6207 20.2133 30.3159 20.3356 30.0241C20.5931 29.434 20.96 28.9153 21.2754 28.3771C21.6037 27.8389 21.8676 27.2682 22.1509 26.7041C22.2925 26.4188 22.4277 26.14 22.5307 25.8417C22.6272 25.5499 22.698 25.2386 22.7109 24.9209Z" fill="#B9A16E"/>
<path d="M39.6445 32.0922C40.1144 31.8198 40.5522 31.5021 40.9577 31.1519C41.3633 30.7953 41.7366 30.4062 42.0585 29.9718C42.3932 29.5503 42.67 29.0834 42.9146 28.5971C43.1528 28.1107 43.3459 27.605 43.4875 27.0732C43.3974 27.6114 43.23 28.1367 43.0112 28.636C42.7859 29.1353 42.5026 29.6086 42.1679 30.0431C41.8332 30.4775 41.4534 30.8731 41.0285 31.2168C40.6037 31.5734 40.1402 31.8717 39.6445 32.0922Z" fill="#B9A16E"/>
<path d="M40.2812 32.5212C40.4101 32.4044 40.5454 32.3071 40.6742 32.2162C40.8095 32.1254 40.9383 32.0281 41.0993 31.9502C41.0156 32.1059 40.8932 32.2292 40.7515 32.3266C40.6098 32.4239 40.4552 32.5018 40.2812 32.5212Z" fill="#B9A16E"/>
<path d="M37.1289 36.1523C37.3478 36.4636 37.4894 36.8202 37.5795 37.1898C37.6632 37.5595 37.6954 37.9485 37.631 38.3181C37.5859 37.942 37.5345 37.5789 37.4443 37.2158C37.3671 36.8591 37.2512 36.509 37.1289 36.1523Z" fill="#B9A16E"/>
<path d="M43.3945 37.3316C43.4074 37.1888 43.4589 37.0655 43.5169 36.9423C43.5813 36.8255 43.6522 36.7087 43.7553 36.6113C43.7424 36.7541 43.6909 36.8774 43.6329 37.0007C43.5749 37.1175 43.504 37.2343 43.3945 37.3316Z" fill="#B9A16E"/>
<path d="M30.6699 40.2178C30.6635 40.5874 30.6377 40.9505 30.6055 41.3201C30.5734 41.6832 30.5283 42.0529 30.4768 42.416C30.4253 42.7791 30.3609 43.1422 30.2901 43.5054C30.2193 43.8685 30.1356 44.2251 30.0391 44.5818C30.0841 44.2186 30.1356 43.8555 30.1871 43.4924L30.3416 42.403L30.5025 41.3136C30.5605 40.944 30.612 40.5809 30.6699 40.2178Z" fill="#B9A16E"/>
<path d="M29.6927 40.2559C29.7764 40.4765 29.7958 40.7101 29.7764 40.9437C29.7507 41.1773 29.6927 41.4044 29.5703 41.6055C29.5896 41.3719 29.6283 41.1578 29.6476 40.9307C29.6669 40.7101 29.6734 40.4895 29.6927 40.2559Z" fill="#B9A16E"/>
<path d="M37.1231 51.3319L36.5695 50.8131L35.9773 51.0855L36.2026 50.4695L35.9258 50.0026L36.5502 50.0739L36.8592 49.5098L37.0845 50.236L37.6252 50.3333L37.1424 50.7094L37.1231 51.3319ZM36.6017 50.651L37.0008 51.0271L37.0137 50.6381L37.3033 50.4111L36.9815 50.3527L36.8205 49.847L36.621 50.2101L36.1768 50.1582L36.3442 50.4435L36.209 50.8196L36.6017 50.651Z" fill="#B9A16E"/>
<path d="M19.1543 39.284L18.6007 38.7653L18.0085 39.0376L18.2338 38.4216L17.957 37.9547L18.5814 38.0261L18.8904 37.4619L19.1157 38.1882L19.6564 38.2854L19.1737 38.6615L19.1543 39.284ZM18.6329 38.6032L19.032 38.9793L19.0449 38.5902L19.3346 38.3632L19.0127 38.3049L18.8518 37.7991L18.6522 38.1622L18.2081 38.1104L18.3754 38.3957L18.2403 38.7718L18.6329 38.6032Z" fill="#B9A16E"/>
<path d="M17.3236 37.4305L17.1884 37.4241C17.2077 36.62 16.2614 36.2699 16.2486 36.2634L15.8945 36.1337L16.2679 36.1272C17.1498 36.1142 17.2013 34.973 17.2077 34.8887L17.3429 34.8952C17.33 35.4204 17.433 35.7965 17.6519 35.9716C17.7999 36.0883 17.9609 36.1013 18.0445 36.0948C18.0639 36.0883 18.0896 36.0883 18.1089 36.0883L18.1282 36.218C18.1218 36.218 18.1025 36.2245 18.0574 36.2309C17.4008 36.3606 17.3236 37.4241 17.3236 37.4305ZM16.5189 36.2374C16.7571 36.3671 17.1176 36.6135 17.2592 37.022C17.33 36.7367 17.4781 36.3801 17.7806 36.1985C17.7098 36.1726 17.639 36.1402 17.5746 36.0818C17.4073 35.9456 17.3043 35.7316 17.2528 35.4463C17.1433 35.7705 16.9374 36.1337 16.5189 36.2374Z" fill="#B9A16E"/>
<path d="M40.3423 33.6943H40.207V35.0765H40.3423V33.6943Z" fill="#B9A16E"/>
<path d="M39.86 33.8738L39.7734 33.9785L40.7582 34.8052L40.8448 34.7005L39.86 33.8738Z" fill="#B9A16E"/>
<path d="M40.0562 34.7262L39.9531 34.6418C40.024 34.551 40.6424 33.7853 40.6875 33.7334L40.7841 33.8307C40.7519 33.8632 40.3332 34.3823 40.0562 34.7262Z" fill="#B9A16E"/>
<path d="M40.7505 34.2535L39.707 34.2686L39.709 34.4048L40.7524 34.3898L40.7505 34.2535Z" fill="#B9A16E"/>
<path d="M16.647 38.9531H16.5117V40.3353H16.647V38.9531Z" fill="#B9A16E"/>
<path d="M16.1608 39.1336L16.0742 39.2383L17.059 40.065L17.1456 39.9603L16.1608 39.1336Z" fill="#B9A16E"/>
<path d="M16.3609 39.984L16.2578 39.8996C16.3287 39.8088 16.9471 39.0431 16.9922 38.9912L17.0888 39.0885C17.0501 39.121 16.6314 39.6401 16.3609 39.984Z" fill="#B9A16E"/>
<path d="M17.0513 39.5182L16.0078 39.5332L16.0097 39.6695L17.0532 39.6544L17.0513 39.5182Z" fill="#B9A16E"/>
<path d="M19.5304 32.2173C19.8783 32.2173 19.8783 31.6787 19.5304 31.6787C19.1826 31.6787 19.1826 32.2173 19.5304 32.2173Z" fill="#B9A16E"/>
<path d="M36.2046 15.3695C36.1531 15.3889 36.0952 15.4149 36.0437 15.4408C35.9922 15.4603 35.9343 15.4797 35.9471 15.551C35.96 15.6094 36.0179 15.6094 36.0694 15.6094C36.2497 15.6029 36.3977 15.6807 36.5458 15.7845C36.7647 15.9336 36.8226 16.1671 36.9063 16.394C36.9127 16.4135 36.9191 16.4394 36.9256 16.4588C36.9449 16.5042 36.9642 16.5431 37.0221 16.5367C37.0736 16.5237 37.0801 16.4783 37.0801 16.4264C37.0736 16.2254 37.0865 16.0244 37.1766 15.8363C37.2732 15.6353 37.3891 15.4603 37.653 15.4992C37.7109 15.5056 37.7882 15.4992 37.7817 15.4084C37.7624 15.3435 37.7109 15.3241 37.6594 15.3111C37.2732 15.2333 37.0414 14.9869 36.9706 14.5914C36.9578 14.5265 36.9449 14.4552 36.9256 14.3903C36.9127 14.3449 36.9127 14.2801 36.8419 14.2866C36.7647 14.2996 36.784 14.3644 36.784 14.4163C36.7968 14.5654 36.784 14.7081 36.7389 14.8507C36.6681 15.1166 36.4621 15.2657 36.2046 15.3695Z" fill="#B9A16E"/>
<path d="M46.9414 26.0417C46.8706 26.0677 46.7997 26.1066 46.7289 26.1325C46.6581 26.1584 46.5809 26.1909 46.6066 26.2816C46.6259 26.3594 46.7032 26.3594 46.7676 26.353C47.0057 26.3465 47.2053 26.4502 47.3984 26.5799C47.6816 26.7745 47.7653 27.0857 47.8748 27.384C47.8876 27.4099 47.8941 27.4423 47.9005 27.4683C47.9198 27.5266 47.9584 27.585 48.0292 27.5656C48.1001 27.5526 48.1065 27.4877 48.1065 27.4229C48.1001 27.157 48.1129 26.8912 48.2352 26.6448C48.364 26.3789 48.512 26.1455 48.8661 26.1973C48.9369 26.2103 49.0463 26.1973 49.0334 26.0741C49.0077 25.9834 48.9433 25.9574 48.8725 25.9445C48.364 25.8407 48.055 25.5165 47.9649 24.9913C47.952 24.9005 47.9263 24.8162 47.9069 24.7254C47.8941 24.6605 47.8876 24.5763 47.7975 24.5892C47.6945 24.6022 47.7138 24.693 47.7203 24.7643C47.7331 24.9588 47.7203 25.1469 47.6623 25.3349C47.5529 25.7045 47.2825 25.9055 46.9414 26.0417ZM47.128 26.1779C47.5143 26.0352 47.7267 25.7694 47.8748 25.4192C48.0292 25.6851 48.1837 25.912 48.4412 26.0547C48.1451 26.2557 48.0357 26.5605 47.9198 26.8912C47.7653 26.541 47.4821 26.353 47.128 26.1779Z" fill="#B9A16E"/>
<path d="M17.2469 22.9621C17.1568 22.9946 17.0731 23.04 16.983 23.0789C16.8993 23.1113 16.8027 23.1502 16.8285 23.2604C16.8542 23.3577 16.9508 23.3577 17.0344 23.3512C17.3306 23.3447 17.5816 23.4744 17.8198 23.6365C18.1803 23.8764 18.2833 24.272 18.4184 24.6416C18.4313 24.674 18.4378 24.7129 18.4506 24.7518C18.4764 24.8297 18.5214 24.8945 18.6116 24.875C18.7017 24.8556 18.7081 24.7778 18.7081 24.6935C18.7017 24.3563 18.721 24.0321 18.869 23.7208C19.03 23.3836 19.2166 23.0983 19.6608 23.1632C19.7509 23.1761 19.8861 23.1696 19.8732 23.014C19.8411 22.9038 19.7574 22.8714 19.6673 22.8519C19.03 22.7222 18.6437 22.3137 18.5343 21.6588C18.515 21.5486 18.4892 21.4383 18.4635 21.3281C18.4442 21.2503 18.4378 21.14 18.3283 21.1595C18.1996 21.1789 18.2253 21.2892 18.2318 21.38C18.2511 21.6199 18.2318 21.8598 18.161 22.0932C18.0065 22.5407 17.6653 22.7936 17.2469 22.9621Z" fill="#B9A16E"/>
<path d="M27.7671 14.3382C27.7156 14.3577 27.6577 14.3836 27.6062 14.4096C27.5547 14.429 27.4968 14.4485 27.5096 14.5198C27.5225 14.5781 27.5804 14.5781 27.6319 14.5781C27.8122 14.5717 27.9602 14.6495 28.1083 14.7532C28.3272 14.9024 28.3851 15.1358 28.4688 15.3628C28.4752 15.3822 28.4816 15.4082 28.4881 15.4276C28.5074 15.473 28.5331 15.5184 28.5846 15.5054C28.6361 15.4924 28.6426 15.4471 28.6426 15.3952C28.6361 15.1942 28.649 14.9932 28.7391 14.8051C28.8357 14.6041 28.9516 14.429 29.2155 14.4679C29.2734 14.4744 29.3507 14.4679 29.3442 14.3771C29.3249 14.3123 29.2734 14.2928 29.2219 14.2799C28.8357 14.2021 28.5975 13.9556 28.5331 13.5601C28.5203 13.4953 28.5074 13.4239 28.4881 13.3591C28.4752 13.3137 28.4752 13.2488 28.4044 13.2553C28.3272 13.2683 28.34 13.3331 28.3465 13.385C28.3593 13.5342 28.3465 13.6768 28.3014 13.8195C28.2306 14.0853 28.0246 14.241 27.7671 14.3382Z" fill="#B9A16E"/>
<path d="M32.0644 60.5204C16.5702 60.5204 3.97266 47.824 3.97266 32.2226C3.97266 16.6212 16.5766 3.9248 32.0644 3.9248C47.5523 3.9248 60.1562 16.6212 60.1562 32.2226C60.1562 47.824 47.5587 60.5204 32.0644 60.5204ZM32.0644 4.4241C16.847 4.4241 4.46832 16.8936 4.46832 32.2226C4.46832 47.5517 16.847 60.0211 32.0644 60.0211C47.2819 60.0211 59.6606 47.5517 59.6606 32.2226C59.6606 16.8936 47.2819 4.4241 32.0644 4.4241Z" fill="#B9A16E"/>
<path d="M32.1918 59.0235C17.5795 59.0235 5.68359 47.0468 5.68359 32.3208C5.68359 17.5948 17.573 5.61816 32.1918 5.61816C46.8106 5.61816 58.7001 17.5948 58.7001 32.3208C58.7001 47.0468 46.8042 59.0235 32.1918 59.0235ZM32.1918 5.78676C17.6696 5.78676 5.85096 17.6921 5.85096 32.3208C5.85096 46.9496 17.6696 58.8549 32.1918 58.8549C46.7141 58.8549 58.5327 46.9496 58.5327 32.3208C58.5327 17.6921 46.7141 5.78676 32.1918 5.78676Z" fill="#B9A16E"/>
</svg>
