<svg width="270" height="447" viewBox="0 0 270 447" fill="none" xmlns="http://www.w3.org/2000/svg">
<path d="M231.705 219.975C231.705 219.975 205.423 207.907 174.198 192.115C142.973 176.323 110.666 160.9 110.493 160.368C110.32 159.836 117.672 162.615 130.774 168.159C143.876 173.704 172.748 187.076 187.942 195.053C203.136 203.03 231.705 219.975 231.705 219.975Z" fill="#BC985E"/>
<path d="M130.775 168.16C118.321 162.889 111.145 160.155 110.606 160.35C122.519 165.276 145.46 174.962 162.918 183.564C181.21 192.578 214.724 210.77 230.812 219.563C231.358 219.814 231.706 219.975 231.706 219.975C231.706 219.975 203.136 203.029 187.942 195.053C172.748 187.076 143.877 173.704 130.775 168.16Z" fill="#BC985E"/>
<path d="M183.719 193.641C158.623 180.716 121.318 164.705 111.394 160.488C110.815 160.325 110.458 160.26 110.493 160.369C110.5 160.391 110.582 160.447 110.696 160.519C120.043 165.014 163.325 185.846 178.405 193.479C191.46 200.088 219.034 213.734 231.062 219.679C231.442 219.854 231.706 219.976 231.706 219.976C231.706 219.976 230.931 219.515 229.586 218.723C216.878 212.44 191.047 199.651 178.542 193.321C164.377 186.151 125.399 167.366 112.877 161.342C124.542 166.316 159.649 181.473 183.563 193.788C192.499 198.39 213.132 209.595 225.935 216.575C224.246 215.584 222.257 214.42 220.069 213.146C207.525 206.322 191.361 197.576 183.719 193.641Z" fill="#BC985E"/>
<path d="M231.703 219.974L207.425 207.31C199.334 203.099 191.258 198.856 183.116 194.734C174.992 190.612 166.708 186.624 158.458 182.616L133.658 170.623C141.973 174.475 150.28 178.37 158.573 182.325C166.864 186.282 175.147 190.272 183.392 194.418C191.583 198.603 199.658 202.84 207.705 207.103C215.75 211.367 223.747 215.659 231.703 219.974Z" fill="#BC985E"/>
<path d="M113.399 161.957C123.073 166.664 132.741 171.392 142.396 176.142C152.046 180.892 161.712 185.653 171.324 190.432C180.913 195.24 190.557 199.993 200.201 204.729C205.023 207.099 209.853 209.456 214.692 211.788C219.528 214.126 224.375 216.461 229.248 218.668C219.493 214.368 209.748 209.678 200.062 205.007C190.367 200.32 180.717 195.56 171.079 190.762L142.214 176.398C132.598 171.606 122.996 166.791 113.399 161.957Z" fill="#DCB88C"/>
<path d="M210.249 218.8C210.249 218.8 184.06 208.269 152.876 194.34C121.693 180.41 89.472 166.891 89.2774 166.381C89.0827 165.87 96.382 168.233 109.415 173.024C122.449 177.814 151.225 189.494 166.412 196.558C181.6 203.622 210.249 218.8 210.249 218.8Z" fill="#BC985E"/>
<path d="M109.418 173.026C97.0297 168.473 89.9049 166.144 89.3893 166.361C101.235 170.603 124.056 178.97 141.479 186.536C159.735 194.464 193.265 210.626 209.362 218.443C209.906 218.663 210.252 218.803 210.252 218.803C210.252 218.803 181.604 203.624 166.416 196.561C151.228 189.497 122.451 177.817 109.418 173.026Z" fill="#BC985E"/>
<path d="M162.227 195.38C137.153 183.959 100.031 170.101 90.158 166.455C89.5857 166.323 89.2345 166.277 89.2739 166.381C89.2825 166.402 89.3641 166.453 89.4789 166.518C98.8024 170.461 141.978 188.738 157.037 195.472C170.075 201.301 197.598 213.31 209.604 218.541C209.982 218.695 210.246 218.801 210.246 218.801C210.246 218.801 209.469 218.389 208.121 217.679C195.437 212.15 169.652 200.895 157.163 195.311C143.017 188.986 104.134 172.505 91.6435 167.219C103.248 171.519 138.188 184.647 162.08 195.531C171.007 199.597 191.651 209.552 204.46 215.756C202.767 214.869 200.773 213.828 198.581 212.689C186.032 206.626 169.862 198.858 162.227 195.38Z" fill="#BC985E"/>
<path d="M210.247 218.801L185.983 207.595C177.897 203.87 169.824 200.112 161.692 196.476C153.578 192.84 145.314 189.341 137.084 185.822L112.342 175.294C120.63 178.659 128.911 182.067 137.182 185.533C145.451 189.001 153.713 192.501 161.947 196.157C170.128 199.853 178.201 203.604 186.246 207.383C194.289 211.158 202.287 214.968 210.247 218.801Z" fill="#BC985E"/>
<path d="M92.183 167.795C101.835 171.93 111.483 176.085 121.119 180.262C130.75 184.44 140.398 188.628 149.993 192.835C159.567 197.072 169.193 201.253 178.817 205.417C183.63 207.501 188.449 209.572 193.276 211.618C198.1 213.67 202.935 215.718 207.789 217.642C198.077 213.908 188.357 209.793 178.695 205.695C169.023 201.58 159.392 197.393 149.769 193.168L120.954 180.52C111.355 176.301 101.767 172.058 92.183 167.795Z" fill="#DCB88C"/>
<path d="M164.553 220.018C164.553 220.018 140.653 212.033 112.123 201.287C83.5931 190.54 54.1596 180.215 53.9589 179.77C53.7591 179.326 60.389 181.042 72.2587 184.614C84.1285 188.187 110.394 197.058 124.305 202.541C138.213 208.023 164.553 220.018 164.553 220.018Z" fill="#BC985E"/>
<path d="M72.258 184.612C60.9759 181.217 54.5028 179.523 54.0544 179.743C64.8362 182.89 85.6172 189.126 101.547 194.938C118.239 201.027 148.978 213.638 163.739 219.743C164.235 219.911 164.551 220.017 164.551 220.017C164.551 220.017 138.212 208.022 124.302 202.539C110.393 197.056 84.1277 188.185 72.258 184.612Z" fill="#BC985E"/>
<path d="M120.513 201.713C97.5604 192.874 63.7422 182.509 54.7504 179.788C54.2334 179.7 53.9175 179.678 53.9588 179.769C53.967 179.788 54.0429 179.828 54.1487 179.879C62.6674 182.894 102.116 196.876 115.894 202.07C127.824 206.568 152.99 215.8 163.967 219.819C164.312 219.936 164.553 220.016 164.553 220.016C164.553 220.016 163.839 219.691 162.6 219.13C151.002 214.882 127.425 206.23 115.999 201.921C103.056 197.041 67.5278 184.431 56.1166 180.388C66.6869 183.601 98.522 193.432 120.393 201.853C128.565 205.001 147.491 212.769 159.237 217.612C157.68 216.913 155.848 216.091 153.834 215.193C142.325 210.461 127.503 204.404 120.513 201.713Z" fill="#BC985E"/>
<path d="M164.551 220.017L142.332 211.327C134.928 208.439 127.534 205.521 120.094 202.716C112.669 199.909 105.12 197.233 97.5969 194.536L74.9885 186.477C82.553 189.032 90.115 191.627 97.6694 194.273C105.223 196.922 112.773 199.6 120.303 202.418C127.791 205.273 135.184 208.185 142.555 211.122C149.924 214.06 157.254 217.027 164.551 220.017Z" fill="#BC985E"/>
<path d="M56.6223 180.873C65.4434 184.042 74.2629 187.229 83.0724 190.437C91.8776 193.644 100.698 196.862 109.473 200.099C118.231 203.363 127.03 206.574 135.829 209.77C140.229 211.371 144.633 212.959 149.044 214.524C153.452 216.096 157.87 217.662 162.299 219.117C153.445 216.309 144.563 213.162 135.734 210.025C126.897 206.875 118.09 203.658 109.291 200.408L82.9401 190.677C74.1589 187.429 65.3884 184.16 56.6223 180.873Z" fill="#DCB88C"/>
<path d="M156.491 220.152C156.491 220.152 131.526 216.731 101.499 211.455C71.472 206.179 40.635 201.484 40.3563 201.084C40.0776 200.684 46.9102 201.143 59.2366 202.455C71.563 203.767 99.0172 207.621 113.702 210.431C128.387 213.242 156.491 220.152 156.491 220.152Z" fill="#BC985E"/>
<path d="M59.2372 202.454C47.5213 201.207 40.8467 200.741 40.4461 201.04C51.6243 202.137 73.2014 204.416 89.9328 207.176C107.463 210.068 140.007 216.768 155.643 220.034C156.162 220.106 156.493 220.151 156.493 220.151C156.493 220.151 128.387 213.242 113.703 210.43C99.017 207.62 71.5636 203.767 59.2372 202.454Z" fill="#BC985E"/>
<path d="M109.82 210.32C85.6278 205.885 50.4745 201.963 41.1339 200.954C40.6096 200.964 40.295 201 40.3525 201.082C40.3638 201.098 40.4459 201.125 40.5595 201.155C49.4892 202.541 90.8453 208.974 105.347 211.527C117.902 213.737 144.344 218.147 155.875 220.065C156.237 220.115 156.487 220.15 156.487 220.15C156.487 220.15 155.724 219.962 154.403 219.641C142.22 217.614 117.448 213.478 105.421 211.36C91.798 208.961 54.5494 203.149 42.5861 201.291C53.5685 202.49 86.6738 206.256 109.726 210.48C118.34 212.059 138.377 216.188 150.816 218.772C149.158 218.372 147.205 217.905 145.059 217.395C132.875 214.878 117.187 211.67 109.82 210.32Z" fill="#BC985E"/>
<path d="M156.491 220.152L133.048 215.728C125.236 214.262 117.43 212.764 109.599 211.385C101.784 210.001 93.8679 208.77 85.9769 207.513L62.2672 203.78C70.1736 204.891 78.0849 206.04 85.999 207.242C93.913 208.445 101.827 209.678 109.75 211.052C117.637 212.471 125.441 213.963 133.229 215.484C141.014 217.007 148.767 218.565 156.491 220.152Z" fill="#BC985E"/>
<path d="M43.1797 201.675C52.4356 203.155 61.6919 204.654 70.9431 206.174C80.1899 207.695 89.4536 209.223 98.6758 210.778C107.887 212.364 117.129 213.89 126.368 215.401C130.987 216.159 135.61 216.904 140.235 217.625C144.858 218.353 149.488 219.074 154.11 219.683C144.889 218.563 135.579 217.115 126.322 215.669C117.054 214.21 107.804 212.681 98.5548 211.116L70.8568 206.434C61.628 204.869 52.4044 203.281 43.1797 201.675Z" fill="#DCB88C"/>
<path d="M174.435 219.337C174.435 219.337 147.553 227.305 115.366 238.435C83.1783 249.566 50.0326 260.033 49.7775 260.604C49.5223 261.174 56.9399 259.628 70.2597 256.195C83.5795 252.763 113.131 243.878 128.843 238.127C144.555 232.377 174.435 219.337 174.435 219.337Z" fill="#BC985E"/>
<path d="M49.8803 260.649C50.3549 260.992 57.5996 259.459 70.2594 256.196C83.5792 252.763 113.13 243.879 128.842 238.128C144.554 232.377 174.434 219.337 174.434 219.337C174.434 219.337 174.078 219.442 173.519 219.611C156.823 226.098 122.061 239.465 103.247 245.713C85.2895 251.675 61.971 257.661 49.8803 260.649Z" fill="#BC985E"/>
<path d="M124.614 238.805C98.704 248.016 60.7405 258.046 50.6485 260.666C50.0734 260.725 49.7254 260.719 49.7774 260.603C49.7884 260.579 49.8746 260.532 49.9942 260.476C59.5895 257.411 104.024 243.192 119.569 237.809C133.028 233.149 161.4 223.662 173.775 219.533C174.163 219.416 174.433 219.336 174.433 219.336C174.433 219.336 173.623 219.69 172.218 220.298C159.143 224.662 132.563 233.556 119.671 238.02C105.069 243.076 65.0487 255.906 52.1941 260.018C64.0584 256.92 99.8022 247.379 124.491 238.602C133.716 235.322 155.118 227.086 168.402 221.945C166.638 222.704 164.561 223.593 162.277 224.564C149.265 229.585 132.505 235.999 124.614 238.805Z" fill="#BC985E"/>
<path d="M174.434 219.336L149.341 228.431C140.98 231.452 132.627 234.513 124.234 237.419C115.858 240.33 107.352 243.051 98.8778 245.804L73.4078 254.015C81.9184 251.455 90.4297 248.843 98.9361 246.161C107.443 243.475 115.946 240.752 124.441 237.839C132.892 234.871 141.242 231.818 149.57 228.727C157.897 225.64 166.183 222.505 174.434 219.336Z" fill="#BC985E"/>
<path d="M52.7918 259.43C62.732 256.193 72.6703 252.933 82.5998 249.642C92.5243 246.352 102.467 243.052 112.361 239.72C122.239 236.348 132.159 233.054 142.075 229.779C147.034 228.139 151.998 226.514 156.967 224.922C161.933 223.32 166.908 221.727 171.888 220.283C161.941 223.036 151.938 226.237 141.992 229.429C132.036 232.638 122.109 235.939 112.187 239.287L82.4728 249.308C72.5734 252.656 62.6816 256.031 52.7918 259.43Z" fill="#DCB88C"/>
<path d="M189.401 217.854C189.401 217.854 163.099 227.564 131.709 240.778C100.319 253.992 67.9301 266.606 67.7129 267.192C67.4957 267.777 74.7967 265.751 87.8633 261.453C100.93 257.156 129.836 246.356 145.138 239.59C160.439 232.823 189.401 217.854 189.401 217.854Z" fill="#BC985E"/>
<path d="M67.8188 267.231C68.3156 267.542 75.4429 265.539 87.863 261.454C100.93 257.157 129.835 246.357 145.138 239.591C160.44 232.824 189.401 217.855 189.401 217.855C189.401 217.855 189.053 217.984 188.507 218.188C172.271 225.754 138.459 241.368 120.093 248.834C102.565 255.958 79.6876 263.457 67.8188 267.231Z" fill="#BC985E"/>
<path d="M140.961 240.541C115.709 251.428 78.484 263.922 68.585 267.198C68.0156 267.294 67.6673 267.311 67.7119 267.191C67.7209 267.167 67.8035 267.115 67.9206 267.051C77.2948 263.364 120.704 246.266 135.862 239.878C148.986 234.347 176.678 223.024 188.755 218.094C189.135 217.952 189.4 217.854 189.4 217.854C189.4 217.854 188.615 218.26 187.253 218.96C174.492 224.171 148.55 234.785 135.979 240.082C121.739 246.083 82.6439 261.506 70.0869 266.45C81.7223 262.581 116.766 250.721 140.826 240.348C149.817 236.47 170.634 226.852 183.554 220.852C181.843 221.725 179.828 222.749 177.613 223.868C164.956 229.727 148.651 237.225 140.961 240.541Z" fill="#BC985E"/>
<path d="M189.4 217.853L164.958 228.571C156.811 232.132 148.678 235.733 140.492 239.183C132.325 242.636 124.016 245.909 115.739 249.21L90.8608 259.071C99.1851 255.96 107.507 252.796 115.82 249.563C124.134 246.327 132.44 243.053 140.726 239.59C148.963 236.075 157.097 232.482 165.205 228.853C173.311 225.226 181.374 221.555 189.4 217.853Z" fill="#BC985E"/>
<path d="M70.6433 265.824C80.3504 261.944 90.0534 258.04 99.7468 254.108C109.435 250.175 119.139 246.23 128.795 242.258C138.43 238.247 148.113 234.31 157.795 230.393C162.635 228.432 167.483 226.486 172.336 224.571C177.187 222.648 182.048 220.733 186.922 218.967C177.176 222.364 167.404 226.213 157.688 230.049C147.964 233.903 138.273 237.847 128.592 241.837L99.5987 253.782C89.938 257.769 80.2891 261.784 70.6433 265.824Z" fill="#DCB88C"/>
<path d="M56.7051 178.318C56.7049 178.351 98.7942 183.316 117.56 189.091C138.869 195.648 164.956 208.87 178.294 218.864C178.576 219.075 173.67 213.48 162.427 206.146C145.825 195.316 126.43 186.999 106.183 182.275C90.4584 178.607 56.7051 178.318 56.7051 178.318Z" fill="#BC985E"/>
<path d="M131.54 191.053C148.869 197.668 164.708 207.364 178.274 218.764C178.297 218.241 173.112 213.117 162.426 206.145C145.824 195.315 126.43 186.999 106.183 182.275C90.4581 178.605 72.9906 177.525 56.7046 178.318C56.7046 178.318 57.079 178.34 57.6653 178.379C82.8759 178.468 108.496 182.26 131.54 191.053Z" fill="#BC985E"/>
<path d="M110.148 183.937C135.169 190.106 159.019 202.838 177.859 218.175C178.23 218.582 178.417 218.849 178.291 218.865C178.266 218.868 178.179 218.825 178.065 218.761C159.323 204.978 137.215 193.833 113.793 187.279C95.5943 182.187 76.5969 179.15 57.3954 178.364C56.9872 178.338 56.7028 178.32 56.7028 178.32C56.7028 178.32 57.5875 178.278 59.1213 178.231C77.6971 179.049 96.2823 182.015 113.827 187.077C136.549 193.631 157.975 204.054 176.449 217.322C157.879 202.495 134.679 190.137 110.14 184.148C94.9399 180.437 79.0832 178.472 63.2884 178.143C65.2169 178.122 67.489 178.125 69.9863 178.176C84.0303 178.881 101.991 181.925 110.148 183.937Z" fill="#BC985E"/>
<path d="M56.7023 178.318C67.4385 178.441 72.8117 178.812 83.4484 180.158C92.3047 181.288 101.105 182.891 109.714 185.122C118.31 187.342 126.748 190.256 134.933 193.614C144.757 197.664 149.537 199.979 158.709 205.162C151.186 200.729 143.301 196.775 135.123 193.347C126.944 189.92 118.487 186.996 109.768 184.714C101.058 182.495 92.2401 180.893 83.3665 179.833C74.4969 178.775 65.5808 178.275 56.7023 178.318Z" fill="#BC985E"/>
<path d="M175.624 217.157C167.31 211.292 158.501 206.063 149.307 201.506C140.116 196.951 130.533 193.041 120.707 189.848C110.871 186.691 100.789 184.127 90.543 182.235C85.4189 181.29 80.255 180.503 75.0658 179.862C69.8754 179.23 64.6474 178.761 59.4344 178.344C69.8091 179.283 80.2442 180.573 90.4581 182.537C100.689 184.492 110.757 187.05 120.59 190.242C132.368 194.066 138.121 196.383 149.156 201.787C158.351 206.286 167.204 211.409 175.624 217.157Z" fill="#DCB88C"/>
<path d="M359.019 222.002C359.019 222.002 330.076 207.939 295.694 189.527C261.312 171.115 225.735 153.138 225.546 152.516C225.356 151.893 233.454 155.128 247.883 161.587C262.313 168.047 294.108 183.63 310.837 192.932C327.566 202.233 359.019 222.002 359.019 222.002Z" fill="#BC985E"/>
<path d="M247.882 161.588C234.167 155.448 226.262 152.266 225.668 152.495C238.788 158.232 264.053 169.516 283.277 179.544C303.419 190.05 340.32 211.266 358.032 221.521C358.633 221.815 359.017 222.002 359.017 222.002C359.017 222.002 327.564 202.233 310.835 192.932C294.107 183.631 262.312 168.047 247.882 161.588Z" fill="#BC985E"/>
<path d="M306.185 191.289C278.552 176.221 237.468 157.568 226.539 152.655C225.901 152.465 225.507 152.39 225.546 152.518C225.554 152.543 225.644 152.609 225.769 152.692C236.062 157.931 283.723 182.215 300.327 191.114C314.701 198.819 345.064 214.726 358.309 221.657C358.728 221.861 359.019 222.004 359.019 222.004C359.019 222.004 358.165 221.467 356.685 220.543C342.692 213.219 314.248 198.31 300.478 190.93C284.881 182.571 241.96 160.676 228.171 153.653C241.016 159.448 279.681 177.105 306.012 191.464C315.851 196.83 338.569 209.897 352.665 218.038C350.806 216.882 348.615 215.524 346.207 214.038C332.397 206.077 314.6 195.878 306.185 191.289Z" fill="#BC985E"/>
<path d="M359.02 222.001L332.288 207.235C323.379 202.325 314.486 197.376 305.521 192.571C296.576 187.766 287.454 183.117 278.37 178.446L251.061 164.466C260.218 168.955 269.366 173.496 278.497 178.105C287.628 182.717 296.749 187.367 305.827 192.201C314.845 197.08 323.736 202.02 332.597 206.992C341.455 211.963 350.259 216.968 359.02 222.001Z" fill="#BC985E"/>
<path d="M228.742 154.369C239.395 159.856 250.041 165.366 260.671 170.904C271.298 176.44 281.942 181.992 292.526 187.563C303.085 193.168 313.704 198.708 324.324 204.228C329.634 206.99 334.952 209.739 340.281 212.457C345.605 215.183 350.942 217.903 356.309 220.476C345.566 215.466 334.836 210 324.17 204.556C313.496 199.091 302.868 193.543 292.256 187.95L260.472 171.204C249.884 165.619 239.31 160.006 228.742 154.369Z" fill="#DCB88C"/>
<path d="M272.666 218.398C272.666 218.398 244.86 206.221 211.823 190.292C178.786 174.363 144.604 158.803 144.42 158.268C144.236 157.733 152.013 160.539 165.874 166.136C179.735 171.732 210.281 185.225 226.357 193.27C242.434 201.314 272.666 218.398 272.666 218.398Z" fill="#BC985E"/>
<path d="M165.876 166.138C152.702 160.818 145.111 158.057 144.541 158.252C157.143 163.225 181.413 173.002 199.883 181.68C219.237 190.771 254.701 209.117 271.722 217.983C272.3 218.237 272.668 218.399 272.668 218.399C272.668 218.399 242.434 201.316 226.358 193.271C210.282 185.226 179.737 171.735 165.876 166.138Z" fill="#BC985E"/>
<path d="M221.89 191.845C195.336 178.809 155.871 162.649 145.373 158.392C144.761 158.227 144.383 158.161 144.421 158.271C144.428 158.293 144.515 158.35 144.635 158.422C154.524 162.956 200.317 183.973 216.272 191.672C230.085 198.338 259.259 212.103 271.985 218.1C272.387 218.277 272.666 218.4 272.666 218.4C272.666 218.4 271.846 217.936 270.423 217.136C256.977 210.799 229.648 197.898 216.416 191.513C201.43 184.281 160.189 165.332 146.942 159.253C159.281 164.273 196.422 179.571 221.724 191.991C231.178 196.633 253.012 207.932 266.559 214.97C264.772 213.971 262.667 212.798 260.352 211.513C247.08 204.633 229.977 195.813 221.89 191.845Z" fill="#BC985E"/>
<path d="M272.667 218.398L246.979 205.627C238.417 201.379 229.872 197.1 221.258 192.942C212.662 188.785 203.898 184.762 195.17 180.719L168.931 168.62C177.727 172.507 186.517 176.437 195.29 180.427C204.063 184.419 212.826 188.444 221.549 192.627C230.215 196.848 238.76 201.121 247.275 205.42C255.787 209.718 264.25 214.047 272.667 218.398Z" fill="#BC985E"/>
<path d="M147.492 159.871C157.727 164.62 167.956 169.388 178.171 174.18C188.381 178.971 198.607 183.775 208.778 188.596C218.924 193.446 229.127 198.239 239.331 203.017C244.433 205.408 249.542 207.786 254.663 210.138C259.778 212.498 264.906 214.852 270.063 217.08C259.742 212.741 249.433 208.009 239.185 203.297C228.929 198.568 218.717 193.767 208.52 188.928L177.981 174.44C167.806 169.604 157.646 164.747 147.492 159.871Z" fill="#DCB88C"/>
<path d="M307.259 219.594C307.259 219.594 277.267 207.534 241.556 191.582C205.845 175.63 168.945 160.148 168.723 159.563C168.501 158.978 176.86 161.685 191.785 167.171C206.711 172.657 239.666 186.034 257.058 194.122C274.45 202.211 307.259 219.594 307.259 219.594Z" fill="#BC985E"/>
<path d="M191.785 167.17C177.597 161.956 169.438 159.289 168.847 159.536C182.412 164.394 208.547 173.976 228.501 182.64C249.408 191.72 287.805 210.228 306.24 219.18C306.862 219.433 307.26 219.592 307.26 219.592C307.26 219.592 274.45 202.209 257.058 194.12C239.665 186.033 206.711 172.656 191.785 167.17Z" fill="#BC985E"/>
<path d="M252.264 192.771C223.55 179.691 181.038 163.821 169.732 159.646C169.076 159.495 168.674 159.442 168.719 159.562C168.729 159.586 168.822 159.645 168.954 159.719C179.631 164.234 229.076 185.166 246.322 192.877C261.252 199.553 292.773 213.306 306.521 219.297C306.954 219.472 307.256 219.594 307.256 219.594C307.256 219.594 306.366 219.122 304.822 218.309C290.296 211.978 260.767 199.088 246.466 192.695C230.266 185.451 185.736 166.576 171.432 160.524C184.723 165.449 224.735 180.484 252.097 192.947C262.32 197.604 285.96 209.005 300.63 216.109C298.692 215.093 296.407 213.9 293.897 212.595C279.525 205.649 261.009 196.754 252.264 192.771Z" fill="#BC985E"/>
<path d="M307.258 219.594L279.472 206.76C270.211 202.494 260.966 198.191 251.654 194.026C242.363 189.861 232.899 185.854 223.473 181.824L195.139 169.768C204.629 173.621 214.114 177.524 223.584 181.493C233.055 185.465 242.516 189.474 251.945 193.66C261.315 197.891 270.558 202.187 279.772 206.514C288.984 210.841 298.143 215.203 307.258 219.594Z" fill="#BC985E"/>
<path d="M172.049 161.181C183.103 165.916 194.151 170.674 205.186 175.458C216.215 180.242 227.263 185.039 238.252 189.857C249.216 194.71 260.239 199.497 271.261 204.266C276.772 206.653 282.291 209.026 287.82 211.368C293.344 213.719 298.881 216.064 304.441 218.268C293.319 213.991 282.187 209.279 271.121 204.586C260.046 199.874 249.014 195.078 237.997 190.24L204.998 175.756C194.004 170.922 183.024 166.062 172.049 161.181Z" fill="#DCB88C"/>
<path d="M265.907 219.371C265.907 219.371 238.538 210.227 205.864 197.92C173.191 185.612 139.484 173.788 139.255 173.279C139.026 172.769 146.618 174.735 160.212 178.826C173.805 182.917 203.884 193.077 219.814 199.355C235.743 205.633 265.907 219.371 265.907 219.371Z" fill="#BC985E"/>
<path d="M160.212 178.826C147.291 174.937 139.878 172.996 139.365 173.248C151.712 176.853 175.511 183.995 193.754 190.649C212.869 197.623 248.073 212.064 264.976 219.056C265.545 219.248 265.907 219.369 265.907 219.369C265.907 219.369 235.743 205.632 219.814 199.353C203.884 193.077 173.804 182.917 160.212 178.826Z" fill="#BC985E"/>
<path d="M215.469 198.407C189.183 188.285 150.456 176.415 140.158 173.298C139.565 173.198 139.204 173.173 139.251 173.277C139.26 173.297 139.347 173.345 139.469 173.404C149.224 176.857 194.4 192.868 210.179 198.817C223.841 203.969 252.661 214.54 265.232 219.144C265.628 219.277 265.903 219.369 265.903 219.369C265.903 219.369 265.084 218.996 263.666 218.354C250.384 213.489 223.384 203.58 210.299 198.646C195.477 193.057 154.789 178.616 141.72 173.986C153.826 177.665 190.282 188.924 215.329 198.569C224.688 202.173 246.361 211.069 259.813 216.616C258.031 215.815 255.933 214.873 253.625 213.845C240.449 208.427 223.474 201.489 215.469 198.407Z" fill="#BC985E"/>
<path d="M265.903 219.37L240.457 209.418C231.977 206.111 223.509 202.771 214.99 199.557C206.489 196.342 197.842 193.278 189.227 190.189L163.336 180.96C171.998 183.886 180.659 186.858 189.309 189.889C197.96 192.922 206.605 195.988 215.23 199.215C223.805 202.485 232.271 205.819 240.712 209.184C249.152 212.547 257.546 215.944 265.903 219.37Z" fill="#BC985E"/>
<path d="M142.304 174.542C152.406 178.171 162.505 181.82 172.594 185.494C182.678 189.167 192.778 192.852 202.828 196.558C212.857 200.297 222.935 203.974 233.011 207.634C238.05 209.467 243.094 211.286 248.145 213.078C253.194 214.878 258.253 216.672 263.325 218.338C253.186 215.122 243.015 211.517 232.904 207.926C222.784 204.318 212.698 200.634 202.622 196.913L172.444 185.768C162.388 182.049 152.345 178.306 142.304 174.542Z" fill="#DCB88C"/>
<path d="M142.923 172.924C142.923 172.962 191.123 178.647 212.613 185.26C237.017 192.77 266.891 207.911 282.166 219.357C282.489 219.598 276.871 213.192 263.994 204.792C244.983 192.389 222.771 182.865 199.585 177.455C181.578 173.254 142.923 172.924 142.923 172.924Z" fill="#BC985E"/>
<path d="M228.623 187.508C248.469 195.083 266.607 206.187 282.144 219.242C282.17 218.642 276.233 212.776 263.994 204.792C244.983 192.389 222.771 182.865 199.585 177.455C181.577 173.253 161.573 172.017 142.923 172.924C142.923 172.924 143.352 172.95 144.023 172.994C172.893 173.095 202.234 177.436 228.623 187.508Z" fill="#BC985E"/>
<path d="M204.132 179.358C232.786 186.423 260.098 201.003 281.674 218.567C282.099 219.033 282.315 219.339 282.169 219.357C282.14 219.36 282.04 219.31 281.91 219.237C260.448 203.453 235.128 190.689 208.306 183.184C187.465 177.352 165.709 173.875 143.719 172.974C143.252 172.944 142.926 172.923 142.926 172.923C142.926 172.923 143.939 172.875 145.697 172.821C166.97 173.757 188.253 177.154 208.346 182.951C234.366 190.458 258.903 202.394 280.061 217.588C258.794 200.607 232.225 186.456 204.125 179.596C186.718 175.347 168.558 173.098 150.471 172.721C152.678 172.697 155.28 172.699 158.14 172.758C174.222 173.569 194.79 177.054 204.132 179.358Z" fill="#BC985E"/>
<path d="M142.923 172.923C155.217 173.065 161.372 173.489 173.552 175.031C183.695 176.325 193.773 178.16 203.631 180.715C213.476 183.257 223.139 186.595 232.513 190.439C243.763 195.077 249.237 197.729 259.741 203.664C251.125 198.587 242.095 194.06 232.73 190.133C223.363 186.21 213.678 182.861 203.694 180.248C193.719 177.706 183.62 175.871 173.458 174.658C163.301 173.447 153.091 172.873 142.923 172.923Z" fill="#BC985E"/>
<path d="M279.112 217.402C269.591 210.685 259.502 204.697 248.973 199.478C238.448 194.262 227.474 189.784 216.221 186.128C204.956 182.513 193.41 179.577 181.677 177.409C175.809 176.328 169.895 175.425 163.952 174.691C158.007 173.966 152.022 173.43 146.05 172.953C157.932 174.027 169.882 175.505 181.579 177.755C193.296 179.994 204.825 182.923 216.086 186.578C229.575 190.958 236.163 193.611 248.799 199.801C259.331 204.953 269.47 210.82 279.112 217.402Z" fill="#DCB88C"/>
<path d="M397.163 221.78C397.163 221.78 368.221 207.717 333.838 189.305C299.456 170.895 263.88 152.917 263.69 152.295C263.5 151.672 271.598 154.907 286.027 161.366C300.456 167.825 332.252 183.409 348.98 192.711C365.711 202.012 397.163 221.78 397.163 221.78Z" fill="#BC985E"/>
<path d="M286.026 161.366C272.312 155.227 264.408 152.043 263.812 152.274C276.932 158.01 302.198 169.294 321.422 179.322C341.563 189.828 378.464 211.044 396.177 221.299C396.777 221.594 397.161 221.78 397.161 221.78C397.161 221.78 365.709 202.011 348.979 192.71C332.25 183.408 300.456 167.826 286.026 161.366Z" fill="#BC985E"/>
<path d="M344.33 191.068C316.697 175.999 275.612 157.346 264.683 152.433C264.045 152.243 263.651 152.169 263.691 152.296C263.699 152.321 263.788 152.388 263.914 152.472C274.206 157.711 321.868 181.994 338.472 190.893C352.847 198.597 383.21 214.505 396.454 221.436C396.873 221.64 397.164 221.783 397.164 221.783C397.164 221.783 396.311 221.246 394.83 220.322C380.837 212.998 352.393 198.089 338.623 190.709C323.027 182.35 280.105 160.455 266.316 153.432C279.162 159.226 317.826 176.884 344.157 191.243C353.996 196.609 376.714 209.676 390.81 217.817C388.951 216.661 386.76 215.303 384.352 213.817C370.542 205.856 352.745 195.657 344.33 191.068Z" fill="#BC985E"/>
<path d="M266.886 154.147C277.539 159.634 288.185 165.144 298.816 170.682C309.442 176.218 320.086 181.77 330.67 187.341C341.229 192.946 351.849 198.486 362.468 204.006C367.778 206.769 373.096 209.517 378.425 212.235C383.749 214.962 389.087 217.682 394.454 220.255C383.71 215.244 372.981 209.778 362.314 204.334C351.64 198.869 341.013 193.321 330.4 187.728L298.616 170.983C288.028 165.397 277.454 159.783 266.886 154.147Z" fill="#DCB88C"/>
<path d="M328.651 219.587C328.651 219.587 300.845 207.41 267.807 191.482C234.77 175.553 200.588 159.993 200.404 159.458C200.22 158.923 207.998 161.728 221.858 167.325C235.719 172.922 266.265 186.415 282.341 194.459C298.418 202.504 328.651 219.587 328.651 219.587Z" fill="#BC985E"/>
<path d="M221.86 167.325C208.686 162.006 201.095 159.244 200.526 159.44C213.128 164.412 237.397 174.189 255.868 182.867C275.221 191.959 310.685 210.304 327.707 219.171C328.284 219.424 328.652 219.587 328.652 219.587C328.652 219.587 298.42 202.504 282.343 194.459C266.267 186.415 235.721 172.922 221.86 167.325Z" fill="#BC985E"/>
<path d="M277.874 193.032C251.32 179.997 211.855 163.836 201.358 159.579C200.745 159.414 200.368 159.349 200.405 159.458C200.413 159.48 200.499 159.537 200.619 159.609C210.508 164.143 256.302 185.161 272.256 192.859C286.069 199.525 315.244 213.291 327.969 219.287C328.37 219.464 328.651 219.587 328.651 219.587C328.651 219.587 327.83 219.124 326.408 218.324C312.962 211.986 285.631 199.084 272.4 192.7C257.414 185.468 216.174 166.519 202.926 160.44C215.265 165.46 252.407 180.758 277.708 193.179C287.163 197.821 308.996 209.119 322.543 216.158C320.756 215.159 318.65 213.986 316.336 212.701C303.064 205.822 285.961 197.002 277.874 193.032Z" fill="#BC985E"/>
<path d="M328.651 219.587L302.964 206.814C294.402 202.567 285.857 198.287 277.242 194.129C268.647 189.972 259.882 185.949 251.154 181.906L224.916 169.807C233.712 173.694 242.502 177.625 251.275 181.615C260.048 185.607 268.811 189.632 277.534 193.815C286.2 198.035 294.745 202.309 303.26 206.608C311.771 210.906 320.233 215.235 328.651 219.587Z" fill="#BC985E"/>
<path d="M203.475 161.059C213.711 165.808 223.939 170.576 234.155 175.368C244.364 180.159 254.591 184.963 264.762 189.784C274.907 194.634 285.111 199.427 295.315 204.205C300.417 206.595 305.527 208.974 310.647 211.326C315.763 213.686 320.891 216.04 326.047 218.268C315.727 213.928 305.417 209.196 295.169 204.485C284.913 199.755 274.702 194.954 264.504 190.116L233.966 175.626C223.79 170.792 213.629 165.935 203.475 161.059Z" fill="#DCB88C"/>
<path d="M375.229 220.69C375.229 220.69 346.285 207.859 311.828 190.871C277.372 173.883 241.764 157.403 241.551 156.777C241.339 156.15 249.408 159.023 263.814 164.855C278.22 170.687 310.023 184.92 326.803 193.537C343.583 202.155 375.229 220.69 375.229 220.69Z" fill="#BC985E"/>
<path d="M263.812 164.853C250.118 159.31 242.242 156.479 241.669 156.747C254.763 161.91 279.987 172.096 299.241 181.322C319.415 190.988 356.459 210.711 374.243 220.251C374.844 220.519 375.227 220.69 375.227 220.69C375.227 220.69 343.581 202.154 326.801 193.537C310.021 184.92 278.219 170.686 263.812 164.853Z" fill="#BC985E"/>
<path d="M322.178 192.108C294.473 178.176 253.442 161.302 242.53 156.864C241.897 156.704 241.508 156.649 241.552 156.778C241.561 156.804 241.651 156.867 241.778 156.945C252.081 161.752 299.793 184.034 316.433 192.244C330.84 199.354 361.254 213.997 374.52 220.375C374.938 220.562 375.229 220.692 375.229 220.692C375.229 220.692 374.37 220.189 372.881 219.322C358.865 212.582 330.372 198.857 316.572 192.048C300.942 184.333 257.973 164.241 244.17 157.798C256.996 163.034 295.615 179.02 322.014 192.296C331.879 197.256 354.685 209.405 368.837 216.975C366.967 215.892 364.765 214.621 362.343 213.23C348.479 205.829 330.614 196.35 322.178 192.108Z" fill="#BC985E"/>
<path d="M375.229 220.69L348.42 207.019C339.485 202.474 330.565 197.89 321.581 193.455C312.616 189.019 303.483 184.755 294.388 180.464L267.046 167.63C276.204 171.73 285.358 175.884 294.497 180.109C303.636 184.336 312.765 188.603 321.863 193.062C330.904 197.569 339.822 202.144 348.712 206.755C357.599 211.364 366.435 216.012 375.229 220.69Z" fill="#BC985E"/>
<path d="M244.762 158.501C255.428 163.541 266.089 168.607 276.737 173.701C287.38 178.795 298.041 183.901 308.644 189.032C319.224 194.2 329.86 199.298 340.496 204.374C345.814 206.915 351.139 209.441 356.473 211.934C361.804 214.437 367.147 216.933 372.512 219.277C361.777 214.729 351.036 209.713 340.358 204.716C329.671 199.7 319.027 194.595 308.395 189.443L276.554 174.02C265.945 168.874 255.351 163.699 244.762 158.501Z" fill="#DCB88C"/>
<path d="M198.903 174.122C198.903 174.16 247.104 179.845 268.594 186.458C292.998 193.968 322.872 209.109 338.147 220.555C338.47 220.797 332.851 214.39 319.975 205.99C300.963 193.587 278.752 184.063 255.565 178.653C237.558 174.451 198.903 174.122 198.903 174.122Z" fill="#BC985E"/>
<path d="M284.604 188.707C304.45 196.281 322.588 207.386 338.124 220.441C338.15 219.842 332.214 213.975 319.975 205.991C300.963 193.589 278.752 184.064 255.565 178.654C237.558 174.453 217.553 173.216 198.903 174.123C198.903 174.123 199.332 174.15 200.003 174.193C228.875 174.294 258.215 178.635 284.604 188.707Z" fill="#BC985E"/>
<path d="M260.112 180.557C288.767 187.622 316.079 202.202 337.655 219.766C338.079 220.232 338.295 220.538 338.15 220.555C338.12 220.559 338.021 220.509 337.891 220.436C316.428 204.653 291.108 191.888 264.286 184.383C243.445 178.551 221.69 175.074 199.7 174.173C199.232 174.143 198.907 174.123 198.907 174.123C198.907 174.123 199.919 174.075 201.677 174.02C222.95 174.957 244.233 178.354 264.327 184.151C290.347 191.657 314.884 203.594 336.041 218.787C314.775 201.807 288.206 187.655 260.106 180.796C242.698 176.546 224.539 174.297 206.451 173.92C208.659 173.896 211.261 173.898 214.121 173.957C230.203 174.768 250.77 178.253 260.112 180.557Z" fill="#BC985E"/>
<path d="M198.904 174.122C211.199 174.264 217.353 174.687 229.533 176.23C239.676 177.524 249.754 179.359 259.612 181.914C269.456 184.457 279.12 187.795 288.493 191.638C299.744 196.277 305.218 198.928 315.722 204.864C307.106 199.787 298.076 195.26 288.711 191.333C279.345 187.41 269.659 184.061 259.675 181.448C249.699 178.907 239.601 177.071 229.439 175.858C219.281 174.646 209.071 174.072 198.904 174.122Z" fill="#BC985E"/>
<path d="M335.093 218.6C325.572 211.883 315.483 205.896 304.954 200.676C294.428 195.461 283.455 190.983 272.201 187.326C260.937 183.711 249.392 180.775 237.658 178.607C231.79 177.525 225.876 176.624 219.932 175.889C213.987 175.165 208.002 174.628 202.031 174.151C213.913 175.225 225.862 176.703 237.56 178.953C249.276 181.192 260.806 184.121 272.067 187.776C285.555 192.156 292.143 194.809 304.78 200.999C315.311 206.15 325.45 212.018 335.093 218.6Z" fill="#DCB88C"/>
<path d="M229.783 219.509C229.783 219.509 202.694 229.638 170.406 243.122C138.117 256.607 104.776 269.644 104.564 270.162C104.353 270.68 111.887 268.443 125.358 263.864C138.827 259.284 168.594 248.043 184.326 241.19C200.059 234.336 229.783 219.509 229.783 219.509Z" fill="#BC985E"/>
<path d="M125.355 263.863C112.553 268.216 105.197 270.422 104.673 270.187C116.912 266.139 140.496 258.143 158.532 250.831C177.43 243.169 212.177 227.457 228.86 219.855C229.423 219.643 229.781 219.509 229.781 219.509C229.781 219.509 200.056 234.336 184.324 241.19C168.592 248.042 138.826 259.284 125.355 263.863Z" fill="#BC985E"/>
<path d="M180.013 242.291C154.044 253.36 115.676 266.622 105.472 270.107C104.883 270.229 104.521 270.267 104.564 270.161C104.573 270.139 104.658 270.089 104.777 270.026C114.426 266.222 159.106 248.584 174.7 242.067C188.2 236.424 216.691 224.814 229.119 219.758C229.51 219.61 229.782 219.508 229.782 219.508C229.782 219.508 228.976 219.911 227.578 220.604C214.448 225.947 187.756 236.828 174.825 242.234C160.178 248.357 119.938 264.263 107.013 269.362C119.006 265.248 155.122 252.68 179.866 242.132C189.113 238.191 210.505 228.513 223.781 222.481C222.025 223.346 219.956 224.363 217.682 225.475C204.676 231.371 187.92 238.921 180.013 242.291Z" fill="#BC985E"/>
<path d="M229.783 219.508L204.65 230.377C196.274 233.991 187.911 237.636 179.492 241.157C171.091 244.678 162.538 248.053 154.02 251.452L128.415 261.614C136.987 258.375 145.555 255.092 154.113 251.75C162.669 248.405 171.219 245.028 179.744 241.49C188.216 237.91 196.578 234.272 204.913 230.603C213.247 226.935 221.534 223.234 229.783 219.508Z" fill="#BC985E"/>
<path d="M107.578 268.787C117.567 264.794 127.553 260.782 137.528 256.744C147.497 252.707 157.483 248.659 167.417 244.591C177.33 240.491 187.293 236.45 197.255 232.428C202.236 230.414 207.224 228.413 212.22 226.44C217.212 224.458 222.216 222.483 227.236 220.634C217.195 224.214 207.135 228.185 197.136 232.14C187.128 236.112 177.157 240.159 167.196 244.245L137.366 256.476C127.427 260.556 117.501 264.661 107.578 268.787Z" fill="#DCB88C"/>
<path d="M214.017 218.442C214.017 218.442 187.132 227.044 155.02 238.674C122.908 250.303 89.7901 261.448 89.5594 261.944C89.3286 262.439 96.7798 260.611 110.127 256.78C123.474 252.948 153.022 243.387 168.682 237.444C184.342 231.503 214.017 218.442 214.017 218.442Z" fill="#BC985E"/>
<path d="M110.124 256.78C97.4385 260.422 90.163 262.227 89.6639 261.975C101.785 258.603 125.153 251.915 143.081 245.633C161.864 239.051 196.478 225.366 213.1 218.737C213.658 218.556 214.014 218.442 214.014 218.442C214.014 218.442 184.339 231.502 168.679 237.443C153.019 243.386 123.472 252.948 110.124 256.78Z" fill="#BC985E"/>
<path d="M164.424 238.315C138.587 247.887 100.557 259.014 90.4459 261.934C89.8659 262.024 89.5114 262.044 89.5586 261.943C89.5684 261.923 89.6537 261.878 89.7726 261.821C99.3579 258.565 143.746 243.469 159.254 237.847C172.68 232.98 201.002 222.999 213.356 218.653C213.745 218.527 214.016 218.44 214.016 218.44C214.016 218.44 213.21 218.794 211.815 219.405C198.763 223.998 172.229 233.353 159.368 238.015C144.801 243.296 104.823 256.913 91.9824 261.278C103.869 257.831 139.669 247.273 164.288 238.153C173.487 234.745 194.799 226.314 208.024 221.057C206.272 221.818 204.207 222.712 201.938 223.689C188.982 228.828 172.291 235.401 164.424 238.315Z" fill="#BC985E"/>
<path d="M214.017 218.443L189.005 227.858C180.669 230.987 172.344 234.148 163.971 237.185C155.615 240.223 147.118 243.113 138.655 246.026L113.214 254.73C121.724 251.976 130.231 249.177 138.731 246.321C147.231 243.462 155.725 240.57 164.202 237.522C172.63 234.43 180.953 231.275 189.251 228.09C197.547 224.908 205.8 221.689 214.017 218.443Z" fill="#BC985E"/>
<path d="M92.5599 260.746C102.487 257.323 112.41 253.88 122.324 250.413C132.233 246.946 142.16 243.468 152.035 239.968C161.891 236.437 171.795 232.966 181.696 229.512C186.646 227.783 191.603 226.066 196.566 224.376C201.526 222.679 206.497 220.987 211.479 219.421C201.522 222.441 191.529 225.838 181.594 229.225C171.649 232.627 161.739 236.104 151.835 239.62L122.178 250.143C112.297 253.654 102.427 257.19 92.5599 260.746Z" fill="#DCB88C"/>
<path d="M149.842 220.006C149.842 220.006 125.426 226.236 96.1918 234.883C66.9573 243.531 36.8514 251.693 36.6197 252.121C36.3872 252.55 43.1251 251.32 55.2229 248.619C67.3207 245.917 94.1604 238.975 108.432 234.517C122.703 230.058 149.842 220.006 149.842 220.006Z" fill="#BC985E"/>
<path d="M55.2203 248.619C43.7212 251.187 37.1424 252.407 36.7111 252.155C47.6923 249.798 68.8725 245.086 85.1815 240.446C102.27 235.584 133.845 225.238 149.01 220.219C149.517 220.089 149.841 220.006 149.841 220.006C149.841 220.006 122.701 230.058 108.43 234.516C94.1577 238.976 67.3181 245.917 55.2203 248.619Z" fill="#BC985E"/>
<path d="M104.591 235.067C81.0574 242.215 46.5766 250.1 37.4103 252.161C36.8885 252.211 36.5718 252.21 36.6193 252.122C36.6287 252.105 36.7071 252.069 36.8163 252.026C45.5316 249.637 85.8902 238.556 100.009 234.373C112.234 230.753 138.004 223.373 149.243 220.16C149.596 220.069 149.842 220.007 149.842 220.007C149.842 220.007 149.105 220.279 147.829 220.749C135.953 224.144 111.811 231.063 100.102 234.531C86.8387 238.458 50.489 248.457 38.8146 251.661C49.5903 249.224 82.0546 241.729 104.478 234.916C112.858 232.371 132.297 225.996 144.364 222.018C142.761 222.603 140.874 223.289 138.8 224.038C126.981 227.924 111.757 232.89 104.591 235.067Z" fill="#BC985E"/>
<path d="M149.841 220.006L127.05 227.06C119.456 229.403 111.869 231.776 104.245 234.034C96.6375 236.295 88.9121 238.417 81.2145 240.56L58.0803 246.958C65.8093 244.958 73.54 242.919 81.2671 240.827C88.9937 238.733 96.7163 236.611 104.432 234.347C112.107 232.042 119.692 229.675 127.257 227.28C134.821 224.887 142.347 222.459 149.841 220.006Z" fill="#BC985E"/>
<path d="M39.3559 251.213C48.3849 248.693 57.4113 246.155 66.43 243.595C75.4445 241.034 84.4748 238.467 93.4614 235.875C102.433 233.255 111.443 230.69 120.45 228.141C124.954 226.865 129.463 225.6 133.976 224.359C138.486 223.112 143.005 221.87 147.528 220.74C138.493 222.899 129.407 225.393 120.374 227.88C111.331 230.38 102.314 232.949 93.3028 235.553L66.3144 243.346C57.3229 245.948 48.3385 248.572 39.3559 251.213Z" fill="#DCB88C"/>
<path d="M362.592 220.695C362.592 220.695 332.705 232.621 297.078 248.488C261.45 264.356 224.663 279.703 224.428 280.31C224.193 280.917 232.506 278.28 247.365 272.885C262.226 267.49 295.067 254.255 312.428 246.192C329.788 238.128 362.592 220.695 362.592 220.695Z" fill="#BC985E"/>
<path d="M247.364 272.883C233.239 278.01 225.125 280.612 224.549 280.339C238.05 275.57 264.068 266.149 283.969 257.543C304.82 248.525 343.164 230.043 361.574 221.101C362.195 220.851 362.59 220.693 362.59 220.693C362.59 220.693 329.786 238.127 312.425 246.189C295.066 254.252 262.224 267.487 247.364 272.883Z" fill="#BC985E"/>
<path d="M307.668 247.492C279.014 260.516 236.684 276.138 225.428 280.245C224.777 280.388 224.379 280.433 224.427 280.31C224.437 280.285 224.531 280.225 224.662 280.152C235.308 275.674 284.607 254.913 301.812 247.243C316.708 240.603 348.146 226.94 361.858 220.989C362.291 220.815 362.591 220.695 362.591 220.695C362.591 220.695 361.701 221.168 360.158 221.983C345.67 228.272 316.219 241.078 301.95 247.439C285.788 254.644 241.39 273.366 227.128 279.369C240.36 274.522 280.205 259.717 307.508 247.306C317.71 242.669 341.318 231.285 355.967 224.189C354.029 225.207 351.746 226.402 349.236 227.71C334.884 234.645 316.394 243.526 307.668 247.492Z" fill="#BC985E"/>
<path d="M362.589 220.694L334.856 233.481C325.613 237.732 316.386 242.022 307.095 246.164C297.825 250.307 288.389 254.281 278.991 258.281L250.739 270.241C260.197 266.429 269.651 262.564 279.093 258.629C288.534 254.693 297.968 250.717 307.373 246.553C316.722 242.342 325.949 238.06 335.146 233.744C344.343 229.431 353.487 225.077 362.589 220.694Z" fill="#BC985E"/>
<path d="M227.754 278.694C238.777 273.995 249.795 269.272 260.8 264.52C271.8 259.769 282.818 255.005 293.779 250.216C304.717 245.392 315.71 240.636 326.703 235.902C332.198 233.531 337.702 231.177 343.214 228.853C348.723 226.521 354.243 224.194 359.782 222.018C348.704 226.236 337.606 230.909 326.572 235.565C315.53 240.24 304.528 245.002 293.536 249.811L260.621 264.205C249.656 269.008 238.703 273.84 227.754 278.694Z" fill="#DCB88C"/>
<path d="M276.212 218.017C276.212 218.017 247.597 228.144 213.49 241.633C179.384 255.123 144.163 268.161 143.941 268.68C143.718 269.201 151.679 266.966 165.909 262.39C180.139 257.814 211.584 246.574 228.201 239.717C244.82 232.861 276.212 218.017 276.212 218.017Z" fill="#BC985E"/>
<path d="M165.908 262.39C152.382 266.739 144.611 268.943 144.057 268.706C156.987 264.662 181.901 256.671 200.954 249.357C220.917 241.694 257.617 225.972 275.239 218.363C275.833 218.151 276.212 218.016 276.212 218.016C276.212 218.016 244.819 232.861 228.202 239.717C211.582 246.574 180.138 257.814 165.908 262.39Z" fill="#BC985E"/>
<path d="M223.642 240.816C196.212 251.89 155.679 265.144 144.899 268.627C144.276 268.748 143.895 268.786 143.94 268.68C143.949 268.658 144.039 268.608 144.165 268.544C154.357 264.739 201.555 247.101 218.027 240.581C232.287 234.935 262.383 223.323 275.51 218.266C275.924 218.119 276.212 218.017 276.212 218.017C276.212 218.017 275.36 218.42 273.882 219.113C260.012 224.458 231.818 235.342 218.158 240.75C202.686 246.875 160.179 262.782 146.526 267.883C159.197 263.771 197.351 251.21 223.487 240.658C233.253 236.715 255.849 227.03 269.872 220.993C268.017 221.86 265.833 222.877 263.431 223.991C249.694 229.889 231.995 237.443 223.642 240.816Z" fill="#BC985E"/>
<path d="M276.212 218.017L249.665 228.892C240.817 232.506 231.984 236.154 223.09 239.676C214.216 243.198 205.182 246.574 196.184 249.974L169.136 260.136C178.192 256.898 187.243 253.616 196.283 250.273C205.322 246.929 214.353 243.55 223.357 240.011C232.307 236.431 241.139 232.789 249.944 229.119C258.746 225.45 267.5 221.746 276.212 218.017Z" fill="#BC985E"/>
<path d="M147.122 267.305C157.674 263.312 168.223 259.298 178.758 255.26C189.289 251.223 199.837 247.174 210.331 243.104C220.801 239.003 231.326 234.962 241.85 230.938C247.111 228.924 252.38 226.923 257.657 224.948C262.931 222.966 268.216 220.991 273.52 219.143C262.912 222.722 252.286 226.693 241.724 230.648C231.152 234.621 220.619 238.668 210.097 242.755L178.587 254.99C168.089 259.072 157.602 263.178 147.122 267.305Z" fill="#DCB88C"/>
<path d="M310.792 219.333C310.792 219.333 280.002 229.185 243.229 242.503C206.454 255.822 168.527 268.584 168.263 269.151C168 269.719 176.532 267.626 191.817 263.238C207.102 258.849 240.94 247.9 258.874 241.095C276.808 234.289 310.792 219.333 310.792 219.333Z" fill="#BC985E"/>
<path d="M191.815 263.236C177.286 267.407 168.955 269.474 168.383 269.184C182.266 265.324 209.026 257.664 229.556 250.47C251.067 242.933 290.707 227.259 309.742 219.669C310.381 219.463 310.789 219.331 310.789 219.331C310.789 219.331 276.806 234.288 258.872 241.093C240.939 247.898 207.101 258.847 191.815 263.236Z" fill="#BC985E"/>
<path d="M253.997 242.092C224.409 253.054 180.858 265.797 169.278 269.14C168.613 269.243 168.208 269.267 168.262 269.15C168.273 269.127 168.371 269.075 168.507 269.011C179.484 265.283 230.317 247.994 248.077 241.556C263.453 235.981 295.888 224.552 310.036 219.575C310.481 219.432 310.791 219.332 310.791 219.332C310.791 219.332 309.869 219.738 308.271 220.437C293.323 225.696 262.938 236.409 248.208 241.749C231.526 247.798 185.744 263.391 171.038 268.39C184.651 264.443 225.649 252.352 253.842 241.907C264.377 238.004 288.782 228.35 303.929 222.328C301.922 223.2 299.557 224.224 296.959 225.342C282.121 231.226 263.007 238.754 253.997 242.092Z" fill="#BC985E"/>
<path d="M310.791 219.333L282.146 230.115C272.6 233.699 263.067 237.319 253.478 240.797C243.908 244.276 234.179 247.585 224.485 250.921L195.352 260.889C205.097 257.735 214.84 254.53 224.573 251.259C234.307 247.985 244.035 244.674 253.742 241.182C263.394 237.642 272.925 234.028 282.429 230.381C291.93 226.736 301.382 223.05 310.791 219.333Z" fill="#BC985E"/>
<path d="M171.7 267.779C183.068 263.859 194.433 259.915 205.786 255.944C217.133 251.974 228.501 247.991 239.81 243.983C251.098 239.939 262.439 235.964 273.779 232.008C279.449 230.028 285.125 228.062 290.809 226.126C296.489 224.183 302.182 222.246 307.887 220.451C296.483 223.909 285.039 227.801 273.662 231.679C262.274 235.575 250.924 239.558 239.583 243.583L205.62 255.634C194.305 259.657 183.001 263.706 171.7 267.779Z" fill="#DCB88C"/>
<path d="M258.464 218.642C258.464 218.642 231.976 230.092 200.475 245.146C168.973 260.201 136.399 274.862 136.214 275.39C136.029 275.917 143.426 273.31 156.62 268.072C169.814 262.834 198.915 250.141 214.25 242.525C229.585 234.908 258.464 218.642 258.464 218.642Z" fill="#BC985E"/>
<path d="M156.619 268.07C144.078 273.048 136.858 275.616 136.325 275.408C148.319 270.762 171.42 261.613 189.029 253.423C207.477 244.842 241.318 227.445 257.563 219.033C258.113 218.794 258.463 218.642 258.463 218.642C258.463 218.642 229.584 234.907 214.249 242.523C198.914 250.14 169.813 262.833 156.619 268.07Z" fill="#BC985E"/>
<path d="M210.006 243.837C184.682 256.168 147.109 271.304 137.116 275.289C136.535 275.439 136.177 275.495 136.214 275.388C136.221 275.366 136.304 275.311 136.42 275.243C145.845 270.968 189.487 251.156 204.7 243.88C217.871 237.58 245.683 224.585 257.815 218.924C258.198 218.758 258.464 218.642 258.464 218.642C258.464 218.642 257.681 219.084 256.321 219.845C243.504 225.827 217.45 238.007 204.833 244.042C190.543 250.876 151.24 268.742 138.613 274.472C150.36 269.771 185.721 255.438 209.852 243.689C218.869 239.298 239.703 228.584 252.631 221.907C250.924 222.858 248.914 223.974 246.703 225.196C234.038 231.72 217.718 240.083 210.006 243.837Z" fill="#BC985E"/>
<path d="M258.465 218.643L233.964 230.732C225.797 234.753 217.646 238.804 209.432 242.734C201.236 246.664 192.883 250.455 184.564 254.269L159.557 265.678C167.937 262.021 176.311 258.321 184.672 254.562C193.032 250.801 201.383 247.007 209.701 243.055C217.965 239.064 226.116 235.018 234.238 230.945C242.359 226.872 250.433 222.769 258.465 218.643Z" fill="#BC985E"/>
<path d="M139.147 273.869C148.903 269.389 158.654 264.891 168.391 260.368C178.124 255.846 187.872 251.312 197.568 246.76C207.242 242.178 216.969 237.653 226.695 233.146C231.558 230.889 236.428 228.645 241.308 226.428C246.184 224.204 251.071 221.984 255.982 219.891C246.154 223.962 236.329 228.422 226.562 232.864C216.787 237.323 207.053 241.855 197.331 246.425L168.216 260.107C158.516 264.673 148.829 269.261 139.147 273.869Z" fill="#DCB88C"/>
<path d="M400.623 223.685C400.623 223.685 370.736 235.61 335.109 251.479C299.482 267.347 262.694 282.693 262.46 283.301C262.225 283.908 270.537 281.27 285.397 275.875C300.257 270.48 333.098 257.245 350.459 249.182C367.819 241.119 400.623 223.685 400.623 223.685Z" fill="#BC985E"/>
<path d="M285.395 275.873C271.271 281 263.157 283.602 262.58 283.329C276.081 278.559 302.099 269.139 322 260.533C342.852 251.516 381.195 233.034 399.605 224.091C400.226 223.841 400.621 223.683 400.621 223.683C400.621 223.683 367.817 241.117 350.456 249.18C333.097 257.243 300.256 270.478 285.395 275.873Z" fill="#BC985E"/>
<path d="M345.7 250.481C317.045 263.505 274.715 279.128 263.459 283.234C262.808 283.377 262.41 283.423 262.458 283.299C262.468 283.274 262.562 283.215 262.694 283.141C273.339 278.663 322.638 257.902 339.843 250.232C354.74 243.592 386.176 229.929 399.89 223.978C400.322 223.804 400.623 223.684 400.623 223.684C400.623 223.684 399.733 224.157 398.189 224.972C383.701 231.261 354.25 244.068 339.981 250.428C323.819 257.633 279.421 276.355 265.159 282.358C278.392 277.512 318.236 262.706 345.539 250.296C355.741 245.658 379.349 234.274 393.998 227.178C392.06 228.197 389.777 229.391 387.268 230.7C372.915 237.634 354.426 246.516 345.7 250.481Z" fill="#BC985E"/>
<path d="M265.785 281.684C276.808 276.985 287.825 272.262 298.831 267.51C309.831 262.76 320.85 257.996 331.811 253.207C342.748 248.383 353.742 243.627 364.734 238.892C370.229 236.522 375.733 234.167 381.245 231.843C386.753 229.51 392.274 227.185 397.814 225.009C386.735 229.226 375.636 233.9 364.604 238.555C353.561 243.23 342.559 247.993 331.568 252.8L298.654 267.195C287.687 271.998 276.734 276.83 265.785 281.684Z" fill="#DCB88C"/>
<path d="M332.134 220.893C332.134 220.893 303.518 231.02 269.412 244.509C235.306 257.999 200.085 271.037 199.863 271.556C199.64 272.076 207.601 269.842 221.831 265.266C236.061 260.69 267.506 249.45 284.123 242.593C300.74 235.737 332.134 220.893 332.134 220.893Z" fill="#BC985E"/>
<path d="M221.829 265.266C208.303 269.616 200.532 271.819 199.979 271.582C212.908 267.538 237.823 259.547 256.876 252.233C276.838 244.57 313.54 228.847 331.16 221.239C331.755 221.027 332.134 220.892 332.134 220.892C332.134 220.892 300.74 235.737 284.123 242.593C267.504 249.45 236.06 260.69 221.829 265.266Z" fill="#BC985E"/>
<path d="M279.564 243.692C252.134 254.766 211.601 268.02 200.821 271.503C200.198 271.624 199.816 271.662 199.862 271.556C199.871 271.534 199.962 271.483 200.087 271.42C210.279 267.615 257.477 249.977 273.949 243.457C288.209 237.811 318.305 226.199 331.432 221.142C331.846 220.995 332.134 220.893 332.134 220.893C332.134 220.893 331.281 221.295 329.804 221.989C315.934 227.334 287.74 238.218 274.08 243.626C258.608 249.751 216.101 265.658 202.448 270.759C215.119 266.647 253.273 254.086 279.409 243.534C289.175 239.591 311.771 229.906 325.794 223.869C323.939 224.736 321.755 225.753 319.352 226.867C305.615 232.765 287.916 240.32 279.564 243.692Z" fill="#BC985E"/>
<path d="M332.134 220.893L305.586 231.768C296.738 235.382 287.906 239.03 279.012 242.552C270.138 246.074 261.104 249.45 252.106 252.85L225.058 263.012C234.113 259.775 243.165 256.492 252.204 253.149C261.244 249.805 270.275 246.426 279.279 242.887C288.229 239.307 297.061 235.665 305.865 231.995C314.668 228.326 323.421 224.623 332.134 220.893Z" fill="#BC985E"/>
<path d="M203.043 270.182C213.595 266.188 224.144 262.174 234.68 258.136C245.21 254.099 255.759 250.05 266.252 245.98C276.723 241.879 287.248 237.838 297.771 233.814C303.033 231.8 308.302 229.799 313.579 227.824C318.853 225.842 324.138 223.867 329.442 222.019C318.834 225.598 308.208 229.569 297.646 233.524C287.074 237.497 276.541 241.544 266.019 245.631L234.508 257.865C224.01 261.948 213.524 266.054 203.043 270.182Z" fill="#DCB88C"/>
<path d="M378.67 223.173C378.67 223.173 348.871 233.87 313.272 248.313C277.673 262.756 240.963 276.607 240.705 277.217C240.448 277.827 248.704 275.547 263.496 270.776C278.287 266.005 311.039 254.117 328.4 246.741C345.762 239.364 378.67 223.173 378.67 223.173Z" fill="#BC985E"/>
<path d="M263.496 270.776C249.436 275.31 241.375 277.563 240.824 277.254C254.257 273.055 280.154 264.727 300.028 256.923C320.85 248.746 359.227 231.763 377.657 223.539C378.275 223.315 378.67 223.173 378.67 223.173C378.67 223.173 345.763 239.364 328.401 246.74C311.039 254.115 278.289 266.004 263.496 270.776Z" fill="#BC985E"/>
<path d="M323.682 247.829C295.039 259.713 252.892 273.565 241.686 277.199C241.043 277.312 240.651 277.339 240.704 277.215C240.715 277.19 240.81 277.134 240.942 277.065C251.567 273.018 300.771 254.258 317.962 247.276C332.847 241.23 364.243 228.833 377.938 223.435C378.369 223.279 378.669 223.171 378.669 223.171C378.669 223.171 377.776 223.61 376.228 224.367C361.759 230.073 332.346 241.693 318.088 247.484C301.939 254.043 257.625 270.964 243.391 276.389C256.564 272.097 296.241 258.956 323.534 247.631C333.733 243.4 357.36 232.939 372.024 226.415C370.081 227.359 367.791 228.467 365.275 229.679C350.909 236.053 332.404 244.21 323.682 247.829Z" fill="#BC985E"/>
<path d="M378.669 223.174L350.938 234.863C341.697 238.747 332.468 242.672 323.185 246.443C313.921 250.217 304.504 253.808 295.121 257.427L266.92 268.243C276.352 264.818 285.783 261.34 295.205 257.789C304.627 254.236 314.043 250.643 323.439 246.857C332.782 243.018 342.01 239.101 351.21 235.148C360.409 231.196 369.558 227.201 378.669 223.174Z" fill="#BC985E"/>
<path d="M244.031 275.731C255.036 271.477 266.036 267.199 277.026 262.891C288.011 258.583 299.013 254.263 309.961 249.916C320.888 245.53 331.866 241.217 342.842 236.926C348.33 234.778 353.826 232.644 359.327 230.545C364.825 228.436 370.335 226.334 375.857 224.386C364.821 228.143 353.743 232.366 342.73 236.575C331.707 240.802 320.721 245.122 309.743 249.488L276.867 262.561C265.912 266.922 254.971 271.314 244.031 275.731Z" fill="#DCB88C"/>
<path d="M96.329 254.678C96.3319 254.641 144.818 252.468 166.731 247.433C191.615 241.714 222.509 228.78 238.575 218.474C238.914 218.256 232.846 224.238 219.393 231.681C199.531 242.671 176.688 250.559 153.17 254.272C134.906 257.155 96.329 254.678 96.329 254.678Z" fill="#BC985E"/>
<path d="M182.861 246.353C203.204 240.238 222.101 230.48 238.543 218.586C238.525 219.186 232.178 224.607 219.392 231.681C199.53 242.671 176.687 250.559 153.168 254.272C134.903 257.156 114.862 256.937 96.3271 254.679C96.3271 254.679 96.756 254.683 97.4295 254.689C126.232 256.682 155.809 254.482 182.861 246.353Z" fill="#BC985E"/>
<path d="M157.838 252.702C186.93 247.735 215.228 235.175 238.021 219.224C238.479 218.789 238.716 218.5 238.573 218.472C238.544 218.466 238.441 218.509 238.306 218.573C215.755 232.757 189.575 243.65 162.279 249.189C141.07 253.493 119.119 255.381 97.122 254.685C96.6532 254.681 96.3276 254.677 96.3276 254.677C96.3276 254.677 97.3344 254.799 99.0827 254.982C120.368 255.591 141.841 253.747 162.302 249.424C188.799 243.826 214.138 233.702 236.341 220.083C213.898 235.474 186.372 247.661 157.848 252.463C140.179 255.438 121.903 256.364 103.835 255.427C106.036 255.611 108.631 255.798 111.487 255.946C127.587 256.305 148.353 254.322 157.838 252.702Z" fill="#BC985E"/>
<path d="M96.3251 254.679C108.598 255.431 114.767 255.454 127.027 254.8C137.237 254.246 147.422 253.147 157.439 251.313C167.442 249.492 177.322 246.864 186.951 243.71C198.508 239.902 204.16 237.654 215.067 232.496C206.106 236.934 196.771 240.794 187.146 244.031C177.519 247.265 167.616 249.902 157.469 251.784C147.335 253.594 137.13 254.691 126.907 255.164C116.687 255.636 106.463 255.467 96.3251 254.679Z" fill="#BC985E"/>
<path d="M235.386 220.202C225.403 226.209 214.906 231.449 204.026 235.89C193.148 240.329 181.879 243.998 170.39 246.828C158.893 249.616 147.164 251.707 135.305 253.016C129.373 253.669 123.41 254.14 117.429 254.44C111.448 254.73 105.439 254.832 99.4485 254.874C111.377 254.665 123.402 254.059 135.232 252.664C147.08 251.28 158.792 249.197 170.288 246.368C184.059 242.978 190.822 240.81 203.875 235.554C214.753 231.183 225.291 226.066 235.386 220.202Z" fill="#DCB88C"/>
<path d="M122.506 222.185C122.506 222.185 162.352 220.607 283.624 220.495C343.396 220.439 438.711 226.547 459.567 228.228C461.965 228.422 461.645 223.777 458.935 223.581C421.982 220.919 193.735 210.154 122.506 222.185Z" fill="url(#paint0_linear_0_695)"/>
<path d="M157.594 220.198C157.594 220.198 126.559 224.225 88.8502 227.674C51.1423 231.124 12.6539 235.535 12.1889 235.146C11.7238 234.757 20.0633 233.083 35.2644 230.644C50.4655 228.204 84.6257 223.886 103.142 222.475C121.658 221.064 157.594 220.198 157.594 220.198Z" fill="#BC985E"/>
<path d="M35.2626 230.643C20.814 232.963 12.6618 234.576 12.28 235.065C26.0343 232.741 52.6389 228.449 73.5907 226.311C95.5436 224.072 136.73 221.508 156.535 220.332C157.181 220.25 157.592 220.197 157.592 220.197C157.592 220.197 121.656 221.064 103.14 222.475C84.6239 223.886 50.4645 228.204 35.2626 230.643Z" fill="#BC985E"/>
<path d="M98.4587 223.606C68.0187 226.166 24.6086 232.906 13.0851 234.738C12.4597 234.921 12.0956 235.067 12.1904 235.147C12.2097 235.162 12.3168 235.167 12.463 235.168C23.6173 233.922 75.2792 228.17 93.4919 226.509C109.26 225.073 142.387 221.751 156.833 220.296C157.283 220.238 157.595 220.198 157.595 220.198C157.595 220.198 156.62 220.221 154.932 220.266C139.669 221.803 108.631 224.909 93.5271 226.285C76.4181 227.844 29.8808 233.004 14.9372 234.67C28.4909 232.533 69.396 226.27 98.4007 223.83C109.24 222.919 134.599 221.344 150.351 220.393C148.233 220.454 145.739 220.529 143.002 220.617C127.576 221.564 107.727 222.826 98.4587 223.606Z" fill="#BC985E"/>
<path d="M157.593 220.198L128.054 222.526C118.214 223.311 108.369 224.058 98.535 224.954C88.717 225.839 78.8287 226.94 68.9611 228.003L39.3282 231.247C49.1657 230.004 59.0236 228.806 68.9002 227.671C78.778 226.537 88.6645 225.439 98.6086 224.508C108.525 223.641 118.364 222.889 128.193 222.178C138.018 221.466 147.817 220.81 157.593 220.198Z" fill="#BC985E"/>
<path d="M15.7644 234.935C27.3408 233.697 38.9221 232.48 50.5054 231.291C62.084 230.105 73.6839 228.92 85.2445 227.783C96.8005 226.686 108.375 225.506 119.94 224.309C125.723 223.713 131.506 223.102 137.285 222.461C143.062 221.829 148.848 221.185 154.586 220.412C143.169 222.071 131.539 223.365 119.972 224.645C108.389 225.913 96.8044 227.091 85.2092 228.226L50.4869 231.63C38.916 232.758 27.3433 233.858 15.7644 234.935Z" fill="#DCB88C"/>
<defs>
<linearGradient id="paint0_linear_0_695" x1="249.151" y1="220.836" x2="398.365" y2="225.784" gradientUnits="userSpaceOnUse">
<stop stop-color="#AF7F43"/>
<stop offset="1" stop-color="#DCB88C"/>
</linearGradient>
</defs>
</svg>
