<svg width="272" height="449" viewBox="0 0 272 449" fill="none" xmlns="http://www.w3.org/2000/svg">
<path d="M40.9384 220.977C40.9384 220.977 67.2769 209.033 98.5767 193.389C129.876 177.745 162.256 162.475 162.431 161.944C162.607 161.413 155.242 164.157 142.113 169.639C128.986 175.122 100.05 188.357 84.8192 196.262C69.5871 204.167 40.9384 220.977 40.9384 220.977Z" fill="#BC985E"/>
<path d="M142.113 169.64C154.591 164.428 161.78 161.728 162.318 161.926C150.383 166.795 127.396 176.373 109.898 184.892C91.5633 193.819 57.963 211.852 41.8337 220.569C41.2871 220.818 40.9384 220.977 40.9384 220.977C40.9384 220.977 69.5877 204.166 84.8191 196.263C100.05 188.357 128.984 175.122 142.113 169.64Z" fill="#BC985E"/>
<path d="M89.0487 194.87C114.206 182.064 151.586 166.23 161.529 162.06C162.109 161.899 162.467 161.836 162.431 161.945C162.424 161.967 162.342 162.023 162.228 162.094C152.859 166.544 109.479 187.172 94.3637 194.733C81.2772 201.28 53.6395 214.796 41.5834 220.684C41.2023 220.857 40.9377 220.978 40.9377 220.978C40.9377 220.978 41.7149 220.521 43.0632 219.734C55.8011 213.512 81.6921 200.845 94.2276 194.574C108.426 187.471 147.493 168.872 160.042 162.907C148.355 167.825 113.176 182.816 89.204 195.017C80.2464 199.577 59.56 210.685 46.7243 217.604C48.418 216.621 50.4123 215.467 52.6065 214.203C65.1827 207.439 81.3879 198.769 89.0487 194.87Z" fill="#BC985E"/>
<path d="M40.9384 220.975L65.2754 208.426C73.3869 204.254 81.4828 200.049 89.6444 195.965C97.7875 191.882 106.091 187.933 114.359 183.965L139.215 172.088C130.882 175.901 122.557 179.757 114.246 183.673C105.936 187.59 97.6341 191.541 89.3695 195.648C81.1589 199.794 73.0636 203.993 64.9966 208.218C56.9312 212.444 48.9145 216.698 40.9384 220.975Z" fill="#BC985E"/>
<path d="M159.521 163.518C149.825 168.18 140.135 172.862 130.457 177.566C120.785 182.27 111.096 186.986 101.462 191.719C91.8503 196.482 82.1838 201.189 72.5172 205.879C67.6842 208.226 62.8432 210.561 57.9931 212.87C53.1467 215.185 48.2883 217.497 43.405 219.681C53.1802 215.427 62.9469 210.784 72.6554 206.159C82.3718 201.517 92.0444 196.802 101.705 192.051L130.637 177.824C140.276 173.076 149.901 168.307 159.521 163.518Z" fill="#DCB88C"/>
<path d="M62.4009 219.892C62.4009 219.892 88.6398 209.485 119.889 195.703C151.138 181.921 183.422 168.554 183.619 168.045C183.816 167.535 176.506 169.863 163.45 174.592C150.394 179.321 121.563 190.865 106.343 197.857C91.1219 204.849 62.4009 219.892 62.4009 219.892Z" fill="#BC985E"/>
<path d="M163.447 174.594C175.857 170.1 182.993 167.805 183.508 168.023C171.643 172.21 148.782 180.468 131.323 187.952C113.029 195.793 79.4239 211.797 63.2901 219.538C62.7451 219.755 62.3978 219.893 62.3978 219.893C62.3978 219.893 91.1181 204.85 106.339 197.859C121.56 190.867 150.392 179.323 163.447 174.594Z" fill="#BC985E"/>
<path d="M110.534 196.697C135.661 185.395 172.848 171.713 182.738 168.114C183.311 167.985 183.663 167.94 183.623 168.044C183.614 168.065 183.532 168.116 183.417 168.18C174.075 172.079 130.813 190.152 115.723 196.814C102.658 202.581 75.0779 214.46 63.0477 219.634C62.6681 219.786 62.4043 219.891 62.4043 219.891C62.4043 219.891 63.1834 219.483 64.5347 218.779C77.2447 213.311 103.082 202.178 115.597 196.653C129.773 190.394 168.734 174.097 181.249 168.87C169.624 173.116 134.623 186.078 110.68 196.849C101.733 200.873 81.0429 210.73 68.2043 216.874C69.9014 215.995 71.9003 214.963 74.0983 213.834C86.6755 207.83 102.881 200.14 110.534 196.697Z" fill="#BC985E"/>
<path d="M62.4006 219.891L86.7171 208.801C94.8209 205.113 102.911 201.394 111.06 197.797C119.192 194.198 127.472 190.739 135.719 187.259L160.51 176.848C152.207 180.174 143.909 183.543 135.622 186.97C127.336 190.398 119.058 193.859 110.807 197.477C102.609 201.133 94.5182 204.846 86.4554 208.587C78.3938 212.324 70.3778 216.096 62.4006 219.891Z" fill="#BC985E"/>
<path d="M180.706 169.445C171.034 173.534 161.367 177.643 151.712 181.775C142.061 185.907 132.393 190.05 122.778 194.212C113.184 198.403 103.539 202.538 93.8949 206.656C89.0726 208.718 84.2436 210.766 79.407 212.789C74.5735 214.819 69.7287 216.844 64.8649 218.744C74.5951 215.056 84.3344 210.988 94.0159 206.935C103.707 202.866 113.358 198.724 123 194.546L151.875 182.034C161.494 177.86 171.102 173.662 180.706 169.445Z" fill="#DCB88C"/>
<path d="M108.095 221.332C108.095 221.332 132.032 213.46 160.613 202.849C189.193 192.237 218.675 182.051 218.878 181.608C219.08 181.164 212.442 182.849 200.555 186.365C188.669 189.881 162.362 198.628 148.425 204.045C134.491 209.461 108.095 221.332 108.095 221.332Z" fill="#BC985E"/>
<path d="M200.556 186.363C211.854 183.021 218.335 181.358 218.783 181.58C207.986 184.676 187.176 190.814 171.219 196.55C154.499 202.56 123.699 215.026 108.91 221.061C108.413 221.226 108.097 221.331 108.097 221.331C108.097 221.331 134.492 209.46 148.428 204.043C162.363 198.626 188.67 189.879 200.556 186.363Z" fill="#BC985E"/>
<path d="M152.221 203.235C175.215 194.505 209.082 184.3 218.086 181.621C218.604 181.536 218.92 181.516 218.878 181.606C218.87 181.625 218.794 181.665 218.688 181.716C210.155 184.69 170.641 198.486 156.838 203.614C144.887 208.056 119.678 217.168 108.682 221.136C108.336 221.251 108.094 221.33 108.094 221.33C108.094 221.33 108.81 221.008 110.052 220.453C121.67 216.26 145.287 207.719 156.733 203.465C169.7 198.645 205.287 186.204 216.717 182.215C206.132 185.378 174.251 195.058 152.34 203.376C144.154 206.485 125.19 214.163 113.422 218.951C114.982 218.259 116.818 217.446 118.836 216.558C130.367 211.88 145.218 205.893 152.221 203.235Z" fill="#BC985E"/>
<path d="M108.098 221.331L130.358 212.746C137.775 209.894 145.184 207.011 152.637 204.241C160.075 201.469 167.637 198.829 175.172 196.167L197.818 188.215C190.242 190.734 182.668 193.294 175.101 195.904C167.534 198.517 159.972 201.159 152.428 203.941C144.927 206.762 137.52 209.638 130.136 212.54C122.753 215.443 115.409 218.375 108.098 221.331Z" fill="#BC985E"/>
<path d="M216.207 182.697C207.371 185.825 198.536 188.969 189.712 192.136C180.891 195.302 172.056 198.477 163.266 201.673C154.492 204.896 145.678 208.065 136.864 211.22C132.457 212.799 128.045 214.367 123.627 215.911C119.212 217.462 114.787 219.007 110.351 220.441C119.218 217.675 128.114 214.57 136.958 211.475C145.81 208.366 154.632 205.192 163.446 201.983L189.843 192.377C198.639 189.17 207.425 185.942 216.207 182.697Z" fill="#DCB88C"/>
<path d="M116.152 221.503C116.152 221.503 141.133 218.201 171.185 213.067C201.237 207.932 232.095 203.384 232.376 202.985C232.657 202.586 225.822 203.013 213.489 204.267C201.157 205.521 173.685 209.244 158.987 211.985C144.289 214.727 116.152 221.503 116.152 221.503Z" fill="#BC985E"/>
<path d="M213.489 204.265C225.211 203.073 231.887 202.639 232.287 202.94C221.103 203.984 199.516 206.161 182.771 208.842C165.228 211.651 132.653 218.196 117.001 221.388C116.482 221.458 116.151 221.502 116.151 221.502C116.151 221.502 144.289 214.725 158.986 211.983C173.685 209.243 201.157 205.519 213.489 204.265Z" fill="#BC985E"/>
<path d="M162.87 211.891C187.082 207.571 222.254 203.815 231.599 202.85C232.123 202.863 232.438 202.9 232.38 202.982C232.368 202.998 232.286 203.025 232.172 203.054C223.236 204.398 181.85 210.635 167.336 213.119C154.771 215.27 128.309 219.555 116.769 221.418C116.407 221.466 116.156 221.5 116.156 221.5C116.156 221.5 116.92 221.316 118.243 221.001C130.435 219.032 155.227 215.013 167.263 212.952C180.898 210.618 218.173 204.982 230.145 203.18C219.157 204.328 186.035 207.937 162.963 212.052C154.341 213.59 134.285 217.624 121.834 220.15C123.494 219.757 125.449 219.299 127.597 218.8C139.793 216.34 155.496 213.206 162.87 211.891Z" fill="#BC985E"/>
<path d="M116.152 221.503L139.616 217.19C147.434 215.761 155.248 214.3 163.085 212.958C170.906 211.611 178.828 210.417 186.725 209.197L210.452 205.577C202.541 206.65 194.624 207.762 186.704 208.926C178.785 210.092 170.865 211.288 162.935 212.624C155.041 214.006 147.231 215.461 139.436 216.946C131.644 218.431 123.883 219.953 116.152 221.503Z" fill="#BC985E"/>
<path d="M229.551 203.562C220.288 204.998 211.025 206.453 201.767 207.93C192.513 209.407 183.242 210.891 174.012 212.403C164.794 213.945 155.544 215.427 146.299 216.894C141.676 217.63 137.049 218.353 132.422 219.053C127.795 219.759 123.161 220.458 118.537 221.045C127.763 219.969 137.08 218.565 146.344 217.162C155.618 215.747 164.876 214.262 174.132 212.741L201.852 208.19C211.088 206.668 220.319 205.124 229.551 203.562Z" fill="#DCB88C"/>
<path d="M98.2055 220.602C98.2055 220.602 125.05 228.696 157.183 239.979C189.318 251.262 222.414 261.886 222.666 262.458C222.919 263.029 215.508 261.448 202.205 257.953C188.901 254.457 159.393 245.433 143.708 239.608C128.023 233.783 98.2055 220.602 98.2055 220.602Z" fill="#BC985E"/>
<path d="M222.563 262.503C222.087 262.844 214.85 261.276 202.206 257.954C188.902 254.458 159.394 245.434 143.709 239.609C128.024 233.783 98.2069 220.602 98.2069 220.602C98.2069 220.602 98.5623 220.709 99.1199 220.88C115.785 227.446 150.483 240.978 169.268 247.314C187.197 253.361 210.487 259.457 222.563 262.503Z" fill="#BC985E"/>
<path d="M147.934 240.305C173.8 249.639 211.715 259.848 221.795 262.516C222.37 262.578 222.718 262.573 222.666 262.457C222.655 262.433 222.569 262.386 222.45 262.329C212.869 259.219 168.503 244.789 152.983 239.333C139.546 234.609 111.22 224.989 98.8646 220.801C98.4763 220.682 98.207 220.601 98.207 220.601C98.207 220.601 99.0156 220.959 100.418 221.573C113.472 225.999 140.01 235.019 152.88 239.543C167.458 244.669 207.417 257.688 220.252 261.861C208.403 258.706 172.705 248.996 148.058 240.102C138.848 236.779 117.485 228.442 104.225 223.238C105.986 224.005 108.059 224.904 110.339 225.886C123.326 230.968 140.056 237.462 147.934 240.305Z" fill="#BC985E"/>
<path d="M98.2056 220.601L123.255 229.814C131.602 232.875 139.94 235.975 148.319 238.921C156.682 241.871 165.174 244.633 173.635 247.426L199.066 255.757C190.568 253.157 182.069 250.505 173.575 247.782C165.081 245.057 156.592 242.293 148.11 239.34C139.674 236.332 131.338 233.24 123.025 230.109C114.713 226.983 106.441 223.809 98.2056 220.601Z" fill="#BC985E"/>
<path d="M219.656 261.27C209.732 257.986 199.809 254.679 189.895 251.342C179.986 248.005 170.059 244.657 160.181 241.279C150.32 237.861 140.415 234.519 130.514 231.197C125.563 229.534 120.607 227.886 115.646 226.27C110.687 224.645 105.72 223.028 100.746 221.561C110.68 224.36 120.669 227.609 130.599 230.847C140.54 234.104 150.451 237.452 160.358 240.846L190.024 251.008C199.907 254.402 209.783 257.825 219.656 261.27Z" fill="#DCB88C"/>
<path d="M83.2505 219.049C83.2505 219.049 109.507 228.883 140.833 242.246C172.16 255.608 204.489 268.375 204.704 268.962C204.918 269.549 197.627 267.487 184.581 263.128C171.535 258.769 142.68 247.833 127.41 240.994C112.141 234.155 83.2505 219.049 83.2505 219.049Z" fill="#BC985E"/>
<path d="M204.598 269.001C204.1 269.31 196.982 267.273 184.581 263.129C171.535 258.77 142.681 247.834 127.411 240.995C112.141 234.157 83.2506 219.051 83.2506 219.051C83.2506 219.051 83.5983 219.181 84.1435 219.388C100.343 227.03 134.081 242.804 152.411 250.357C169.906 257.564 192.747 265.172 204.598 269.001Z" fill="#BC985E"/>
<path d="M131.582 241.965C156.782 252.972 193.948 265.642 203.832 268.964C204.401 269.063 204.749 269.081 204.705 268.962C204.696 268.937 204.614 268.885 204.497 268.82C195.14 265.089 151.813 247.786 136.685 241.327C123.587 235.734 95.9493 224.279 83.8949 219.292C83.5155 219.149 83.251 219.05 83.251 219.05C83.251 219.05 84.0349 219.459 85.3935 220.165C98.1293 225.436 124.02 236.174 136.567 241.53C150.778 247.599 189.8 263.206 202.333 268.209C190.716 264.286 155.73 252.259 131.718 241.772C122.746 237.853 101.975 228.136 89.0836 222.075C90.79 222.956 92.8 223.989 95.0099 225.119C107.639 231.038 123.908 238.613 131.582 241.965Z" fill="#BC985E"/>
<path d="M83.2521 219.048L107.644 229.881C115.774 233.481 123.889 237.12 132.059 240.609C140.21 244.101 148.503 247.412 156.765 250.753L181.596 260.731C173.286 257.581 164.98 254.378 156.681 251.105C148.384 247.83 140.093 244.516 131.823 241.015C123.603 237.461 115.486 233.829 107.395 230.163C99.3064 226.497 91.2609 222.788 83.2521 219.048Z" fill="#BC985E"/>
<path d="M201.778 267.581C192.09 263.655 182.405 259.706 172.731 255.728C163.061 251.749 153.375 247.759 143.739 243.74C134.123 239.685 124.459 235.702 114.795 231.738C109.964 229.754 105.126 227.786 100.282 225.848C95.4403 223.902 90.5886 221.964 85.7226 220.174C95.452 223.618 105.206 227.513 114.904 231.395C124.609 235.295 134.281 239.285 143.943 243.321L172.88 255.402C182.522 259.435 192.152 263.496 201.778 267.581Z" fill="#DCB88C"/>
<path d="M216.127 180.141C216.127 180.174 174.014 184.94 155.222 190.625C133.882 197.082 107.733 210.18 94.3471 220.111C94.0642 220.321 98.9968 214.749 110.275 207.468C126.927 196.717 146.361 188.492 166.63 183.864C182.372 180.27 216.127 180.141 216.127 180.141Z" fill="#BC985E"/>
<path d="M141.232 192.522C123.872 199.054 107.987 208.675 94.3673 220.011C94.3472 219.488 99.5557 214.389 110.275 207.468C126.927 196.716 146.361 188.492 166.631 183.863C182.372 180.268 199.845 179.271 216.127 180.141C216.127 180.141 215.752 180.161 215.166 180.197C189.955 180.167 164.318 183.837 141.232 192.522Z" fill="#BC985E"/>
<path d="M162.658 185.507C137.607 191.558 113.698 204.176 94.7853 219.424C94.4122 219.829 94.2236 220.096 94.3498 220.112C94.3751 220.115 94.4623 220.073 94.5767 220.009C113.383 206.315 135.544 195.274 158.997 188.831C177.219 183.825 196.231 180.879 215.436 180.183C215.844 180.16 216.129 180.143 216.129 180.143C216.129 180.143 215.244 180.096 213.711 180.042C195.131 180.773 176.532 183.651 158.963 188.629C136.211 195.076 114.736 205.398 96.1994 218.578C114.839 203.839 138.098 191.591 162.664 185.718C177.882 182.079 193.748 180.189 209.544 179.935C207.616 179.905 205.343 179.896 202.846 179.936C188.799 180.575 170.824 183.534 162.658 185.507Z" fill="#BC985E"/>
<path d="M216.127 180.141C205.39 180.213 200.015 180.558 189.372 181.854C180.511 182.942 171.703 184.503 163.084 186.694C154.477 188.873 146.025 191.747 137.825 195.066C127.981 199.07 123.19 201.362 113.994 206.502C121.538 202.104 129.442 198.188 137.636 194.798C145.831 191.41 154.302 188.526 163.031 186.286C171.752 184.108 180.577 182.548 189.456 181.53C198.33 180.514 207.249 180.055 216.127 180.141Z" fill="#BC985E"/>
<path d="M97.0227 218.417C105.365 212.591 114.198 207.404 123.414 202.89C132.626 198.38 142.227 194.515 152.068 191.368C161.919 188.257 172.014 185.741 182.268 183.898C187.397 182.977 192.564 182.215 197.757 181.598C202.95 180.991 208.18 180.546 213.395 180.155C203.016 181.044 192.575 182.285 182.352 184.201C172.112 186.107 162.032 188.617 152.184 191.762C140.388 195.531 134.624 197.82 123.563 203.173C114.347 207.628 105.47 212.709 97.0227 218.417Z" fill="#DCB88C"/>
<path d="M-86.3816 222.387C-86.3816 222.387 -57.3732 208.461 -22.9037 190.212C11.5649 171.963 47.2259 154.155 47.4184 153.533C47.6108 152.912 39.4976 156.108 25.0382 162.499C10.5782 168.89 -21.2901 184.323 -38.0626 193.546C-54.8358 202.767 -86.3816 222.387 -86.3816 222.387Z" fill="#BC985E"/>
<path d="M25.04 162.499C38.7838 156.424 46.7034 153.279 47.2969 153.512C34.1501 159.186 8.83135 170.35 -10.4396 180.287C-30.6309 190.698 -67.6317 211.739 -85.3927 221.911C-85.9945 222.202 -86.3791 222.386 -86.3791 222.386C-86.3791 222.386 -54.8334 202.766 -38.0602 193.545C-21.2883 184.323 10.5792 168.889 25.04 162.499Z" fill="#BC985E"/>
<path d="M-33.4031 191.924C-5.6995 176.986 35.473 158.528 46.4251 153.667C47.064 153.48 47.4581 153.407 47.4183 153.534C47.4101 153.56 47.3203 153.625 47.1948 153.708C36.8771 158.898 -10.8984 182.956 -27.5441 191.776C-41.9552 199.413 -72.3931 215.177 -85.6703 222.045C-86.0898 222.247 -86.3816 222.388 -86.3816 222.388C-86.3816 222.388 -85.5259 221.856 -84.0413 220.938C-70.0137 213.681 -41.499 198.906 -27.6949 191.592C-12.0587 183.307 30.9663 161.615 44.7881 154.658C31.9156 160.391 -6.83257 177.865 -33.2305 192.1C-43.095 197.419 -65.875 210.379 -80.0091 218.452C-78.1443 217.305 -75.9475 215.958 -73.5326 214.483C-59.6848 206.588 -41.8401 196.473 -33.4031 191.924Z" fill="#BC985E"/>
<path d="M-86.3824 222.387L-59.5813 207.747C-50.6487 202.879 -41.7332 197.972 -32.7456 193.21C-23.778 188.447 -14.6337 183.841 -5.52743 179.213L21.8472 165.363C12.6695 169.808 3.49987 174.306 -5.65303 178.871C-14.8056 183.44 -23.9482 188.047 -33.049 192.838C-42.0906 197.674 -51.005 202.573 -59.889 207.502C-68.7702 212.432 -77.5984 217.395 -86.3824 222.387Z" fill="#BC985E"/>
<path d="M44.2145 155.372C33.536 160.808 22.864 166.268 12.207 171.755C1.5549 177.241 -9.11527 182.743 -19.7259 188.263C-30.3113 193.819 -40.9565 199.309 -51.6022 204.778C-56.9251 207.516 -62.2562 210.239 -67.5977 212.932C-72.9354 215.632 -78.2851 218.327 -83.6639 220.875C-72.8972 215.915 -62.1418 210.5 -51.4498 205.106C-40.7498 199.693 -30.0963 194.195 -19.4573 188.652L12.4052 172.057C23.0195 166.521 33.6197 160.959 44.2145 155.372Z" fill="#DCB88C"/>
<path d="M-0.0127253 219.2C-0.0127253 219.2 27.8506 207.154 60.9626 191.382C94.0747 175.609 128.33 160.211 128.517 159.677C128.703 159.143 120.912 161.912 107.025 167.443C93.1383 172.974 62.5291 186.322 46.4148 194.291C30.3004 202.259 -0.0127253 219.2 -0.0127253 219.2Z" fill="#BC985E"/>
<path d="M107.024 167.445C120.223 162.188 127.827 159.463 128.396 159.661C115.77 164.574 91.4547 174.236 72.9433 182.827C53.5473 191.827 17.9969 210.004 0.933293 218.79C0.354791 219.041 -0.0137117 219.201 -0.0137117 219.201C-0.0137117 219.201 30.3002 202.261 46.4138 194.292C62.5281 186.324 93.1367 172.977 107.024 167.445Z" fill="#BC985E"/>
<path d="M50.8884 192.887C77.5039 179.977 117.045 164.004 127.563 159.796C128.176 159.634 128.554 159.57 128.516 159.68C128.508 159.702 128.421 159.759 128.301 159.83C118.39 164.317 72.4983 185.118 56.5074 192.741C42.6628 199.341 13.4238 212.969 0.670302 218.905C0.267393 219.08 -0.0128227 219.201 -0.0128227 219.201C-0.0128227 219.201 0.809629 218.742 2.23622 217.949C15.7118 211.675 43.1023 198.903 56.3641 192.581C71.3845 185.42 112.714 166.666 125.99 160.65C113.628 165.611 76.414 180.733 51.0538 193.034C41.5776 197.631 19.6912 208.827 6.11035 215.801C7.90213 214.81 10.013 213.647 12.3335 212.373C25.6387 205.556 42.7833 196.817 50.8884 192.887Z" fill="#BC985E"/>
<path d="M-0.0125972 219.2L25.7352 206.55C34.3172 202.344 42.8828 198.104 51.5165 193.988C60.1315 189.871 68.9152 185.889 77.6621 181.888L103.958 169.913C95.1431 173.758 86.3352 177.647 77.5429 181.595C68.7508 185.545 59.9695 189.529 51.2265 193.671C42.5405 197.85 33.9761 202.083 25.4408 206.342C16.9082 210.6 8.42535 214.889 -0.0125972 219.2Z" fill="#BC985E"/>
<path d="M125.437 161.265C115.179 165.965 104.928 170.685 94.6904 175.429C84.4582 180.171 74.2089 184.927 64.0155 189.699C53.8472 194.502 43.6209 199.247 33.3948 203.977C28.2819 206.343 23.161 208.697 18.0296 211.025C12.9028 213.36 7.76376 215.69 2.59699 217.894C12.9378 213.603 23.2691 208.92 33.5396 204.257C43.8177 199.576 54.0523 194.824 64.272 190.033L94.8797 175.689C105.077 170.902 115.26 166.093 125.437 161.265Z" fill="#DCB88C"/>
<path d="M-34.6096 220.232C-34.6096 220.232 -4.56068 208.314 31.2259 192.53C67.0119 176.748 103.985 161.44 104.209 160.857C104.434 160.273 96.0627 162.94 81.1112 168.355C66.1596 173.771 33.1416 186.991 15.7117 194.998C-1.71829 203.004 -34.6096 220.232 -34.6096 220.232Z" fill="#BC985E"/>
<path d="M81.112 168.354C95.324 163.207 103.495 160.579 104.085 160.829C90.4978 165.623 64.3183 175.081 44.3232 183.651C23.3731 192.631 -15.1113 210.958 -33.5878 219.823C-34.2115 220.072 -34.6096 220.23 -34.6096 220.23C-34.6096 220.23 -1.71829 203.002 15.7117 194.996C33.1432 186.991 66.1604 173.77 81.112 168.354Z" fill="#BC985E"/>
<path d="M20.5117 193.669C49.2881 180.725 91.874 165.056 103.2 160.935C103.856 160.787 104.259 160.736 104.213 160.856C104.203 160.88 104.11 160.938 103.977 161.011C93.2789 165.476 43.7357 186.174 26.4536 193.803C11.4916 200.409 -20.0934 214.012 -33.8701 219.938C-34.304 220.111 -34.6064 220.231 -34.6064 220.231C-34.6064 220.231 -33.7136 219.764 -32.1661 218.958C-17.6101 212.696 11.9792 199.946 26.3108 193.62C42.5448 186.453 87.163 167.789 101.495 161.804C88.1818 166.667 48.0988 181.512 20.6786 193.845C10.4332 198.455 -13.2607 209.743 -27.9639 216.778C-26.0209 215.771 -23.7306 214.589 -21.2144 213.296C-6.80973 206.418 11.7485 197.611 20.5117 193.669Z" fill="#BC985E"/>
<path d="M-34.6074 220.231L-6.76072 207.529C2.52014 203.307 11.7855 199.048 21.1166 194.927C30.4278 190.806 39.9107 186.844 49.3555 182.858L77.7461 170.936C68.2375 174.745 58.7348 178.603 49.2456 182.527C39.7559 186.454 30.2762 190.418 20.828 194.559C11.4377 198.747 2.1743 202.999 -7.06015 207.282C-16.2918 211.565 -25.4717 215.884 -34.6074 220.231Z" fill="#BC985E"/>
<path d="M100.873 162.459C89.7967 167.142 78.726 171.847 67.6688 176.58C56.6172 181.311 45.5467 186.056 34.5352 190.822C23.5475 195.623 12.502 200.358 1.45784 205.075C-4.06439 207.435 -9.59405 209.782 -15.1341 212.098C-20.6695 214.423 -26.2178 216.742 -31.788 218.919C-20.6456 214.695 -9.49133 210.035 1.5963 205.395C12.6936 200.735 23.7479 195.992 34.7882 191.206L67.8552 176.878C78.8716 172.096 89.8748 167.288 100.873 162.459Z" fill="#DCB88C"/>
<path d="M6.73752 220.198C6.73752 220.198 34.1496 211.183 66.8811 199.031C99.6118 186.878 133.375 175.214 133.606 174.705C133.838 174.197 126.236 176.126 112.623 180.153C99.0103 184.18 68.8841 194.198 52.9244 200.401C36.9661 206.603 6.73752 220.198 6.73752 220.198Z" fill="#BC985E"/>
<path d="M112.624 180.153C125.563 176.326 132.984 174.42 133.496 174.674C121.133 178.221 97.2999 185.25 79.0253 191.818C59.8782 198.701 24.6061 212.976 7.6696 219.888C7.10011 220.077 6.73774 220.196 6.73774 220.196C6.73774 220.196 36.9663 206.602 52.9252 200.398C68.8845 194.198 99.0115 184.181 112.624 180.153Z" fill="#BC985E"/>
<path d="M57.2737 199.472C83.6071 189.475 122.391 177.788 132.703 174.72C133.296 174.623 133.657 174.599 133.61 174.703C133.601 174.724 133.513 174.771 133.392 174.829C123.62 178.237 78.3685 194.033 62.5617 199.908C48.8758 204.995 20.0059 215.43 7.41339 219.974C7.01686 220.105 6.74122 220.196 6.74122 220.196C6.74122 220.196 7.56187 219.827 8.98322 219.192C22.2881 214.39 49.3341 204.608 62.4431 199.736C77.2914 194.217 118.047 179.969 131.137 175.401C119.015 179.022 82.505 190.109 57.4132 199.635C48.0371 203.195 26.322 211.988 12.8445 217.472C14.6305 216.679 16.7329 215.747 19.0453 214.73C32.2469 209.374 49.2548 202.517 57.2737 199.472Z" fill="#BC985E"/>
<path d="M6.74139 220.197L32.2336 210.366C40.7293 207.099 49.2127 203.798 57.7469 200.625C66.2638 197.45 74.925 194.427 83.5546 191.38L109.489 182.273C100.812 185.158 92.1384 188.088 83.4735 191.078C74.8083 194.071 66.1493 197.096 57.5092 200.282C48.9188 203.511 40.4366 206.805 31.9799 210.13C23.5243 213.453 15.1139 216.811 6.74139 220.197Z" fill="#BC985E"/>
<path d="M130.551 175.954C120.431 179.535 110.315 183.137 100.209 186.762C90.1078 190.388 79.9902 194.025 69.9232 197.684C59.8761 201.375 49.7811 205.004 39.6875 208.617C34.6406 210.426 29.5877 212.221 24.5278 213.989C19.471 215.765 14.4035 217.535 9.32356 219.177C19.4776 216.009 29.6655 212.452 39.7931 208.909C49.9306 205.349 60.0334 201.713 70.1276 198.039L100.358 187.038C110.431 183.366 120.492 179.67 130.551 175.954Z" fill="#DCB88C"/>
<path d="M129.937 174.339C129.937 174.377 81.7105 179.834 60.1894 186.346C35.7501 193.74 5.80496 208.74 -9.52421 220.113C-9.84815 220.353 -4.19962 213.973 8.71646 205.634C27.7863 193.322 50.0428 183.902 73.2548 178.602C91.2812 174.486 129.937 174.339 129.937 174.339Z" fill="#BC985E"/>
<path d="M44.1689 188.518C24.2871 195.999 6.09688 207.018 -9.50154 219.999C-9.52438 219.399 -3.56045 213.56 8.71622 205.635C27.7861 193.322 50.0425 183.903 73.2545 178.603C91.2815 174.486 111.291 173.344 129.937 174.34C129.937 174.34 129.508 174.364 128.837 174.405C99.966 174.369 70.6051 178.571 44.1689 188.518Z" fill="#BC985E"/>
<path d="M68.6985 180.485C40.0108 187.415 12.6306 201.866 -9.0288 219.327C-9.45564 219.791 -9.67283 220.095 -9.52706 220.114C-9.49811 220.118 -9.39825 220.068 -9.2679 219.996C12.2692 204.314 37.6491 191.67 64.5061 184.291C85.3745 178.558 107.146 175.184 129.14 174.387C129.608 174.359 129.934 174.34 129.934 174.34C129.934 174.34 128.921 174.287 127.164 174.224C105.886 175.06 84.5876 178.357 64.4673 184.058C38.4117 191.442 13.8184 203.262 -7.41067 218.355C13.9361 201.475 40.5716 187.45 68.7039 180.724C86.1311 176.557 104.301 174.393 122.39 174.102C120.183 174.067 117.581 174.057 114.72 174.103C98.635 174.838 78.0514 178.225 68.6985 180.485Z" fill="#BC985E"/>
<path d="M129.938 174.339C117.643 174.422 111.486 174.817 99.2986 176.301C89.1498 177.547 79.0634 179.335 69.1931 181.843C59.3368 184.338 49.6579 187.63 40.2659 191.43C28.9942 196.015 23.5071 198.641 12.976 204.527C21.6151 199.491 30.6666 195.006 40.0501 191.124C49.4353 187.244 59.1363 183.941 69.1331 181.375C79.1201 178.881 89.2273 177.094 99.3944 175.929C109.558 174.766 119.77 174.241 129.938 174.339Z" fill="#BC985E"/>
<path d="M-6.46198 218.172C3.09102 211.501 13.208 205.561 23.7614 200.391C34.3118 195.226 45.306 190.8 56.5767 187.196C67.8583 183.634 79.418 180.753 91.1614 178.64C97.0349 177.587 102.952 176.713 108.899 176.007C114.848 175.31 120.835 174.802 126.809 174.353C114.922 175.371 102.965 176.793 91.2577 178.987C79.5306 181.171 67.9872 184.045 56.7092 187.647C43.2002 191.963 36.5995 194.585 23.9339 200.715C13.3781 205.817 3.21127 211.636 -6.46198 218.172Z" fill="#DCB88C"/>
<path d="M-124.526 221.986C-124.526 221.986 -95.5177 208.06 -61.0483 189.811C-26.5795 171.563 9.08137 153.754 9.27463 153.133C9.4671 152.511 1.35383 155.708 -13.1055 162.098C-27.5649 168.489 -59.4339 183.922 -76.2063 193.145C-92.981 202.367 -124.526 221.986 -124.526 221.986Z" fill="#BC985E"/>
<path d="M-13.1045 162.097C0.639282 156.023 8.55809 152.877 9.15232 153.11C-3.99448 158.785 -29.3132 169.949 -48.5841 179.886C-68.7754 190.297 -105.776 211.338 -123.537 221.509C-124.139 221.8 -124.524 221.985 -124.524 221.985C-124.524 221.985 -92.9779 202.365 -76.2047 193.143C-59.4323 183.921 -27.5645 168.489 -13.1045 162.097Z" fill="#BC985E"/>
<path d="M-71.5482 191.524C-43.844 176.585 -2.67152 158.126 8.28055 153.265C8.91942 153.078 9.31359 153.006 9.27374 153.133C9.26562 153.158 9.17574 153.224 9.04965 153.307C-1.26723 158.498 -49.0436 182.555 -65.6892 191.376C-80.1011 199.012 -110.538 214.776 -123.816 221.645C-124.235 221.847 -124.527 221.988 -124.527 221.988C-124.527 221.988 -123.671 221.455 -122.186 220.538C-108.159 213.281 -79.6441 198.506 -65.8401 191.191C-50.2038 182.906 -7.17891 161.214 6.64295 154.257C-6.23038 159.99 -44.9777 177.465 -71.3757 191.699C-81.2402 197.018 -104.02 209.978 -118.154 218.052C-116.289 216.905 -114.093 215.557 -111.678 214.083C-97.8299 206.187 -79.9847 196.072 -71.5482 191.524Z" fill="#BC985E"/>
<path d="M6.06997 154.97C-4.60853 160.407 -15.2805 165.866 -25.9375 171.354C-36.5896 176.84 -47.2598 182.341 -57.8703 187.862C-68.4558 193.417 -79.101 198.907 -89.7467 204.377C-95.0696 207.114 -100.401 209.838 -105.742 212.53C-111.079 215.232 -116.43 217.926 -121.808 220.474C-111.042 215.514 -100.286 210.099 -89.5944 204.705C-78.8943 199.291 -68.2409 193.794 -57.6018 188.251L-25.7394 171.655C-15.125 166.12 -4.52426 160.557 6.06997 154.97Z" fill="#DCB88C"/>
<path d="M-56.001 220.122C-56.001 220.122 -28.1385 208.077 4.97433 192.305C38.0864 176.532 72.3415 161.134 72.5282 160.6C72.715 160.066 64.924 162.835 51.037 168.366C37.15 173.897 6.54079 187.245 -9.57355 195.214C-25.6879 203.182 -56.001 220.122 -56.001 220.122Z" fill="#BC985E"/>
<path d="M51.0355 168.366C64.235 163.11 71.839 160.384 72.4072 160.582C59.782 165.495 35.4664 175.157 16.955 183.747C-2.44097 192.747 -37.9914 210.925 -55.055 219.711C-55.6335 219.962 -56.002 220.122 -56.002 220.122C-56.002 220.122 -25.6895 203.182 -9.57514 195.214C6.53921 187.246 37.1485 173.898 51.0355 168.366Z" fill="#BC985E"/>
<path d="M-5.09984 193.808C21.5156 180.898 61.0566 164.925 71.5743 160.717C72.1879 160.555 72.5653 160.491 72.5275 160.601C72.5196 160.623 72.4329 160.679 72.3124 160.751C62.402 165.238 16.51 186.039 0.519153 193.662C-13.3255 200.262 -42.5644 213.889 -55.318 219.826C-55.7203 220 -56.0011 220.122 -56.0011 220.122C-56.0011 220.122 -55.1787 219.663 -53.7521 218.87C-40.2765 212.596 -12.8854 199.823 0.375811 193.502C15.3962 186.341 56.7257 167.587 70.0016 161.571C57.6393 166.532 20.4257 181.654 -4.93453 193.955C-14.4107 198.552 -36.2971 209.748 -49.8771 216.722C-48.0854 215.732 -45.9745 214.568 -43.654 213.295C-30.3494 206.478 -13.2048 197.739 -5.09984 193.808Z" fill="#BC985E"/>
<path d="M-56.0009 220.122L-30.2533 207.471C-21.6713 203.264 -13.1063 199.025 -4.47202 194.908C4.14301 190.792 12.9267 186.81 21.6737 182.808L47.9689 170.834C39.154 174.679 30.3461 178.568 21.5538 182.517C12.7625 186.467 3.98042 190.45 -4.76256 194.592C-13.4486 198.772 -22.013 203.005 -30.5482 207.264C-39.0801 211.522 -47.5624 215.81 -56.0009 220.122Z" fill="#BC985E"/>
<path d="M69.4496 162.187C59.1919 166.888 48.9409 171.607 38.703 176.351C28.4707 181.094 18.2215 185.849 8.02801 190.622C-2.14024 195.424 -12.3665 200.169 -22.5934 204.898C-27.7063 207.265 -32.8278 209.619 -37.9586 211.947C-43.0855 214.282 -48.2245 216.612 -53.3913 218.816C-43.0505 214.525 -32.7191 209.842 -22.4487 205.179C-12.1706 200.498 -1.93676 195.745 8.28373 190.955L38.8906 176.61C49.0895 171.824 59.2726 167.016 69.4496 162.187Z" fill="#DCB88C"/>
<path d="M-102.588 221.006C-102.588 221.006 -73.5828 208.312 -39.0464 191.487C-4.51001 174.662 31.1754 158.351 31.391 157.726C31.6065 157.1 23.5239 159.934 9.09022 165.698C-5.34344 171.462 -37.2129 185.545 -54.0335 194.083C-70.8541 202.62 -102.588 221.006 -102.588 221.006Z" fill="#BC985E"/>
<path d="M9.0931 165.697C22.813 160.219 30.7018 157.425 31.2738 157.695C18.156 162.796 -7.11607 172.863 -26.414 181.998C-46.6336 191.569 -83.7697 211.116 -101.599 220.571C-102.202 220.837 -102.585 221.006 -102.585 221.006C-102.585 221.006 -70.8518 202.62 -54.0312 194.082C-37.2107 185.545 -5.34196 171.461 9.0931 165.697Z" fill="#BC985E"/>
<path d="M-49.4017 192.675C-21.6312 178.874 19.4788 162.195 30.412 157.809C31.0454 157.652 31.435 157.598 31.3903 157.727C31.3816 157.753 31.2905 157.815 31.1637 157.893C20.8378 162.651 -26.9792 184.707 -43.6577 192.839C-58.0975 199.88 -88.5811 214.38 -101.877 220.695C-102.296 220.879 -102.587 221.008 -102.587 221.008C-102.587 221.008 -101.726 220.509 -100.233 219.649C-86.1855 212.976 -57.6277 199.385 -43.796 192.641C-28.1289 185.001 14.9345 165.113 28.768 158.735C15.9165 163.91 -22.7774 179.713 -49.2389 192.864C-59.1268 197.777 -81.9902 209.818 -96.1784 217.321C-94.3033 216.247 -92.0946 214.986 -89.6659 213.607C-75.7676 206.272 -57.858 196.878 -49.4017 192.675Z" fill="#BC985E"/>
<path d="M-102.587 221.006L-75.7136 207.462C-66.7571 202.959 -57.8157 198.417 -48.8101 194.025C-39.8245 189.632 -30.6718 185.41 -21.5568 181.162L5.84597 168.458C-3.33154 172.515 -12.5043 176.625 -21.6635 180.808C-30.8224 184.991 -39.9719 189.215 -49.0908 193.63C-58.1528 198.095 -67.0925 202.628 -76.004 207.197C-84.9129 211.764 -93.7711 216.37 -102.587 221.006Z" fill="#BC985E"/>
<path d="M28.1694 159.435C17.4792 164.425 6.79456 169.441 -3.87785 174.484C-14.5447 179.528 -25.229 184.584 -35.8567 189.664C-46.4611 194.782 -57.1209 199.829 -67.7807 204.855C-73.1109 207.371 -78.4474 209.872 -83.7938 212.34C-89.1361 214.817 -94.4914 217.288 -99.8672 219.606C-89.1111 215.109 -78.3465 210.144 -67.645 205.198C-56.9339 200.232 -46.2658 195.177 -35.61 190.077L-3.69595 174.804C6.93693 169.708 17.5554 164.584 28.1694 159.435Z" fill="#DCB88C"/>
<path d="M73.9529 175.266C73.9528 175.304 25.7261 180.761 4.20498 187.272C-20.2342 194.667 -50.1794 209.666 -65.5086 221.04C-65.8325 221.28 -60.1834 214.899 -47.268 206.561C-28.1981 194.248 -5.94164 184.829 17.2703 179.529C35.2974 175.413 73.9529 175.266 73.9529 175.266Z" fill="#BC985E"/>
<path d="M-11.8163 189.445C-31.6975 196.925 -49.8883 207.944 -65.4859 220.925C-65.5088 220.326 -59.5448 214.487 -47.2682 206.561C-28.1983 194.249 -5.94185 184.83 17.2701 179.53C35.2972 175.413 55.307 174.271 73.9527 175.267C73.9527 175.267 73.5237 175.291 72.853 175.331C43.9808 175.295 14.6207 179.498 -11.8163 189.445Z" fill="#BC985E"/>
<path d="M12.7142 181.411C-15.9736 188.341 -43.3546 202.792 -65.0132 220.254C-65.44 220.717 -65.6572 221.022 -65.5122 221.041C-65.4824 221.045 -65.3834 220.995 -65.2522 220.923C-43.7151 205.241 -18.3352 192.596 8.52176 185.218C29.3902 179.484 51.1621 176.111 73.156 175.313C73.6238 175.286 73.9493 175.267 73.9493 175.267C73.9493 175.267 72.9371 175.214 71.1792 175.151C49.9026 175.988 28.6033 179.283 8.48235 184.986C-17.5726 192.368 -42.1666 204.189 -63.395 219.282C-42.0489 202.403 -15.4128 188.377 12.7195 181.65C30.1467 177.483 48.3165 175.32 66.406 175.028C64.1982 174.994 61.5965 174.984 58.7361 175.03C42.6506 175.764 22.067 179.152 12.7142 181.411Z" fill="#BC985E"/>
<path d="M73.953 175.265C61.6577 175.348 55.5013 175.743 43.3142 177.228C33.1654 178.474 23.079 180.262 13.2087 182.77C3.35314 185.266 -6.32708 188.558 -15.7185 192.357C-26.9908 196.942 -32.4773 199.567 -43.009 205.454C-34.3698 200.418 -25.3184 195.933 -15.9349 192.051C-6.54971 188.172 3.15127 184.869 13.1481 182.303C23.1359 179.809 33.2423 178.022 43.4094 176.857C53.5738 175.692 63.786 175.167 73.953 175.265Z" fill="#BC985E"/>
<path d="M-62.4464 219.099C-52.8934 212.428 -42.7764 206.488 -32.223 201.318C-21.6726 196.152 -10.6783 191.726 0.59228 188.123C11.874 184.561 23.4328 181.68 35.177 179.567C41.0497 178.513 46.9679 177.64 52.915 176.933C58.8633 176.237 64.851 175.729 70.8243 175.28C58.9375 176.298 46.9811 177.719 35.2733 179.914C23.5462 182.098 12.0028 184.972 0.724855 188.574C-12.7842 192.89 -19.3849 195.511 -32.0506 201.641C-42.6057 206.743 -52.7725 212.562 -62.4464 219.099Z" fill="#DCB88C"/>
<path d="M42.8605 220.512C42.8605 220.512 69.9008 230.769 102.125 244.406C134.35 258.043 167.628 271.238 167.838 271.757C168.047 272.276 160.523 270.003 147.075 265.36C133.627 260.717 103.914 249.335 88.2145 242.408C72.5138 235.48 42.8605 220.512 42.8605 220.512Z" fill="#BC985E"/>
<path d="M147.074 265.359C159.856 269.772 167.201 272.013 167.726 271.781C155.506 267.675 131.96 259.567 113.959 252.17C95.0974 244.418 60.4251 228.543 43.7782 220.862C43.2163 220.647 42.8592 220.511 42.8592 220.511C42.8592 220.511 72.5133 235.479 88.2133 242.407C103.913 249.334 133.625 260.716 147.074 265.359Z" fill="#BC985E"/>
<path d="M92.5227 243.529C118.439 254.721 156.743 268.164 166.931 271.698C167.52 271.822 167.881 271.862 167.838 271.755C167.83 271.734 167.745 271.683 167.626 271.62C157.995 267.77 113.4 249.921 97.8367 243.33C84.3635 237.623 55.9268 225.879 43.5236 220.764C43.1327 220.614 42.8612 220.511 42.8612 220.511C42.8612 220.511 43.6654 220.917 45.0603 221.617C58.165 227.022 84.8049 238.03 97.7108 243.497C112.329 249.689 152.493 265.785 165.394 270.945C153.42 266.774 117.364 254.035 92.6698 243.371C83.442 239.386 62.0959 229.607 48.8483 223.512C50.6001 224.385 52.6642 225.413 54.933 226.535C67.9112 232.493 84.6312 240.122 92.5227 243.529Z" fill="#BC985E"/>
<path d="M42.8622 220.512L67.943 231.499C76.302 235.152 84.6474 238.837 93.05 242.398C101.434 245.959 109.971 249.374 118.473 252.813L144.03 263.096C135.473 259.817 126.921 256.494 118.379 253.111C109.838 249.725 101.304 246.308 92.7965 242.73C84.3413 239.11 75.9968 235.432 67.6791 231.724C59.3622 228.017 51.0932 224.277 42.8622 220.512Z" fill="#BC985E"/>
<path d="M164.834 270.367C154.864 266.327 144.897 262.268 134.942 258.183C124.991 254.099 115.025 250.004 105.11 245.888C95.2167 241.741 85.2726 237.654 75.3295 233.585C70.3579 231.547 65.3795 229.523 60.3931 227.525C55.4107 225.52 50.4163 223.521 45.4048 221.648C55.429 225.276 65.4696 229.294 75.4498 233.297C85.4392 237.316 95.3906 241.411 105.333 245.543L135.104 257.916C145.024 262.042 154.93 266.194 164.834 270.367Z" fill="#DCB88C"/>
<path d="M58.6264 219.52C58.6264 219.52 85.4701 228.249 117.527 240.031C149.584 251.812 182.648 263.114 182.877 263.61C183.105 264.107 175.663 262.243 162.334 258.349C149.005 254.454 119.503 244.753 103.871 238.736C88.2396 232.721 58.6264 219.52 58.6264 219.52Z" fill="#BC985E"/>
<path d="M162.337 258.349C175.005 262.051 182.272 263.89 182.772 263.641C170.667 260.212 147.332 253.413 129.433 247.046C110.681 240.375 76.1328 226.527 59.5423 219.819C58.9852 219.636 58.6293 219.52 58.6293 219.52C58.6293 219.52 88.2424 232.721 103.874 238.736C119.506 244.753 149.007 254.454 162.337 258.349Z" fill="#BC985E"/>
<path d="M108.125 239.628C133.917 249.321 171.893 260.628 181.99 263.596C182.57 263.689 182.924 263.711 182.878 263.609C182.868 263.589 182.783 263.544 182.664 263.486C173.094 260.185 128.778 244.879 113.297 239.184C99.8938 234.253 71.6193 224.139 59.2861 219.734C58.8981 219.607 58.6278 219.519 58.6278 219.519C58.6278 219.519 59.4314 219.876 60.8241 220.494C73.8544 225.149 100.343 234.628 113.182 239.351C127.724 244.702 167.637 258.507 180.457 262.933C168.587 259.43 132.837 248.703 108.261 239.466C99.0783 236.014 77.8071 227.483 64.6065 222.163C66.3554 222.932 68.4157 223.837 70.6807 224.824C83.6118 230.024 100.271 236.676 108.125 239.628Z" fill="#BC985E"/>
<path d="M58.6272 219.521L83.595 229.055C91.9155 232.223 100.225 235.424 108.584 238.5C116.926 241.577 125.408 244.507 133.858 247.46L159.258 256.285C150.761 253.49 142.267 250.652 133.78 247.755C125.294 244.856 116.814 241.924 108.352 238.836C99.9385 235.704 91.6304 232.51 83.3476 229.286C75.0666 226.064 66.8288 222.806 58.6272 219.521Z" fill="#BC985E"/>
<path d="M179.881 262.398C169.97 258.928 160.063 255.438 150.166 251.924C140.273 248.41 130.364 244.885 120.505 241.339C110.666 237.761 100.779 234.244 90.8941 230.742C85.9516 228.99 81.0029 227.25 76.0477 225.536C71.0958 223.815 66.1332 222.1 61.1584 220.511C71.1013 223.577 81.0783 227.022 90.9975 230.456C100.926 233.905 110.82 237.429 120.706 240.991L150.313 251.655C160.177 255.212 170.03 258.795 179.881 262.398Z" fill="#DCB88C"/>
<path d="M122.797 221.388C122.797 221.388 147.183 227.733 176.376 236.519C205.569 245.305 235.636 253.609 235.866 254.039C236.096 254.469 229.364 253.207 217.28 250.448C205.195 247.689 178.388 240.621 164.138 236.095C149.888 231.569 122.797 221.388 122.797 221.388Z" fill="#BC985E"/>
<path d="M217.283 250.449C228.769 253.071 235.342 254.322 235.775 254.072C224.805 251.663 203.647 246.851 187.36 242.134C170.295 237.191 138.769 226.696 123.628 221.606C123.121 221.473 122.798 221.388 122.798 221.388C122.798 221.388 149.891 231.569 164.14 236.094C178.391 240.622 205.198 247.69 217.283 250.449Z" fill="#BC985E"/>
<path d="M167.976 236.663C191.476 243.922 225.919 251.97 235.075 254.075C235.597 254.127 235.913 254.127 235.866 254.039C235.857 254.022 235.779 253.986 235.67 253.942C226.966 251.512 186.66 240.24 172.561 235.991C160.354 232.313 134.619 224.811 123.395 221.545C123.042 221.453 122.797 221.389 122.797 221.389C122.797 221.389 123.532 221.665 124.806 222.14C136.666 225.591 160.775 232.624 172.468 236.148C185.712 240.138 222.014 250.309 233.673 253.568C222.909 251.08 190.481 243.431 168.09 236.513C159.722 233.928 140.314 227.461 128.266 223.426C129.866 224.018 131.75 224.714 133.82 225.473C145.62 229.414 160.82 234.452 167.976 236.663Z" fill="#BC985E"/>
<path d="M122.797 221.388L145.553 228.551C153.137 230.929 160.712 233.338 168.325 235.632C175.922 237.929 183.637 240.088 191.325 242.267L214.428 248.774C206.709 246.737 198.988 244.662 191.271 242.534C183.554 240.403 175.842 238.245 168.136 235.944C160.472 233.603 152.899 231.2 145.345 228.769C137.793 226.34 130.279 223.877 122.797 221.388Z" fill="#BC985E"/>
<path d="M233.132 253.118C224.115 250.555 215.101 247.974 206.095 245.372C197.092 242.768 188.074 240.158 179.1 237.523C170.141 234.861 161.143 232.254 152.148 229.663C147.65 228.365 143.147 227.078 138.641 225.817C134.136 224.548 129.623 223.285 125.106 222.134C134.13 224.335 143.204 226.872 152.225 229.402C161.256 231.945 170.261 234.556 179.26 237.202L206.211 245.123C215.191 247.768 224.162 250.434 233.132 253.118Z" fill="#DCB88C"/>
<path d="M-89.9552 221.07C-89.9552 221.07 -60.1254 233.137 -24.5731 249.173C10.9793 265.209 47.6934 280.73 47.9249 281.338C48.157 281.947 39.8568 279.269 25.0231 273.805C10.1887 268.339 -22.5899 254.949 -39.9123 246.804C-57.234 238.658 -89.9552 221.07 -89.9552 221.07Z" fill="#BC985E"/>
<path d="M25.0248 273.803C39.1253 278.997 47.2268 281.637 47.8049 281.367C34.326 276.534 8.3528 266.99 -11.5072 258.29C-32.3153 249.174 -70.5712 230.511 -88.9388 221.481C-89.5584 221.228 -89.9527 221.069 -89.9527 221.069C-89.9527 221.069 -57.2315 238.657 -39.9092 246.802C-22.5882 254.947 10.1903 268.337 25.0248 273.803Z" fill="#BC985E"/>
<path d="M-35.159 248.127C-6.56666 261.286 35.689 277.109 46.9258 281.268C47.5758 281.414 47.9735 281.462 47.9261 281.338C47.9164 281.313 47.8223 281.253 47.6915 281.179C37.067 276.65 -12.133 255.657 -29.3017 247.906C-44.1664 241.195 -75.5386 227.384 -89.223 221.367C-89.6544 221.192 -89.9546 221.07 -89.9546 221.07C-89.9546 221.07 -89.0663 221.547 -87.5273 222.37C-73.0692 228.727 -43.6787 241.673 -29.4404 248.1C-13.3123 255.382 30.9964 274.314 45.2298 280.384C32.0204 275.475 -7.75334 260.482 -34.9976 247.942C-45.1776 243.256 -68.7313 231.761 -83.3469 224.596C-81.4141 225.623 -79.1365 226.828 -76.633 228.149C-62.3136 235.151 -43.8657 244.119 -35.159 248.127Z" fill="#BC985E"/>
<path d="M-89.9538 221.068L-62.2817 233.987C-53.0588 238.281 -43.8521 242.615 -34.5812 246.801C-25.3308 250.988 -15.9133 255.007 -6.53385 259.05L21.6609 271.145C12.2208 267.288 2.78527 263.377 -6.63779 259.398C-16.0604 255.417 -25.4753 251.396 -34.861 247.189C-44.1895 242.933 -53.3964 238.608 -62.573 234.248C-71.7491 229.892 -80.8727 225.495 -89.9538 221.068Z" fill="#BC985E"/>
<path d="M44.6065 279.706C33.606 274.955 22.6108 270.18 11.6283 265.376C0.651028 260.573 -10.3451 255.757 -21.2831 250.916C-32.1979 246.041 -43.1688 241.233 -54.1383 236.446C-59.6227 234.05 -65.1151 231.669 -70.6164 229.319C-76.1137 226.961 -81.6231 224.608 -87.1522 222.406C-76.0936 226.676 -65.0179 231.402 -54.0065 236.109C-42.9862 240.837 -32.0067 245.651 -21.0383 250.512L11.8086 265.061C22.7507 269.917 33.6808 274.8 44.6065 279.706Z" fill="#DCB88C"/>
<path d="M-3.56137 218.802C-3.56137 218.802 25.0061 229.064 59.0484 242.714C93.0907 256.365 128.249 269.57 128.469 270.09C128.689 270.612 120.739 268.339 106.531 263.696C92.3226 259.053 60.9309 247.664 44.3465 240.729C27.7607 233.794 -3.56137 218.802 -3.56137 218.802Z" fill="#BC985E"/>
<path d="M106.532 263.695C120.037 268.109 127.798 270.349 128.353 270.115C115.443 266.009 90.5663 257.9 71.5482 250.497C51.6221 242.739 14.9963 226.844 -2.58894 219.151C-3.18221 218.937 -3.56067 218.8 -3.56067 218.8C-3.56067 218.8 27.7622 233.793 44.3466 240.728C60.9331 247.663 92.3235 259.052 106.532 263.695Z" fill="#BC985E"/>
<path d="M48.9003 241.849C76.2779 253.052 116.748 266.498 127.511 270.033C128.133 270.156 128.515 270.196 128.469 270.089C128.461 270.068 128.371 270.017 128.245 269.953C118.071 266.1 70.957 248.239 54.5169 241.641C40.2835 235.927 10.2426 224.173 -2.8606 219.054C-3.2735 218.905 -3.56078 218.801 -3.56078 218.801C-3.56078 218.801 -2.71081 219.209 -1.23675 219.909C12.6079 225.319 40.7508 236.337 54.3847 241.809C69.8275 248.007 112.258 264.115 125.888 269.28C113.236 265.109 75.1423 252.367 49.056 241.691C39.3086 237.702 16.7588 227.911 2.76502 221.808C4.61544 222.683 6.7951 223.711 9.19194 224.836C22.9009 230.799 40.5632 238.437 48.9003 241.849Z" fill="#BC985E"/>
<path d="M-3.56028 218.802L22.9353 229.802C31.7661 233.458 40.5812 237.148 49.4584 240.712C58.3158 244.276 67.3339 247.694 76.3159 251.137L103.315 261.427C94.2746 258.146 85.2387 254.821 76.2156 251.436C67.1923 248.049 58.1766 244.627 49.1895 241.046C40.2568 237.423 31.4418 233.74 22.6551 230.028C13.8701 226.317 5.13403 222.572 -3.56028 218.802Z" fill="#BC985E"/>
<path d="M125.294 268.699C114.761 264.656 104.231 260.593 93.7154 256.505C83.2031 252.418 72.6743 248.319 62.2006 244.2C51.7492 240.049 41.2436 235.958 30.7394 231.885C25.4874 229.846 20.2278 227.82 14.9602 225.82C9.69596 223.814 4.42044 221.813 -0.874947 219.94C9.71634 223.569 20.3227 227.59 30.8665 231.596C41.4197 235.618 51.9334 239.715 62.4357 243.852L93.888 256.235C104.366 260.367 114.833 264.523 125.294 268.699Z" fill="#DCB88C"/>
<path d="M-38.1509 219.954C-38.1509 219.954 -7.40875 229.951 29.3018 243.443C66.0131 256.935 103.879 269.877 104.14 270.445C104.401 271.014 95.8785 268.881 80.6146 264.42C65.3507 259.959 31.5646 248.851 13.6633 241.96C-4.23798 235.07 -38.1509 219.954 -38.1509 219.954Z" fill="#BC985E"/>
<path d="M80.6173 264.419C95.126 268.659 103.447 270.765 104.02 270.478C90.1561 266.552 63.4327 258.766 42.9368 251.475C21.4617 243.835 -18.1036 227.975 -37.1027 220.294C-37.7408 220.085 -38.1482 219.952 -38.1482 219.952C-38.1482 219.952 -4.23588 235.069 13.666 241.959C31.5665 248.848 65.352 259.958 80.6173 264.419Z" fill="#BC985E"/>
<path d="M18.5353 242.981C48.0717 254.083 91.5618 267.031 103.126 270.429C103.79 270.535 104.195 270.561 104.141 270.444C104.131 270.421 104.033 270.368 103.897 270.304C92.9377 266.523 42.1868 248.995 24.4574 242.473C9.10806 236.825 -23.2721 225.243 -37.3965 220.199C-37.8411 220.054 -38.1508 219.953 -38.1508 219.953C-38.1508 219.953 -37.2306 220.362 -35.6352 221.069C-20.7128 226.399 9.62174 237.256 24.3255 242.665C40.9792 248.792 86.687 264.602 101.369 269.671C87.7752 265.659 46.8347 253.374 18.6911 242.797C8.17483 238.844 -16.1841 229.074 -31.3024 222.981C-29.2993 223.862 -26.9397 224.898 -24.3467 226.028C-9.53737 231.982 9.54138 239.6 18.5353 242.981Z" fill="#BC985E"/>
<path d="M-38.1519 219.953L-9.55846 230.871C-0.0296536 234.5 9.48606 238.165 19.0588 241.688C28.612 245.213 38.3256 248.567 48.0028 251.949L77.0892 262.055C67.3592 258.855 57.6313 255.604 47.9132 252.287C38.1956 248.967 28.4831 245.61 18.7929 242.072C9.15768 238.487 -0.356523 234.827 -9.8429 231.136C-19.3269 227.445 -28.7606 223.715 -38.1519 219.953Z" fill="#BC985E"/>
<path d="M100.71 269.057C89.3608 265.083 78.0152 261.086 66.681 257.061C55.3526 253.037 44.0041 249.001 32.7135 244.939C21.4455 240.841 10.1229 236.813 -1.19794 232.803C-6.85862 230.796 -12.5253 228.804 -18.2002 226.842C-23.8711 224.871 -29.5547 222.907 -35.2512 221.086C-23.8638 224.598 -12.4385 228.544 -1.07926 232.476C10.2901 236.425 21.6208 240.461 32.9427 244.54L66.8484 256.752C78.1444 260.828 89.4288 264.931 100.71 269.057Z" fill="#DCB88C"/>
<path d="M14.1847 219.51C14.1847 219.51 40.6181 231.085 72.048 246.288C103.479 261.491 135.982 276.307 136.165 276.835C136.347 277.363 128.963 274.721 115.794 269.421C102.625 264.121 73.5843 251.29 58.2854 243.601C42.9865 235.912 14.1847 219.51 14.1847 219.51Z" fill="#BC985E"/>
<path d="M115.796 269.42C128.313 274.457 135.52 277.058 136.054 276.854C124.082 272.151 101.025 262.892 83.4554 254.619C65.0477 245.951 31.2896 228.394 15.0842 219.905C14.5359 219.663 14.1859 219.51 14.1859 219.51C14.1859 219.51 42.9883 235.911 58.2872 243.6C73.5861 251.289 102.626 264.12 115.796 269.42Z" fill="#BC985E"/>
<path d="M62.523 244.934C87.7885 257.384 125.289 272.698 135.263 276.73C135.844 276.883 136.202 276.941 136.165 276.833C136.158 276.811 136.075 276.756 135.96 276.688C126.556 272.368 83.0073 252.35 67.829 245.002C54.6878 238.64 26.9375 225.513 14.8325 219.795C14.4507 219.627 14.1846 219.51 14.1846 219.51C14.1846 219.51 14.9661 219.956 16.3218 220.723C29.1107 226.766 55.1071 239.069 67.695 245.163C81.9528 252.065 121.171 270.116 133.77 275.906C122.046 271.15 86.7527 256.649 62.6779 244.787C53.6822 240.353 32.8986 229.54 20.0026 222.802C21.7049 223.762 23.7097 224.887 25.9152 226.119C38.5488 232.703 54.8292 241.143 62.523 244.934Z" fill="#BC985E"/>
<path d="M14.1843 219.51L38.6287 231.716C46.7758 235.775 54.9077 239.865 63.103 243.833C71.2805 247.802 79.6156 251.633 87.9164 255.486L112.87 267.013C104.506 263.316 96.1497 259.577 87.8074 255.778C79.4649 251.978 71.1317 248.144 62.8329 244.153C54.5876 240.123 46.4563 236.039 38.3531 231.928C30.2519 227.816 22.1974 223.674 14.1843 219.51Z" fill="#BC985E"/>
<path d="M133.237 275.301C123.503 270.775 113.774 266.231 104.058 261.661C94.3462 257.094 84.6199 252.514 74.9454 247.916C65.2935 243.288 55.5883 238.717 45.8833 234.164C41.0308 231.884 36.1713 229.618 31.3025 227.377C26.437 225.13 21.5607 222.887 16.6595 220.77C26.4678 224.888 36.2722 229.395 46.0173 233.883C55.771 238.388 65.4835 242.966 75.1837 247.582L104.234 261.402C113.912 266.013 123.578 270.647 133.237 275.301Z" fill="#DCB88C"/>
<path d="M-127.998 223.88C-127.998 223.88 -98.1677 235.947 -62.616 251.983C-27.0643 268.02 9.6504 283.54 9.88193 284.149C10.1141 284.757 1.81383 282.08 -13.0198 276.615C-27.8543 271.149 -60.6329 257.759 -77.9552 249.614C-95.277 241.469 -127.998 223.88 -127.998 223.88Z" fill="#BC985E"/>
<path d="M-13.0182 276.613C1.08236 281.807 9.18382 284.447 9.76197 284.177C-3.71637 279.343 -29.6901 269.8 -49.5501 261.1C-70.3588 251.985 -108.614 233.321 -126.982 224.291C-127.601 224.039 -127.996 223.879 -127.996 223.879C-127.996 223.879 -95.2745 241.467 -77.9521 249.612C-60.6312 257.757 -27.8532 271.148 -13.0182 276.613Z" fill="#BC985E"/>
<path d="M-73.202 250.936C-44.6096 264.095 -2.35397 279.918 8.88291 284.077C9.53287 284.223 9.9305 284.271 9.8831 284.147C9.87343 284.122 9.78014 284.063 9.64851 283.988C-0.975934 279.46 -50.176 258.466 -67.3446 250.715C-82.2093 244.004 -113.581 230.192 -127.266 224.177C-127.697 224.001 -127.998 223.879 -127.998 223.879C-127.998 223.879 -127.11 224.356 -125.57 225.179C-111.112 231.536 -81.7217 244.482 -67.4834 250.91C-51.3553 258.191 -7.04657 277.123 7.1868 283.194C-6.02254 278.284 -45.7963 263.291 -73.0406 250.751C-83.2205 246.065 -106.774 234.57 -121.39 227.405C-119.456 228.433 -117.179 229.638 -114.676 230.958C-100.357 237.961 -81.9092 246.929 -73.202 250.936Z" fill="#BC985E"/>
<path d="M6.56358 282.516C-4.43701 277.765 -15.4315 272.989 -26.4146 268.186C-37.3919 263.383 -48.3881 258.567 -59.3261 253.727C-70.2409 248.851 -81.2118 244.043 -92.1813 239.256C-97.6657 236.86 -103.158 234.479 -108.659 232.129C-114.156 229.77 -119.666 227.419 -125.195 225.217C-114.137 229.486 -103.06 234.213 -92.0495 238.92C-81.0292 243.647 -70.0496 248.462 -59.082 253.321L-26.2357 267.872C-15.2923 272.727 -4.3616 277.61 6.56358 282.516Z" fill="#DCB88C"/>
<path d="M-59.495 221.413C-59.495 221.413 -30.9275 231.675 3.1148 245.326C37.1571 258.976 72.3152 272.181 72.5353 272.701C72.7554 273.222 64.8051 270.951 50.5971 266.307C36.389 261.664 4.99728 250.275 -11.5871 243.34C-28.1715 236.405 -59.495 221.413 -59.495 221.413Z" fill="#BC985E"/>
<path d="M50.5994 266.307C64.1045 270.721 71.8654 272.961 72.4196 272.726C59.5091 268.62 34.6327 260.512 15.6146 253.108C-4.31145 245.351 -40.9381 229.454 -58.5225 221.763C-59.1158 221.548 -59.4943 221.412 -59.4943 221.412C-59.4943 221.412 -28.1714 236.404 -11.587 243.339C4.99954 250.275 36.3899 261.664 50.5994 266.307Z" fill="#BC985E"/>
<path d="M-7.03325 244.46C20.3444 255.664 60.8144 269.11 71.5774 272.644C72.2002 272.768 72.5811 272.807 72.5359 272.701C72.5274 272.679 72.4366 272.628 72.3114 272.564C62.1375 268.711 15.0234 250.85 -1.4167 244.252C-15.6501 238.539 -45.691 226.785 -58.7942 221.666C-59.2071 221.517 -59.4944 221.413 -59.4944 221.413C-59.4944 221.413 -58.6438 221.819 -57.1703 222.52C-43.3256 227.93 -15.1828 238.948 -1.54889 244.42C13.8939 250.618 56.3249 266.726 69.9539 271.892C57.3023 267.72 19.2087 254.978 -6.87761 244.303C-16.625 240.314 -39.1748 230.522 -53.1686 224.419C-51.3182 225.295 -49.1385 226.322 -46.7417 227.447C-33.0319 233.411 -15.3696 241.049 -7.03325 244.46Z" fill="#BC985E"/>
<path d="M-59.4939 221.413L-32.9983 232.413C-24.1675 236.07 -15.3524 239.759 -6.47516 243.323C2.38222 246.887 11.4003 250.306 20.3823 253.748L47.3813 264.039C38.3418 260.758 29.3051 257.432 20.282 254.047C11.2587 250.66 2.24305 247.239 -6.74412 243.657C-15.6768 240.035 -24.4918 236.351 -33.2785 232.639C-42.0635 228.928 -50.7988 225.184 -59.4939 221.413Z" fill="#BC985E"/>
<path d="M69.3616 271.311C58.8279 267.268 48.2986 263.204 37.7818 259.116C27.2703 255.03 16.7407 250.93 6.26698 246.811C-4.18435 242.661 -14.69 238.57 -25.1942 234.496C-30.4462 232.457 -35.7058 230.431 -40.9734 228.432C-46.2376 226.425 -51.5132 224.424 -56.8085 222.551C-46.2173 226.18 -35.6109 230.201 -25.067 234.207C-14.5139 238.23 -4.0002 242.327 6.50211 246.463L37.9544 258.847C48.4333 262.979 58.8996 267.134 69.3616 271.311Z" fill="#DCB88C"/>
<path d="M-106.045 223.472C-106.045 223.472 -76.297 234.31 -40.7668 248.921C-5.23666 263.533 31.4074 277.557 31.6621 278.168C31.9168 278.78 23.6716 276.461 8.9024 271.62C-5.86674 266.779 -38.5619 254.736 -55.888 247.277C-73.2149 239.818 -106.045 223.472 -106.045 223.472Z" fill="#BC985E"/>
<path d="M8.90254 271.619C22.9411 276.22 30.9909 278.511 31.5438 278.205C18.1308 273.942 -7.72691 265.492 -27.5635 257.594C-48.3467 249.319 -86.6428 232.155 -105.033 223.843C-105.651 223.616 -106.046 223.473 -106.046 223.473C-106.046 223.473 -73.2153 239.818 -55.8879 247.277C-38.5612 254.734 -5.86739 266.778 8.90254 271.619Z" fill="#BC985E"/>
<path d="M-51.1748 248.388C-22.5883 260.408 19.4925 274.458 30.6817 278.145C31.3242 278.262 31.7159 278.291 31.6633 278.166C31.6522 278.141 31.5579 278.084 31.4262 278.015C20.82 273.918 -28.2946 254.926 -45.4525 247.862C-60.3086 241.746 -91.6457 229.2 -105.315 223.737C-105.745 223.58 -106.045 223.47 -106.045 223.47C-106.045 223.47 -105.154 223.913 -103.609 224.678C-89.1675 230.452 -59.8098 242.211 -45.5796 248.069C-29.4612 254.705 14.7722 271.835 28.9805 277.327C15.8282 272.973 -23.7867 259.645 -51.0257 248.191C-61.2043 243.911 -84.7817 233.338 -99.4152 226.745C-97.4762 227.699 -95.1921 228.817 -92.6811 230.041C-78.3453 236.483 -59.8792 244.728 -51.1748 248.388Z" fill="#BC985E"/>
<path d="M-106.046 223.473L-78.3713 235.293C-69.1488 239.221 -59.9388 243.189 -50.6732 247.004C-41.4273 250.821 -32.0274 254.457 -22.6616 258.12L5.48736 269.07C-3.9281 265.6 -13.3419 262.078 -22.7473 258.482C-32.1523 254.885 -41.551 251.248 -50.9292 247.417C-60.2543 243.533 -69.4631 239.573 -78.6445 235.577C-87.8246 231.581 -96.955 227.543 -106.046 223.473Z" fill="#BC985E"/>
<path d="M28.3429 276.666C17.3588 272.36 6.37854 268.03 -4.59052 263.67C-15.5546 259.311 -26.5367 254.939 -37.4638 250.539C-48.3703 246.102 -59.3271 241.738 -70.2833 237.394C-75.7611 235.22 -81.2461 233.061 -86.7375 230.936C-92.2259 228.8 -97.7254 226.673 -103.238 224.699C-92.2203 228.508 -81.1623 232.783 -70.1698 237.044C-59.1669 241.323 -48.2006 245.695 -37.2439 250.113L-4.43003 263.341C6.50392 267.754 17.4247 272.198 28.3429 276.666Z" fill="#DCB88C"/>
<path d="M176.146 256.313C176.143 256.276 127.668 253.874 105.779 248.735C80.9219 242.898 50.0895 229.819 34.0728 219.437C33.7342 219.217 39.7743 225.228 53.1914 232.735C73.0011 243.818 95.8073 251.814 119.308 255.638C137.557 258.608 176.146 256.313 176.146 256.313Z" fill="#BC985E"/>
<path d="M89.6544 247.578C69.3408 241.368 50.4899 231.52 34.1045 219.549C34.1196 220.149 40.4407 225.6 53.1928 232.734C73.0025 243.818 95.8087 251.813 119.309 255.638C137.56 258.608 157.602 258.484 176.148 256.313C176.148 256.313 175.719 256.316 175.045 256.319C146.234 258.176 116.667 255.835 89.6544 247.578Z" fill="#BC985E"/>
<path d="M114.647 254.047C85.5789 248.942 57.3399 236.248 34.6226 220.189C34.1674 219.752 33.9315 219.462 34.0749 219.435C34.1034 219.429 34.2066 219.472 34.3412 219.537C56.825 233.828 82.9527 244.845 110.222 250.513C131.411 254.917 153.353 256.909 175.352 256.317C175.821 256.314 176.147 256.313 176.147 256.313C176.147 256.313 175.14 256.429 173.39 256.604C152.103 257.112 130.639 255.167 110.198 250.747C83.7283 245.024 58.4372 234.78 36.2987 221.056C58.6686 236.554 86.1364 248.87 114.638 253.807C132.293 256.866 150.563 257.878 168.636 257.027C166.435 257.2 163.839 257.374 160.981 257.51C144.88 257.793 124.124 255.711 114.647 254.047Z" fill="#BC985E"/>
<path d="M176.146 256.314C163.87 257.008 157.701 257.001 145.443 256.29C135.237 255.687 125.057 254.54 115.048 252.659C105.054 250.791 95.1867 248.116 85.5732 244.917C74.0338 241.053 68.3926 238.778 57.5102 233.569C66.4499 238.049 75.7671 241.954 85.3764 245.236C94.9876 248.515 104.878 251.199 115.016 253.129C125.141 254.988 135.341 256.133 145.562 256.654C155.779 257.175 166.004 257.054 176.146 256.314Z" fill="#BC985E"/>
<path d="M37.2552 221.18C47.2104 227.234 57.682 232.524 68.5413 237.016C79.3975 241.506 90.649 245.229 102.125 248.113C113.609 250.956 125.328 253.102 137.18 254.468C143.109 255.148 149.07 255.647 155.049 255.975C161.029 256.294 167.038 256.424 173.028 256.495C161.101 256.229 149.078 255.566 137.255 254.115C125.413 252.676 113.712 250.537 102.229 247.653C88.4748 244.199 81.7217 241.999 68.6939 236.681C57.8365 232.258 47.3225 227.092 37.2552 221.18Z" fill="#DCB88C"/>
<path d="M150.123 223.696C150.123 223.696 110.285 221.929 -10.9852 221.244C-70.7565 220.905 -166.099 226.563 -186.963 228.145C-189.362 228.327 -189.02 223.683 -186.309 223.501C-149.344 221.013 78.9515 211.328 150.123 223.696Z" fill="url(#paint0_linear_0_877)"/>
<path d="M115.049 221.544C115.049 221.544 146.065 225.718 183.757 229.345C221.448 232.974 259.915 237.566 260.382 237.18C260.849 236.793 252.517 235.079 237.328 232.568C222.139 230.057 187.999 225.577 169.49 224.078C150.98 222.58 115.049 221.544 115.049 221.544Z" fill="#BC985E"/>
<path d="M237.33 232.568C251.767 234.956 259.912 236.608 260.291 237.098C246.548 234.709 219.964 230.291 199.023 228.055C177.081 225.711 135.907 222.953 116.107 221.683C115.462 221.598 115.052 221.543 115.052 221.543C115.052 221.543 150.983 222.58 169.492 224.078C188.001 225.577 222.14 230.056 237.33 232.568Z" fill="#BC985E"/>
<path d="M174.168 225.231C204.595 227.936 247.973 234.881 259.488 236.768C260.112 236.953 260.476 237.101 260.38 237.18C260.361 237.196 260.254 237.2 260.108 237.2C248.959 235.901 197.325 229.905 179.121 228.158C163.359 226.647 130.248 223.169 115.809 221.645C115.36 221.586 115.048 221.544 115.048 221.544C115.048 221.544 116.023 221.571 117.711 221.625C132.967 223.234 163.989 226.486 179.087 227.934C196.188 229.574 242.7 234.954 257.636 236.69C244.092 234.489 203.217 228.033 174.225 225.456C163.39 224.493 138.038 222.799 122.292 221.773C124.409 221.844 126.903 221.931 129.639 222.032C145.06 223.052 164.903 224.408 174.168 225.231Z" fill="#BC985E"/>
<path d="M115.05 221.543L144.577 224.011C154.413 224.843 164.255 225.636 174.085 226.578C183.898 227.511 193.781 228.658 203.644 229.767L233.261 233.151C223.429 231.862 213.577 230.618 203.706 229.436C193.834 228.255 183.953 227.111 174.013 226.132C164.101 225.219 154.266 224.42 144.44 223.662C134.618 222.904 124.822 222.201 115.05 221.543Z" fill="#BC985E"/>
<path d="M256.807 236.951C245.236 235.658 233.661 234.386 222.083 233.143C210.511 231.902 198.916 230.662 187.361 229.47C175.811 228.318 164.241 227.084 152.683 225.833C146.902 225.209 141.122 224.571 135.347 223.902C129.572 223.243 123.79 222.572 118.056 221.771C129.465 223.484 141.089 224.834 152.649 226.169C164.226 227.491 175.805 228.724 187.395 229.914L222.1 233.481C233.666 234.665 245.233 235.82 256.807 236.951Z" fill="#DCB88C"/>
<defs>
<linearGradient id="paint0_linear_0_877" x1="23.4853" y1="221.748" x2="-125.75" y2="225.99" gradientUnits="userSpaceOnUse">
<stop stop-color="#AF7F43"/>
<stop offset="1" stop-color="#DCB88C"/>
</linearGradient>
</defs>
</svg>
