<svg width="45" height="45" viewBox="0 0 45 45" fill="none" xmlns="http://www.w3.org/2000/svg">
<rect x="0.375" y="0.375" width="44.25" height="44.25" rx="22.125" stroke="#DCB88C" stroke-width="0.75"/>
<path d="M27.9172 32.7188C27.1924 32.7188 26.5773 32.4654 26.072 31.9586C25.5674 31.4511 25.3152 30.8349 25.3152 30.1102C25.3152 30.0008 25.3633 29.7248 25.4595 29.2822L17.5878 24.6086C17.3516 24.8813 17.0624 25.0953 16.7205 25.2506C16.3785 25.4059 16.0114 25.4836 15.6191 25.4836C14.9001 25.4836 14.2891 25.2277 13.7859 24.7158C13.2828 24.2039 13.0312 23.5903 13.0312 22.875C13.0312 22.1597 13.2828 21.5461 13.7859 21.0342C14.2891 20.5223 14.9001 20.2664 15.6191 20.2664C16.0106 20.2664 16.3778 20.3441 16.7205 20.4994C17.0632 20.6547 17.3523 20.8691 17.5878 21.1425L25.4606 16.4886C25.4096 16.3471 25.3728 16.2068 25.3502 16.0675C25.3268 15.9275 25.3152 15.7846 25.3152 15.6387C25.3152 14.9147 25.5693 14.2989 26.0775 13.7914C26.5857 13.2846 27.2026 13.0312 27.9281 13.0312C28.6536 13.0312 29.2691 13.2854 29.7744 13.7936C30.2797 14.3018 30.532 14.9187 30.5312 15.6442C30.5305 16.3697 30.2771 16.9852 29.7711 17.4905C29.2651 17.9958 28.6489 18.2481 27.9227 18.2473C27.5274 18.2473 27.1629 18.1664 26.8289 18.0045C26.4949 17.8427 26.2106 17.625 25.9758 17.3516L18.1019 22.0252C18.1529 22.1666 18.1897 22.3073 18.2123 22.4473C18.2357 22.5866 18.2473 22.7292 18.2473 22.875C18.2473 23.0208 18.2357 23.1634 18.2123 23.3027C18.189 23.4419 18.1526 23.5827 18.103 23.7248L25.9758 28.3984C26.2113 28.125 26.4957 27.9073 26.8289 27.7455C27.1629 27.5836 27.5274 27.5027 27.9227 27.5027C28.6474 27.5027 29.2636 27.7564 29.7711 28.2639C30.2779 28.7729 30.5312 29.3901 30.5312 30.1156C30.5312 30.8411 30.2771 31.4566 29.7689 31.9619C29.2607 32.4672 28.6427 32.7195 27.9172 32.7188Z" fill="#DCB88C"/>
</svg>
