<svg width="38" height="39" viewBox="0 0 38 39" fill="none" xmlns="http://www.w3.org/2000/svg">
<g id="tabler:mail-filled" clip-path="url(#clip0_488_17)">
<g id="Group">
<path id="Vector" d="M34.3789 12.5225V27.3115C34.379 28.5072 33.9221 29.6576 33.1019 30.5276C32.2817 31.3975 31.16 31.9211 29.9664 31.9912L29.6914 31.999H7.81641C6.62076 31.9991 5.47029 31.5423 4.60037 30.722C3.73046 29.9018 3.20686 28.7801 3.13672 27.5865L3.12891 27.3115V12.5225L17.8867 22.3615L18.068 22.4646C18.2816 22.569 18.5162 22.6233 18.7539 22.6233C18.9916 22.6233 19.2262 22.569 19.4398 22.4646L19.6211 22.3615L34.3789 12.5225Z" fill="#DCB88C"/>
<path id="Vector_2" d="M29.6875 7.00098C31.375 7.00098 32.8547 7.8916 33.6797 9.23066L18.75 19.1838L3.82031 9.23066C4.21208 8.59436 4.75033 8.06098 5.39017 7.67501C6.03 7.28905 6.75286 7.06169 7.49844 7.01191L7.8125 7.00098H29.6875Z" fill="#DCB88C"/>
</g>
</g>
<defs>
<clipPath id="clip0_488_17">
<rect width="37.5" height="37.5" fill="white" transform="translate(0 0.75)"/>
</clipPath>
</defs>
</svg>
