<svg width="50" height="51" viewBox="0 0 50 51" fill="none" xmlns="http://www.w3.org/2000/svg">
<rect x="0.5" y="1.24805" width="49" height="49" rx="24.5" stroke="white"/>
<path d="M16.2374 24.636C21.0692 22.3781 24.2912 20.8895 25.9033 20.1703C30.5063 18.1168 31.4627 17.7601 32.0861 17.7482C32.2232 17.7457 32.5298 17.7821 32.7284 17.955C32.8961 18.1009 32.9422 18.2981 32.9643 18.4364C32.9864 18.5748 33.0139 18.89 32.992 19.1363C32.7426 21.9473 31.6633 28.769 31.1142 31.9175C30.8818 33.2497 30.4244 33.6964 29.9815 33.7401C29.0189 33.8351 28.288 33.0578 27.3558 32.4024C25.897 31.3767 25.0729 30.7383 23.6569 29.7374C22.0205 28.5808 23.0813 27.945 24.0139 26.9061C24.258 26.6342 28.4988 22.4968 28.5809 22.1215C28.5912 22.0745 28.6007 21.8996 28.5038 21.8072C28.4069 21.7148 28.2639 21.7464 28.1606 21.7715C28.0143 21.8071 25.6839 23.4592 21.1694 26.7279C20.5079 27.2151 19.9087 27.4524 19.3719 27.44C18.7801 27.4263 17.6417 27.0811 16.7955 26.786C15.7575 26.4242 14.9325 26.2328 15.0044 25.6182C15.0418 25.2981 15.4528 24.9707 16.2374 24.636Z" fill="white"/>
</svg>
