<svg width="50" height="51" viewBox="0 0 50 51" fill="none" xmlns="http://www.w3.org/2000/svg">
<rect x="0.5" y="1.24805" width="49" height="49" rx="24.5" stroke="white"/>
<path fill-rule="evenodd" clip-rule="evenodd" d="M31.3 19.3355C29.6125 17.648 27.3625 16.748 25 16.748C20.05 16.748 16 20.798 16 25.748C16 27.323 16.45 28.898 17.2375 30.248L16 34.748L20.725 33.5105C22.075 34.1855 23.5375 34.6355 25 34.6355C29.95 34.6355 34 30.5855 34 25.6355C34 23.273 32.9875 21.023 31.3 19.3355ZM25 33.173C23.65 33.173 22.3 32.8355 21.175 32.1605L20.95 32.048L18.1375 32.8355L18.925 30.1355L18.7 29.798C17.9125 28.5605 17.575 27.2105 17.575 25.8605C17.575 21.8105 20.95 18.4355 25 18.4355C27.025 18.4355 28.825 19.223 30.2875 20.573C31.75 22.0355 32.425 23.8355 32.425 25.8605C32.425 29.798 29.1625 33.173 25 33.173ZM29.05 27.548C28.825 27.4355 27.7 26.873 27.475 26.873C27.25 26.7605 27.1375 26.7605 27.025 26.9855C26.9125 27.2105 26.4625 27.6605 26.35 27.8855C26.2375 27.998 26.125 27.998 25.9 27.998C25.675 27.8855 25 27.6605 24.1 26.873C23.425 26.3105 22.975 25.523 22.8625 25.298C22.75 25.073 22.8625 24.9605 22.975 24.848C23.0875 24.7355 23.2 24.623 23.3125 24.5105C23.425 24.398 23.425 24.2855 23.5375 24.173C23.65 24.0605 23.5375 23.948 23.5375 23.8355C23.5375 23.723 23.0875 22.598 22.8625 22.148C22.75 21.8105 22.525 21.8105 22.4125 21.8105C22.3 21.8105 22.1875 21.8105 21.9625 21.8105C21.85 21.8105 21.625 21.8105 21.4 22.0355C21.175 22.2605 20.6125 22.823 20.6125 23.948C20.6125 25.073 21.4 26.0855 21.5125 26.3105C21.625 26.423 23.0875 28.7855 25.3375 29.6855C27.25 30.473 27.5875 30.248 28.0375 30.248C28.4875 30.248 29.3875 29.6855 29.5 29.2355C29.725 28.673 29.725 28.223 29.6125 28.223C29.5 27.6605 29.275 27.6605 29.05 27.548Z" fill="white"/>
</svg>
